<svg xmlns="http://www.w3.org/2000/svg" xmlns:xlink="http://www.w3.org/1999/xlink" contentStyleType="text/css" height="753px" preserveAspectRatio="none" style="width:1974px;height:753px;background:#FFFFFF;" version="1.1" viewBox="0 0 1974 753" width="1974px" zoomAndPan="magnify"><defs/><g><line style="stroke:#A2B4C6;stroke-width:0.5;stroke-dasharray:5.0,5.0;" x1="84" x2="84" y1="83.9766" y2="658.877"/><line style="stroke:#A2B4C6;stroke-width:0.5;stroke-dasharray:5.0,5.0;" x1="246" x2="246" y1="83.9766" y2="658.877"/><line style="stroke:#A2B4C6;stroke-width:0.5;stroke-dasharray:5.0,5.0;" x1="439.5" x2="439.5" y1="83.9766" y2="658.877"/><line style="stroke:#A2B4C6;stroke-width:0.5;stroke-dasharray:5.0,5.0;" x1="588.5" x2="588.5" y1="83.9766" y2="658.877"/><line style="stroke:#A2B4C6;stroke-width:0.5;stroke-dasharray:5.0,5.0;" x1="783" x2="783" y1="83.9766" y2="658.877"/><line style="stroke:#A2B4C6;stroke-width:0.5;stroke-dasharray:5.0,5.0;" x1="1210.5" x2="1210.5" y1="83.9766" y2="658.877"/><line style="stroke:#A2B4C6;stroke-width:0.5;stroke-dasharray:5.0,5.0;" x1="1376.5" x2="1376.5" y1="83.9766" y2="658.877"/><line style="stroke:#A2B4C6;stroke-width:0.5;stroke-dasharray:5.0,5.0;" x1="1531.5" x2="1531.5" y1="83.9766" y2="658.877"/><line style="stroke:#A2B4C6;stroke-width:0.5;stroke-dasharray:5.0,5.0;" x1="1903" x2="1903" y1="83.9766" y2="658.877"/><text fill="#000000" font-family="sans-serif" font-size="14" lengthAdjust="spacing" textLength="153" x="5" y="81.0234">Business Analyst / TPP</text><ellipse cx="84.5" cy="15.9883" fill="#E2E2F0" rx="8" ry="8" style="stroke:#181818;stroke-width:0.5;"/><path d="M84.5,23.9883 L84.5,50.9883 M71.5,31.9883 L97.5,31.9883 M84.5,50.9883 L71.5,65.9883 M84.5,50.9883 L97.5,65.9883 " fill="none" style="stroke:#181818;stroke-width:0.5;"/><text fill="#000000" font-family="sans-serif" font-size="14" lengthAdjust="spacing" textLength="153" x="5" y="671.4121">Business Analyst / TPP</text><ellipse cx="84.5" cy="682.8652" fill="#E2E2F0" rx="8" ry="8" style="stroke:#181818;stroke-width:0.5;"/><path d="M84.5,690.8652 L84.5,717.8652 M71.5,698.8652 L97.5,698.8652 M84.5,717.8652 L71.5,732.8652 M84.5,717.8652 L97.5,732.8652 " fill="none" style="stroke:#181818;stroke-width:0.5;"/><rect fill="#FFFFFF" height="46.9766" rx="2.5" ry="2.5" style="stroke:#A2B4C6;stroke-width:0.5;" width="123" x="185" y="36"/><text fill="#000000" font-family="sans-serif" font-size="14" lengthAdjust="spacing" textLength="109" x="192" y="56.5352">HITL Dashboard</text><text fill="#000000" font-family="sans-serif" font-size="14" lengthAdjust="spacing" textLength="61" x="216" y="73.0234">&#171;Next.js&#187;</text><rect fill="#FFFFFF" height="46.9766" rx="2.5" ry="2.5" style="stroke:#A2B4C6;stroke-width:0.5;" width="123" x="185" y="657.877"/><text fill="#000000" font-family="sans-serif" font-size="14" lengthAdjust="spacing" textLength="109" x="192" y="678.4121">HITL Dashboard</text><text fill="#000000" font-family="sans-serif" font-size="14" lengthAdjust="spacing" textLength="61" x="216" y="694.9004">&#171;Next.js&#187;</text><rect fill="#FFFFFF" height="46.9766" rx="2.5" ry="2.5" style="stroke:#A2B4C6;stroke-width:0.5;" width="108" x="385.5" y="36"/><text fill="#000000" font-family="sans-serif" font-size="14" lengthAdjust="spacing" textLength="83" x="398" y="56.5352">API Gateway</text><text fill="#000000" font-family="sans-serif" font-size="14" lengthAdjust="spacing" textLength="94" x="392.5" y="73.0234">&#171;Spring Boot&#187;</text><rect fill="#FFFFFF" height="46.9766" rx="2.5" ry="2.5" style="stroke:#A2B4C6;stroke-width:0.5;" width="108" x="385.5" y="657.877"/><text fill="#000000" font-family="sans-serif" font-size="14" lengthAdjust="spacing" textLength="83" x="398" y="678.4121">API Gateway</text><text fill="#000000" font-family="sans-serif" font-size="14" lengthAdjust="spacing" textLength="94" x="392.5" y="694.9004">&#171;Spring Boot&#187;</text><rect fill="#FFFFFF" height="46.9766" rx="2.5" ry="2.5" style="stroke:#A2B4C6;stroke-width:0.5;" width="171" x="503.5" y="36"/><text fill="#000000" font-family="sans-serif" font-size="14" lengthAdjust="spacing" textLength="147" x="515.5" y="56.5352">AI Gateway &amp; Security</text><text fill="#000000" font-family="sans-serif" font-size="14" lengthAdjust="spacing" textLength="157" x="510.5" y="73.0234">&#171;Pluggable Guardrails&#187;</text><rect fill="#FFFFFF" height="46.9766" rx="2.5" ry="2.5" style="stroke:#A2B4C6;stroke-width:0.5;" width="171" x="503.5" y="657.877"/><text fill="#000000" font-family="sans-serif" font-size="14" lengthAdjust="spacing" textLength="147" x="515.5" y="678.4121">AI Gateway &amp; Security</text><text fill="#000000" font-family="sans-serif" font-size="14" lengthAdjust="spacing" textLength="157" x="510.5" y="694.9004">&#171;Pluggable Guardrails&#187;</text><rect fill="#FFFFFF" height="46.9766" rx="2.5" ry="2.5" style="stroke:#A2B4C6;stroke-width:0.5;" width="174" x="696" y="36"/><text fill="#000000" font-family="sans-serif" font-size="14" lengthAdjust="spacing" textLength="160" x="703" y="56.5352">FteHarnessCoordinator</text><text fill="#000000" font-family="sans-serif" font-size="14" lengthAdjust="spacing" textLength="123" x="721.5" y="73.0234">&#171;Task Dispatcher&#187;</text><rect fill="#FFFFFF" height="46.9766" rx="2.5" ry="2.5" style="stroke:#A2B4C6;stroke-width:0.5;" width="174" x="696" y="657.877"/><text fill="#000000" font-family="sans-serif" font-size="14" lengthAdjust="spacing" textLength="160" x="703" y="678.4121">FteHarnessCoordinator</text><text fill="#000000" font-family="sans-serif" font-size="14" lengthAdjust="spacing" textLength="123" x="721.5" y="694.9004">&#171;Task Dispatcher&#187;</text><rect fill="#FFFFFF" height="46.9766" rx="2.5" ry="2.5" style="stroke:#A2B4C6;stroke-width:0.5;" width="205" x="1108.5" y="36"/><text fill="#000000" font-family="sans-serif" font-size="14" lengthAdjust="spacing" textLength="183" x="1119.5" y="56.5352">MockCorporateIdpAdapter</text><text fill="#000000" font-family="sans-serif" font-size="14" lengthAdjust="spacing" textLength="191" x="1115.5" y="73.0234">&#171;AgentIdentityProviderPort&#187;</text><rect fill="#FFFFFF" height="46.9766" rx="2.5" ry="2.5" style="stroke:#A2B4C6;stroke-width:0.5;" width="205" x="1108.5" y="657.877"/><text fill="#000000" font-family="sans-serif" font-size="14" lengthAdjust="spacing" textLength="183" x="1119.5" y="678.4121">MockCorporateIdpAdapter</text><text fill="#000000" font-family="sans-serif" font-size="14" lengthAdjust="spacing" textLength="191" x="1115.5" y="694.9004">&#171;AgentIdentityProviderPort&#187;</text><rect fill="#FFFFFF" height="46.9766" rx="2.5" ry="2.5" style="stroke:#A2B4C6;stroke-width:0.5;" width="107" x="1323.5" y="36"/><text fill="#000000" font-family="sans-serif" font-size="14" lengthAdjust="spacing" textLength="93" x="1330.5" y="56.5352">AgentFteData</text><text fill="#000000" font-family="sans-serif" font-size="14" lengthAdjust="spacing" textLength="69" x="1342.5" y="73.0234">&#171;Memory&#187;</text><rect fill="#FFFFFF" height="46.9766" rx="2.5" ry="2.5" style="stroke:#A2B4C6;stroke-width:0.5;" width="107" x="1323.5" y="657.877"/><text fill="#000000" font-family="sans-serif" font-size="14" lengthAdjust="spacing" textLength="93" x="1330.5" y="678.4121">AgentFteData</text><text fill="#000000" font-family="sans-serif" font-size="14" lengthAdjust="spacing" textLength="69" x="1342.5" y="694.9004">&#171;Memory&#187;</text><rect fill="#FFFFFF" height="46.9766" rx="2.5" ry="2.5" style="stroke:#A2B4C6;stroke-width:0.5;" width="182" x="1440.5" y="36"/><text fill="#000000" font-family="sans-serif" font-size="14" lengthAdjust="spacing" textLength="134" x="1464.5" y="56.5352">Temporal Workflow</text><text fill="#000000" font-family="sans-serif" font-size="14" lengthAdjust="spacing" textLength="168" x="1447.5" y="73.0234">&#171;Skill Evolution / Scrum&#187;</text><rect fill="#FFFFFF" height="46.9766" rx="2.5" ry="2.5" style="stroke:#A2B4C6;stroke-width:0.5;" width="182" x="1440.5" y="657.877"/><text fill="#000000" font-family="sans-serif" font-size="14" lengthAdjust="spacing" textLength="134" x="1464.5" y="678.4121">Temporal Workflow</text><text fill="#000000" font-family="sans-serif" font-size="14" lengthAdjust="spacing" textLength="168" x="1447.5" y="694.9004">&#171;Skill Evolution / Scrum&#187;</text><text fill="#000000" font-family="sans-serif" font-size="14" lengthAdjust="spacing" textLength="133" x="1834" y="64.5352">HashVault Manager</text><text fill="#000000" font-family="sans-serif" font-size="14" lengthAdjust="spacing" textLength="49" x="1876" y="81.0234">&#171;Vault&#187;</text><path d="M1885.5,15 C1885.5,5 1903.5,5 1903.5,5 C1903.5,5 1921.5,5 1921.5,15 L1921.5,41 C1921.5,51 1903.5,51 1903.5,51 C1903.5,51 1885.5,51 1885.5,41 L1885.5,15 " fill="#E2E2F0" style="stroke:#181818;stroke-width:1.5;"/><path d="M1885.5,15 C1885.5,25 1903.5,25 1903.5,25 C1903.5,25 1921.5,25 1921.5,15 " fill="none" style="stroke:#181818;stroke-width:1.5;"/><text fill="#000000" font-family="sans-serif" font-size="14" lengthAdjust="spacing" textLength="133" x="1834" y="671.4121">HashVault Manager</text><text fill="#000000" font-family="sans-serif" font-size="14" lengthAdjust="spacing" textLength="49" x="1876" y="687.9004">&#171;Vault&#187;</text><path d="M1885.5,700.8535 C1885.5,690.8535 1903.5,690.8535 1903.5,690.8535 C1903.5,690.8535 1921.5,690.8535 1921.5,700.8535 L1921.5,726.8535 C1921.5,736.8535 1903.5,736.8535 1903.5,736.8535 C1903.5,736.8535 1885.5,736.8535 1885.5,726.8535 L1885.5,700.8535 " fill="#E2E2F0" style="stroke:#181818;stroke-width:1.5;"/><path d="M1885.5,700.8535 C1885.5,710.8535 1903.5,710.8535 1903.5,710.8535 C1903.5,710.8535 1921.5,710.8535 1921.5,700.8535 " fill="none" style="stroke:#181818;stroke-width:1.5;"/><polygon fill="#438DD5" points="234.5,111.2871,244.5,115.2871,234.5,119.2871,238.5,115.2871" style="stroke:#438DD5;stroke-width:1.0;"/><line style="stroke:#438DD5;stroke-width:1.0;" x1="84.5" x2="240.5" y1="115.2871" y2="115.2871"/><text fill="#000000" font-family="sans-serif" font-size="13" lengthAdjust="spacing" textLength="138" x="91.5" y="110.5449">Submit Request / PRD</text><polygon fill="#438DD5" points="427.5,140.5977,437.5,144.5977,427.5,148.5977,431.5,144.5977" style="stroke:#438DD5;stroke-width:1.0;"/><line style="stroke:#438DD5;stroke-width:1.0;" x1="246.5" x2="433.5" y1="144.5977" y2="144.5977"/><text fill="#000000" font-family="sans-serif" font-size="13" lengthAdjust="spacing" textLength="169" x="253.5" y="139.8555">WebSocket Message (JSON)</text><polygon fill="#438DD5" points="577,169.9082,587,173.9082,577,177.9082,581,173.9082" style="stroke:#438DD5;stroke-width:1.0;"/><line style="stroke:#438DD5;stroke-width:1.0;" x1="439.5" x2="583" y1="173.9082" y2="173.9082"/><text fill="#000000" font-family="sans-serif" font-size="13" lengthAdjust="spacing" textLength="99" x="446.5" y="169.166">AI Intent Traffic</text><polygon fill="#438DD5" points="771,199.2188,781,203.2188,771,207.2188,775,203.2188" style="stroke:#438DD5;stroke-width:1.0;"/><line style="stroke:#438DD5;stroke-width:1.0;" x1="589" x2="777" y1="203.2188" y2="203.2188"/><text fill="#000000" font-family="sans-serif" font-size="13" lengthAdjust="spacing" textLength="170" x="596" y="198.4766">dispatchTask(role, prompt)</text><path d="M645,216.2188 L645,241.2188 L921,241.2188 L921,226.2188 L911,216.2188 L645,216.2188 " fill="#FEFFDD" style="stroke:#181818;stroke-width:0.5;"/><path d="M911,216.2188 L911,226.2188 L921,226.2188 L911,216.2188 " fill="#FEFFDD" style="stroke:#181818;stroke-width:0.5;"/><text fill="#000000" font-family="sans-serif" font-size="13" lengthAdjust="spacing" textLength="255" x="651" y="233.7871">Maps string "role" to AgentFteRole enum</text><polygon fill="#438DD5" points="1199,263.8398,1209,267.8398,1199,271.8398,1203,267.8398" style="stroke:#438DD5;stroke-width:1.0;"/><line style="stroke:#438DD5;stroke-width:1.0;" x1="783" x2="1205" y1="267.8398" y2="267.8398"/><text fill="#000000" font-family="sans-serif" font-size="13" lengthAdjust="spacing" textLength="147" x="790" y="263.0977">getIdentityForRole(role)</text><polygon fill="#438DD5" points="794,293.1504,784,297.1504,794,301.1504,790,297.1504" style="stroke:#438DD5;stroke-width:1.0;"/><line style="stroke:#438DD5;stroke-width:1.0;stroke-dasharray:2.0,2.0;" x1="788" x2="1210" y1="297.1504" y2="297.1504"/><text fill="#000000" font-family="sans-serif" font-size="13" lengthAdjust="spacing" textLength="404" x="800" y="292.4082">AgentIdentityProfile (Employee ID, GitHub username, Vault path)</text><polygon fill="#438DD5" points="1365,322.4609,1375,326.4609,1365,330.4609,1369,326.4609" style="stroke:#438DD5;stroke-width:1.0;"/><line style="stroke:#438DD5;stroke-width:1.0;" x1="783" x2="1371" y1="326.4609" y2="326.4609"/><text fill="#000000" font-family="sans-serif" font-size="13" lengthAdjust="spacing" textLength="169" x="790" y="321.7188">Instantiates Agent Memory</text><polygon fill="#438DD5" points="1365,351.7715,1375,355.7715,1365,359.7715,1369,355.7715" style="stroke:#438DD5;stroke-width:1.0;"/><line style="stroke:#438DD5;stroke-width:1.0;" x1="783" x2="1371" y1="355.7715" y2="355.7715"/><text fill="#000000" font-family="sans-serif" font-size="13" lengthAdjust="spacing" textLength="156" x="790" y="351.0293">setIdentityProfile(profile)</text><polygon fill="#438DD5" points="1519.5,381.082,1529.5,385.082,1519.5,389.082,1523.5,385.082" style="stroke:#438DD5;stroke-width:1.0;"/><line style="stroke:#438DD5;stroke-width:1.0;" x1="783" x2="1525.5" y1="385.082" y2="385.082"/><text fill="#000000" font-family="sans-serif" font-size="13" lengthAdjust="spacing" textLength="242" x="790" y="380.3398">Trigger cognitive processing workflow</text><polygon fill="#438DD5" points="1891.5,410.3926,1901.5,414.3926,1891.5,418.3926,1895.5,414.3926" style="stroke:#438DD5;stroke-width:1.0;"/><line style="stroke:#438DD5;stroke-width:1.0;" x1="1531.5" x2="1897.5" y1="414.3926" y2="414.3926"/><text fill="#000000" font-family="sans-serif" font-size="13" lengthAdjust="spacing" textLength="348" x="1538.5" y="409.6504">Fetch Credentials using profile.getCredentialVaultPath()</text><polygon fill="#438DD5" points="1542.5,439.7031,1532.5,443.7031,1542.5,447.7031,1538.5,443.7031" style="stroke:#438DD5;stroke-width:1.0;"/><line style="stroke:#438DD5;stroke-width:1.0;stroke-dasharray:2.0,2.0;" x1="1536.5" x2="1902.5" y1="443.7031" y2="443.7031"/><text fill="#000000" font-family="sans-serif" font-size="13" lengthAdjust="spacing" textLength="253" x="1548.5" y="438.9609">Secure Tokens (GitHub PAT, Jira API Key)</text><path d="M1536,456.7031 L1536,496.7031 L1810,496.7031 L1810,466.7031 L1800,456.7031 L1536,456.7031 " fill="#FEFFDD" style="stroke:#181818;stroke-width:0.5;"/><path d="M1800,456.7031 L1800,466.7031 L1810,466.7031 L1800,456.7031 " fill="#FEFFDD" style="stroke:#181818;stroke-width:0.5;"/><text fill="#000000" font-family="sans-serif" font-size="13" lengthAdjust="spacing" textLength="253" x="1542" y="474.2715">Execute business logic and API requests</text><text fill="#000000" font-family="sans-serif" font-size="13" lengthAdjust="spacing" textLength="212" x="1542" y="489.582">with decoupled corporate identity</text><polygon fill="#438DD5" points="794,519.6348,784,523.6348,794,527.6348,790,523.6348" style="stroke:#438DD5;stroke-width:1.0;"/><line style="stroke:#438DD5;stroke-width:1.0;stroke-dasharray:2.0,2.0;" x1="788" x2="1530.5" y1="523.6348" y2="523.6348"/><text fill="#000000" font-family="sans-serif" font-size="13" lengthAdjust="spacing" textLength="128" x="800" y="518.8926">Result (AI Response)</text><polygon fill="#438DD5" points="600,548.9453,590,552.9453,600,556.9453,596,552.9453" style="stroke:#438DD5;stroke-width:1.0;"/><line style="stroke:#438DD5;stroke-width:1.0;stroke-dasharray:2.0,2.0;" x1="594" x2="782" y1="552.9453" y2="552.9453"/><text fill="#000000" font-family="sans-serif" font-size="13" lengthAdjust="spacing" textLength="168" x="606" y="548.2031">Context Cleaned Response</text><polygon fill="#438DD5" points="450.5,578.2559,440.5,582.2559,450.5,586.2559,446.5,582.2559" style="stroke:#438DD5;stroke-width:1.0;"/><line style="stroke:#438DD5;stroke-width:1.0;stroke-dasharray:2.0,2.0;" x1="444.5" x2="588" y1="582.2559" y2="582.2559"/><text fill="#000000" font-family="sans-serif" font-size="13" lengthAdjust="spacing" textLength="84" x="456.5" y="577.5137">Return Result</text><polygon fill="#438DD5" points="257.5,607.5664,247.5,611.5664,257.5,615.5664,253.5,611.5664" style="stroke:#438DD5;stroke-width:1.0;"/><line style="stroke:#438DD5;stroke-width:1.0;stroke-dasharray:2.0,2.0;" x1="251.5" x2="438.5" y1="611.5664" y2="611.5664"/><text fill="#000000" font-family="sans-serif" font-size="13" lengthAdjust="spacing" textLength="169" x="263.5" y="606.8242">WebSocket Message (JSON)</text><polygon fill="#438DD5" points="95.5,636.877,85.5,640.877,95.5,644.877,91.5,640.877" style="stroke:#438DD5;stroke-width:1.0;"/><line style="stroke:#438DD5;stroke-width:1.0;stroke-dasharray:2.0,2.0;" x1="89.5" x2="245.5" y1="640.877" y2="640.877"/><text fill="#000000" font-family="sans-serif" font-size="13" lengthAdjust="spacing" textLength="118" x="101.5" y="636.1348">Displays Response</text><!--SRC=[TLHDR-Cs4BtpLmnSeB21P0kqwM9XB08uTZwqJRQ2xTQNlOobaSoQ8bMIYcCK_UyTqfIpIX4TR87pvitCUqEvlTGjMcp0qTyTwOBW7m7ypAmrXxbHni8FLxzyAijVu_6ZhEXHQhenjYIRulZpzghuE8nZiQ-jwNIPCDLLzR7w534vMYyBsQBsxz5y3_aVKtp4lq9WuVbWTDCvhkWSp3Ige_Fm4wppV0Jeu0z7LhIlP31woDQFi42tsngqvJVz-VDNUl4V_dBNrwUCR8YVvHdSewS37WDurLgfQxWnngU4pUfDmXaFFyAAYivA7rDprTKrRXN1VSUbBKhL5vrbzviXovsd1xHXghbXZQH67ZMmhD7jOI5TYxxOaKq42JlaU3B5VcviQoptavNjhCJMKsIPrQHzLl8FDvTRyopPXjpOVgXiaR-PAYHmKmlq60YUg37ssBSVWY4op5bJ4sehs1YxhvGvH07tKYcuVJQgyz9ezcfLsAv9J7sAA9bjYuxOCFRgJ-oKXoVKM9_wZmSf9xuB4Qo6osis4AQmwhQDzB0CEnqN8byk14SulbbnV4FR5Qj3JCgoCIkClwn-_peH76LCy8DHR6McFSy6QujL9GiH0mn8UZEcJ5O4NyRMABg0rfgczHCXjF44vfdxIlWfpz0wS3ukqIZ0H-0DzEek-G18TuqGVGKkncPmePhEXjqP6v2nt4I4yEMWfxVkLf9fnxTDgyoHYFaku5xwXsuB7OkciU6cJnBpABl9eFZPM-RDjFFihEHrIgR3QG_UIt3qjernU_eV5ZblofILbZMR38MfjVJocOAS1UE2OeUqIEASmCcdpgTmHsm3p2t5YgWST34fLVp00hu6OrBEquuduaHmEUmZtbo2jTcJTZ1EUkMpzGLyaHOXV1T-esFlCdUzys2gCyKKRb-OWaFR_lEaJ2qBG5t6P7lQJVTD7wJVGKc5wLf59K-UhYp8f9tuRjw1qKjoeVKnBog_jaOx5lQiw-iYpmslyOk7kIBKNA87fttkRyMIV6TrOerNeRzFxzwNSAS2A5o-QVmkAJowSu7_0000]--></g></svg>