<svg xmlns="http://www.w3.org/2000/svg" xmlns:xlink="http://www.w3.org/1999/xlink" contentStyleType="text/css" height="695px" preserveAspectRatio="none" style="width:1831px;height:695px;background:#FFFFFF;" version="1.1" viewBox="0 0 1831 695" width="1831px" zoomAndPan="magnify"><defs/><g><line style="stroke:#A2B4C6;stroke-width:0.5;stroke-dasharray:5.0,5.0;" x1="84" x2="84" y1="83.9766" y2="600.2559"/><line style="stroke:#A2B4C6;stroke-width:0.5;stroke-dasharray:5.0,5.0;" x1="246" x2="246" y1="83.9766" y2="600.2559"/><line style="stroke:#A2B4C6;stroke-width:0.5;stroke-dasharray:5.0,5.0;" x1="439" x2="439" y1="83.9766" y2="600.2559"/><line style="stroke:#A2B4C6;stroke-width:0.5;stroke-dasharray:5.0,5.0;" x1="633.5" x2="633.5" y1="83.9766" y2="600.2559"/><line style="stroke:#A2B4C6;stroke-width:0.5;stroke-dasharray:5.0,5.0;" x1="1061" x2="1061" y1="83.9766" y2="600.2559"/><line style="stroke:#A2B4C6;stroke-width:0.5;stroke-dasharray:5.0,5.0;" x1="1227" x2="1227" y1="83.9766" y2="600.2559"/><line style="stroke:#A2B4C6;stroke-width:0.5;stroke-dasharray:5.0,5.0;" x1="1382" x2="1382" y1="83.9766" y2="600.2559"/><line style="stroke:#A2B4C6;stroke-width:0.5;stroke-dasharray:5.0,5.0;" x1="1753.5" x2="1753.5" y1="83.9766" y2="600.2559"/><text fill="#000000" font-family="sans-serif" font-size="14" lengthAdjust="spacing" textLength="153" x="5" y="81.0234">Business Analyst / TPP</text><ellipse cx="84.5" cy="15.9883" fill="#E2E2F0" rx="8" ry="8" style="stroke:#181818;stroke-width:0.5;"/><path d="M84.5,23.9883 L84.5,50.9883 M71.5,31.9883 L97.5,31.9883 M84.5,50.9883 L71.5,65.9883 M84.5,50.9883 L97.5,65.9883 " fill="none" style="stroke:#181818;stroke-width:0.5;"/><text fill="#000000" font-family="sans-serif" font-size="14" lengthAdjust="spacing" textLength="153" x="5" y="612.791">Business Analyst / TPP</text><ellipse cx="84.5" cy="624.2441" fill="#E2E2F0" rx="8" ry="8" style="stroke:#181818;stroke-width:0.5;"/><path d="M84.5,632.2441 L84.5,659.2441 M71.5,640.2441 L97.5,640.2441 M84.5,659.2441 L71.5,674.2441 M84.5,659.2441 L97.5,674.2441 " fill="none" style="stroke:#181818;stroke-width:0.5;"/><rect fill="#FFFFFF" height="46.9766" rx="2.5" ry="2.5" style="stroke:#A2B4C6;stroke-width:0.5;" width="123" x="185" y="36"/><text fill="#000000" font-family="sans-serif" font-size="14" lengthAdjust="spacing" textLength="109" x="192" y="56.5352">HITL Dashboard</text><text fill="#000000" font-family="sans-serif" font-size="14" lengthAdjust="spacing" textLength="61" x="216" y="73.0234">&#171;Next.js&#187;</text><rect fill="#FFFFFF" height="46.9766" rx="2.5" ry="2.5" style="stroke:#A2B4C6;stroke-width:0.5;" width="123" x="185" y="599.2559"/><text fill="#000000" font-family="sans-serif" font-size="14" lengthAdjust="spacing" textLength="109" x="192" y="619.791">HITL Dashboard</text><text fill="#000000" font-family="sans-serif" font-size="14" lengthAdjust="spacing" textLength="61" x="216" y="636.2793">&#171;Next.js&#187;</text><rect fill="#FFFFFF" height="46.9766" rx="2.5" ry="2.5" style="stroke:#A2B4C6;stroke-width:0.5;" width="149" x="365" y="36"/><text fill="#000000" font-family="sans-serif" font-size="14" lengthAdjust="spacing" textLength="135" x="372" y="56.5352">WebSocket Gateway</text><text fill="#000000" font-family="sans-serif" font-size="14" lengthAdjust="spacing" textLength="94" x="392.5" y="73.0234">&#171;Spring Boot&#187;</text><rect fill="#FFFFFF" height="46.9766" rx="2.5" ry="2.5" style="stroke:#A2B4C6;stroke-width:0.5;" width="149" x="365" y="599.2559"/><text fill="#000000" font-family="sans-serif" font-size="14" lengthAdjust="spacing" textLength="135" x="372" y="619.791">WebSocket Gateway</text><text fill="#000000" font-family="sans-serif" font-size="14" lengthAdjust="spacing" textLength="94" x="392.5" y="636.2793">&#171;Spring Boot&#187;</text><rect fill="#FFFFFF" height="46.9766" rx="2.5" ry="2.5" style="stroke:#A2B4C6;stroke-width:0.5;" width="174" x="546.5" y="36"/><text fill="#000000" font-family="sans-serif" font-size="14" lengthAdjust="spacing" textLength="160" x="553.5" y="56.5352">FteHarnessCoordinator</text><text fill="#000000" font-family="sans-serif" font-size="14" lengthAdjust="spacing" textLength="123" x="572" y="73.0234">&#171;Task Dispatcher&#187;</text><rect fill="#FFFFFF" height="46.9766" rx="2.5" ry="2.5" style="stroke:#A2B4C6;stroke-width:0.5;" width="174" x="546.5" y="599.2559"/><text fill="#000000" font-family="sans-serif" font-size="14" lengthAdjust="spacing" textLength="160" x="553.5" y="619.791">FteHarnessCoordinator</text><text fill="#000000" font-family="sans-serif" font-size="14" lengthAdjust="spacing" textLength="123" x="572" y="636.2793">&#171;Task Dispatcher&#187;</text><rect fill="#FFFFFF" height="46.9766" rx="2.5" ry="2.5" style="stroke:#A2B4C6;stroke-width:0.5;" width="205" x="959" y="36"/><text fill="#000000" font-family="sans-serif" font-size="14" lengthAdjust="spacing" textLength="183" x="970" y="56.5352">MockCorporateIdpAdapter</text><text fill="#000000" font-family="sans-serif" font-size="14" lengthAdjust="spacing" textLength="191" x="966" y="73.0234">&#171;AgentIdentityProviderPort&#187;</text><rect fill="#FFFFFF" height="46.9766" rx="2.5" ry="2.5" style="stroke:#A2B4C6;stroke-width:0.5;" width="205" x="959" y="599.2559"/><text fill="#000000" font-family="sans-serif" font-size="14" lengthAdjust="spacing" textLength="183" x="970" y="619.791">MockCorporateIdpAdapter</text><text fill="#000000" font-family="sans-serif" font-size="14" lengthAdjust="spacing" textLength="191" x="966" y="636.2793">&#171;AgentIdentityProviderPort&#187;</text><rect fill="#FFFFFF" height="46.9766" rx="2.5" ry="2.5" style="stroke:#A2B4C6;stroke-width:0.5;" width="107" x="1174" y="36"/><text fill="#000000" font-family="sans-serif" font-size="14" lengthAdjust="spacing" textLength="93" x="1181" y="56.5352">AgentFteData</text><text fill="#000000" font-family="sans-serif" font-size="14" lengthAdjust="spacing" textLength="69" x="1193" y="73.0234">&#171;Memory&#187;</text><rect fill="#FFFFFF" height="46.9766" rx="2.5" ry="2.5" style="stroke:#A2B4C6;stroke-width:0.5;" width="107" x="1174" y="599.2559"/><text fill="#000000" font-family="sans-serif" font-size="14" lengthAdjust="spacing" textLength="93" x="1181" y="619.791">AgentFteData</text><text fill="#000000" font-family="sans-serif" font-size="14" lengthAdjust="spacing" textLength="69" x="1193" y="636.2793">&#171;Memory&#187;</text><rect fill="#FFFFFF" height="46.9766" rx="2.5" ry="2.5" style="stroke:#A2B4C6;stroke-width:0.5;" width="182" x="1291" y="36"/><text fill="#000000" font-family="sans-serif" font-size="14" lengthAdjust="spacing" textLength="134" x="1315" y="56.5352">Temporal Workflow</text><text fill="#000000" font-family="sans-serif" font-size="14" lengthAdjust="spacing" textLength="168" x="1298" y="73.0234">&#171;Skill Evolution / Scrum&#187;</text><rect fill="#FFFFFF" height="46.9766" rx="2.5" ry="2.5" style="stroke:#A2B4C6;stroke-width:0.5;" width="182" x="1291" y="599.2559"/><text fill="#000000" font-family="sans-serif" font-size="14" lengthAdjust="spacing" textLength="134" x="1315" y="619.791">Temporal Workflow</text><text fill="#000000" font-family="sans-serif" font-size="14" lengthAdjust="spacing" textLength="168" x="1298" y="636.2793">&#171;Skill Evolution / Scrum&#187;</text><text fill="#000000" font-family="sans-serif" font-size="14" lengthAdjust="spacing" textLength="147" x="1677.5" y="64.5352">AWS Secrets Manager</text><text fill="#000000" font-family="sans-serif" font-size="14" lengthAdjust="spacing" textLength="49" x="1726.5" y="81.0234">&#171;Vault&#187;</text><path d="M1736,15 C1736,5 1754,5 1754,5 C1754,5 1772,5 1772,15 L1772,41 C1772,51 1754,51 1754,51 C1754,51 1736,51 1736,41 L1736,15 " fill="#E2E2F0" style="stroke:#181818;stroke-width:1.5;"/><path d="M1736,15 C1736,25 1754,25 1754,25 C1754,25 1772,25 1772,15 " fill="none" style="stroke:#181818;stroke-width:1.5;"/><text fill="#000000" font-family="sans-serif" font-size="14" lengthAdjust="spacing" textLength="147" x="1677.5" y="612.791">AWS Secrets Manager</text><text fill="#000000" font-family="sans-serif" font-size="14" lengthAdjust="spacing" textLength="49" x="1726.5" y="629.2793">&#171;Vault&#187;</text><path d="M1736,642.2324 C1736,632.2324 1754,632.2324 1754,632.2324 C1754,632.2324 1772,632.2324 1772,642.2324 L1772,668.2324 C1772,678.2324 1754,678.2324 1754,678.2324 C1754,678.2324 1736,678.2324 1736,668.2324 L1736,642.2324 " fill="#E2E2F0" style="stroke:#181818;stroke-width:1.5;"/><path d="M1736,642.2324 C1736,652.2324 1754,652.2324 1754,652.2324 C1754,652.2324 1772,652.2324 1772,642.2324 " fill="none" style="stroke:#181818;stroke-width:1.5;"/><polygon fill="#438DD5" points="234.5,111.2871,244.5,115.2871,234.5,119.2871,238.5,115.2871" style="stroke:#438DD5;stroke-width:1.0;"/><line style="stroke:#438DD5;stroke-width:1.0;" x1="84.5" x2="240.5" y1="115.2871" y2="115.2871"/><text fill="#000000" font-family="sans-serif" font-size="13" lengthAdjust="spacing" textLength="138" x="91.5" y="110.5449">Submit Request / PRD</text><polygon fill="#438DD5" points="427.5,140.5977,437.5,144.5977,427.5,148.5977,431.5,144.5977" style="stroke:#438DD5;stroke-width:1.0;"/><line style="stroke:#438DD5;stroke-width:1.0;" x1="246.5" x2="433.5" y1="144.5977" y2="144.5977"/><text fill="#000000" font-family="sans-serif" font-size="13" lengthAdjust="spacing" textLength="169" x="253.5" y="139.8555">WebSocket Message (JSON)</text><polygon fill="#438DD5" points="621.5,169.9082,631.5,173.9082,621.5,177.9082,625.5,173.9082" style="stroke:#438DD5;stroke-width:1.0;"/><line style="stroke:#438DD5;stroke-width:1.0;" x1="439.5" x2="627.5" y1="173.9082" y2="173.9082"/><text fill="#000000" font-family="sans-serif" font-size="13" lengthAdjust="spacing" textLength="170" x="446.5" y="169.166">dispatchTask(role, prompt)</text><path d="M495,186.9082 L495,211.9082 L771,211.9082 L771,196.9082 L761,186.9082 L495,186.9082 " fill="#FEFFDD" style="stroke:#181818;stroke-width:0.5;"/><path d="M761,186.9082 L761,196.9082 L771,196.9082 L761,186.9082 " fill="#FEFFDD" style="stroke:#181818;stroke-width:0.5;"/><text fill="#000000" font-family="sans-serif" font-size="13" lengthAdjust="spacing" textLength="255" x="501" y="204.4766">Maps string "role" to AgentFteRole enum</text><polygon fill="#438DD5" points="1049.5,234.5293,1059.5,238.5293,1049.5,242.5293,1053.5,238.5293" style="stroke:#438DD5;stroke-width:1.0;"/><line style="stroke:#438DD5;stroke-width:1.0;" x1="633.5" x2="1055.5" y1="238.5293" y2="238.5293"/><text fill="#000000" font-family="sans-serif" font-size="13" lengthAdjust="spacing" textLength="147" x="640.5" y="233.7871">getIdentityForRole(role)</text><polygon fill="#438DD5" points="644.5,263.8398,634.5,267.8398,644.5,271.8398,640.5,267.8398" style="stroke:#438DD5;stroke-width:1.0;"/><line style="stroke:#438DD5;stroke-width:1.0;stroke-dasharray:2.0,2.0;" x1="638.5" x2="1060.5" y1="267.8398" y2="267.8398"/><text fill="#000000" font-family="sans-serif" font-size="13" lengthAdjust="spacing" textLength="404" x="650.5" y="263.0977">AgentIdentityProfile (Employee ID, GitHub username, Vault path)</text><polygon fill="#438DD5" points="1215.5,293.1504,1225.5,297.1504,1215.5,301.1504,1219.5,297.1504" style="stroke:#438DD5;stroke-width:1.0;"/><line style="stroke:#438DD5;stroke-width:1.0;" x1="633.5" x2="1221.5" y1="297.1504" y2="297.1504"/><text fill="#000000" font-family="sans-serif" font-size="13" lengthAdjust="spacing" textLength="169" x="640.5" y="292.4082">Instantiates Agent Memory</text><polygon fill="#438DD5" points="1215.5,322.4609,1225.5,326.4609,1215.5,330.4609,1219.5,326.4609" style="stroke:#438DD5;stroke-width:1.0;"/><line style="stroke:#438DD5;stroke-width:1.0;" x1="633.5" x2="1221.5" y1="326.4609" y2="326.4609"/><text fill="#000000" font-family="sans-serif" font-size="13" lengthAdjust="spacing" textLength="156" x="640.5" y="321.7188">setIdentityProfile(profile)</text><polygon fill="#438DD5" points="1370,351.7715,1380,355.7715,1370,359.7715,1374,355.7715" style="stroke:#438DD5;stroke-width:1.0;"/><line style="stroke:#438DD5;stroke-width:1.0;" x1="633.5" x2="1376" y1="355.7715" y2="355.7715"/><text fill="#000000" font-family="sans-serif" font-size="13" lengthAdjust="spacing" textLength="242" x="640.5" y="351.0293">Trigger cognitive processing workflow</text><polygon fill="#438DD5" points="1742,381.082,1752,385.082,1742,389.082,1746,385.082" style="stroke:#438DD5;stroke-width:1.0;"/><line style="stroke:#438DD5;stroke-width:1.0;" x1="1382" x2="1748" y1="385.082" y2="385.082"/><text fill="#000000" font-family="sans-serif" font-size="13" lengthAdjust="spacing" textLength="348" x="1389" y="380.3398">Fetch Credentials using profile.getCredentialVaultPath()</text><polygon fill="#438DD5" points="1393,410.3926,1383,414.3926,1393,418.3926,1389,414.3926" style="stroke:#438DD5;stroke-width:1.0;"/><line style="stroke:#438DD5;stroke-width:1.0;stroke-dasharray:2.0,2.0;" x1="1387" x2="1753" y1="414.3926" y2="414.3926"/><text fill="#000000" font-family="sans-serif" font-size="13" lengthAdjust="spacing" textLength="253" x="1399" y="409.6504">Secure Tokens (GitHub PAT, Jira API Key)</text><path d="M1387,427.3926 L1387,467.3926 L1661,467.3926 L1661,437.3926 L1651,427.3926 L1387,427.3926 " fill="#FEFFDD" style="stroke:#181818;stroke-width:0.5;"/><path d="M1651,427.3926 L1651,437.3926 L1661,437.3926 L1651,427.3926 " fill="#FEFFDD" style="stroke:#181818;stroke-width:0.5;"/><text fill="#000000" font-family="sans-serif" font-size="13" lengthAdjust="spacing" textLength="253" x="1393" y="444.9609">Execute business logic and API requests</text><text fill="#000000" font-family="sans-serif" font-size="13" lengthAdjust="spacing" textLength="212" x="1393" y="460.2715">with decoupled corporate identity</text><polygon fill="#438DD5" points="644.5,490.3242,634.5,494.3242,644.5,498.3242,640.5,494.3242" style="stroke:#438DD5;stroke-width:1.0;"/><line style="stroke:#438DD5;stroke-width:1.0;stroke-dasharray:2.0,2.0;" x1="638.5" x2="1381" y1="494.3242" y2="494.3242"/><text fill="#000000" font-family="sans-serif" font-size="13" lengthAdjust="spacing" textLength="128" x="650.5" y="489.582">Result (AI Response)</text><polygon fill="#438DD5" points="450.5,519.6348,440.5,523.6348,450.5,527.6348,446.5,523.6348" style="stroke:#438DD5;stroke-width:1.0;"/><line style="stroke:#438DD5;stroke-width:1.0;stroke-dasharray:2.0,2.0;" x1="444.5" x2="632.5" y1="523.6348" y2="523.6348"/><text fill="#000000" font-family="sans-serif" font-size="13" lengthAdjust="spacing" textLength="84" x="456.5" y="518.8926">Return Result</text><polygon fill="#438DD5" points="257.5,548.9453,247.5,552.9453,257.5,556.9453,253.5,552.9453" style="stroke:#438DD5;stroke-width:1.0;"/><line style="stroke:#438DD5;stroke-width:1.0;stroke-dasharray:2.0,2.0;" x1="251.5" x2="438.5" y1="552.9453" y2="552.9453"/><text fill="#000000" font-family="sans-serif" font-size="13" lengthAdjust="spacing" textLength="169" x="263.5" y="548.2031">WebSocket Message (JSON)</text><polygon fill="#438DD5" points="95.5,578.2559,85.5,582.2559,95.5,586.2559,91.5,582.2559" style="stroke:#438DD5;stroke-width:1.0;"/><line style="stroke:#438DD5;stroke-width:1.0;stroke-dasharray:2.0,2.0;" x1="89.5" x2="245.5" y1="582.2559" y2="582.2559"/><text fill="#000000" font-family="sans-serif" font-size="13" lengthAdjust="spacing" textLength="118" x="101.5" y="577.5137">Displays Response</text><!--SRC=[TLHTRzf047o_Nx6YBo0bgTIcLOIYI0JoGHfI2zFc9I-7lS0L-zQzEqDGrV_UlUDCubJn0rZUdPczcRNjMkbA6bc2nTyrwWpXZm2-1iRGTaW56VXm-laipx-4n_TgWVTAuoMP74sioq_pq-nhkowpzT9GhVFOipXTV5sSXPv46gSoLKdjtgDvtV8VKxZ4No5avlX1vxAsh6Wj3BGiTjR1HvWbIGUaXHyMZQXUoA1pEvxTmqZQrPoaoP_q-Va3FhkJN_RYOeyOj_iVSPvIjaO7DzBXLkuy9AsCqaku978HzfYsOTSERwNnKms9pwYqv54zT2Rj6aRALj9bApGH7dlR71FM7PAfoB3oEAy6kQmS1fR14hKRv_oZt2unj55iOqAc6MSyIjfS0S13ZQIJdc229PbTx0v5NsbZPbXwxG8UoQmN1Mt3qTUgAE1gGqNj56dsEirCNKQc1Y9oPfjBYwpyc4AAcK5dOIArNEvFy5FMHJDjk1V2XmN75nm1z26jvwLoCFLR6I9DfYF15QupOHzUSfcmSSmAtRlq-qDFS9Lxeg7Sc4UllV5TGmKUGMMeh5nF24qEWJOi6_lxF69bmRgGRyUtTy0HDFPD-G6WhaiX6WKMOxTPQ8c7HAx9-CuWrnE-VDoQwMry2yMqtQkoAcY7o7n7SAFSRJs7cZtHikIXWqd0HrdrMkA7y9XthAtZw1JlIqmLza6_1x3uTenkjVzlYnnMeGypevQS8MIqrCgf3NexC-xpZctZfeW3WC7xoVjmZHm330q6HLbOg0CeAfwmWI_504hujDsUs1CSj-VWdQeDmepMg2rqer_9O7O4Tyf862HZ-8Qx9cMUUkM05WUAFbmzCmMNvittew2boa3gF83DVlNiazugju8SCwgh0dC-UNmdGKNlnAlpjeAUelMZTmTZVrkHjcpimTTcbwVeQgDZSrZWvYruTylzc-2R_2lJ3z-JGkxiGUGV]--></g></svg>