<svg xmlns="http://www.w3.org/2000/svg" xmlns:xlink="http://www.w3.org/1999/xlink" contentStyleType="text/css" height="944px" preserveAspectRatio="none" style="width:1339px;height:944px;background:#FFFFFF;" version="1.1" viewBox="0 0 1339 944" width="1339px" zoomAndPan="magnify"><defs/><g><!--cluster Presentation Layer--><g id="cluster_Presentation Layer"><polygon fill="#F4F6F8" points="16,154.99,26,144.99,507,144.99,507,253.96,497,263.96,16,263.96,16,154.99" style="stroke:#A2B4C6;stroke-width:1.0;"/><line style="stroke:#A2B4C6;stroke-width:1.0;" x1="497" x2="507" y1="154.99" y2="144.99"/><line style="stroke:#A2B4C6;stroke-width:1.0;" x1="16" x2="497" y1="154.99" y2="154.99"/><line style="stroke:#A2B4C6;stroke-width:1.0;" x1="497" x2="497" y1="154.99" y2="263.96"/><text fill="#000000" font-family="sans-serif" font-size="14" font-weight="bold" lengthAdjust="spacing" textLength="134" x="190.5" y="171.5252">Presentation Layer</text></g><!--cluster Agentive Platform (OpenShift ROSA)--><g id="cluster_Agentive Platform (OpenShift ROSA)"><polygon fill="#F4F6F8" points="19,322.96,29,312.96,1322,312.96,1322,917.87,1312,927.87,19,927.87,19,322.96" style="stroke:#A2B4C6;stroke-width:1.0;"/><line style="stroke:#A2B4C6;stroke-width:1.0;" x1="1312" x2="1322" y1="322.96" y2="312.96"/><line style="stroke:#A2B4C6;stroke-width:1.0;" x1="19" x2="1312" y1="322.96" y2="322.96"/><line style="stroke:#A2B4C6;stroke-width:1.0;" x1="1312" x2="1312" y1="322.96" y2="927.87"/><text fill="#000000" font-family="sans-serif" font-size="14" font-weight="bold" lengthAdjust="spacing" textLength="263" x="535" y="339.4952">Agentive Platform (OpenShift ROSA)</text></g><!--cluster Cognitive Agent-FTE Layer--><g id="cluster_Cognitive Agent-FTE Layer"><polygon fill="#F4F6F8" points="43,488.94,53,478.94,548,478.94,548,893.87,538,903.87,43,903.87,43,488.94" style="stroke:#A2B4C6;stroke-width:1.0;"/><line style="stroke:#A2B4C6;stroke-width:1.0;" x1="538" x2="548" y1="488.94" y2="478.94"/><line style="stroke:#A2B4C6;stroke-width:1.0;" x1="43" x2="538" y1="488.94" y2="488.94"/><line style="stroke:#A2B4C6;stroke-width:1.0;" x1="538" x2="538" y1="488.94" y2="903.87"/><text fill="#000000" font-family="sans-serif" font-size="14" font-weight="bold" lengthAdjust="spacing" textLength="194" x="194.5" y="505.4752">Cognitive Agent-FTE Layer</text></g><!--cluster Economics & Cost Layer--><g id="cluster_Economics &amp; Cost Layer"><polygon fill="#F4F6F8" points="572,794.89,582,784.89,820,784.89,820,893.87,810,903.87,572,903.87,572,794.89" style="stroke:#A2B4C6;stroke-width:1.0;"/><line style="stroke:#A2B4C6;stroke-width:1.0;" x1="810" x2="820" y1="794.89" y2="784.89"/><line style="stroke:#A2B4C6;stroke-width:1.0;" x1="572" x2="810" y1="794.89" y2="794.89"/><line style="stroke:#A2B4C6;stroke-width:1.0;" x1="810" x2="810" y1="794.89" y2="903.87"/><text fill="#000000" font-family="sans-serif" font-size="14" font-weight="bold" lengthAdjust="spacing" textLength="172" x="606" y="811.4252">Economics &amp; Cost Layer</text></g><!--cluster Identity & Memory--><g id="cluster_Identity &amp; Memory"><polygon fill="#F4F6F8" points="844,794.89,854,784.89,1298,784.89,1298,893.87,1288,903.87,844,903.87,844,794.89" style="stroke:#A2B4C6;stroke-width:1.0;"/><line style="stroke:#A2B4C6;stroke-width:1.0;" x1="1288" x2="1298" y1="794.89" y2="784.89"/><line style="stroke:#A2B4C6;stroke-width:1.0;" x1="844" x2="1288" y1="794.89" y2="794.89"/><line style="stroke:#A2B4C6;stroke-width:1.0;" x1="1288" x2="1288" y1="794.89" y2="903.87"/><text fill="#000000" font-family="sans-serif" font-size="14" font-weight="bold" lengthAdjust="spacing" textLength="134" x="1000" y="811.4252">Identity &amp; Memory</text></g><!--entity Developer Portal (Next.js)--><g id="elem_Developer Portal (Next.js)"><rect fill="#F1F1F1" height="62.9766" rx="2.5" ry="2.5" style="stroke:#181818;stroke-width:0.5;" width="214" x="32" y="184.99"/><rect fill="#F1F1F1" height="10" style="stroke:#181818;stroke-width:0.5;" width="15" x="226" y="189.99"/><rect fill="#F1F1F1" height="2" style="stroke:#181818;stroke-width:0.5;" width="4" x="224" y="191.99"/><rect fill="#F1F1F1" height="2" style="stroke:#181818;stroke-width:0.5;" width="4" x="224" y="195.99"/><text fill="#000000" font-family="sans-serif" font-size="14" font-style="italic" lengthAdjust="spacing" textLength="77" x="95.5" y="218.5252">&#171;Frontend&#187;</text><text fill="#000000" font-family="sans-serif" font-size="14" lengthAdjust="spacing" textLength="174" x="47" y="235.0134">Developer Portal (Next.js)</text></g><!--entity HITL Dashboard (Next.js)--><g id="elem_HITL Dashboard (Next.js)"><rect fill="#F1F1F1" height="62.9766" rx="2.5" ry="2.5" style="stroke:#181818;stroke-width:0.5;" width="210" x="281" y="184.99"/><rect fill="#F1F1F1" height="10" style="stroke:#181818;stroke-width:0.5;" width="15" x="471" y="189.99"/><rect fill="#F1F1F1" height="2" style="stroke:#181818;stroke-width:0.5;" width="4" x="469" y="191.99"/><rect fill="#F1F1F1" height="2" style="stroke:#181818;stroke-width:0.5;" width="4" x="469" y="195.99"/><text fill="#000000" font-family="sans-serif" font-size="14" font-style="italic" lengthAdjust="spacing" textLength="77" x="342.5" y="218.5252">&#171;Frontend&#187;</text><text fill="#000000" font-family="sans-serif" font-size="14" lengthAdjust="spacing" textLength="170" x="296" y="235.0134">HITL Dashboard (Next.js)</text></g><!--entity gateway--><g id="elem_gateway"><rect fill="#F1F1F1" height="62.9766" rx="2.5" ry="2.5" style="stroke:#181818;stroke-width:0.5;" width="162" x="305" y="352.96"/><rect fill="#F1F1F1" height="10" style="stroke:#181818;stroke-width:0.5;" width="15" x="447" y="357.96"/><rect fill="#F1F1F1" height="2" style="stroke:#181818;stroke-width:0.5;" width="4" x="445" y="359.96"/><rect fill="#F1F1F1" height="2" style="stroke:#181818;stroke-width:0.5;" width="4" x="445" y="363.96"/><text fill="#000000" font-family="sans-serif" font-size="14" lengthAdjust="spacing" textLength="122" x="320" y="386.4952">WebSocket Bridge</text><text fill="#000000" font-family="sans-serif" font-size="14" lengthAdjust="spacing" textLength="94" x="320" y="402.9834">&#171;Spring Boot&#187;</text></g><!--entity harness--><g id="elem_harness"><rect fill="#F1F1F1" height="62.9766" rx="2.5" ry="2.5" style="stroke:#181818;stroke-width:0.5;" width="212" x="280" y="518.94"/><rect fill="#F1F1F1" height="10" style="stroke:#181818;stroke-width:0.5;" width="15" x="472" y="523.94"/><rect fill="#F1F1F1" height="2" style="stroke:#181818;stroke-width:0.5;" width="4" x="470" y="525.94"/><rect fill="#F1F1F1" height="2" style="stroke:#181818;stroke-width:0.5;" width="4" x="470" y="529.94"/><text fill="#000000" font-family="sans-serif" font-size="14" lengthAdjust="spacing" textLength="172" x="295" y="552.4752">FTE Harness Coordinator</text><text fill="#000000" font-family="sans-serif" font-size="14" lengthAdjust="spacing" textLength="123" x="295" y="568.9634">&#171;Task Dispatcher&#187;</text></g><!--entity agents--><g id="elem_agents"><rect fill="#F1F1F1" height="62.9766" rx="2.5" ry="2.5" style="stroke:#181818;stroke-width:0.5;" width="255" x="267.5" y="658.92"/><rect fill="#F1F1F1" height="10" style="stroke:#181818;stroke-width:0.5;" width="15" x="502.5" y="663.92"/><rect fill="#F1F1F1" height="2" style="stroke:#181818;stroke-width:0.5;" width="4" x="500.5" y="665.92"/><rect fill="#F1F1F1" height="2" style="stroke:#181818;stroke-width:0.5;" width="4" x="500.5" y="669.92"/><text fill="#000000" font-family="sans-serif" font-size="14" lengthAdjust="spacing" textLength="127" x="282.5" y="692.4552">Agent-FTE Models</text><text fill="#000000" font-family="sans-serif" font-size="14" lengthAdjust="spacing" textLength="215" x="282.5" y="708.9434">&#171;Architecture, Compliance, etc&#187;</text></g><!--entity skillEvo--><g id="elem_skillEvo"><rect fill="#F1F1F1" height="62.9766" rx="2.5" ry="2.5" style="stroke:#181818;stroke-width:0.5;" width="204" x="59" y="824.89"/><rect fill="#F1F1F1" height="10" style="stroke:#181818;stroke-width:0.5;" width="15" x="243" y="829.89"/><rect fill="#F1F1F1" height="2" style="stroke:#181818;stroke-width:0.5;" width="4" x="241" y="831.89"/><rect fill="#F1F1F1" height="2" style="stroke:#181818;stroke-width:0.5;" width="4" x="241" y="835.89"/><text fill="#000000" font-family="sans-serif" font-size="14" lengthAdjust="spacing" textLength="164" x="74" y="858.4252">Skill Evolution Workflow</text><text fill="#000000" font-family="sans-serif" font-size="14" lengthAdjust="spacing" textLength="80" x="74" y="874.9134">&#171;Temporal&#187;</text></g><!--entity scrum--><g id="elem_scrum"><rect fill="#F1F1F1" height="62.9766" rx="2.5" ry="2.5" style="stroke:#181818;stroke-width:0.5;" width="234" x="298" y="824.89"/><rect fill="#F1F1F1" height="10" style="stroke:#181818;stroke-width:0.5;" width="15" x="512" y="829.89"/><rect fill="#F1F1F1" height="2" style="stroke:#181818;stroke-width:0.5;" width="4" x="510" y="831.89"/><rect fill="#F1F1F1" height="2" style="stroke:#181818;stroke-width:0.5;" width="4" x="510" y="835.89"/><text fill="#000000" font-family="sans-serif" font-size="14" lengthAdjust="spacing" textLength="194" x="313" y="858.4252">Scrum Ceremonies Activities</text><text fill="#000000" font-family="sans-serif" font-size="14" lengthAdjust="spacing" textLength="80" x="313" y="874.9134">&#171;Temporal&#187;</text></g><!--entity cost--><g id="elem_cost"><rect fill="#F1F1F1" height="62.9766" rx="2.5" ry="2.5" style="stroke:#181818;stroke-width:0.5;" width="171" x="588.5" y="824.89"/><rect fill="#F1F1F1" height="10" style="stroke:#181818;stroke-width:0.5;" width="15" x="739.5" y="829.89"/><rect fill="#F1F1F1" height="2" style="stroke:#181818;stroke-width:0.5;" width="4" x="737.5" y="831.89"/><rect fill="#F1F1F1" height="2" style="stroke:#181818;stroke-width:0.5;" width="4" x="737.5" y="835.89"/><text fill="#000000" font-family="sans-serif" font-size="14" lengthAdjust="spacing" textLength="120" x="603.5" y="858.4252">FteCostOptimizer</text><text fill="#000000" font-family="sans-serif" font-size="14" lengthAdjust="spacing" textLength="131" x="603.5" y="874.9134">&#171;Token Budgeting&#187;</text></g><!--entity idp--><g id="elem_idp"><rect fill="#F1F1F1" height="62.9766" rx="2.5" ry="2.5" style="stroke:#181818;stroke-width:0.5;" width="223" x="859.5" y="824.89"/><rect fill="#F1F1F1" height="10" style="stroke:#181818;stroke-width:0.5;" width="15" x="1062.5" y="829.89"/><rect fill="#F1F1F1" height="2" style="stroke:#181818;stroke-width:0.5;" width="4" x="1060.5" y="831.89"/><rect fill="#F1F1F1" height="2" style="stroke:#181818;stroke-width:0.5;" width="4" x="1060.5" y="835.89"/><text fill="#000000" font-family="sans-serif" font-size="14" lengthAdjust="spacing" textLength="183" x="874.5" y="858.4252">MockCorporateIdpAdapter</text><text fill="#000000" font-family="sans-serif" font-size="14" lengthAdjust="spacing" textLength="117" x="874.5" y="874.9134">&#171;IAM Resolution&#187;</text></g><!--entity memory--><g id="elem_memory"><path d="M1118,835.39 C1118,825.39 1200,825.39 1200,825.39 C1200,825.39 1282,825.39 1282,835.39 L1282,877.3666 C1282,887.3666 1200,887.3666 1200,887.3666 C1200,887.3666 1118,887.3666 1118,877.3666 L1118,835.39 " fill="#F1F1F1" style="stroke:#181818;stroke-width:0.5;"/><path d="M1118,835.39 C1118,845.39 1200,845.39 1200,845.39 C1200,845.39 1282,845.39 1282,835.39 " fill="none" style="stroke:#181818;stroke-width:0.5;"/><text fill="#000000" font-family="sans-serif" font-size="14" lengthAdjust="spacing" textLength="144" x="1128" y="862.9252">Agent Memory Banks</text><text fill="#000000" font-family="sans-serif" font-size="14" lengthAdjust="spacing" textLength="102" x="1128" y="879.4134">&#171;Redis/Vector&#187;</text></g><!--entity hitl--><g id="elem_hitl"><ellipse cx="386" cy="14" fill="#F1F1F1" rx="8" ry="8" style="stroke:#181818;stroke-width:0.5;"/><path d="M386,22 L386,49 M373,30 L399,30 M386,49 L373,64 M386,49 L399,64 " fill="none" style="stroke:#181818;stroke-width:0.5;"/><text fill="#000000" font-family="sans-serif" font-size="14" lengthAdjust="spacing" textLength="158" x="307" y="79.0352">Business Analyst / HITL</text></g><!--entity App--><g id="elem_App"><ellipse cx="528" cy="14" fill="#F1F1F1" rx="8" ry="8" style="stroke:#181818;stroke-width:0.5;"/><path d="M528,22 L528,49 M515,30 L541,30 M528,49 L515,64 M528,49 L541,64 " fill="none" style="stroke:#181818;stroke-width:0.5;"/><text fill="#000000" font-family="sans-serif" font-size="14" lengthAdjust="spacing" textLength="57" x="499.5" y="79.0352">TPP App</text></g><!--link hitl to HITL Dashboard (Next.js)--><g id="link_hitl_HITL Dashboard (Next.js)"><path d="M386,82.21 C386,112.94 386,149.9 386,178.65 " fill="none" id="hitl-to-HITL Dashboard (Next.js)" style="stroke:#181818;stroke-width:1.0;"/><polygon fill="#181818" points="386,184.65,390,175.65,386,179.65,382,175.65,386,184.65" style="stroke:#181818;stroke-width:1.0;"/><text fill="#000000" font-family="sans-serif" font-size="13" lengthAdjust="spacing" textLength="71" x="387" y="125.5584">Chat &amp; PRD</text></g><!--link HITL Dashboard (Next.js) to gateway--><g id="link_HITL Dashboard (Next.js)_gateway"><path d="M386,248.31 C386,278.02 386,316.75 386,346.51 " fill="none" id="HITL Dashboard (Next.js)-to-gateway" style="stroke:#181818;stroke-width:1.0;"/><polygon fill="#181818" points="386,352.51,390,343.51,386,347.51,382,343.51,386,352.51" style="stroke:#181818;stroke-width:1.0;"/><text fill="#000000" font-family="sans-serif" font-size="13" lengthAdjust="spacing" textLength="175" x="387" y="293.5284">WebSocket (Virtual Threads)</text></g><!--link gateway to harness--><g id="link_gateway_harness"><path d="M386,416.29 C386,445.52 386,483.18 386,512.45 " fill="none" id="gateway-to-harness" style="stroke:#181818;stroke-width:1.0;"/><polygon fill="#181818" points="386,518.45,390,509.45,386,513.45,382,509.45,386,518.45" style="stroke:#181818;stroke-width:1.0;"/><text fill="#000000" font-family="sans-serif" font-size="13" lengthAdjust="spacing" textLength="199" x="387" y="459.5084">Dispatches Task (AgentFteRole)</text></g><!--link harness to agents--><g id="link_harness_agents"><path d="M388.02,582.39 C389.5,605.12 391.1196,629.8527 392.5996,652.5527 " fill="none" id="harness-to-agents" style="stroke:#181818;stroke-width:1.0;"/><polygon fill="#181818" points="392.99,658.54,396.396,649.2988,392.6647,653.5506,388.4129,649.8193,392.99,658.54" style="stroke:#181818;stroke-width:1.0;"/><text fill="#000000" font-family="sans-serif" font-size="13" lengthAdjust="spacing" textLength="144" x="392.04" y="625.4884">Maps to Specific Agent</text></g><!--link agents to idp--><g id="link_agents_idp"><path d="M522.58,703.3 C593.66,712.22 683.08,727.24 760,751.89 C816.73,770.07 872.1474,798.244 913.7974,821.614 " fill="none" id="agents-to-idp" style="stroke:#181818;stroke-width:1.0;"/><polygon fill="#181818" points="919.03,824.55,913.1385,816.6576,914.6695,822.1033,909.2238,823.6344,919.03,824.55" style="stroke:#181818;stroke-width:1.0;"/><text fill="#000000" font-family="sans-serif" font-size="13" lengthAdjust="spacing" textLength="231" x="803.15" y="765.4584">Resolves Identity Profile &amp; Vault Path</text></g><!--link agents to skillEvo--><g id="link_agents_skillEvo"><path d="M267.15,702.67 C234.31,711.55 201.85,726.62 179,751.89 C161.39,771.37 157.8184,795.6806 158.1284,818.4806 " fill="none" id="agents-to-skillEvo" style="stroke:#181818;stroke-width:1.0;"/><polygon fill="#181818" points="158.21,824.48,162.0873,815.4265,158.142,819.4805,154.088,815.5352,158.21,824.48" style="stroke:#181818;stroke-width:1.0;"/><text fill="#000000" font-family="sans-serif" font-size="13" lengthAdjust="spacing" textLength="214" x="180" y="765.4584">Updates Skill Mastery (+86% TDD)</text></g><!--link agents to scrum--><g id="link_agents_scrum"><path d="M398.76,722.25 C402.33,751.47 406.9236,789.1741 410.4936,818.4441 " fill="none" id="agents-to-scrum" style="stroke:#181818;stroke-width:1.0;"/><polygon fill="#181818" points="411.22,824.4,414.1009,814.9819,410.6146,819.4368,406.1598,815.9505,411.22,824.4" style="stroke:#181818;stroke-width:1.0;"/><text fill="#000000" font-family="sans-serif" font-size="13" lengthAdjust="spacing" textLength="151" x="405.4" y="765.4584">Participates in Standups</text></g><!--link agents to cost--><g id="link_agents_cost"><path d="M503.33,722.28 C524.53,730.42 546.05,740.26 565,751.89 C597.02,771.55 623.4882,797.3874 644.0282,820.1274 " fill="none" id="agents-to-cost" style="stroke:#181818;stroke-width:1.0;"/><polygon fill="#181818" points="648.05,824.58,644.9857,815.22,644.6985,820.8695,639.049,820.5824,648.05,824.58" style="stroke:#181818;stroke-width:1.0;"/><text fill="#000000" font-family="sans-serif" font-size="13" lengthAdjust="spacing" textLength="162" x="589.49" y="765.4584">Dedicts AI Token Budgets</text></g><!--link agents to memory--><g id="link_agents_memory"><path d="M522.8,691.37 C655.01,694.09 866.48,706.22 1043,751.89 C1091.51,764.45 1133.7702,795.2154 1163.4502,820.9954 " fill="none" id="agents-to-memory" style="stroke:#181818;stroke-width:1.0;"/><polygon fill="#181818" points="1167.98,824.93,1163.8084,816.0083,1164.2052,821.6512,1158.5622,822.048,1167.98,824.93" style="stroke:#181818;stroke-width:1.0;"/><text fill="#000000" font-family="sans-serif" font-size="13" lengthAdjust="spacing" textLength="161" x="1086.81" y="765.4584">Stores Conversation State</text></g><!--SRC=[VLJRRjf047ttLuoeMe7QD59LHL64a0ma2b9eBA39Gzk7OJs6BVRkQdTDIglyUsVN9ZUHy10Y-rpcSWQtaSgWnGgKpWd-9S2V8OhDokfQvIDTQWllYg_5IN7QlDCs9zi-no_Bh-8akKyI59uVT8QraugSWrHXkNCUZk5oihZg03fOIr_kSOiiWzIO-9o_aoIwTp9BZfH7BxM2AzoHxRGb_HZJbafjo4AchSSIkj_eZ__ys_L-GRz_ORNofFB1e447KnYZMoyrslnLxFtUE5snhTmIP2NwGjiAkjU6r7mj2m-pwtdQsnSI_mXT6QsO0frRMiwrs927ePNvYdwgVdzkh5Gh7fNsWq7iSOMUxd3tgD3OZlHAoUWR2pYwM9m_R_k5MNX_YJPEUAHv4r8XppDuBj1jO2oTGI_MP5lVTGC-fFNeEELQIXT4KYjuIoHyRUaJErIcbAW4_qzUj98OU0SLvnjPbd2-rMKT5tYhxQOezLqiZnXciMn5N80oyg2Ci7K58x9KQIM90o9uH3mcSeUK0ZhAtB-SxhdGIbTIEFZ0lN0Otnojfu2vDbvMyYyrCzKRKZ2iUQsU5zew2eOTDfpa8KL-ntvJBjxkNl6QSc16seOsF4roa-PeV6CvIQSm8zUEi7MKkNcGoT7Z4jq-iwqHdwpQnF7CA9Vk-8R2dRNqAaBQaZdouH3Xw6ZmrfcSmMYDdXl9PkFa3LoGQSFDdCTZwDv8wsi-qyNQ4kQkb-nHWT76aXaFYNKG4zoDNV4oPhga7jVQ8WEhIHwJfcWSU0rpGq8MKZJNaxJl0vGdnhWuo2rBFomcixgG9N5VDrYN7ZBqwwUyVIwP_Dtmg9dRf7gAZZUqW-x7qvFti1YFUyzeCR9dB6Uz5D94ebGmzwZoshYds12Vq3ZlIV2ZT09FO_OCsYoEmNDU9eMJLrkohlbvP6rFoNy0]--></g></svg>