<svg xmlns="http://www.w3.org/2000/svg" xmlns:xlink="http://www.w3.org/1999/xlink" contentStyleType="text/css" height="559px" preserveAspectRatio="none" style="width:1117px;height:559px;background:#FFFFFF;" version="1.1" viewBox="0 0 1117 559" width="1117px" zoomAndPan="magnify"><defs/><g><!--cluster CBUAE Open Finance Ecosystem--><g id="cluster_CBUAE Open Finance Ecosystem"><path d="M755.5,154.99 L986.5,154.99 A3.75,3.75 0 0 1 989,157.49 L996,177.4783 L996.5,177.4783 A2.5,2.5 0 0 1 999,179.9783 L999,246.47 A2.5,2.5 0 0 1 996.5,248.97 L755.5,248.97 A2.5,2.5 0 0 1 753,246.47 L753,157.49 A2.5,2.5 0 0 1 755.5,154.99 " fill="none" style="stroke:#000000;stroke-width:1.5;"/><line style="stroke:#000000;stroke-width:1.5;" x1="753" x2="996" y1="177.4783" y2="177.4783"/><text fill="#000000" font-family="sans-serif" font-size="14" font-weight="bold" lengthAdjust="spacing" textLength="230" x="757" y="170.5252">CBUAE Open Finance Ecosystem</text></g><!--cluster OPF Agentive Platform--><g id="cluster_OPF Agentive Platform"><path d="M25.5,144.99 L191.5,144.99 A3.75,3.75 0 0 1 194,147.49 L201,167.4783 L645.5,167.4783 A2.5,2.5 0 0 1 648,169.9783 L648,403.2 A2.5,2.5 0 0 1 645.5,405.7 L25.5,405.7 A2.5,2.5 0 0 1 23,403.2 L23,147.49 A2.5,2.5 0 0 1 25.5,144.99 " fill="none" style="stroke:#000000;stroke-width:1.5;"/><line style="stroke:#000000;stroke-width:1.5;" x1="23" x2="201" y1="167.4783" y2="167.4783"/><text fill="#000000" font-family="sans-serif" font-size="14" font-weight="bold" lengthAdjust="spacing" textLength="165" x="27" y="160.5252">OPF Agentive Platform</text></g><!--cluster External Enterprise Systems--><g id="cluster_External Enterprise Systems"><path d="M174.5,454.7 L376.5,454.7 A3.75,3.75 0 0 1 379,457.2 L386,477.1883 L868.5,477.1883 A2.5,2.5 0 0 1 871,479.6883 L871,549.69 A2.5,2.5 0 0 1 868.5,552.19 L174.5,552.19 A2.5,2.5 0 0 1 172,549.69 L172,457.2 A2.5,2.5 0 0 1 174.5,454.7 " fill="none" style="stroke:#000000;stroke-width:1.5;"/><line style="stroke:#000000;stroke-width:1.5;" x1="172" x2="386" y1="477.1883" y2="477.1883"/><text fill="#000000" font-family="sans-serif" font-size="14" font-weight="bold" lengthAdjust="spacing" textLength="201" x="176" y="470.2352">External Enterprise Systems</text></g><!--entity Kafka--><g id="elem_Kafka"><path d="M777,189.99 L975,189.99 C980,189.99 980,211.4783 980,211.4783 C980,211.4783 980,232.9666 975,232.9666 L777,232.9666 C772,232.9666 772,211.4783 772,211.4783 C772,211.4783 772,189.99 777,189.99 " fill="#F1F1F1" style="stroke:#181818;stroke-width:0.5;"/><path d="M975,189.99 C970,189.99 970,211.4783 970,211.4783 C970,232.9666 975,232.9666 975,232.9666 " fill="none" style="stroke:#181818;stroke-width:0.5;"/><text fill="#000000" font-family="sans-serif" font-size="14" lengthAdjust="spacing" textLength="188" x="777" y="208.5252">CBUAE OpenFinance Events</text><text fill="#000000" font-family="sans-serif" font-size="14" lengthAdjust="spacing" textLength="52" x="777" y="225.0134">&#171;Kafka&#187;</text></g><!--entity DevPortal--><g id="elem_DevPortal"><rect fill="#F1F1F1" height="62.9766" rx="2.5" ry="2.5" style="stroke:#181818;stroke-width:0.5;" width="153" x="39.5" y="179.99"/><rect fill="#F1F1F1" height="10" style="stroke:#181818;stroke-width:0.5;" width="15" x="172.5" y="184.99"/><rect fill="#F1F1F1" height="2" style="stroke:#181818;stroke-width:0.5;" width="4" x="170.5" y="186.99"/><rect fill="#F1F1F1" height="2" style="stroke:#181818;stroke-width:0.5;" width="4" x="170.5" y="190.99"/><text fill="#000000" font-family="sans-serif" font-size="14" lengthAdjust="spacing" textLength="113" x="54.5" y="213.5252">Developer Portal</text><text fill="#000000" font-family="sans-serif" font-size="14" lengthAdjust="spacing" textLength="61" x="54.5" y="230.0134">&#171;Next.js&#187;</text></g><!--entity HitlDashboard--><g id="elem_HitlDashboard"><rect fill="#F1F1F1" height="62.9766" rx="2.5" ry="2.5" style="stroke:#181818;stroke-width:0.5;" width="149" x="298.5" y="179.99"/><rect fill="#F1F1F1" height="10" style="stroke:#181818;stroke-width:0.5;" width="15" x="427.5" y="184.99"/><rect fill="#F1F1F1" height="2" style="stroke:#181818;stroke-width:0.5;" width="4" x="425.5" y="186.99"/><rect fill="#F1F1F1" height="2" style="stroke:#181818;stroke-width:0.5;" width="4" x="425.5" y="190.99"/><text fill="#000000" font-family="sans-serif" font-size="14" lengthAdjust="spacing" textLength="109" x="313.5" y="213.5252">HITL Dashboard</text><text fill="#000000" font-family="sans-serif" font-size="14" lengthAdjust="spacing" textLength="61" x="313.5" y="230.0134">&#171;Next.js&#187;</text></g><!--entity Core--><g id="elem_Core"><rect fill="#F1F1F1" height="62.9766" rx="2.5" ry="2.5" style="stroke:#181818;stroke-width:0.5;" width="219" x="337.5" y="326.73"/><rect fill="#F1F1F1" height="10" style="stroke:#181818;stroke-width:0.5;" width="15" x="536.5" y="331.73"/><rect fill="#F1F1F1" height="2" style="stroke:#181818;stroke-width:0.5;" width="4" x="534.5" y="333.73"/><rect fill="#F1F1F1" height="2" style="stroke:#181818;stroke-width:0.5;" width="4" x="534.5" y="337.73"/><text fill="#000000" font-family="sans-serif" font-size="14" lengthAdjust="spacing" textLength="158" x="352.5" y="360.2652">Agentive Backend Core</text><text fill="#000000" font-family="sans-serif" font-size="14" lengthAdjust="spacing" textLength="179" x="352.5" y="376.7534">&#171;Spring Boot + Temporal&#187;</text></g><!--entity GitHub--><g id="elem_GitHub"><rect fill="#F1F1F1" height="46.4883" rx="2.5" ry="2.5" style="stroke:#181818;stroke-width:0.5;" width="87" x="187.5" y="489.7"/><rect fill="#F1F1F1" height="10" style="stroke:#181818;stroke-width:0.5;" width="15" x="254.5" y="494.7"/><rect fill="#F1F1F1" height="2" style="stroke:#181818;stroke-width:0.5;" width="4" x="252.5" y="496.7"/><rect fill="#F1F1F1" height="2" style="stroke:#181818;stroke-width:0.5;" width="4" x="252.5" y="500.7"/><text fill="#000000" font-family="sans-serif" font-size="14" lengthAdjust="spacing" textLength="47" x="202.5" y="523.2352">GitHub</text></g><!--entity Jira--><g id="elem_Jira"><rect fill="#F1F1F1" height="46.4883" rx="2.5" ry="2.5" style="stroke:#181818;stroke-width:0.5;" width="128" x="309" y="489.7"/><rect fill="#F1F1F1" height="10" style="stroke:#181818;stroke-width:0.5;" width="15" x="417" y="494.7"/><rect fill="#F1F1F1" height="2" style="stroke:#181818;stroke-width:0.5;" width="4" x="415" y="496.7"/><rect fill="#F1F1F1" height="2" style="stroke:#181818;stroke-width:0.5;" width="4" x="415" y="500.7"/><text fill="#000000" font-family="sans-serif" font-size="14" lengthAdjust="spacing" textLength="88" x="324" y="523.2352">Atlassian Jira</text></g><!--entity Vault--><g id="elem_Vault"><rect fill="#F1F1F1" height="46.4883" rx="2.5" ry="2.5" style="stroke:#181818;stroke-width:0.5;" width="173" x="472.5" y="489.7"/><rect fill="#F1F1F1" height="10" style="stroke:#181818;stroke-width:0.5;" width="15" x="625.5" y="494.7"/><rect fill="#F1F1F1" height="2" style="stroke:#181818;stroke-width:0.5;" width="4" x="623.5" y="496.7"/><rect fill="#F1F1F1" height="2" style="stroke:#181818;stroke-width:0.5;" width="4" x="623.5" y="500.7"/><text fill="#000000" font-family="sans-serif" font-size="14" lengthAdjust="spacing" textLength="133" x="487.5" y="523.2352">HashVault Manager</text></g><!--entity Finacle--><g id="elem_Finacle"><rect fill="#F1F1F1" height="46.4883" rx="2.5" ry="2.5" style="stroke:#181818;stroke-width:0.5;" width="174" x="681" y="489.7"/><rect fill="#F1F1F1" height="10" style="stroke:#181818;stroke-width:0.5;" width="15" x="835" y="494.7"/><rect fill="#F1F1F1" height="2" style="stroke:#181818;stroke-width:0.5;" width="4" x="833" y="496.7"/><rect fill="#F1F1F1" height="2" style="stroke:#181818;stroke-width:0.5;" width="4" x="833" y="500.7"/><text fill="#000000" font-family="sans-serif" font-size="14" lengthAdjust="spacing" textLength="134" x="696" y="523.2352">Legacy Finacle/SOA</text></g><!--entity TPP--><g id="elem_TPP"><ellipse cx="116" cy="14" fill="#F1F1F1" rx="8" ry="8" style="stroke:#181818;stroke-width:0.5;"/><path d="M116,22 L116,49 M103,30 L129,30 M116,49 L103,64 M116,49 L129,64 " fill="none" style="stroke:#181818;stroke-width:0.5;"/><text fill="#000000" font-family="sans-serif" font-size="14" lengthAdjust="spacing" textLength="220" x="6" y="79.0352">Third Party Provider / Developer</text></g><!--entity BA--><g id="elem_BA"><ellipse cx="373" cy="14" fill="#F1F1F1" rx="8" ry="8" style="stroke:#181818;stroke-width:0.5;"/><path d="M373,22 L373,49 M360,30 L386,30 M373,49 L360,64 M373,49 L386,64 " fill="none" style="stroke:#181818;stroke-width:0.5;"/><text fill="#000000" font-family="sans-serif" font-size="14" lengthAdjust="spacing" textLength="158" x="294" y="79.0352">Business Analyst / HITL</text></g><!--entity Customer--><g id="elem_Customer"><ellipse cx="698" cy="181.74" fill="#F1F1F1" rx="8" ry="8" style="stroke:#181818;stroke-width:0.5;"/><path d="M698,189.74 L698,216.74 M685,197.74 L711,197.74 M698,216.74 L685,231.74 M698,216.74 L711,231.74 " fill="none" style="stroke:#181818;stroke-width:0.5;"/><text fill="#000000" font-family="sans-serif" font-size="14" lengthAdjust="spacing" textLength="67" x="664.5" y="246.7752">Customer</text></g><!--link TPP to DevPortal--><g id="link_TPP_DevPortal"><path d="M116,82.36 C116,111.77 116,146.16 116,173.68 " fill="none" id="TPP-to-DevPortal" style="stroke:#181818;stroke-width:1.0;"/><polygon fill="#181818" points="116,179.68,120,170.68,116,174.68,112,170.68,116,179.68" style="stroke:#181818;stroke-width:1.0;"/><text fill="#000000" font-family="sans-serif" font-size="13" lengthAdjust="spacing" textLength="116" x="117" y="125.5584">Integrates &amp; Chats</text></g><!--link BA to HitlDashboard--><g id="link_BA_HitlDashboard"><path d="M373,82.36 C373,111.77 373,146.16 373,173.68 " fill="none" id="BA-to-HitlDashboard" style="stroke:#181818;stroke-width:1.0;"/><polygon fill="#181818" points="373,179.68,377,170.68,373,174.68,369,170.68,373,179.68" style="stroke:#181818;stroke-width:1.0;"/><text fill="#000000" font-family="sans-serif" font-size="13" lengthAdjust="spacing" textLength="156" x="374" y="125.5584">Uploads PRD &amp; Approves</text></g><!--link DevPortal to Core--><g id="link_DevPortal_Core"><path d="M108.01,243.1 C105.33,260.76 105.66,282.26 118,296.73 C146.08,329.64 246.9498,344.2433 331.3598,351.1133 " fill="none" id="DevPortal-to-Core" style="stroke:#181818;stroke-width:1.0;"/><polygon fill="#181818" points="337.34,351.6,328.6941,346.8831,332.3565,351.1944,328.0452,354.8567,337.34,351.6" style="stroke:#181818;stroke-width:1.0;"/><text fill="#000000" font-family="sans-serif" font-size="13" lengthAdjust="spacing" textLength="257" x="119" y="293.2984">WebSockets / REST (via API/AI Gateways)</text></g><!--link HitlDashboard to Core--><g id="link_HitlDashboard_Core"><path d="M375.61,243.45 C377.97,259.98 382.46,280.26 391,296.73 C396.54,307.4 400.4053,313.1666 408.5653,322.0266 " fill="none" id="HitlDashboard-to-Core" style="stroke:#181818;stroke-width:1.0;"/><polygon fill="#181818" points="412.63,326.44,409.4752,317.1101,409.2427,322.7622,403.5907,322.5297,412.63,326.44" style="stroke:#181818;stroke-width:1.0;"/><text fill="#000000" font-family="sans-serif" font-size="13" lengthAdjust="spacing" textLength="257" x="392" y="293.2984">WebSockets / REST (via API/AI Gateways)</text></g><!--link Kafka to Core--><g id="link_Kafka_Core"><path d="M868.16,233.45 C859.67,253.12 844.14,281.68 821,296.73 C778.4,324.42 656.9754,340.1771 562.6454,348.7471 " fill="none" id="Kafka-to-Core" style="stroke:#181818;stroke-width:1.0;"/><polygon fill="#181818" points="556.67,349.29,565.995,352.4593,561.6495,348.8376,565.2712,344.4921,556.67,349.29" style="stroke:#181818;stroke-width:1.0;"/><text fill="#000000" font-family="sans-serif" font-size="13" lengthAdjust="spacing" textLength="269" x="840.32" y="293.2984">Pushes Webhooks (Autonomous Ingestion)</text></g><!--link Customer to Core--><g id="link_Customer_Core"><path d="M686.01,250.05 C679.04,266.47 668.67,284.69 654,296.73 C626.43,319.34 596.5154,331.9841 562.5454,340.8541 " fill="none" id="Customer-to-Core" style="stroke:#181818;stroke-width:1.0;"/><polygon fill="#181818" points="556.74,342.37,566.4586,343.9665,561.5778,341.1068,564.4375,336.226,556.74,342.37" style="stroke:#181818;stroke-width:1.0;"/><text fill="#000000" font-family="sans-serif" font-size="13" lengthAdjust="spacing" textLength="141" x="670.62" y="293.2984">SCA Consent Approval</text></g><!--link Core to GitHub--><g id="link_Core_GitHub"><path d="M337.24,372.67 C277.18,382.54 211.31,398.34 193,421.7 C177.06,442.04 189.6398,465.4051 205.5798,484.7951 " fill="none" id="Core-to-GitHub" style="stroke:#181818;stroke-width:1.0;"/><polygon fill="#181818" points="209.39,489.43,206.7646,479.9375,206.2148,485.5676,200.5847,485.0178,209.39,489.43" style="stroke:#181818;stroke-width:1.0;"/><text fill="#000000" font-family="sans-serif" font-size="13" lengthAdjust="spacing" textLength="148" x="194" y="435.2684">Reads PRDs (WebClient)</text></g><!--link Core to Jira--><g id="link_Core_Jira"><path d="M384.43,390.03 C373,398.64 362.61,409.15 356,421.7 C344.86,442.86 350.203,464.714 358.533,483.734 " fill="none" id="Core-to-Jira" style="stroke:#181818;stroke-width:1.0;"/><polygon fill="#181818" points="360.94,489.23,360.9935,479.3813,358.9341,484.65,353.6654,482.5907,360.94,489.23" style="stroke:#181818;stroke-width:1.0;"/><text fill="#000000" font-family="sans-serif" font-size="13" lengthAdjust="spacing" textLength="172" x="357" y="435.2684">Creates Tickets (WebClient)</text></g><!--link Core to Vault--><g id="link_Core_Vault"><path d="M501.75,389.91 C513.8,398.82 525.49,409.5 534,421.7 C548.14,441.97 553.4828,464.0359 556.1528,483.4559 " fill="none" id="Core-to-Vault" style="stroke:#181818;stroke-width:1.0;"/><polygon fill="#181818" points="556.97,489.4,559.7069,479.9391,556.289,484.4466,551.7814,481.0287,556.97,489.4" style="stroke:#181818;stroke-width:1.0;"/><text fill="#000000" font-family="sans-serif" font-size="13" lengthAdjust="spacing" textLength="191" x="543.73" y="435.2684">Fetches Agent Identity Tokens</text></g><!--link Core to Finacle--><g id="link_Core_Finacle"><path d="M556.64,370.24 C629.69,379.77 717.05,396.13 744,421.7 C762.35,439.11 766.9526,462.8174 767.9726,483.3674 " fill="none" id="Core-to-Finacle" style="stroke:#181818;stroke-width:1.0;"/><polygon fill="#181818" points="768.27,489.36,771.8189,480.1728,768.0221,484.3661,763.8288,480.5694,768.27,489.36" style="stroke:#181818;stroke-width:1.0;"/><text fill="#000000" font-family="sans-serif" font-size="13" lengthAdjust="spacing" textLength="143" x="756.84" y="435.2684">Executes Banking Saga</text></g><!--SRC=[dPHDJzj048Rl-okcgLI1AagHK8KGGdAC0sdvi6BJNdgPs8EpZRFhxgu3KTN_tjcran3Wr9pMdkUTdNTcudSbFKX5C4dYFBgzl4wWgD5Q8UnSgWODBi1GuL1LDS4V0VmROZ6lZ6vL6UjQ6tX_TFJbP5g6s4Whrxrzd4b77QzDIQPdFq-FJqwEnLyXi73yOf3Ff2aXHUDMa1gzbCp28LpGachTa1a0MiZJTCqFMylrMWkHmdfb7RDNu_mwOCDeJSMjTNhHgzSFGZHSEbR4yU5zbC1TGmf6Kg4g2992Myv7Yq7lytTBxGww8PUadFsfpiw-uSCSpy_3BU7iZMqkkKj745NCoYL1MgDxq6QJlT2BHYiEmc3Z5L9j7DO-yoqzkK-_R9-RYIxqKkgjmmNQsLIZALyBhwIhD-6NuarjVgAaIeYr8PyZQunK5GzEE_W8ER72ODsdzD2EpUJ9aU5XGABum59Ba8LEsZVCNaftrKv3fkxugYhd5r2YWg_IO03zuPLpTlKTszh13IgkenjrUFCIlQOAYrKOT57JONON1RP_zbvul-3Wu7pRPpY5CRkf33goy07Y6JehXb6WTfhAv7rJQomjf9CBHgEcuJKcAxR9lCYtZTaVDCqqTzjPNjn9akMmjvG8KJe-ZCPmoTSzuihkYzqx_YD1MCVdmhIrC_R2-fdMSmjxKUkqqWlTMlPQaNLIgtsn_hCybsPnn4TbVJSxUxo98UQXReoCJQZl0YVdQ-9Qic1_2_enCXOR2btDPMVZJRORxIcCo1M-xB2hC2xznlAN8jUyi7QBzxDaGV94HUlJ3r7D_HPdMA7u1m00]--></g></svg>