<svg xmlns="http://www.w3.org/2000/svg" xmlns:xlink="http://www.w3.org/1999/xlink" contentStyleType="text/css" height="774px" preserveAspectRatio="none" style="width:491px;height:774px;background:#FFFFFF;" version="1.1" viewBox="0 0 491 774" width="491px" zoomAndPan="magnify"><defs/><g><!--cluster OPF-Agentive-Platform--><g id="cluster_OPF-Agentive-Platform"><rect fill="#438DD5" height="623.88" rx="2.5" ry="2.5" style="stroke:#181818;stroke-width:1.0;" width="447" x="7" y="144.99"/><text fill="#FFFFFF" font-family="sans-serif" font-size="14" font-weight="bold" lengthAdjust="spacing" textLength="173" x="144" y="160.5252">OPF-Agentive-Platform</text></g><!--entity devPortal--><g id="elem_devPortal"><rect fill="#438DD5" height="52.9766" rx="2.5" ry="2.5" style="stroke:#181818;stroke-width:0.5;" width="133" x="39.5" y="179.99"/><text fill="#FFFFFF" font-family="sans-serif" font-size="14" lengthAdjust="spacing" textLength="113" x="49.5" y="203.5252">Developer Portal</text><text fill="#FFFFFF" font-family="sans-serif" font-size="14" lengthAdjust="spacing" textLength="105" x="49.5" y="220.0134">&#171;Next.js/React&#187;</text></g><!--entity hitlPortal--><g id="elem_hitlPortal"><rect fill="#438DD5" height="52.9766" rx="2.5" ry="2.5" style="stroke:#181818;stroke-width:0.5;" width="129" x="218.5" y="179.99"/><text fill="#FFFFFF" font-family="sans-serif" font-size="14" lengthAdjust="spacing" textLength="109" x="228.5" y="203.5252">HITL Dashboard</text><text fill="#FFFFFF" font-family="sans-serif" font-size="14" lengthAdjust="spacing" textLength="105" x="228.5" y="220.0134">&#171;Next.js/React&#187;</text></g><!--entity gateway--><g id="elem_gateway"><rect fill="#438DD5" height="52.9766" rx="2.5" ry="2.5" style="stroke:#181818;stroke-width:0.5;" width="202" x="87" y="309.96"/><text fill="#FFFFFF" font-family="sans-serif" font-size="14" lengthAdjust="spacing" textLength="182" x="97" y="333.4952">API Gateway &amp; WebSockets</text><text fill="#FFFFFF" font-family="sans-serif" font-size="14" lengthAdjust="spacing" textLength="94" x="97" y="349.9834">&#171;Spring Boot&#187;</text></g><!--entity cog--><g id="elem_cog"><rect fill="#438DD5" height="52.9766" rx="2.5" ry="2.5" style="stroke:#181818;stroke-width:0.5;" width="203" x="86.5" y="439.94"/><text fill="#FFFFFF" font-family="sans-serif" font-size="14" lengthAdjust="spacing" textLength="183" x="96.5" y="463.4752">Cognitive Agent-FTE Layer</text><text fill="#FFFFFF" font-family="sans-serif" font-size="14" lengthAdjust="spacing" textLength="167" x="96.5" y="479.9634">&#171;Temporal/Spring Boot&#187;</text></g><!--entity idp--><g id="elem_idp"><rect fill="#438DD5" height="52.9766" rx="2.5" ry="2.5" style="stroke:#181818;stroke-width:0.5;" width="220" x="23" y="569.92"/><text fill="#FFFFFF" font-family="sans-serif" font-size="14" lengthAdjust="spacing" textLength="115" x="33" y="593.4552">Identity &amp; Access</text><text fill="#FFFFFF" font-family="sans-serif" font-size="14" lengthAdjust="spacing" textLength="200" x="33" y="609.9434">&#171;Hexagonal IAM/Vault Mock&#187;</text></g><!--entity med--><g id="elem_med"><rect fill="#438DD5" height="52.9766" rx="2.5" ry="2.5" style="stroke:#181818;stroke-width:0.5;" width="156" x="278" y="569.92"/><text fill="#FFFFFF" font-family="sans-serif" font-size="14" lengthAdjust="spacing" textLength="101" x="288" y="593.4552">Mediator Layer</text><text fill="#FFFFFF" font-family="sans-serif" font-size="14" lengthAdjust="spacing" textLength="136" x="288" y="609.9434">&#171;Spring Boot CQRS&#187;</text></g><!--entity acl--><g id="elem_acl"><rect fill="#438DD5" height="52.9766" rx="2.5" ry="2.5" style="stroke:#181818;stroke-width:0.5;" width="172" x="187" y="699.89"/><text fill="#FFFFFF" font-family="sans-serif" font-size="14" lengthAdjust="spacing" textLength="152" x="197" y="723.4252">Anti-Corruption Layer</text><text fill="#FFFFFF" font-family="sans-serif" font-size="14" lengthAdjust="spacing" textLength="94" x="197" y="739.9134">&#171;Spring Boot&#187;</text></g><!--entity dev--><g id="elem_dev"><ellipse cx="100" cy="14" fill="#F1F1F1" rx="8" ry="8" style="stroke:#181818;stroke-width:0.5;"/><path d="M100,22 L100,49 M87,30 L113,30 M100,49 L87,64 M100,49 L113,64 " fill="none" style="stroke:#181818;stroke-width:0.5;"/><text fill="#000000" font-family="sans-serif" font-size="14" lengthAdjust="spacing" textLength="98" x="51" y="79.0352">TPP Developer</text></g><!--entity ba--><g id="elem_ba"><ellipse cx="289" cy="14" fill="#F1F1F1" rx="8" ry="8" style="stroke:#181818;stroke-width:0.5;"/><path d="M289,22 L289,49 M276,30 L302,30 M289,49 L276,64 M289,49 L302,64 " fill="none" style="stroke:#181818;stroke-width:0.5;"/><text fill="#000000" font-family="sans-serif" font-size="14" lengthAdjust="spacing" textLength="113" x="232.5" y="79.0352">Business Analyst</text></g><!--link dev to devPortal--><g id="link_dev_devPortal"><path d="M98.02,82.43 C97.6,92.06 97.21,102.41 97,111.99 C96.83,119.54 96.56,121.44 97,128.99 C97.99,145.94 99.4244,158.953 101.4044,173.753 " fill="none" id="dev-to-devPortal" style="stroke:#181818;stroke-width:1.0;"/><polygon fill="#181818" points="102.2,179.7,104.9713,170.2491,101.537,174.7442,97.0419,171.3099,102.2,179.7" style="stroke:#181818;stroke-width:1.0;"/><text fill="#000000" font-family="sans-serif" font-size="13" lengthAdjust="spacing" textLength="147" x="98" y="125.5584">Integrates APIs &amp; Chats</text></g><!--link ba to hitlPortal--><g id="link_ba_hitlPortal"><path d="M287.59,82.43 C286.48,112.31 285.1735,147.2742 284.1935,173.5642 " fill="none" id="ba-to-hitlPortal" style="stroke:#181818;stroke-width:1.0;"/><polygon fill="#181818" points="283.97,179.56,288.3025,170.7152,284.1563,174.5635,280.308,170.4172,283.97,179.56" style="stroke:#181818;stroke-width:1.0;"/><text fill="#000000" font-family="sans-serif" font-size="13" lengthAdjust="spacing" textLength="147" x="287.36" y="125.5584">Uploads PRD &amp; Reviews</text></g><!--link devPortal to gateway--><g id="link_devPortal_gateway"><path d="M115.09,233.31 C120.68,247.63 128.58,265.41 138,279.96 C144.7,290.3 149.2449,296.197 157.4249,305.077 " fill="none" id="devPortal-to-gateway" style="stroke:#181818;stroke-width:1.0;"/><polygon fill="#181818" points="161.49,309.49,158.3343,300.1604,158.1024,305.8125,152.4503,305.5806,161.49,309.49" style="stroke:#181818;stroke-width:1.0;"/><text fill="#000000" font-family="sans-serif" font-size="13" lengthAdjust="spacing" textLength="88" x="139" y="276.5284">API &amp; WS calls</text></g><!--link hitlPortal to gateway--><g id="link_hitlPortal_gateway"><path d="M265.42,233.23 C255.74,247.19 243.42,264.68 232,279.96 C224.64,289.81 220.0645,295.7418 212.6445,305.0318 " fill="none" id="hitlPortal-to-gateway" style="stroke:#181818;stroke-width:1.0;"/><polygon fill="#181818" points="208.9,309.72,217.6422,305.1841,212.0204,305.8132,211.3913,300.1914,208.9,309.72" style="stroke:#181818;stroke-width:1.0;"/><text fill="#000000" font-family="sans-serif" font-size="13" lengthAdjust="spacing" textLength="88" x="244.49" y="276.5284">API &amp; WS calls</text></g><!--link gateway to cog--><g id="link_gateway_cog"><path d="M188,363.35 C188,385.55 188,411.38 188,433.57 " fill="none" id="gateway-to-cog" style="stroke:#181818;stroke-width:1.0;"/><polygon fill="#181818" points="188,439.57,192,430.57,188,434.57,184,430.57,188,439.57" style="stroke:#181818;stroke-width:1.0;"/><text fill="#000000" font-family="sans-serif" font-size="13" lengthAdjust="spacing" textLength="183" x="189" y="406.5084">Triggers Workflows &amp; Agents</text></g><!--link cog to idp--><g id="link_cog_idp"><path d="M88.13,493.23 C75.05,500.74 63.32,510.42 55,522.92 C43.31,540.45 52.4823,553.4602 71.8223,566.1402 " fill="none" id="cog-to-idp" style="stroke:#181818;stroke-width:1.0;"/><polygon fill="#181818" points="76.84,569.43,71.5066,561.1502,72.6586,566.6885,67.1203,567.8405,76.84,569.43" style="stroke:#181818;stroke-width:1.0;"/><text fill="#000000" font-family="sans-serif" font-size="13" lengthAdjust="spacing" textLength="193" x="56" y="536.4884">Resolves Agent Identity (RBAC)</text></g><!--link cog to med--><g id="link_cog_med"><path d="M222,493.33 C251.14,515.53 288.1479,543.7131 317.2779,565.9131 " fill="none" id="cog-to-med" style="stroke:#181818;stroke-width:1.0;"/><polygon fill="#181818" points="322.05,569.55,317.3164,560.9133,318.0732,566.5193,312.4672,567.2761,322.05,569.55" style="stroke:#181818;stroke-width:1.0;"/><text fill="#000000" font-family="sans-serif" font-size="13" lengthAdjust="spacing" textLength="143" x="283.06" y="536.4884">Executes Banking Saga</text></g><!--link med to acl--><g id="link_med_acl"><path d="M339.2,623.3 C324.8,645.51 307.4246,672.2959 293.0346,694.4859 " fill="none" id="med-to-acl" style="stroke:#181818;stroke-width:1.0;"/><polygon fill="#181818" points="289.77,699.52,298.023,694.1452,292.4905,695.3249,291.3108,689.7924,289.77,699.52" style="stroke:#181818;stroke-width:1.0;"/><text fill="#000000" font-family="sans-serif" font-size="13" lengthAdjust="spacing" textLength="163" x="320.47" y="666.4584">Routes to Legacy Systems</text></g><!--SRC=[VPDFZzCm4CNl_XIZ8Y4uX1u02Q5LfJJTif5Q24bXBrocoQnhwjgHxRPRhVZkZDE_wYxarinltioyb_gbCYqwN86ZEg2Hck1903z3h9VIsRLfCgkjWrSVtdzgcezTRMnDsB_TBbGWyKS8h0F_xCsA0aQq8MrRSZr03mrjZiNXsYj3taDgKEzywEfp5E8yk_Uj62Uf91FKXf92OtYmRjKxx7J1dOP0OLr0_SlSt7obn_3kj- -Nn0C7W-FuFN0jS9VF9Z12lvXRTCs_slayVT5_BP8MENp1G5lSmMkuftbbwoK57-MgrYaZOMZjKKpkoHULCYkDYaT3Ttqodjt217VaejICLgrrgFlFDMihhwNo9jeNuaPfNRFVKUAE7b5QzXtoTDh_YMiTOChB7cHKqrxBJAbH67CxhN4n7RBlPNNeNL7pp1TU8CciS-isA6jUb3XqOwtZzyCvGP8Cpdd1PyXD8EdODFvYYjppFTa2WnTpxD1pDip-QBN5naDHZfWhQQDewyLPBJOS_6SwviPvLL2ZrbvSAFsNEnOYnCOpC7DAId8UxgrRFcYxZLjs2NeHYKYojqoMvAtUn5DY5KuXlIc7QVRs1BEP3Dy-KhsETm_HBADX5KeKiHOPjYmAseu85YOaiTv1nNyfMddn5m00]--></g></svg>