<svg xmlns="http://www.w3.org/2000/svg" xmlns:xlink="http://www.w3.org/1999/xlink" contentStyleType="text/css" height="555px" preserveAspectRatio="none" style="width:1618px;height:555px;background:#FFFFFF;" version="1.1" viewBox="0 0 1618 555" width="1618px" zoomAndPan="magnify"><defs/><g><!--cluster k8s--><g id="cluster_k8s"><polygon fill="#F4F6F8" points="16,16,26,6,1601,6,1601,528.44,1591,538.44,16,538.44,16,16" style="stroke:#A2B4C6;stroke-width:1.0;"/><line style="stroke:#A2B4C6;stroke-width:1.0;" x1="1591" x2="1601" y1="16" y2="6"/><line style="stroke:#A2B4C6;stroke-width:1.0;" x1="16" x2="1591" y1="16" y2="16"/><line style="stroke:#A2B4C6;stroke-width:1.0;" x1="1591" x2="1591" y1="16" y2="538.44"/><text fill="#000000" font-family="sans-serif" font-size="14" font-weight="bold" lengthAdjust="spacing" textLength="129" x="740" y="32.5352">OpenShift Cluster</text></g><!--cluster Namespace: opf-sandbox--><g id="cluster_Namespace: opf-sandbox"><polygon fill="#F4F6F8" points="40,165.49,50,155.49,1577,155.49,1577,504.44,1567,514.44,40,514.44,40,165.49" style="stroke:#A2B4C6;stroke-width:1.0;"/><line style="stroke:#A2B4C6;stroke-width:1.0;" x1="1567" x2="1577" y1="165.49" y2="155.49"/><line style="stroke:#A2B4C6;stroke-width:1.0;" x1="40" x2="1567" y1="165.49" y2="165.49"/><line style="stroke:#A2B4C6;stroke-width:1.0;" x1="1567" x2="1567" y1="165.49" y2="514.44"/><text fill="#000000" font-family="sans-serif" font-size="14" font-weight="bold" lengthAdjust="spacing" textLength="182" x="713.5" y="182.0252">Namespace: opf-sandbox</text></g><!--cluster Pod: Keycloak--><g id="cluster_Pod: Keycloak"><polygon fill="#F4F6F8" points="64,213.49,74,203.49,353,203.49,353,312.46,343,322.46,64,322.46,64,213.49" style="stroke:#A2B4C6;stroke-width:1.0;"/><line style="stroke:#A2B4C6;stroke-width:1.0;" x1="343" x2="353" y1="213.49" y2="203.49"/><line style="stroke:#A2B4C6;stroke-width:1.0;" x1="64" x2="343" y1="213.49" y2="213.49"/><line style="stroke:#A2B4C6;stroke-width:1.0;" x1="343" x2="343" y1="213.49" y2="322.46"/><text fill="#000000" font-family="sans-serif" font-size="14" font-weight="bold" lengthAdjust="spacing" textLength="99" x="155" y="230.0252">Pod: Keycloak</text></g><!--cluster Pod: MongoDB--><g id="cluster_Pod: MongoDB"><polygon fill="#F4F6F8" points="64,381.46,74,371.46,339,371.46,339,480.44,329,490.44,64,490.44,64,381.46" style="stroke:#A2B4C6;stroke-width:1.0;"/><line style="stroke:#A2B4C6;stroke-width:1.0;" x1="329" x2="339" y1="381.46" y2="371.46"/><line style="stroke:#A2B4C6;stroke-width:1.0;" x1="64" x2="329" y1="381.46" y2="381.46"/><line style="stroke:#A2B4C6;stroke-width:1.0;" x1="329" x2="329" y1="381.46" y2="490.44"/><text fill="#000000" font-family="sans-serif" font-size="14" font-weight="bold" lengthAdjust="spacing" textLength="104" x="145.5" y="397.9952">Pod: MongoDB</text></g><!--cluster Pod: Temporal--><g id="cluster_Pod: Temporal"><polygon fill="#F4F6F8" points="377,213.49,387,203.49,720,203.49,720,312.46,710,322.46,377,322.46,377,213.49" style="stroke:#A2B4C6;stroke-width:1.0;"/><line style="stroke:#A2B4C6;stroke-width:1.0;" x1="710" x2="720" y1="213.49" y2="203.49"/><line style="stroke:#A2B4C6;stroke-width:1.0;" x1="377" x2="710" y1="213.49" y2="213.49"/><line style="stroke:#A2B4C6;stroke-width:1.0;" x1="710" x2="710" y1="213.49" y2="322.46"/><text fill="#000000" font-family="sans-serif" font-size="14" font-weight="bold" lengthAdjust="spacing" textLength="104" x="492.5" y="230.0252">Pod: Temporal</text></g><!--cluster Pod: Postgres Vector--><g id="cluster_Pod: Postgres Vector"><polygon fill="#F4F6F8" points="370,381.46,380,371.46,657,371.46,657,480.44,647,490.44,370,490.44,370,381.46" style="stroke:#A2B4C6;stroke-width:1.0;"/><line style="stroke:#A2B4C6;stroke-width:1.0;" x1="647" x2="657" y1="381.46" y2="371.46"/><line style="stroke:#A2B4C6;stroke-width:1.0;" x1="370" x2="647" y1="381.46" y2="381.46"/><line style="stroke:#A2B4C6;stroke-width:1.0;" x1="647" x2="647" y1="381.46" y2="490.44"/><text fill="#000000" font-family="sans-serif" font-size="14" font-weight="bold" lengthAdjust="spacing" textLength="149" x="435" y="397.9952">Pod: Postgres Vector</text></g><!--cluster Pod: Kafka--><g id="cluster_Pod: Kafka"><polygon fill="#F4F6F8" points="681,381.46,691,371.46,998,371.46,998,480.44,988,490.44,681,490.44,681,381.46" style="stroke:#A2B4C6;stroke-width:1.0;"/><line style="stroke:#A2B4C6;stroke-width:1.0;" x1="988" x2="998" y1="381.46" y2="371.46"/><line style="stroke:#A2B4C6;stroke-width:1.0;" x1="681" x2="988" y1="381.46" y2="381.46"/><line style="stroke:#A2B4C6;stroke-width:1.0;" x1="988" x2="988" y1="381.46" y2="490.44"/><text fill="#000000" font-family="sans-serif" font-size="14" font-weight="bold" lengthAdjust="spacing" textLength="76" x="797.5" y="397.9952">Pod: Kafka</text></g><!--cluster Pod: React Portal--><g id="cluster_Pod: React Portal"><polygon fill="#F4F6F8" points="744,213.49,754,203.49,1135,203.49,1135,312.46,1125,322.46,744,322.46,744,213.49" style="stroke:#A2B4C6;stroke-width:1.0;"/><line style="stroke:#A2B4C6;stroke-width:1.0;" x1="1125" x2="1135" y1="213.49" y2="203.49"/><line style="stroke:#A2B4C6;stroke-width:1.0;" x1="744" x2="1125" y1="213.49" y2="213.49"/><line style="stroke:#A2B4C6;stroke-width:1.0;" x1="1125" x2="1125" y1="213.49" y2="322.46"/><text fill="#000000" font-family="sans-serif" font-size="14" font-weight="bold" lengthAdjust="spacing" textLength="122" x="874.5" y="230.0252">Pod: React Portal</text></g><!--cluster Pod: MCP Server--><g id="cluster_Pod: MCP Server"><polygon fill="#F4F6F8" points="1159,213.49,1169,203.49,1553,203.49,1553,312.46,1543,322.46,1159,322.46,1159,213.49" style="stroke:#A2B4C6;stroke-width:1.0;"/><line style="stroke:#A2B4C6;stroke-width:1.0;" x1="1543" x2="1553" y1="213.49" y2="203.49"/><line style="stroke:#A2B4C6;stroke-width:1.0;" x1="1159" x2="1543" y1="213.49" y2="213.49"/><line style="stroke:#A2B4C6;stroke-width:1.0;" x1="1543" x2="1543" y1="213.49" y2="322.46"/><text fill="#000000" font-family="sans-serif" font-size="14" font-weight="bold" lengthAdjust="spacing" textLength="116" x="1294" y="230.0252">Pod: MCP Server</text></g><!--entity ingress--><g id="elem_ingress"><rect fill="#FFFFFF" height="46.4883" rx="2.5" ry="2.5" style="stroke:#181818;stroke-width:0.5;" width="184" x="729" y="46"/><rect fill="#FFFFFF" height="10" style="stroke:#181818;stroke-width:0.5;" width="15" x="893" y="51"/><rect fill="#FFFFFF" height="2" style="stroke:#181818;stroke-width:0.5;" width="4" x="891" y="53"/><rect fill="#FFFFFF" height="2" style="stroke:#181818;stroke-width:0.5;" width="4" x="891" y="57"/><text fill="#000000" font-family="sans-serif" font-size="14" lengthAdjust="spacing" textLength="144" x="744" y="79.5352">Istio Ingress Gateway</text></g><!--entity e1--><g id="elem_e1"><rect fill="#D3D3D3" height="62.9766" rx="2.5" ry="2.5" style="stroke:#181818;stroke-width:0.5;" width="123" x="79.5" y="243.49"/><rect fill="#D3D3D3" height="10" style="stroke:#181818;stroke-width:0.5;" width="15" x="182.5" y="248.49"/><rect fill="#D3D3D3" height="2" style="stroke:#181818;stroke-width:0.5;" width="4" x="180.5" y="250.49"/><rect fill="#D3D3D3" height="2" style="stroke:#181818;stroke-width:0.5;" width="4" x="180.5" y="254.49"/><text fill="#000000" font-family="sans-serif" font-size="14" lengthAdjust="spacing" textLength="83" x="94.5" y="277.0252">Envoy Proxy</text><text fill="#000000" font-family="sans-serif" font-size="14" lengthAdjust="spacing" textLength="64" x="94.5" y="293.5134">&#171;Sidecar&#187;</text></g><!--entity kc--><g id="elem_kc"><rect fill="#FFFFFF" height="46.4883" rx="2.5" ry="2.5" style="stroke:#181818;stroke-width:0.5;" width="100" x="237" y="251.73"/><rect fill="#FFFFFF" height="10" style="stroke:#181818;stroke-width:0.5;" width="15" x="317" y="256.73"/><rect fill="#FFFFFF" height="2" style="stroke:#181818;stroke-width:0.5;" width="4" x="315" y="258.73"/><rect fill="#FFFFFF" height="2" style="stroke:#181818;stroke-width:0.5;" width="4" x="315" y="262.73"/><text fill="#000000" font-family="sans-serif" font-size="14" lengthAdjust="spacing" textLength="60" x="252" y="285.2652">Keycloak</text></g><!--entity e2--><g id="elem_e2"><rect fill="#D3D3D3" height="62.9766" rx="2.5" ry="2.5" style="stroke:#181818;stroke-width:0.5;" width="123" x="79.5" y="411.46"/><rect fill="#D3D3D3" height="10" style="stroke:#181818;stroke-width:0.5;" width="15" x="182.5" y="416.46"/><rect fill="#D3D3D3" height="2" style="stroke:#181818;stroke-width:0.5;" width="4" x="180.5" y="418.46"/><rect fill="#D3D3D3" height="2" style="stroke:#181818;stroke-width:0.5;" width="4" x="180.5" y="422.46"/><text fill="#000000" font-family="sans-serif" font-size="14" lengthAdjust="spacing" textLength="83" x="94.5" y="444.9952">Envoy Proxy</text><text fill="#000000" font-family="sans-serif" font-size="14" lengthAdjust="spacing" textLength="64" x="94.5" y="461.4834">&#171;Sidecar&#187;</text></g><!--entity mongo--><g id="elem_mongo"><path d="M237,430.21 C237,420.21 280,420.21 280,420.21 C280,420.21 323,420.21 323,430.21 L323,455.6983 C323,465.6983 280,465.6983 280,465.6983 C280,465.6983 237,465.6983 237,455.6983 L237,430.21 " fill="#F1F1F1" style="stroke:#181818;stroke-width:0.5;"/><path d="M237,430.21 C237,440.21 280,440.21 280,440.21 C280,440.21 323,440.21 323,430.21 " fill="none" style="stroke:#181818;stroke-width:0.5;"/><text fill="#000000" font-family="sans-serif" font-size="14" lengthAdjust="spacing" textLength="66" x="247" y="457.7452">MongoDB</text></g><!--entity e3--><g id="elem_e3"><rect fill="#D3D3D3" height="62.9766" rx="2.5" ry="2.5" style="stroke:#181818;stroke-width:0.5;" width="123" x="392.5" y="243.49"/><rect fill="#D3D3D3" height="10" style="stroke:#181818;stroke-width:0.5;" width="15" x="495.5" y="248.49"/><rect fill="#D3D3D3" height="2" style="stroke:#181818;stroke-width:0.5;" width="4" x="493.5" y="250.49"/><rect fill="#D3D3D3" height="2" style="stroke:#181818;stroke-width:0.5;" width="4" x="493.5" y="254.49"/><text fill="#000000" font-family="sans-serif" font-size="14" lengthAdjust="spacing" textLength="83" x="407.5" y="277.0252">Envoy Proxy</text><text fill="#000000" font-family="sans-serif" font-size="14" lengthAdjust="spacing" textLength="64" x="407.5" y="293.5134">&#171;Sidecar&#187;</text></g><!--entity temp--><g id="elem_temp"><rect fill="#FFFFFF" height="46.4883" rx="2.5" ry="2.5" style="stroke:#181818;stroke-width:0.5;" width="153" x="550.5" y="251.73"/><rect fill="#FFFFFF" height="10" style="stroke:#181818;stroke-width:0.5;" width="15" x="683.5" y="256.73"/><rect fill="#FFFFFF" height="2" style="stroke:#181818;stroke-width:0.5;" width="4" x="681.5" y="258.73"/><rect fill="#FFFFFF" height="2" style="stroke:#181818;stroke-width:0.5;" width="4" x="681.5" y="262.73"/><text fill="#000000" font-family="sans-serif" font-size="14" lengthAdjust="spacing" textLength="113" x="565.5" y="285.2652">Temporal Server</text></g><!--entity e4--><g id="elem_e4"><rect fill="#D3D3D3" height="62.9766" rx="2.5" ry="2.5" style="stroke:#181818;stroke-width:0.5;" width="123" x="385.5" y="411.46"/><rect fill="#D3D3D3" height="10" style="stroke:#181818;stroke-width:0.5;" width="15" x="488.5" y="416.46"/><rect fill="#D3D3D3" height="2" style="stroke:#181818;stroke-width:0.5;" width="4" x="486.5" y="418.46"/><rect fill="#D3D3D3" height="2" style="stroke:#181818;stroke-width:0.5;" width="4" x="486.5" y="422.46"/><text fill="#000000" font-family="sans-serif" font-size="14" lengthAdjust="spacing" textLength="83" x="400.5" y="444.9952">Envoy Proxy</text><text fill="#000000" font-family="sans-serif" font-size="14" lengthAdjust="spacing" textLength="64" x="400.5" y="461.4834">&#171;Sidecar&#187;</text></g><!--entity pg--><g id="elem_pg"><path d="M543,421.96 C543,411.96 592,411.96 592,411.96 C592,411.96 641,411.96 641,421.96 L641,463.9366 C641,473.9366 592,473.9366 592,473.9366 C592,473.9366 543,473.9366 543,463.9366 L543,421.96 " fill="#F1F1F1" style="stroke:#181818;stroke-width:0.5;"/><path d="M543,421.96 C543,431.96 592,431.96 592,431.96 C592,431.96 641,431.96 641,421.96 " fill="none" style="stroke:#181818;stroke-width:0.5;"/><text fill="#000000" font-family="sans-serif" font-size="14" lengthAdjust="spacing" textLength="78" x="553" y="449.4952">PostgreSQL</text><text fill="#000000" font-family="sans-serif" font-size="14" lengthAdjust="spacing" textLength="74" x="553" y="465.9834">&#171;pgvector&#187;</text></g><!--entity e5--><g id="elem_e5"><rect fill="#D3D3D3" height="62.9766" rx="2.5" ry="2.5" style="stroke:#181818;stroke-width:0.5;" width="123" x="696.5" y="411.46"/><rect fill="#D3D3D3" height="10" style="stroke:#181818;stroke-width:0.5;" width="15" x="799.5" y="416.46"/><rect fill="#D3D3D3" height="2" style="stroke:#181818;stroke-width:0.5;" width="4" x="797.5" y="418.46"/><rect fill="#D3D3D3" height="2" style="stroke:#181818;stroke-width:0.5;" width="4" x="797.5" y="422.46"/><text fill="#000000" font-family="sans-serif" font-size="14" lengthAdjust="spacing" textLength="83" x="711.5" y="444.9952">Envoy Proxy</text><text fill="#000000" font-family="sans-serif" font-size="14" lengthAdjust="spacing" textLength="64" x="711.5" y="461.4834">&#171;Sidecar&#187;</text></g><!--entity kafka--><g id="elem_kafka"><rect fill="#FFFFFF" height="46.4883" rx="2.5" ry="2.5" style="stroke:#181818;stroke-width:0.5;" width="127" x="854.5" y="419.71"/><rect fill="#FFFFFF" height="10" style="stroke:#181818;stroke-width:0.5;" width="15" x="961.5" y="424.71"/><rect fill="#FFFFFF" height="2" style="stroke:#181818;stroke-width:0.5;" width="4" x="959.5" y="426.71"/><rect fill="#FFFFFF" height="2" style="stroke:#181818;stroke-width:0.5;" width="4" x="959.5" y="430.71"/><text fill="#000000" font-family="sans-serif" font-size="14" lengthAdjust="spacing" textLength="87" x="869.5" y="453.2452">Kafka Broker</text></g><!--entity e6--><g id="elem_e6"><rect fill="#D3D3D3" height="62.9766" rx="2.5" ry="2.5" style="stroke:#181818;stroke-width:0.5;" width="123" x="759.5" y="243.49"/><rect fill="#D3D3D3" height="10" style="stroke:#181818;stroke-width:0.5;" width="15" x="862.5" y="248.49"/><rect fill="#D3D3D3" height="2" style="stroke:#181818;stroke-width:0.5;" width="4" x="860.5" y="250.49"/><rect fill="#D3D3D3" height="2" style="stroke:#181818;stroke-width:0.5;" width="4" x="860.5" y="254.49"/><text fill="#000000" font-family="sans-serif" font-size="14" lengthAdjust="spacing" textLength="83" x="774.5" y="277.0252">Envoy Proxy</text><text fill="#000000" font-family="sans-serif" font-size="14" lengthAdjust="spacing" textLength="64" x="774.5" y="293.5134">&#171;Sidecar&#187;</text></g><!--entity portal--><g id="elem_portal"><rect fill="#FFFFFF" height="46.4883" rx="2.5" ry="2.5" style="stroke:#181818;stroke-width:0.5;" width="201" x="917.5" y="251.73"/><rect fill="#FFFFFF" height="10" style="stroke:#181818;stroke-width:0.5;" width="15" x="1098.5" y="256.73"/><rect fill="#FFFFFF" height="2" style="stroke:#181818;stroke-width:0.5;" width="4" x="1096.5" y="258.73"/><rect fill="#FFFFFF" height="2" style="stroke:#181818;stroke-width:0.5;" width="4" x="1096.5" y="262.73"/><text fill="#000000" font-family="sans-serif" font-size="14" lengthAdjust="spacing" textLength="161" x="932.5" y="285.2652">frontend-x-bank-souq</text></g><!--entity e7--><g id="elem_e7"><rect fill="#D3D3D3" height="62.9766" rx="2.5" ry="2.5" style="stroke:#181818;stroke-width:0.5;" width="123" x="1174.5" y="243.49"/><rect fill="#D3D3D3" height="10" style="stroke:#181818;stroke-width:0.5;" width="15" x="1277.5" y="248.49"/><rect fill="#D3D3D3" height="2" style="stroke:#181818;stroke-width:0.5;" width="4" x="1275.5" y="250.49"/><rect fill="#D3D3D3" height="2" style="stroke:#181818;stroke-width:0.5;" width="4" x="1275.5" y="254.49"/><text fill="#000000" font-family="sans-serif" font-size="14" lengthAdjust="spacing" textLength="83" x="1189.5" y="277.0252">Envoy Proxy</text><text fill="#000000" font-family="sans-serif" font-size="14" lengthAdjust="spacing" textLength="64" x="1189.5" y="293.5134">&#171;Sidecar&#187;</text></g><!--entity mcp--><g id="elem_mcp"><rect fill="#FFFFFF" height="46.4883" rx="2.5" ry="2.5" style="stroke:#181818;stroke-width:0.5;" width="205" x="1332.5" y="251.73"/><rect fill="#FFFFFF" height="10" style="stroke:#181818;stroke-width:0.5;" width="15" x="1517.5" y="256.73"/><rect fill="#FFFFFF" height="2" style="stroke:#181818;stroke-width:0.5;" width="4" x="1515.5" y="258.73"/><rect fill="#FFFFFF" height="2" style="stroke:#181818;stroke-width:0.5;" width="4" x="1515.5" y="262.73"/><text fill="#000000" font-family="sans-serif" font-size="14" lengthAdjust="spacing" textLength="165" x="1347.5" y="285.2652">opf-nebras-mcp-server</text></g><!--link e1 to kc--><g id="link_e1_kc"><path d="M208.88,274.98 C220.16,274.98 219.44,274.98 230.72,274.98 " fill="none" id="e1-kc" style="stroke:#181818;stroke-width:1.0;"/><polygon fill="#181818" points="202.88,274.98,211.88,278.98,207.88,274.98,211.88,270.98,202.88,274.98" style="stroke:#181818;stroke-width:1.0;"/><polygon fill="#181818" points="236.72,274.98,227.72,270.98,231.72,274.98,227.72,278.98,236.72,274.98" style="stroke:#181818;stroke-width:1.0;"/></g><!--link e2 to mongo--><g id="link_e2_mongo"><path d="M208.9,442.95 C220.14,442.95 219.39,442.95 230.63,442.95 " fill="none" id="e2-mongo" style="stroke:#181818;stroke-width:1.0;"/><polygon fill="#181818" points="202.9,442.95,211.9,446.95,207.9,442.95,211.9,438.95,202.9,442.95" style="stroke:#181818;stroke-width:1.0;"/><polygon fill="#181818" points="236.63,442.95,227.63,438.95,231.63,442.95,227.63,446.95,236.63,442.95" style="stroke:#181818;stroke-width:1.0;"/></g><!--link e3 to temp--><g id="link_e3_temp"><path d="M521.83,274.98 C533.27,274.98 532.7,274.98 544.14,274.98 " fill="none" id="e3-temp" style="stroke:#181818;stroke-width:1.0;"/><polygon fill="#181818" points="515.83,274.98,524.83,278.98,520.83,274.98,524.83,270.98,515.83,274.98" style="stroke:#181818;stroke-width:1.0;"/><polygon fill="#181818" points="550.14,274.98,541.14,270.98,545.14,274.98,541.14,278.98,550.14,274.98" style="stroke:#181818;stroke-width:1.0;"/></g><!--link e4 to pg--><g id="link_e4_pg"><path d="M514.74,442.95 C526.01,442.95 525.29,442.95 536.56,442.95 " fill="none" id="e4-pg" style="stroke:#181818;stroke-width:1.0;"/><polygon fill="#181818" points="508.74,442.95,517.74,446.95,513.74,442.95,517.74,438.95,508.74,442.95" style="stroke:#181818;stroke-width:1.0;"/><polygon fill="#181818" points="542.56,442.95,533.56,438.95,537.56,442.95,533.56,446.95,542.56,442.95" style="stroke:#181818;stroke-width:1.0;"/></g><!--link e5 to kafka--><g id="link_e5_kafka"><path d="M825.88,442.95 C837.37,442.95 836.87,442.95 848.37,442.95 " fill="none" id="e5-kafka" style="stroke:#181818;stroke-width:1.0;"/><polygon fill="#181818" points="819.88,442.95,828.88,446.95,824.88,442.95,828.88,438.95,819.88,442.95" style="stroke:#181818;stroke-width:1.0;"/><polygon fill="#181818" points="854.37,442.95,845.37,438.95,849.37,442.95,845.37,446.95,854.37,442.95" style="stroke:#181818;stroke-width:1.0;"/></g><!--link e6 to portal--><g id="link_e6_portal"><path d="M888.95,274.98 C900.38,274.98 899.81,274.98 911.24,274.98 " fill="none" id="e6-portal" style="stroke:#181818;stroke-width:1.0;"/><polygon fill="#181818" points="882.95,274.98,891.95,278.98,887.95,274.98,891.95,270.98,882.95,274.98" style="stroke:#181818;stroke-width:1.0;"/><polygon fill="#181818" points="917.24,274.98,908.24,270.98,912.24,274.98,908.24,278.98,917.24,274.98" style="stroke:#181818;stroke-width:1.0;"/></g><!--link e7 to mcp--><g id="link_e7_mcp"><path d="M1303.8,274.98 C1315.23,274.98 1314.67,274.98 1326.1,274.98 " fill="none" id="e7-mcp" style="stroke:#181818;stroke-width:1.0;"/><polygon fill="#181818" points="1297.8,274.98,1306.8,278.98,1302.8,274.98,1306.8,270.98,1297.8,274.98" style="stroke:#181818;stroke-width:1.0;"/><polygon fill="#181818" points="1332.1,274.98,1323.1,270.98,1327.1,274.98,1323.1,278.98,1332.1,274.98" style="stroke:#181818;stroke-width:1.0;"/></g><!--link ingress to e6--><g id="link_ingress_e6"><path d="M821,92.82 C821,129.4 821,195.65 821,237 " fill="none" id="ingress-to-e6" style="stroke:#181818;stroke-width:1.0;"/><polygon fill="#181818" points="821,243,825,234,821,238,817,234,821,243" style="stroke:#181818;stroke-width:1.0;"/><text fill="#000000" font-family="sans-serif" font-size="13" lengthAdjust="spacing" textLength="94" x="822" y="136.0584">/portal routing</text></g><!--link ingress to e7--><g id="link_ingress_e7"><path d="M913.45,77.13 C979.52,85.66 1068.2,104.76 1135,147.49 C1172.4,171.41 1199.0484,208.8299 1216.3084,237.9199 " fill="none" id="ingress-to-e7" style="stroke:#181818;stroke-width:1.0;"/><polygon fill="#181818" points="1219.37,243.08,1218.2176,233.2988,1216.8186,238.7799,1211.3375,237.381,1219.37,243.08" style="stroke:#181818;stroke-width:1.0;"/><text fill="#000000" font-family="sans-serif" font-size="13" lengthAdjust="spacing" textLength="84" x="1121.14" y="136.0584">/mcp routing</text></g><!--link ingress to e1--><g id="link_ingress_e1"><path d="M728.76,72.51 C581.45,77.68 301.29,94.4 219,147.49 C184.42,169.79 164.8165,207.8148 153.3165,237.5148 " fill="none" id="ingress-to-e1" style="stroke:#181818;stroke-width:1.0;"/><polygon fill="#181818" points="151.15,243.11,158.1299,236.1615,152.9554,238.4473,150.6696,233.2729,151.15,243.11" style="stroke:#181818;stroke-width:1.0;"/><text fill="#000000" font-family="sans-serif" font-size="13" lengthAdjust="spacing" textLength="85" x="275.52" y="136.0584">/auth routing</text></g><!--link e1 to e2--><g id="link_e1_e2"><path d="M141,306.81 C141,336.52 141,375.25 141,405.01 " fill="none" id="e1-to-e2" style="stroke:#181818;stroke-width:1.0;"/><polygon fill="#181818" points="141,411.01,145,402.01,141,406.01,137,402.01,141,411.01" style="stroke:#181818;stroke-width:1.0;"/><text fill="#000000" font-family="sans-serif" font-size="13" lengthAdjust="spacing" textLength="107" x="142" y="352.0284">Stores Party Data</text></g><!--link e3 to e4--><g id="link_e3_e4"><path d="M452.7,306.81 C451.45,336.52 449.8118,375.2553 448.5618,405.0153 " fill="none" id="e3-to-e4" style="stroke:#181818;stroke-width:1.0;"/><polygon fill="#181818" points="448.31,411.01,452.6842,402.1858,448.5198,406.0144,444.6912,401.8501,448.31,411.01" style="stroke:#181818;stroke-width:1.0;"/><text fill="#000000" font-family="sans-serif" font-size="13" lengthAdjust="spacing" textLength="137" x="452.33" y="352.0284">Stores Workflow State</text></g><!--link e3 to e5--><g id="link_e3_e5"><path d="M490.88,306.85 C503.51,315.89 518.2,324.84 533,330.46 C560.21,340.8 569.88,330.93 598,338.46 C625.51,345.83 632.44,349.05 657,363.46 C680.37,377.18 699.7842,391.8066 718.5442,407.3866 " fill="none" id="e3-to-e5" style="stroke:#181818;stroke-width:1.0;"/><polygon fill="#181818" points="723.16,411.22,718.7919,402.3928,719.3135,408.0255,713.6808,408.5471,723.16,411.22" style="stroke:#181818;stroke-width:1.0;"/><text fill="#000000" font-family="sans-serif" font-size="13" lengthAdjust="spacing" textLength="143" x="643.94" y="352.0284">Task Queues / Outbox</text></g><!--SRC=[fLLDRzf04BtxLup8sOf2-8WGuW2fgYXjGqgKNdePxBMnR7RStJN1glZl7QyTd4qBGTG7X6VUlFTcDRFMQI9pLBW6IQ60tnxmCyKWZHKLCfnHHWekebuqY6xg7AbGg2QEtMKl67WxJ-zf0bhd98Kq1xdimpMULUmyv48kLabaO9OLsWZL0TIGtkY6mFwqh9qxRHA2EnaheJLyHYDUiBGrIHtpR4LD_WtNGkSOY15G7laQPRYaRQUXtjEt1NCAHt0loY0ZJD_Ythdu93TKmbpHjlmfn-D54ee0rMHYZOWhkCYIU6NOJtc8eHMfsWqS61EC_SdRwEweuQyaOxgTdkstUyXlY0QNg5bdBy7uTVNVDTorXjt4SSzFWiqfpCusVNt28R-Am4AeJJDQXcEk-MjhteaVzpudNSbgU1Q18NLs2xsFpxsHMZn-gUhpU6CL6u8yTXlfsKRUH8-tSOzHYcURxvyov9K2J1MbhtjT1LpJ_NhMdSJkNtQ_2mmCdxqo_p4rWnDSHuga4JBqj_uIPUfhAdxLvssrNVk3-ipTp0VhEfll1_BCDeOdj57TU58i5Mf_7UI-RbU0NzqcXlNw1kyNODTUmStj2Zu3kUaHNDOz0r_kXfD_WuOLY3aF8wug11PcvK0uRBDTpYvus7dFvgXC2RUy5LwpiHRHQn4_IALHHY_ypfy41zLdr1Fg51uBKJ3q4XuAmvy1R_S7]--></g></svg>