<svg xmlns="http://www.w3.org/2000/svg" xmlns:xlink="http://www.w3.org/1999/xlink" contentStyleType="text/css" height="647px" preserveAspectRatio="none" style="width:1055px;height:647px;background:#FFFFFF;" version="1.1" viewBox="0 0 1055 647" width="1055px" zoomAndPan="magnify"><defs/><g><rect fill="#ADD8E6" height="635.9453" style="stroke:#181818;stroke-width:0.5;" width="337.5" x="191" y="6"/><text fill="#000000" font-family="sans-serif" font-size="13" font-weight="bold" lengthAdjust="spacing" textLength="238" x="240.75" y="18.5684">React SPA (frontend-x-bank-souq)</text><rect fill="#FAFAD2" height="635.9453" style="stroke:#181818;stroke-width:0.5;" width="484" x="550.5" y="6"/><text fill="#000000" font-family="sans-serif" font-size="13" font-weight="bold" lengthAdjust="spacing" textLength="180" x="702.5" y="18.5684">Nebras Open Finance Core</text><line style="stroke:#181818;stroke-width:0.5;stroke-dasharray:5.0,5.0;" x1="76" x2="76" y1="81.4883" y2="562.457"/><line style="stroke:#181818;stroke-width:0.5;stroke-dasharray:5.0,5.0;" x1="275" x2="275" y1="81.4883" y2="562.457"/><line style="stroke:#181818;stroke-width:0.5;stroke-dasharray:5.0,5.0;" x1="453.5" x2="453.5" y1="81.4883" y2="562.457"/><line style="stroke:#181818;stroke-width:0.5;stroke-dasharray:5.0,5.0;" x1="622.5" x2="622.5" y1="81.4883" y2="562.457"/><line style="stroke:#181818;stroke-width:0.5;stroke-dasharray:5.0,5.0;" x1="766.5" x2="766.5" y1="81.4883" y2="562.457"/><line style="stroke:#181818;stroke-width:0.5;stroke-dasharray:5.0,5.0;" x1="936.5" x2="936.5" y1="81.4883" y2="562.457"/><text fill="#000000" font-family="sans-serif" font-size="14" lengthAdjust="spacing" textLength="136" x="5" y="78.5352">Third Party Provider</text><ellipse cx="76" cy="13.5" fill="#E2E2F0" rx="8" ry="8" style="stroke:#181818;stroke-width:0.5;"/><path d="M76,21.5 L76,48.5 M63,29.5 L89,29.5 M76,48.5 L63,63.5 M76,48.5 L89,63.5 " fill="none" style="stroke:#181818;stroke-width:0.5;"/><text fill="#000000" font-family="sans-serif" font-size="14" lengthAdjust="spacing" textLength="136" x="5" y="574.9922">Third Party Provider</text><ellipse cx="76" cy="586.4453" fill="#E2E2F0" rx="8" ry="8" style="stroke:#181818;stroke-width:0.5;"/><path d="M76,594.4453 L76,621.4453 M63,602.4453 L89,602.4453 M76,621.4453 L63,636.4453 M76,621.4453 L89,636.4453 " fill="none" style="stroke:#181818;stroke-width:0.5;"/><rect fill="#E2E2F0" height="30.4883" rx="2.5" ry="2.5" style="stroke:#181818;stroke-width:0.5;" width="120" x="215" y="50"/><text fill="#000000" font-family="sans-serif" font-size="14" lengthAdjust="spacing" textLength="106" x="222" y="70.5352">UI Components</text><rect fill="#E2E2F0" height="30.4883" rx="2.5" ry="2.5" style="stroke:#181818;stroke-width:0.5;" width="120" x="215" y="561.457"/><text fill="#000000" font-family="sans-serif" font-size="14" lengthAdjust="spacing" textLength="106" x="222" y="581.9922">UI Components</text><rect fill="#E2E2F0" height="30.4883" rx="2.5" ry="2.5" style="stroke:#181818;stroke-width:0.5;" width="101" x="403.5" y="50"/><text fill="#000000" font-family="sans-serif" font-size="14" lengthAdjust="spacing" textLength="87" x="410.5" y="70.5352">React Router</text><rect fill="#E2E2F0" height="30.4883" rx="2.5" ry="2.5" style="stroke:#181818;stroke-width:0.5;" width="101" x="403.5" y="561.457"/><text fill="#000000" font-family="sans-serif" font-size="14" lengthAdjust="spacing" textLength="87" x="410.5" y="581.9922">React Router</text><rect fill="#E2E2F0" height="30.4883" rx="2.5" ry="2.5" style="stroke:#181818;stroke-width:0.5;" width="97" x="574.5" y="50"/><text fill="#000000" font-family="sans-serif" font-size="14" lengthAdjust="spacing" textLength="83" x="581.5" y="70.5352">API Gateway</text><rect fill="#E2E2F0" height="30.4883" rx="2.5" ry="2.5" style="stroke:#181818;stroke-width:0.5;" width="97" x="574.5" y="561.457"/><text fill="#000000" font-family="sans-serif" font-size="14" lengthAdjust="spacing" textLength="83" x="581.5" y="581.9922">API Gateway</text><rect fill="#E2E2F0" height="30.4883" rx="2.5" ry="2.5" style="stroke:#181818;stroke-width:0.5;" width="91" x="721.5" y="50"/><text fill="#000000" font-family="sans-serif" font-size="14" lengthAdjust="spacing" textLength="77" x="728.5" y="70.5352">MCP Server</text><rect fill="#E2E2F0" height="30.4883" rx="2.5" ry="2.5" style="stroke:#181818;stroke-width:0.5;" width="91" x="721.5" y="561.457"/><text fill="#000000" font-family="sans-serif" font-size="14" lengthAdjust="spacing" textLength="77" x="728.5" y="581.9922">MCP Server</text><rect fill="#E2E2F0" height="30.4883" rx="2.5" ry="2.5" style="stroke:#181818;stroke-width:0.5;" width="148" x="862.5" y="50"/><text fill="#000000" font-family="sans-serif" font-size="14" lengthAdjust="spacing" textLength="134" x="869.5" y="70.5352">Temporal Workflow</text><rect fill="#E2E2F0" height="30.4883" rx="2.5" ry="2.5" style="stroke:#181818;stroke-width:0.5;" width="148" x="862.5" y="561.457"/><text fill="#000000" font-family="sans-serif" font-size="14" lengthAdjust="spacing" textLength="134" x="869.5" y="581.9922">Temporal Workflow</text><polygon fill="#181818" points="263,108.7988,273,112.7988,263,116.7988,267,112.7988" style="stroke:#181818;stroke-width:1.0;"/><line style="stroke:#181818;stroke-width:1.0;" x1="76" x2="269" y1="112.7988" y2="112.7988"/><text fill="#000000" font-family="sans-serif" font-size="13" lengthAdjust="spacing" textLength="101" x="83" y="108.0566">View Dashboard</text><polygon fill="#181818" points="442,138.1094,452,142.1094,442,146.1094,446,142.1094" style="stroke:#181818;stroke-width:1.0;"/><line style="stroke:#181818;stroke-width:1.0;" x1="275" x2="448" y1="142.1094" y2="142.1094"/><text fill="#000000" font-family="sans-serif" font-size="13" lengthAdjust="spacing" textLength="155" x="282" y="137.3672">Navigate to /onboarding</text><polygon fill="#181818" points="263,167.4199,273,171.4199,263,175.4199,267,171.4199" style="stroke:#181818;stroke-width:1.0;"/><line style="stroke:#181818;stroke-width:1.0;" x1="76" x2="269" y1="171.4199" y2="171.4199"/><text fill="#000000" font-family="sans-serif" font-size="13" lengthAdjust="spacing" textLength="119" x="83" y="166.6777">Submit Trade Docs</text><polygon fill="#181818" points="611,196.7305,621,200.7305,611,204.7305,615,200.7305" style="stroke:#181818;stroke-width:1.0;"/><line style="stroke:#181818;stroke-width:1.0;" x1="275" x2="617" y1="200.7305" y2="200.7305"/><text fill="#000000" font-family="sans-serif" font-size="13" lengthAdjust="spacing" textLength="219" x="282" y="195.9883">POST /api/tpp/onboard (multipart)</text><polygon fill="#181818" points="924.5,226.041,934.5,230.041,924.5,234.041,928.5,230.041" style="stroke:#181818;stroke-width:1.0;"/><line style="stroke:#181818;stroke-width:1.0;" x1="623" x2="930.5" y1="230.041" y2="230.041"/><text fill="#000000" font-family="sans-serif" font-size="13" lengthAdjust="spacing" textLength="167" x="630" y="225.2988">Start TPP Admission Agent</text><polygon fill="#181818" points="286,255.3516,276,259.3516,286,263.3516,282,259.3516" style="stroke:#181818;stroke-width:1.0;"/><line style="stroke:#181818;stroke-width:1.0;stroke-dasharray:2.0,2.0;" x1="280" x2="935.5" y1="259.3516" y2="259.3516"/><text fill="#000000" font-family="sans-serif" font-size="13" lengthAdjust="spacing" textLength="166" x="292" y="254.6094">Polling Status (Processing)</text><path d="M825,272.3516 L825,312.3516 L1048,312.3516 L1048,282.3516 L1038,272.3516 L825,272.3516 " fill="#FEFFDD" style="stroke:#181818;stroke-width:0.5;"/><path d="M1038,272.3516 L1038,282.3516 L1048,282.3516 L1038,272.3516 " fill="#FEFFDD" style="stroke:#181818;stroke-width:0.5;"/><text fill="#000000" font-family="sans-serif" font-size="13" lengthAdjust="spacing" textLength="155" x="831" y="289.9199">Security LLM Scans Docs</text><text fill="#000000" font-family="sans-serif" font-size="13" lengthAdjust="spacing" textLength="202" x="831" y="305.2305">Circuit Breaker pauses if needed</text><polygon fill="#181818" points="286,335.2832,276,339.2832,286,343.2832,282,339.2832" style="stroke:#181818;stroke-width:1.0;"/><line style="stroke:#181818;stroke-width:1.0;stroke-dasharray:2.0,2.0;" x1="280" x2="935.5" y1="339.2832" y2="339.2832"/><text fill="#000000" font-family="sans-serif" font-size="13" lengthAdjust="spacing" textLength="271" x="292" y="334.541">Success (Keycloak Credentials provisioned)</text><polygon fill="#181818" points="87,364.5938,77,368.5938,87,372.5938,83,368.5938" style="stroke:#181818;stroke-width:1.0;"/><line style="stroke:#181818;stroke-width:1.0;" x1="81" x2="274" y1="368.5938" y2="368.5938"/><text fill="#000000" font-family="sans-serif" font-size="13" lengthAdjust="spacing" textLength="175" x="93" y="363.8516">Displays Client ID &amp; Secrets</text><polygon fill="#181818" points="263,393.9043,273,397.9043,263,401.9043,267,397.9043" style="stroke:#181818;stroke-width:1.0;"/><line style="stroke:#181818;stroke-width:1.0;" x1="76" x2="269" y1="397.9043" y2="397.9043"/><text fill="#000000" font-family="sans-serif" font-size="13" lengthAdjust="spacing" textLength="92" x="83" y="393.1621">Download SDK</text><polygon fill="#181818" points="611,423.2148,621,427.2148,611,431.2148,615,427.2148" style="stroke:#181818;stroke-width:1.0;"/><line style="stroke:#181818;stroke-width:1.0;" x1="275" x2="617" y1="427.2148" y2="427.2148"/><text fill="#000000" font-family="sans-serif" font-size="13" lengthAdjust="spacing" textLength="90" x="282" y="422.4727">GET /sdk/java</text><polygon fill="#181818" points="286,452.5254,276,456.5254,286,460.5254,282,456.5254" style="stroke:#181818;stroke-width:1.0;"/><line style="stroke:#181818;stroke-width:1.0;stroke-dasharray:2.0,2.0;" x1="280" x2="622" y1="456.5254" y2="456.5254"/><text fill="#000000" font-family="sans-serif" font-size="13" lengthAdjust="spacing" textLength="155" x="292" y="451.7832">opf-nebras-java-sdk.jar</text><polygon fill="#181818" points="263,481.8359,273,485.8359,263,489.8359,267,485.8359" style="stroke:#181818;stroke-width:1.0;"/><line style="stroke:#181818;stroke-width:1.0;" x1="76" x2="269" y1="485.8359" y2="485.8359"/><text fill="#000000" font-family="sans-serif" font-size="13" lengthAdjust="spacing" textLength="140" x="83" y="481.0938">Download MCP Config</text><polygon fill="#181818" points="755,511.1465,765,515.1465,755,519.1465,759,515.1465" style="stroke:#181818;stroke-width:1.0;"/><line style="stroke:#181818;stroke-width:1.0;" x1="275" x2="761" y1="515.1465" y2="515.1465"/><text fill="#000000" font-family="sans-serif" font-size="13" lengthAdjust="spacing" textLength="109" x="282" y="510.4043">GET /mcp/config</text><polygon fill="#181818" points="286,540.457,276,544.457,286,548.457,282,544.457" style="stroke:#181818;stroke-width:1.0;"/><line style="stroke:#181818;stroke-width:1.0;stroke-dasharray:2.0,2.0;" x1="280" x2="766" y1="544.457" y2="544.457"/><text fill="#000000" font-family="sans-serif" font-size="13" lengthAdjust="spacing" textLength="177" x="292" y="539.7148">claude_desktop_config.json</text><!--SRC=[TL9BRzim3BxxLn0PC2G7DzsEFGp8Ook2lemwtJ1WGC58JAfQ4JL9Jff_FpfsKXZRRZRvyNjGZ9Ln7WDkeS2GZ38UNIfGQ-CsyFaoY-V-bDzEzK-NMOOgSO31yiK4VPmzG15uPpI50M24PL5aAtw3mIC95CfY0iDrO9V8wVmjNw6hyiZrxz40FjoQpKkQsfeo_su21ayBcF7MioENuf7qQT57jDoFNATEjVtCH0D4F6iTtDCgIE_1auDlng5J9CI1JihNR3MvHzO_oLhUzoKcnGAkCT4U3qU5xhiFkfiLK5BOTIxajzzVaiG8QE47Xsej6ksAkkgxNLaQv5ya9bp1TqDxc6DyMJ46dKbDEcq-wTxZpcp42YI6CRiZHfwcnr3Mgwr9i0oe2UQiOaVIHH14yL0kOOpUZ9Ft9neORckRJ1DWb9smCdOE8Sn9ciqJmqHlJOo67KmsyapP6PIVN1HiRNCqCfFg24Ev4aKouZQZpB4aO5bRZvnK7OpSq-tj7PGANJoQ_-Lc9gXQ0aq3OIKp7kj84SmQ794c_G_nibQD60nlwA0iOmMp852N3De8lZdOnZpfKRUR9jCLp4tq5WyHPjO861Pp-DZu2fHY_vNcl7V2gw6St_ortkklijseg_4hxl1zbQTPzklS7MypRm2v82zUCVn7eBcn6RkrsNGwJQ7Js2e_LcslgPuLbCLQqxEcM2NspotauZMoo_u0]--></g></svg>