<svg xmlns="http://www.w3.org/2000/svg" xmlns:xlink="http://www.w3.org/1999/xlink" contentStyleType="text/css" height="635px" preserveAspectRatio="none" style="width:1255px;height:635px;background:#FFFFFF;" version="1.1" viewBox="0 0 1255 635" width="1255px" zoomAndPan="magnify"><defs/><g><line style="stroke:#181818;stroke-width:0.5;stroke-dasharray:5.0,5.0;" x1="28" x2="28" y1="81.4883" y2="554.1465"/><line style="stroke:#181818;stroke-width:0.5;stroke-dasharray:5.0,5.0;" x1="225.5" x2="225.5" y1="81.4883" y2="554.1465"/><line style="stroke:#181818;stroke-width:0.5;stroke-dasharray:5.0,5.0;" x1="386" x2="386" y1="81.4883" y2="554.1465"/><line style="stroke:#181818;stroke-width:0.5;stroke-dasharray:5.0,5.0;" x1="580.5" x2="580.5" y1="81.4883" y2="554.1465"/><line style="stroke:#181818;stroke-width:0.5;stroke-dasharray:5.0,5.0;" x1="691.5" x2="691.5" y1="81.4883" y2="554.1465"/><line style="stroke:#181818;stroke-width:0.5;stroke-dasharray:5.0,5.0;" x1="810.5" x2="810.5" y1="81.4883" y2="554.1465"/><line style="stroke:#181818;stroke-width:0.5;stroke-dasharray:5.0,5.0;" x1="947" x2="947" y1="81.4883" y2="554.1465"/><line style="stroke:#181818;stroke-width:0.5;stroke-dasharray:5.0,5.0;" x1="1193" x2="1193" y1="81.4883" y2="554.1465"/><text fill="#000000" font-family="sans-serif" font-size="14" lengthAdjust="spacing" textLength="40" x="5" y="78.5352">Client</text><ellipse cx="28" cy="13.5" fill="#E2E2F0" rx="8" ry="8" style="stroke:#181818;stroke-width:0.5;"/><path d="M28,21.5 L28,48.5 M15,29.5 L41,29.5 M28,48.5 L15,63.5 M28,48.5 L41,63.5 " fill="none" style="stroke:#181818;stroke-width:0.5;"/><text fill="#000000" font-family="sans-serif" font-size="14" lengthAdjust="spacing" textLength="40" x="5" y="566.6816">Client</text><ellipse cx="28" cy="578.1348" fill="#E2E2F0" rx="8" ry="8" style="stroke:#181818;stroke-width:0.5;"/><path d="M28,586.1348 L28,613.1348 M15,594.1348 L41,594.1348 M28,613.1348 L15,628.1348 M28,613.1348 L41,628.1348 " fill="none" style="stroke:#181818;stroke-width:0.5;"/><rect fill="#E2E2F0" height="30.4883" rx="2.5" ry="2.5" style="stroke:#181818;stroke-width:0.5;" width="97" x="177.5" y="50"/><text fill="#000000" font-family="sans-serif" font-size="14" lengthAdjust="spacing" textLength="83" x="184.5" y="70.5352">API Gateway</text><rect fill="#E2E2F0" height="30.4883" rx="2.5" ry="2.5" style="stroke:#181818;stroke-width:0.5;" width="97" x="177.5" y="553.1465"/><text fill="#000000" font-family="sans-serif" font-size="14" lengthAdjust="spacing" textLength="83" x="184.5" y="573.6816">API Gateway</text><rect fill="#E2E2F0" height="30.4883" rx="2.5" ry="2.5" style="stroke:#181818;stroke-width:0.5;" width="180" x="296" y="50"/><text fill="#000000" font-family="sans-serif" font-size="14" lengthAdjust="spacing" textLength="166" x="303" y="70.5352">AI Gateway (Standalone)</text><rect fill="#E2E2F0" height="30.4883" rx="2.5" ry="2.5" style="stroke:#181818;stroke-width:0.5;" width="180" x="296" y="553.1465"/><text fill="#000000" font-family="sans-serif" font-size="14" lengthAdjust="spacing" textLength="166" x="303" y="573.6816">AI Gateway (Standalone)</text><rect fill="#E2E2F0" height="30.4883" rx="2.5" ry="2.5" style="stroke:#181818;stroke-width:0.5;" width="103" x="529.5" y="50"/><text fill="#000000" font-family="sans-serif" font-size="14" lengthAdjust="spacing" textLength="89" x="536.5" y="70.5352">AI Guardrails</text><rect fill="#E2E2F0" height="30.4883" rx="2.5" ry="2.5" style="stroke:#181818;stroke-width:0.5;" width="103" x="529.5" y="553.1465"/><text fill="#000000" font-family="sans-serif" font-size="14" lengthAdjust="spacing" textLength="89" x="536.5" y="573.6816">AI Guardrails</text><rect fill="#E2E2F0" height="30.4883" rx="2.5" ry="2.5" style="stroke:#181818;stroke-width:0.5;" width="99" x="642.5" y="50"/><text fill="#000000" font-family="sans-serif" font-size="14" lengthAdjust="spacing" textLength="85" x="649.5" y="70.5352">Keycloak IdP</text><rect fill="#E2E2F0" height="30.4883" rx="2.5" ry="2.5" style="stroke:#181818;stroke-width:0.5;" width="99" x="642.5" y="553.1465"/><text fill="#000000" font-family="sans-serif" font-size="14" lengthAdjust="spacing" textLength="85" x="649.5" y="573.6816">Keycloak IdP</text><rect fill="#E2E2F0" height="30.4883" rx="2.5" ry="2.5" style="stroke:#181818;stroke-width:0.5;" width="119" x="751.5" y="50"/><text fill="#000000" font-family="sans-serif" font-size="14" lengthAdjust="spacing" textLength="105" x="758.5" y="70.5352">Cognitive Layer</text><rect fill="#E2E2F0" height="30.4883" rx="2.5" ry="2.5" style="stroke:#181818;stroke-width:0.5;" width="119" x="751.5" y="553.1465"/><text fill="#000000" font-family="sans-serif" font-size="14" lengthAdjust="spacing" textLength="105" x="758.5" y="573.6816">Cognitive Layer</text><rect fill="#E2E2F0" height="30.4883" rx="2.5" ry="2.5" style="stroke:#181818;stroke-width:0.5;" width="122" x="886" y="50"/><text fill="#000000" font-family="sans-serif" font-size="14" lengthAdjust="spacing" textLength="108" x="893" y="70.5352">Mediator (Saga)</text><rect fill="#E2E2F0" height="30.4883" rx="2.5" ry="2.5" style="stroke:#181818;stroke-width:0.5;" width="122" x="886" y="553.1465"/><text fill="#000000" font-family="sans-serif" font-size="14" lengthAdjust="spacing" textLength="108" x="893" y="573.6816">Mediator (Saga)</text><rect fill="#E2E2F0" height="30.4883" rx="2.5" ry="2.5" style="stroke:#181818;stroke-width:0.5;" width="112" x="1137" y="50"/><text fill="#000000" font-family="sans-serif" font-size="14" lengthAdjust="spacing" textLength="98" x="1144" y="70.5352">Legacy Finacle</text><rect fill="#E2E2F0" height="30.4883" rx="2.5" ry="2.5" style="stroke:#181818;stroke-width:0.5;" width="112" x="1137" y="553.1465"/><text fill="#000000" font-family="sans-serif" font-size="14" lengthAdjust="spacing" textLength="98" x="1144" y="573.6816">Legacy Finacle</text><polygon fill="#181818" points="214,108.7988,224,112.7988,214,116.7988,218,112.7988" style="stroke:#181818;stroke-width:1.0;"/><line style="stroke:#181818;stroke-width:1.0;" x1="28" x2="220" y1="112.7988" y2="112.7988"/><text fill="#000000" font-family="sans-serif" font-size="13" lengthAdjust="spacing" textLength="135" x="35" y="108.0566">GET /accounts/limits</text><polygon fill="#181818" points="374,138.1094,384,142.1094,374,146.1094,378,142.1094" style="stroke:#181818;stroke-width:1.0;"/><line style="stroke:#181818;stroke-width:1.0;" x1="226" x2="380" y1="142.1094" y2="142.1094"/><text fill="#000000" font-family="sans-serif" font-size="13" lengthAdjust="spacing" textLength="136" x="233" y="137.3672">Route AI intent traffic</text><polygon fill="#181818" points="680,167.4199,690,171.4199,680,175.4199,684,171.4199" style="stroke:#181818;stroke-width:1.0;"/><line style="stroke:#181818;stroke-width:1.0;" x1="386" x2="686" y1="171.4199" y2="171.4199"/><text fill="#000000" font-family="sans-serif" font-size="13" lengthAdjust="spacing" textLength="142" x="393" y="166.6777">Validate DPoP &amp; Token</text><polygon fill="#181818" points="397,196.7305,387,200.7305,397,204.7305,393,200.7305" style="stroke:#181818;stroke-width:1.0;"/><line style="stroke:#181818;stroke-width:1.0;stroke-dasharray:2.0,2.0;" x1="391" x2="691" y1="200.7305" y2="200.7305"/><text fill="#000000" font-family="sans-serif" font-size="13" lengthAdjust="spacing" textLength="182" x="403" y="195.9883">Token Valid (Authz/Consent)</text><polygon fill="#181818" points="569,226.041,579,230.041,569,234.041,573,230.041" style="stroke:#181818;stroke-width:1.0;"/><line style="stroke:#181818;stroke-width:1.0;" x1="386" x2="575" y1="230.041" y2="230.041"/><text fill="#000000" font-family="sans-serif" font-size="13" lengthAdjust="spacing" textLength="171" x="393" y="225.2988">Scan for Context Poisoning</text><polygon fill="#181818" points="397,255.3516,387,259.3516,397,263.3516,393,259.3516" style="stroke:#181818;stroke-width:1.0;"/><line style="stroke:#181818;stroke-width:1.0;stroke-dasharray:2.0,2.0;" x1="391" x2="580" y1="259.3516" y2="259.3516"/><text fill="#000000" font-family="sans-serif" font-size="13" lengthAdjust="spacing" textLength="89" x="403" y="254.6094">Context Clean</text><polygon fill="#181818" points="799,284.6621,809,288.6621,799,292.6621,803,288.6621" style="stroke:#181818;stroke-width:1.0;"/><line style="stroke:#181818;stroke-width:1.0;" x1="386" x2="805" y1="288.6621" y2="288.6621"/><text fill="#000000" font-family="sans-serif" font-size="13" lengthAdjust="spacing" textLength="211" x="393" y="283.9199">Route request (Agentive Analysis)</text><polygon fill="#181818" points="935,313.9727,945,317.9727,935,321.9727,939,317.9727" style="stroke:#181818;stroke-width:1.0;"/><line style="stroke:#181818;stroke-width:1.0;" x1="811" x2="941" y1="317.9727" y2="317.9727"/><text fill="#000000" font-family="sans-serif" font-size="13" lengthAdjust="spacing" textLength="112" x="818" y="313.2305">Trigger FetchSaga</text><polygon fill="#181818" points="1181,343.2832,1191,347.2832,1181,351.2832,1185,347.2832" style="stroke:#181818;stroke-width:1.0;"/><line style="stroke:#181818;stroke-width:1.0;" x1="947" x2="1187" y1="347.2832" y2="347.2832"/><text fill="#000000" font-family="sans-serif" font-size="13" lengthAdjust="spacing" textLength="125" x="954" y="342.541">Fetch limits via ACL</text><polygon fill="#181818" points="958,372.5938,948,376.5938,958,380.5938,954,376.5938" style="stroke:#181818;stroke-width:1.0;"/><line style="stroke:#181818;stroke-width:1.0;stroke-dasharray:2.0,2.0;" x1="952" x2="1192" y1="376.5938" y2="376.5938"/><text fill="#000000" font-family="sans-serif" font-size="13" lengthAdjust="spacing" textLength="115" x="964" y="371.8516">Return legacy XML</text><line style="stroke:#181818;stroke-width:1.0;" x1="947" x2="989" y1="405.9043" y2="405.9043"/><line style="stroke:#181818;stroke-width:1.0;" x1="989" x2="989" y1="405.9043" y2="418.9043"/><line style="stroke:#181818;stroke-width:1.0;" x1="948" x2="989" y1="418.9043" y2="418.9043"/><polygon fill="#181818" points="958,414.9043,948,418.9043,958,422.9043,954,418.9043" style="stroke:#181818;stroke-width:1.0;"/><text fill="#000000" font-family="sans-serif" font-size="13" lengthAdjust="spacing" textLength="232" x="954" y="401.1621">Transform XML to OpenFinance JSON</text><polygon fill="#181818" points="822,444.2148,812,448.2148,822,452.2148,818,448.2148" style="stroke:#181818;stroke-width:1.0;"/><line style="stroke:#181818;stroke-width:1.0;stroke-dasharray:2.0,2.0;" x1="816" x2="946" y1="448.2148" y2="448.2148"/><text fill="#000000" font-family="sans-serif" font-size="13" lengthAdjust="spacing" textLength="50" x="828" y="443.4727">Success</text><polygon fill="#181818" points="397,473.5254,387,477.5254,397,481.5254,393,477.5254" style="stroke:#181818;stroke-width:1.0;"/><line style="stroke:#181818;stroke-width:1.0;stroke-dasharray:2.0,2.0;" x1="391" x2="810" y1="477.5254" y2="477.5254"/><text fill="#000000" font-family="sans-serif" font-size="13" lengthAdjust="spacing" textLength="76" x="403" y="472.7832">Return JSON</text><polygon fill="#181818" points="237,502.8359,227,506.8359,237,510.8359,233,506.8359" style="stroke:#181818;stroke-width:1.0;"/><line style="stroke:#181818;stroke-width:1.0;stroke-dasharray:2.0,2.0;" x1="231" x2="385" y1="506.8359" y2="506.8359"/><text fill="#000000" font-family="sans-serif" font-size="13" lengthAdjust="spacing" textLength="76" x="243" y="502.0938">Return JSON</text><polygon fill="#181818" points="39,532.1465,29,536.1465,39,540.1465,35,536.1465" style="stroke:#181818;stroke-width:1.0;"/><line style="stroke:#181818;stroke-width:1.0;stroke-dasharray:2.0,2.0;" x1="33" x2="225" y1="536.1465" y2="536.1465"/><text fill="#000000" font-family="sans-serif" font-size="13" lengthAdjust="spacing" textLength="174" x="45" y="531.4043">200 OK (OpenFinance JSON)</text><!--SRC=[RP7DRjim48JlV8f53eLzC1pqc4C1GNO4Dt8jH45_ZWjghH1XbYv9fNMVlalHLksWHt4-pUxCeexEGsaDSLG7zD5eSq2ES5Cq6wWmqYyytW06gBwzqoSPPcr4xj0wfld85fl_qGFwpgEnOMJQTNcDFD1HMuSliEcQaTYicckYT3sRQDu8QZoI7w5oLrr3M-eCfb2p5dlC-spNgskefXxr4UuDexOqClMwAieVIkKkOF594iCTLEidMABMRk0ObjQycXYKAAAdb48ykY6IV83XcFwC7lTxezKe2oOnXFgArdJI5wmQry07U78ln2ffYtzMusD6OLOCyVdFidGSn7K-sKblGhOQ6VRfT4wc_exGE1CS6-vL0Yuypq1f2NboaTgcrJtz72X4cTZBf5HlmMYFmOIvIfpWKc1Qpvk-9m_t5FLpQbUbTv5pTqAC2kIMuCqW56MjJkfYydcaE7W6cu_mVLkVVSvZa8DaUqqIH0Ux0t4w5Mk2p-tkIyQd5EsWDOMGTxsuIvuo_f1ZdszwgPpUJrU_Wu-tjx1xWDdxcVE_]--></g></svg>