<?plantuml 1.2026.2?><svg xmlns="http://www.w3.org/2000/svg" xmlns:xlink="http://www.w3.org/1999/xlink" contentStyleType="text/css" data-diagram-type="DESCRIPTION" height="1076px" preserveAspectRatio="none" style="width:662px;height:1076px;background:#FFFFFF;" version="1.1" viewBox="0 0 662 1076" width="662px" zoomAndPan="magnify"><defs/><g><!--cluster Agentive Platform (OpenShift)--><g class="cluster" data-qualified-name="Agentive Platform .OpenShift." data-source-line="6" id="ent0002"><polygon fill="#F4F6F8" points="26.22,16,36.22,6,645.22,6,645.22,1049.13,635.22,1059.13,26.22,1059.13,26.22,16" style="stroke:#A2B4C6;stroke-width:1;"/><line style="stroke:#A2B4C6;stroke-width:1;" x1="635.22" x2="645.22" y1="16" y2="6"/><line style="stroke:#A2B4C6;stroke-width:1;" x1="26.22" x2="635.22" y1="16" y2="16"/><line style="stroke:#A2B4C6;stroke-width:1;" x1="635.22" x2="635.22" y1="16" y2="1059.13"/><text fill="#000000" font-family="sans-serif" font-size="14" font-weight="bold" lengthAdjust="spacing" textLength="216.4326" x="223.5037" y="32.5352">Agentive Platform (OpenShift)</text></g><!--cluster Harness Layer--><g class="cluster" data-qualified-name="Agentive Platform .OpenShift..Harness Layer" data-source-line="10" id="ent0004"><polygon fill="#F4F6F8" points="284.22,221.74,294.22,211.74,470.22,211.74,470.22,460.69,460.22,470.69,284.22,470.69,284.22,221.74" style="stroke:#A2B4C6;stroke-width:1;"/><line style="stroke:#A2B4C6;stroke-width:1;" x1="460.22" x2="470.22" y1="221.74" y2="211.74"/><line style="stroke:#A2B4C6;stroke-width:1;" x1="284.22" x2="460.22" y1="221.74" y2="221.74"/><line style="stroke:#A2B4C6;stroke-width:1;" x1="460.22" x2="460.22" y1="221.74" y2="470.69"/><text fill="#000000" font-family="sans-serif" font-size="14" font-weight="bold" lengthAdjust="spacing" textLength="102.4639" x="321.9881" y="238.2752">Harness Layer</text></g><!--cluster Cognitive Layer--><g class="cluster" data-qualified-name="Agentive Platform .OpenShift..Cognitive Layer" data-source-line="15" id="ent0007"><polygon fill="#F4F6F8" points="50.22,529.69,60.22,519.69,621.22,519.69,621.22,874.64,611.22,884.64,50.22,884.64,50.22,529.69" style="stroke:#A2B4C6;stroke-width:1;"/><line style="stroke:#A2B4C6;stroke-width:1;" x1="611.22" x2="621.22" y1="529.69" y2="519.69"/><line style="stroke:#A2B4C6;stroke-width:1;" x1="50.22" x2="611.22" y1="529.69" y2="529.69"/><line style="stroke:#A2B4C6;stroke-width:1;" x1="611.22" x2="611.22" y1="529.69" y2="884.64"/><text fill="#000000" font-family="sans-serif" font-size="14" font-weight="bold" lengthAdjust="spacing" textLength="112.3486" x="275.5457" y="546.2252">Cognitive Layer</text></g><!--cluster Memory Banks--><g class="cluster" data-qualified-name="Agentive Platform .OpenShift..Memory Banks" data-source-line="23" id="ent0013"><polygon fill="#F4F6F8" points="299.22,943.64,309.22,933.64,480.22,933.64,480.22,1025.13,470.22,1035.13,299.22,1035.13,299.22,943.64" style="stroke:#A2B4C6;stroke-width:1;"/><line style="stroke:#A2B4C6;stroke-width:1;" x1="470.22" x2="480.22" y1="943.64" y2="933.64"/><line style="stroke:#A2B4C6;stroke-width:1;" x1="299.22" x2="470.22" y1="943.64" y2="943.64"/><line style="stroke:#A2B4C6;stroke-width:1;" x1="470.22" x2="470.22" y1="943.64" y2="1035.13"/><text fill="#000000" font-family="sans-serif" font-size="14" font-weight="bold" lengthAdjust="spacing" textLength="105.5879" x="332.9261" y="960.1752">Memory Banks</text></g><!--cluster Security Fabric--><g class="cluster" data-qualified-name="Agentive Platform .OpenShift..Security Fabric" data-source-line="27" id="ent0015"><polygon fill="#F4F6F8" points="50.22,64,60.22,54,260.22,54,260.22,312.47,250.22,322.47,50.22,322.47,50.22,64" style="stroke:#A2B4C6;stroke-width:1;"/><line style="stroke:#A2B4C6;stroke-width:1;" x1="250.22" x2="260.22" y1="64" y2="54"/><line style="stroke:#A2B4C6;stroke-width:1;" x1="50.22" x2="250.22" y1="64" y2="64"/><line style="stroke:#A2B4C6;stroke-width:1;" x1="250.22" x2="250.22" y1="64" y2="322.47"/><text fill="#000000" font-family="sans-serif" font-size="14" font-weight="bold" lengthAdjust="spacing" textLength="106.1279" x="98.156" y="80.5352">Security Fabric</text></g><!--entity gateway--><g class="entity" data-qualified-name="Agentive Platform .OpenShift..gateway" data-source-line="8" id="ent0003"><rect fill="#F1F1F1" height="62.9766" rx="2.5" ry="2.5" style="stroke:#181818;stroke-width:0.5;" width="198.0605" x="279.19" y="85.76"/><rect fill="#F1F1F1" height="10" style="stroke:#181818;stroke-width:0.5;" width="15" x="457.2505" y="90.76"/><rect fill="#F1F1F1" height="2" style="stroke:#181818;stroke-width:0.5;" width="4" x="455.2505" y="92.76"/><rect fill="#F1F1F1" height="2" style="stroke:#181818;stroke-width:0.5;" width="4" x="455.2505" y="96.76"/><text fill="#000000" font-family="sans-serif" font-size="14" lengthAdjust="spacing" textLength="101.2607" x="294.19" y="119.2952">Agent Gateway</text><text fill="#000000" font-family="sans-serif" font-size="14" lengthAdjust="spacing" textLength="158.0605" x="294.19" y="135.7834">(Spring Cloud Gateway)</text></g><!--entity dlp--><g class="entity" data-qualified-name="Agentive Platform .OpenShift..Harness Layer.dlp" data-source-line="11" id="ent0005"><rect fill="#F08080" height="62.9766" rx="2.5" ry="2.5" style="stroke:#181818;stroke-width:0.5;" width="153.3604" x="300.54" y="251.74"/><rect fill="#F08080" height="10" style="stroke:#181818;stroke-width:0.5;" width="15" x="433.9004" y="256.74"/><rect fill="#F08080" height="2" style="stroke:#181818;stroke-width:0.5;" width="4" x="431.9004" y="258.74"/><rect fill="#F08080" height="2" style="stroke:#181818;stroke-width:0.5;" width="4" x="431.9004" y="262.74"/><text fill="#000000" font-family="sans-serif" font-size="14" lengthAdjust="spacing" textLength="84.9434" x="315.54" y="285.2752">Security LLM</text><text fill="#000000" font-family="sans-serif" font-size="14" lengthAdjust="spacing" textLength="113.3604" x="315.54" y="301.7634">&#171;Streaming DLP&#187;</text></g><!--entity scoper--><g class="entity" data-qualified-name="Agentive Platform .OpenShift..Harness Layer.scoper" data-source-line="12" id="ent0006"><rect fill="#FFFFE0" height="62.9766" rx="2.5" ry="2.5" style="stroke:#181818;stroke-width:0.5;" width="130.2139" x="303.11" y="391.71"/><rect fill="#FFFFE0" height="10" style="stroke:#181818;stroke-width:0.5;" width="15" x="413.3239" y="396.71"/><rect fill="#FFFFE0" height="2" style="stroke:#181818;stroke-width:0.5;" width="4" x="411.3239" y="398.71"/><rect fill="#FFFFE0" height="2" style="stroke:#181818;stroke-width:0.5;" width="4" x="411.3239" y="402.71"/><text fill="#000000" font-family="sans-serif" font-size="14" lengthAdjust="spacing" textLength="90.1934" x="318.11" y="425.2452">Agent Scoper</text><text fill="#000000" font-family="sans-serif" font-size="14" lengthAdjust="spacing" textLength="90.2139" x="318.11" y="441.7334">&#171;PII Hashing&#187;</text></g><!--entity router--><g class="entity" data-qualified-name="Agentive Platform .OpenShift..Cognitive Layer.router" data-source-line="16" id="ent0008"><rect fill="#F1F1F1" height="46.4883" rx="2.5" ry="2.5" style="stroke:#181818;stroke-width:0.5;" width="214.9727" x="220.73" y="559.69"/><rect fill="#F1F1F1" height="10" style="stroke:#181818;stroke-width:0.5;" width="15" x="415.7027" y="564.69"/><rect fill="#F1F1F1" height="2" style="stroke:#181818;stroke-width:0.5;" width="4" x="413.7027" y="566.69"/><rect fill="#F1F1F1" height="2" style="stroke:#181818;stroke-width:0.5;" width="4" x="413.7027" y="570.69"/><text fill="#000000" font-family="sans-serif" font-size="14" lengthAdjust="spacing" textLength="174.9727" x="235.73" y="593.2252">Mixture of Experts Router</text></g><!--entity cache--><g class="entity" data-qualified-name="Agentive Platform .OpenShift..Cognitive Layer.cache" data-source-line="17" id="ent0009"><path d="M65.82,693.18 C65.82,683.18 129.2155,683.18 129.2155,683.18 C129.2155,683.18 192.611,683.18 192.611,693.18 L192.611,735.1566 C192.611,745.1566 129.2155,745.1566 129.2155,745.1566 C129.2155,745.1566 65.82,745.1566 65.82,735.1566 L65.82,693.18" fill="#F1F1F1" style="stroke:#181818;stroke-width:0.5;"/><path d="M65.82,693.18 C65.82,703.18 129.2155,703.18 129.2155,703.18 C129.2155,703.18 192.611,703.18 192.611,693.18" fill="none" style="stroke:#181818;stroke-width:0.5;"/><text fill="#000000" font-family="sans-serif" font-size="14" lengthAdjust="spacing" textLength="106.791" x="75.82" y="720.7152">Semantic Cache</text><text fill="#000000" font-family="sans-serif" font-size="14" lengthAdjust="spacing" textLength="73.9922" x="75.82" y="737.2034">&#171;pgvector&#187;</text></g><!--entity slm--><g class="entity" data-qualified-name="Agentive Platform .OpenShift..Cognitive Layer.slm" data-source-line="18" id="ent0010"><rect fill="#ADD8E6" height="46.4883" rx="2.5" ry="2.5" style="stroke:#181818;stroke-width:0.5;" width="152.3213" x="228.06" y="690.92"/><rect fill="#ADD8E6" height="10" style="stroke:#181818;stroke-width:0.5;" width="15" x="360.3813" y="695.92"/><rect fill="#ADD8E6" height="2" style="stroke:#181818;stroke-width:0.5;" width="4" x="358.3813" y="697.92"/><rect fill="#ADD8E6" height="2" style="stroke:#181818;stroke-width:0.5;" width="4" x="358.3813" y="701.92"/><text fill="#000000" font-family="sans-serif" font-size="14" lengthAdjust="spacing" textLength="112.3213" x="243.06" y="724.4552">SLM (Fast Intent)</text></g><!--entity llm--><g class="entity" data-qualified-name="Agentive Platform .OpenShift..Cognitive Layer.llm" data-source-line="19" id="ent0011"><rect fill="#ADD8E6" height="46.4883" rx="2.5" ry="2.5" style="stroke:#181818;stroke-width:0.5;" width="190.124" x="415.16" y="690.92"/><rect fill="#ADD8E6" height="10" style="stroke:#181818;stroke-width:0.5;" width="15" x="585.284" y="695.92"/><rect fill="#ADD8E6" height="2" style="stroke:#181818;stroke-width:0.5;" width="4" x="583.284" y="697.92"/><rect fill="#ADD8E6" height="2" style="stroke:#181818;stroke-width:0.5;" width="4" x="583.284" y="701.92"/><text fill="#000000" font-family="sans-serif" font-size="14" lengthAdjust="spacing" textLength="150.124" x="430.16" y="724.4552">LLM (Deep Reasoning)</text></g><!--entity temp--><g class="entity" data-qualified-name="Agentive Platform .OpenShift..Cognitive Layer.temp" data-source-line="20" id="ent0012"><rect fill="#F1F1F1" height="46.4883" rx="2.5" ry="2.5" style="stroke:#181818;stroke-width:0.5;" width="172.1387" x="303.15" y="822.15"/><rect fill="#F1F1F1" height="10" style="stroke:#181818;stroke-width:0.5;" width="15" x="455.2887" y="827.15"/><rect fill="#F1F1F1" height="2" style="stroke:#181818;stroke-width:0.5;" width="4" x="453.2887" y="829.15"/><rect fill="#F1F1F1" height="2" style="stroke:#181818;stroke-width:0.5;" width="4" x="453.2887" y="833.15"/><text fill="#000000" font-family="sans-serif" font-size="14" lengthAdjust="spacing" textLength="132.1387" x="318.15" y="855.6852">Temporal Workflow</text></g><!--entity memory--><g class="entity" data-qualified-name="Agentive Platform .OpenShift..Memory Banks.memory" data-source-line="24" id="ent0014"><path d="M328.69,983.64 C328.69,973.64 389.2178,973.64 389.2178,973.64 C389.2178,973.64 449.7457,973.64 449.7457,983.64 L449.7457,1009.1283 C449.7457,1019.1283 389.2178,1019.1283 389.2178,1019.1283 C389.2178,1019.1283 328.69,1019.1283 328.69,1009.1283 L328.69,983.64" fill="#F1F1F1" style="stroke:#181818;stroke-width:0.5;"/><path d="M328.69,983.64 C328.69,993.64 389.2178,993.64 389.2178,993.64 C389.2178,993.64 449.7457,993.64 449.7457,983.64" fill="none" style="stroke:#181818;stroke-width:0.5;"/><text fill="#000000" font-family="sans-serif" font-size="14" lengthAdjust="spacing" textLength="101.0557" x="338.69" y="1011.1752">Agent State DB</text></g><!--entity istio--><g class="entity" data-qualified-name="Agentive Platform .OpenShift..Security Fabric.istio" data-source-line="28" id="ent0016"><rect fill="#F1F1F1" height="46.4883" rx="2.5" ry="2.5" style="stroke:#181818;stroke-width:0.5;" width="109.166" x="75.64" y="259.98"/><rect fill="#F1F1F1" height="10" style="stroke:#181818;stroke-width:0.5;" width="15" x="164.806" y="264.98"/><rect fill="#F1F1F1" height="2" style="stroke:#181818;stroke-width:0.5;" width="4" x="162.806" y="266.98"/><rect fill="#F1F1F1" height="2" style="stroke:#181818;stroke-width:0.5;" width="4" x="162.806" y="270.98"/><text fill="#000000" font-family="sans-serif" font-size="14" lengthAdjust="spacing" textLength="69.166" x="90.64" y="293.5152">Istio Mesh</text></g><!--entity killswitch--><g class="entity" data-qualified-name="Agentive Platform .OpenShift..Security Fabric.killswitch" data-source-line="29" id="ent0017"><rect fill="#FF0000" height="46.4883" rx="2.5" ry="2.5" style="stroke:#181818;stroke-width:0.5;" width="178.2158" x="66.11" y="94"/><rect fill="#FF0000" height="10" style="stroke:#181818;stroke-width:0.5;" width="15" x="224.3258" y="99"/><rect fill="#FF0000" height="2" style="stroke:#181818;stroke-width:0.5;" width="4" x="222.3258" y="101"/><rect fill="#FF0000" height="2" style="stroke:#181818;stroke-width:0.5;" width="4" x="222.3258" y="105"/><text fill="#000000" font-family="sans-serif" font-size="14" lengthAdjust="spacing" textLength="138.2158" x="81.11" y="127.5352">Hardware Kill Switch</text></g><!--link gateway to dlp--><g class="link" data-entity-1="ent0003" data-entity-2="ent0005" data-link-type="dependency" data-source-line="33" id="lnk18"><path d="M378.03,149.09 C377.85,178.31 377.6269,215.9701 377.4469,245.2401" fill="none" id="gateway-to-dlp" style="stroke:#181818;stroke-width:1;"/><polygon fill="#181818" points="377.41,251.24,381.4653,242.2648,377.4407,246.2401,373.4654,242.2156,377.41,251.24" style="stroke:#181818;stroke-width:1;"/><text fill="#000000" font-family="sans-serif" font-size="13" lengthAdjust="spacing" textLength="79.9741" x="378.84" y="192.3084">Raw Request</text></g><!--link dlp to scoper--><g class="link" data-entity-1="ent0005" data-entity-2="ent0006" data-link-type="dependency" data-source-line="34" id="lnk19"><path d="M375.2,315.19 C373.72,337.91 372.1004,362.6527 370.6204,385.3527" fill="none" id="dlp-to-scoper" style="stroke:#181818;stroke-width:1;"/><polygon fill="#181818" points="370.23,391.34,374.8071,382.6193,370.5553,386.3506,366.824,382.0988,370.23,391.34" style="stroke:#181818;stroke-width:1;"/><text fill="#000000" font-family="sans-serif" font-size="13" lengthAdjust="spacing" textLength="80.7612" x="374.26" y="358.2784">Safe Request</text></g><!--link scoper to router--><g class="link" data-entity-1="ent0006" data-entity-2="ent0008" data-link-type="dependency" data-source-line="35" id="lnk20"><path d="M360.41,454.99 C352.64,485.65 342.3657,526.1743 335.4157,553.5643" fill="none" id="scoper-to-router" style="stroke:#181818;stroke-width:1;"/><polygon fill="#181818" points="333.94,559.38,340.0307,551.6402,335.1697,554.5336,332.2764,549.6727,333.94,559.38" style="stroke:#181818;stroke-width:1;"/><text fill="#000000" font-family="sans-serif" font-size="13" lengthAdjust="spacing" textLength="101.4102" x="352.8" y="500.2584">Hashed Request</text></g><!--link router to cache--><g class="link" data-entity-1="ent0008" data-entity-2="ent0009" data-link-type="dependency" data-source-line="36" id="lnk21"><path d="M273.7616,609.2995 C256.6116,617.8595 242.86,625.46 226.22,636.18 C204.53,650.15 186.4702,664.0899 168.5102,679.0499" fill="none" id="router-cache" style="stroke:#181818;stroke-width:1;"/><polygon fill="#181818" points="279.13,606.62,269.291,607.0603,274.6563,608.8529,272.8637,614.2182,279.13,606.62" style="stroke:#181818;stroke-width:1;"/><polygon fill="#181818" points="163.9,682.89,173.3753,680.2033,167.7418,679.6899,168.2552,674.0564,163.9,682.89" style="stroke:#181818;stroke-width:1;"/><text fill="#000000" font-family="sans-serif" font-size="13" lengthAdjust="spacing" textLength="79.5234" x="227.22" y="649.7484">Check Intent</text></g><!--link router to slm--><g class="link" data-entity-1="ent0008" data-entity-2="ent0010" data-link-type="dependency" data-source-line="37" id="lnk22"><path d="M324.04,606.44 C319.66,630.02 313.9155,660.9409 309.5255,684.5809" fill="none" id="router-to-slm" style="stroke:#181818;stroke-width:1;"/><polygon fill="#181818" points="308.43,690.48,314.006,682.3616,309.3429,685.564,306.1405,680.901,308.43,690.48" style="stroke:#181818;stroke-width:1;"/><text fill="#000000" font-family="sans-serif" font-size="13" lengthAdjust="spacing" textLength="75.8164" x="319.37" y="649.7484">Simple Task</text></g><!--link router to llm--><g class="link" data-entity-1="ent0008" data-entity-2="ent0011" data-link-type="dependency" data-source-line="38" id="lnk23"><path d="M360.78,606.45 C373.99,615.63 389.36,626.37 403.22,636.18 C428.81,654.29 452.7885,671.5535 474.0785,686.9535" fill="none" id="router-to-llm" style="stroke:#181818;stroke-width:1;"/><polygon fill="#181818" points="478.94,690.47,473.9921,681.9542,474.8888,687.5396,469.3034,688.4362,478.94,690.47" style="stroke:#181818;stroke-width:1;"/><text fill="#000000" font-family="sans-serif" font-size="13" lengthAdjust="spacing" textLength="90.0098" x="427.76" y="649.7484">Complex Task</text></g><!--link slm to temp--><g class="link" data-entity-1="ent0010" data-entity-2="ent0012" data-link-type="dependency" data-source-line="40" id="lnk24"><path d="M312.56,737.73 C318.95,753.63 328.63,775.05 340.22,792.15 C347.33,802.65 352.3742,808.7812 360.8942,817.5312" fill="none" id="slm-to-temp" style="stroke:#181818;stroke-width:1;"/><polygon fill="#181818" points="365.08,821.83,361.6672,812.5913,361.5919,818.2477,355.9355,818.1724,365.08,821.83" style="stroke:#181818;stroke-width:1;"/><text fill="#000000" font-family="sans-serif" font-size="13" lengthAdjust="spacing" textLength="102.6226" x="341.22" y="788.7184">Intent Execution</text></g><!--link llm to temp--><g class="link" data-entity-1="ent0011" data-entity-2="ent0012" data-link-type="dependency" data-source-line="41" id="lnk25"><path d="M493.53,737.9 C481.55,753.68 464.69,774.9 448.22,792.15 C438.4,802.45 431.3581,809.075 421.0681,817.975" fill="none" id="llm-to-temp" style="stroke:#181818;stroke-width:1;"/><polygon fill="#181818" points="416.53,821.9,425.9538,819.0378,420.3117,818.6291,420.7204,812.9871,416.53,821.9" style="stroke:#181818;stroke-width:1;"/><text fill="#000000" font-family="sans-serif" font-size="13" lengthAdjust="spacing" textLength="102.6226" x="463.75" y="788.7184">Intent Execution</text></g><!--link temp to memory--><g class="link" data-entity-1="ent0012" data-entity-2="ent0014" data-link-type="dependency" data-source-line="43" id="lnk26"><path d="M389.22,869.03 C389.22,897.35 389.22,939.55 389.22,967.52" fill="none" id="temp-to-memory" style="stroke:#181818;stroke-width:1;"/><polygon fill="#181818" points="389.22,973.52,393.22,964.52,389.22,968.52,385.22,964.52,389.22,973.52" style="stroke:#181818;stroke-width:1;"/><text fill="#000000" font-family="sans-serif" font-size="13" lengthAdjust="spacing" textLength="79.917" x="390.22" y="914.2084">Update State</text></g><!--link killswitch to istio--><g class="link" data-entity-1="ent0017" data-entity-2="ent0016" data-link-type="dependency" data-source-line="44" id="lnk27"><path d="M71.52,140.86 C53.62,149.71 36.9,161.93 26.22,178.74 C6,210.55 38.6475,237.3063 74.2375,256.6363" fill="none" id="killswitch-to-istio" style="stroke:#181818;stroke-width:1;stroke-dasharray:7,7;"/><polygon fill="#181818" points="79.51,259.5,73.5103,251.6895,75.1162,257.1136,69.6921,258.7195,79.51,259.5" style="stroke:#181818;stroke-width:1;"/><text fill="#000000" font-family="sans-serif" font-size="13" lengthAdjust="spacing" textLength="112.271" x="27.22" y="192.3084">Revokes SPIFFE ID</text></g><?plantuml-src XLF1Rjim3BtxAuZcaXtQmr0KGr44M9Dc3PPWGTnXbruOcNO4ov8doKc3eVy-IbRIeCXM7moBZ--HUgHTBNMB5XlGfY3uam4_zoZgoffE5sEZZ8L1ULtUb5zwpDY2R8hZv_MrkCbUioooBxvMfBtS4YmL-jBO1eO_MjBvHfR-qqLIZozXcjPepaua-8QUThX_riEyjL9NC5QcAmvX9gE3gZ-ygVHL7z5gSWxck2TxgFAkI4wYizBlOJvVFEkxkznRmYRKcSoNer6KBrGB0oMhZHV6eZedq_UQ2zEI3JBBsGmUqMrOA8cuY2MTFIbbTb7ezNtNOrDf6StwNzyB-U8xIs1AU7XXOUzWPJeVyhcOZPz7Ne4Ur-WeNBT1deI0COeDXKxRQal26vlQ525-rgZv0ePJT1vcsdEaTzwf9brfhRgpl7dWJOXQM14wezcHdge-f3uHVxBXyClOkcJ38izpzBnp2sgCtVEMwjgTslPs_JGcp_i2a_ierqJIUS7ZSannRQNunoXcpai32tARA2Z3yLmUhsEnGvxPTwaKv3lfHS-e-UpY4GQMYjGB_pnfh-7oSXINy1PMk6CVVtVaV1OY0KcRTGivbdH4KpGazDl02M4ZgJYcfFXTo8bpvvJnXaITHdn8Y4LuMbn1DgqYU49Ndu8gWcCJm9SUpG8XO65S3FQAlAjiAVkZC_K1daKWPFGJufoVRH465yUNdPXsTJNgNGy6qTRKv21VpgRJ1vXDihy0?></g></svg>