<svg xmlns="http://www.w3.org/2000/svg" xmlns:xlink="http://www.w3.org/1999/xlink" contentStyleType="text/css" height="1224px" preserveAspectRatio="none" style="width:1339px;height:1224px;background:#FFFFFF;" version="1.1" viewBox="0 0 1339 1224" width="1339px" zoomAndPan="magnify"><defs/><g><!--cluster Presentation Layer--><g id="cluster_Presentation Layer"><polygon fill="#F4F6F8" points="16,154.98,26,144.98,507,144.98,507,253.96,497,263.96,16,263.96,16,154.98" style="stroke:#A2B4C6;stroke-width:1.0;"/><line style="stroke:#A2B4C6;stroke-width:1.0;" x1="497" x2="507" y1="154.98" y2="144.98"/><line style="stroke:#A2B4C6;stroke-width:1.0;" x1="16" x2="497" y1="154.98" y2="154.98"/><line style="stroke:#A2B4C6;stroke-width:1.0;" x1="497" x2="497" y1="154.98" y2="263.96"/><text fill="#000000" font-family="sans-serif" font-size="14" font-weight="bold" lengthAdjust="spacing" textLength="134" x="190.5" y="171.5152">Presentation Layer</text></g><!--cluster Agentive Platform (OpenShift ROSA)--><g id="cluster_Agentive Platform (OpenShift ROSA)"><polygon fill="#F4F6F8" points="19,322.96,29,312.96,1322,312.96,1322,1197.82,1312,1207.82,19,1207.82,19,322.96" style="stroke:#A2B4C6;stroke-width:1.0;"/><line style="stroke:#A2B4C6;stroke-width:1.0;" x1="1312" x2="1322" y1="322.96" y2="312.96"/><line style="stroke:#A2B4C6;stroke-width:1.0;" x1="19" x2="1312" y1="322.96" y2="322.96"/><line style="stroke:#A2B4C6;stroke-width:1.0;" x1="1312" x2="1312" y1="322.96" y2="1207.82"/><text fill="#000000" font-family="sans-serif" font-size="14" font-weight="bold" lengthAdjust="spacing" textLength="263" x="535" y="339.4952">Agentive Platform (OpenShift ROSA)</text></g><!--cluster Cognitive Agent-FTE Layer--><g id="cluster_Cognitive Agent-FTE Layer"><polygon fill="#F4F6F8" points="43,768.89,53,758.89,548,758.89,548,1173.82,538,1183.82,43,1183.82,43,768.89" style="stroke:#A2B4C6;stroke-width:1.0;"/><line style="stroke:#A2B4C6;stroke-width:1.0;" x1="538" x2="548" y1="768.89" y2="758.89"/><line style="stroke:#A2B4C6;stroke-width:1.0;" x1="43" x2="538" y1="768.89" y2="768.89"/><line style="stroke:#A2B4C6;stroke-width:1.0;" x1="538" x2="538" y1="768.89" y2="1183.82"/><text fill="#000000" font-family="sans-serif" font-size="14" font-weight="bold" lengthAdjust="spacing" textLength="194" x="194.5" y="785.4252">Cognitive Agent-FTE Layer</text></g><!--cluster Economics & Cost Layer--><g id="cluster_Economics &amp; Cost Layer"><polygon fill="#F4F6F8" points="572,1074.84,582,1064.84,820,1064.84,820,1173.82,810,1183.82,572,1183.82,572,1074.84" style="stroke:#A2B4C6;stroke-width:1.0;"/><line style="stroke:#A2B4C6;stroke-width:1.0;" x1="810" x2="820" y1="1074.84" y2="1064.84"/><line style="stroke:#A2B4C6;stroke-width:1.0;" x1="572" x2="810" y1="1074.84" y2="1074.84"/><line style="stroke:#A2B4C6;stroke-width:1.0;" x1="810" x2="810" y1="1074.84" y2="1183.82"/><text fill="#000000" font-family="sans-serif" font-size="14" font-weight="bold" lengthAdjust="spacing" textLength="172" x="606" y="1091.3752">Economics &amp; Cost Layer</text></g><!--cluster Identity & Memory--><g id="cluster_Identity &amp; Memory"><polygon fill="#F4F6F8" points="844,1074.84,854,1064.84,1298,1064.84,1298,1173.82,1288,1183.82,844,1183.82,844,1074.84" style="stroke:#A2B4C6;stroke-width:1.0;"/><line style="stroke:#A2B4C6;stroke-width:1.0;" x1="1288" x2="1298" y1="1074.84" y2="1064.84"/><line style="stroke:#A2B4C6;stroke-width:1.0;" x1="844" x2="1288" y1="1074.84" y2="1074.84"/><line style="stroke:#A2B4C6;stroke-width:1.0;" x1="1288" x2="1288" y1="1074.84" y2="1183.82"/><text fill="#000000" font-family="sans-serif" font-size="14" font-weight="bold" lengthAdjust="spacing" textLength="134" x="1000" y="1091.3752">Identity &amp; Memory</text></g><!--entity Developer Portal (Next.js)--><g id="elem_Developer Portal (Next.js)"><rect fill="#F1F1F1" height="62.9766" rx="2.5" ry="2.5" style="stroke:#181818;stroke-width:0.5;" width="214" x="32" y="184.98"/><rect fill="#F1F1F1" height="10" style="stroke:#181818;stroke-width:0.5;" width="15" x="226" y="189.98"/><rect fill="#F1F1F1" height="2" style="stroke:#181818;stroke-width:0.5;" width="4" x="224" y="191.98"/><rect fill="#F1F1F1" height="2" style="stroke:#181818;stroke-width:0.5;" width="4" x="224" y="195.98"/><text fill="#000000" font-family="sans-serif" font-size="14" font-style="italic" lengthAdjust="spacing" textLength="77" x="95.5" y="218.5152">&#171;Frontend&#187;</text><text fill="#000000" font-family="sans-serif" font-size="14" lengthAdjust="spacing" textLength="174" x="47" y="235.0034">Developer Portal (Next.js)</text></g><!--entity HITL Dashboard (Next.js)--><g id="elem_HITL Dashboard (Next.js)"><rect fill="#F1F1F1" height="62.9766" rx="2.5" ry="2.5" style="stroke:#181818;stroke-width:0.5;" width="210" x="281" y="184.98"/><rect fill="#F1F1F1" height="10" style="stroke:#181818;stroke-width:0.5;" width="15" x="471" y="189.98"/><rect fill="#F1F1F1" height="2" style="stroke:#181818;stroke-width:0.5;" width="4" x="469" y="191.98"/><rect fill="#F1F1F1" height="2" style="stroke:#181818;stroke-width:0.5;" width="4" x="469" y="195.98"/><text fill="#000000" font-family="sans-serif" font-size="14" font-style="italic" lengthAdjust="spacing" textLength="77" x="342.5" y="218.5152">&#171;Frontend&#187;</text><text fill="#000000" font-family="sans-serif" font-size="14" lengthAdjust="spacing" textLength="170" x="296" y="235.0034">HITL Dashboard (Next.js)</text></g><!--entity apiGw--><g id="elem_apiGw"><rect fill="#F1F1F1" height="62.9766" rx="2.5" ry="2.5" style="stroke:#181818;stroke-width:0.5;" width="163" x="304.5" y="352.96"/><rect fill="#F1F1F1" height="10" style="stroke:#181818;stroke-width:0.5;" width="15" x="447.5" y="357.96"/><rect fill="#F1F1F1" height="2" style="stroke:#181818;stroke-width:0.5;" width="4" x="445.5" y="359.96"/><rect fill="#F1F1F1" height="2" style="stroke:#181818;stroke-width:0.5;" width="4" x="445.5" y="363.96"/><text fill="#000000" font-family="sans-serif" font-size="14" lengthAdjust="spacing" textLength="123" x="319.5" y="386.4952">Kong API Gateway</text><text fill="#000000" font-family="sans-serif" font-size="14" lengthAdjust="spacing" textLength="101" x="319.5" y="402.9834">&#171;North-South&#187;</text></g><!--entity aiGw--><g id="elem_aiGw"><rect fill="#F1F1F1" height="62.9766" rx="2.5" ry="2.5" style="stroke:#181818;stroke-width:0.5;" width="181" x="295.5" y="492.94"/><rect fill="#F1F1F1" height="10" style="stroke:#181818;stroke-width:0.5;" width="15" x="456.5" y="497.94"/><rect fill="#F1F1F1" height="2" style="stroke:#181818;stroke-width:0.5;" width="4" x="454.5" y="499.94"/><rect fill="#F1F1F1" height="2" style="stroke:#181818;stroke-width:0.5;" width="4" x="454.5" y="503.94"/><text fill="#000000" font-family="sans-serif" font-size="14" lengthAdjust="spacing" textLength="115" x="310.5" y="526.4752">Kong AI Gateway</text><text fill="#000000" font-family="sans-serif" font-size="14" lengthAdjust="spacing" textLength="141" x="310.5" y="542.9634">&#171;Intelligent Routing&#187;</text></g><!--entity aiSec--><g id="elem_aiSec"><rect fill="#F1F1F1" height="62.9766" rx="2.5" ry="2.5" style="stroke:#181818;stroke-width:0.5;" width="222" x="275" y="632.91"/><rect fill="#F1F1F1" height="10" style="stroke:#181818;stroke-width:0.5;" width="15" x="477" y="637.91"/><rect fill="#F1F1F1" height="2" style="stroke:#181818;stroke-width:0.5;" width="4" x="475" y="639.91"/><rect fill="#F1F1F1" height="2" style="stroke:#181818;stroke-width:0.5;" width="4" x="475" y="643.91"/><text fill="#000000" font-family="sans-serif" font-size="14" lengthAdjust="spacing" textLength="182" x="290" y="666.4452">AI Autonomous Guardrails</text><text fill="#000000" font-family="sans-serif" font-size="14" lengthAdjust="spacing" textLength="82" x="290" y="682.9334">&#171;Pluggable&#187;</text></g><!--entity harness--><g id="elem_harness"><rect fill="#F1F1F1" height="62.9766" rx="2.5" ry="2.5" style="stroke:#181818;stroke-width:0.5;" width="212" x="280" y="798.89"/><rect fill="#F1F1F1" height="10" style="stroke:#181818;stroke-width:0.5;" width="15" x="472" y="803.89"/><rect fill="#F1F1F1" height="2" style="stroke:#181818;stroke-width:0.5;" width="4" x="470" y="805.89"/><rect fill="#F1F1F1" height="2" style="stroke:#181818;stroke-width:0.5;" width="4" x="470" y="809.89"/><text fill="#000000" font-family="sans-serif" font-size="14" lengthAdjust="spacing" textLength="172" x="295" y="832.4252">FTE Harness Coordinator</text><text fill="#000000" font-family="sans-serif" font-size="14" lengthAdjust="spacing" textLength="123" x="295" y="848.9134">&#171;Task Dispatcher&#187;</text></g><!--entity agents--><g id="elem_agents"><rect fill="#F1F1F1" height="62.9766" rx="2.5" ry="2.5" style="stroke:#181818;stroke-width:0.5;" width="255" x="267.5" y="938.87"/><rect fill="#F1F1F1" height="10" style="stroke:#181818;stroke-width:0.5;" width="15" x="502.5" y="943.87"/><rect fill="#F1F1F1" height="2" style="stroke:#181818;stroke-width:0.5;" width="4" x="500.5" y="945.87"/><rect fill="#F1F1F1" height="2" style="stroke:#181818;stroke-width:0.5;" width="4" x="500.5" y="949.87"/><text fill="#000000" font-family="sans-serif" font-size="14" lengthAdjust="spacing" textLength="127" x="282.5" y="972.4052">Agent-FTE Models</text><text fill="#000000" font-family="sans-serif" font-size="14" lengthAdjust="spacing" textLength="215" x="282.5" y="988.8934">&#171;Architecture, Compliance, etc&#187;</text></g><!--entity skillEvo--><g id="elem_skillEvo"><rect fill="#F1F1F1" height="62.9766" rx="2.5" ry="2.5" style="stroke:#181818;stroke-width:0.5;" width="204" x="59" y="1104.84"/><rect fill="#F1F1F1" height="10" style="stroke:#181818;stroke-width:0.5;" width="15" x="243" y="1109.84"/><rect fill="#F1F1F1" height="2" style="stroke:#181818;stroke-width:0.5;" width="4" x="241" y="1111.84"/><rect fill="#F1F1F1" height="2" style="stroke:#181818;stroke-width:0.5;" width="4" x="241" y="1115.84"/><text fill="#000000" font-family="sans-serif" font-size="14" lengthAdjust="spacing" textLength="164" x="74" y="1138.3752">Skill Evolution Workflow</text><text fill="#000000" font-family="sans-serif" font-size="14" lengthAdjust="spacing" textLength="80" x="74" y="1154.8634">&#171;Temporal&#187;</text></g><!--entity scrum--><g id="elem_scrum"><rect fill="#F1F1F1" height="62.9766" rx="2.5" ry="2.5" style="stroke:#181818;stroke-width:0.5;" width="234" x="298" y="1104.84"/><rect fill="#F1F1F1" height="10" style="stroke:#181818;stroke-width:0.5;" width="15" x="512" y="1109.84"/><rect fill="#F1F1F1" height="2" style="stroke:#181818;stroke-width:0.5;" width="4" x="510" y="1111.84"/><rect fill="#F1F1F1" height="2" style="stroke:#181818;stroke-width:0.5;" width="4" x="510" y="1115.84"/><text fill="#000000" font-family="sans-serif" font-size="14" lengthAdjust="spacing" textLength="194" x="313" y="1138.3752">Scrum Ceremonies Activities</text><text fill="#000000" font-family="sans-serif" font-size="14" lengthAdjust="spacing" textLength="80" x="313" y="1154.8634">&#171;Temporal&#187;</text></g><!--entity cost--><g id="elem_cost"><rect fill="#F1F1F1" height="62.9766" rx="2.5" ry="2.5" style="stroke:#181818;stroke-width:0.5;" width="171" x="588.5" y="1104.84"/><rect fill="#F1F1F1" height="10" style="stroke:#181818;stroke-width:0.5;" width="15" x="739.5" y="1109.84"/><rect fill="#F1F1F1" height="2" style="stroke:#181818;stroke-width:0.5;" width="4" x="737.5" y="1111.84"/><rect fill="#F1F1F1" height="2" style="stroke:#181818;stroke-width:0.5;" width="4" x="737.5" y="1115.84"/><text fill="#000000" font-family="sans-serif" font-size="14" lengthAdjust="spacing" textLength="120" x="603.5" y="1138.3752">FteCostOptimizer</text><text fill="#000000" font-family="sans-serif" font-size="14" lengthAdjust="spacing" textLength="131" x="603.5" y="1154.8634">&#171;Token Budgeting&#187;</text></g><!--entity idp--><g id="elem_idp"><rect fill="#F1F1F1" height="62.9766" rx="2.5" ry="2.5" style="stroke:#181818;stroke-width:0.5;" width="223" x="859.5" y="1104.84"/><rect fill="#F1F1F1" height="10" style="stroke:#181818;stroke-width:0.5;" width="15" x="1062.5" y="1109.84"/><rect fill="#F1F1F1" height="2" style="stroke:#181818;stroke-width:0.5;" width="4" x="1060.5" y="1111.84"/><rect fill="#F1F1F1" height="2" style="stroke:#181818;stroke-width:0.5;" width="4" x="1060.5" y="1115.84"/><text fill="#000000" font-family="sans-serif" font-size="14" lengthAdjust="spacing" textLength="183" x="874.5" y="1138.3752">MockCorporateIdpAdapter</text><text fill="#000000" font-family="sans-serif" font-size="14" lengthAdjust="spacing" textLength="117" x="874.5" y="1154.8634">&#171;IAM Resolution&#187;</text></g><!--entity memory--><g id="elem_memory"><path d="M1118,1115.34 C1118,1105.34 1200,1105.34 1200,1105.34 C1200,1105.34 1282,1105.34 1282,1115.34 L1282,1157.3166 C1282,1167.3166 1200,1167.3166 1200,1167.3166 C1200,1167.3166 1118,1167.3166 1118,1157.3166 L1118,1115.34 " fill="#F1F1F1" style="stroke:#181818;stroke-width:0.5;"/><path d="M1118,1115.34 C1118,1125.34 1200,1125.34 1200,1125.34 C1200,1125.34 1282,1125.34 1282,1115.34 " fill="none" style="stroke:#181818;stroke-width:0.5;"/><text fill="#000000" font-family="sans-serif" font-size="14" lengthAdjust="spacing" textLength="144" x="1128" y="1142.8752">Agent Memory Banks</text><text fill="#000000" font-family="sans-serif" font-size="14" lengthAdjust="spacing" textLength="102" x="1128" y="1159.3634">&#171;Redis/Vector&#187;</text></g><!--entity hitl--><g id="elem_hitl"><ellipse cx="386" cy="14" fill="#F1F1F1" rx="8" ry="8" style="stroke:#181818;stroke-width:0.5;"/><path d="M386,22 L386,49 M373,30 L399,30 M386,49 L373,64 M386,49 L399,64 " fill="none" style="stroke:#181818;stroke-width:0.5;"/><text fill="#000000" font-family="sans-serif" font-size="14" lengthAdjust="spacing" textLength="158" x="307" y="79.0352">Business Analyst / HITL</text></g><!--entity App--><g id="elem_App"><ellipse cx="528" cy="14" fill="#F1F1F1" rx="8" ry="8" style="stroke:#181818;stroke-width:0.5;"/><path d="M528,22 L528,49 M515,30 L541,30 M528,49 L515,64 M528,49 L541,64 " fill="none" style="stroke:#181818;stroke-width:0.5;"/><text fill="#000000" font-family="sans-serif" font-size="14" lengthAdjust="spacing" textLength="57" x="499.5" y="79.0352">TPP App</text></g><!--link hitl to HITL Dashboard (Next.js)--><g id="link_hitl_HITL Dashboard (Next.js)"><path d="M386,82.21 C386,112.93 386,149.9 386,178.65 " fill="none" id="hitl-to-HITL Dashboard (Next.js)" style="stroke:#181818;stroke-width:1.0;"/><polygon fill="#181818" points="386,184.65,390,175.65,386,179.65,382,175.65,386,184.65" style="stroke:#181818;stroke-width:1.0;"/><text fill="#000000" font-family="sans-serif" font-size="13" lengthAdjust="spacing" textLength="71" x="387" y="125.5484">Chat &amp; PRD</text></g><!--link HITL Dashboard (Next.js) to apiGw--><g id="link_HITL Dashboard (Next.js)_apiGw"><path d="M386,248.3 C386,278.02 386,316.75 386,346.5 " fill="none" id="HITL Dashboard (Next.js)-to-apiGw" style="stroke:#181818;stroke-width:1.0;"/><polygon fill="#181818" points="386,352.5,390,343.5,386,347.5,382,343.5,386,352.5" style="stroke:#181818;stroke-width:1.0;"/><text fill="#000000" font-family="sans-serif" font-size="13" lengthAdjust="spacing" textLength="175" x="387" y="293.5284">WebSocket (Virtual Threads)</text></g><!--link apiGw to aiGw--><g id="link_apiGw_aiGw"><path d="M386,416.41 C386,439.14 386,463.87 386,486.56 " fill="none" id="apiGw-to-aiGw" style="stroke:#181818;stroke-width:1.0;"/><polygon fill="#181818" points="386,492.56,390,483.56,386,487.56,382,483.56,386,492.56" style="stroke:#181818;stroke-width:1.0;"/><text fill="#000000" font-family="sans-serif" font-size="13" lengthAdjust="spacing" textLength="99" x="387" y="459.5084">AI Intent Traffic</text></g><!--link aiGw to aiSec--><g id="link_aiGw_aiSec"><path d="M386,556.39 C386,579.11 386,603.84 386,626.54 " fill="none" id="aiGw-to-aiSec" style="stroke:#181818;stroke-width:1.0;"/><polygon fill="#181818" points="386,632.54,390,623.54,386,627.54,382,623.54,386,632.54" style="stroke:#181818;stroke-width:1.0;"/><text fill="#000000" font-family="sans-serif" font-size="13" lengthAdjust="spacing" textLength="167" x="387" y="599.4784">Validates Authz &amp; Consent</text></g><!--link aiSec to harness--><g id="link_aiSec_harness"><path d="M386,696.24 C386,725.47 386,763.13 386,792.4 " fill="none" id="aiSec-to-harness" style="stroke:#181818;stroke-width:1.0;"/><polygon fill="#181818" points="386,798.4,390,789.4,386,793.4,382,789.4,386,798.4" style="stroke:#181818;stroke-width:1.0;"/><text fill="#000000" font-family="sans-serif" font-size="13" lengthAdjust="spacing" textLength="185" x="387" y="739.4584">Clean Context (No Poisoning)</text></g><!--link harness to agents--><g id="link_harness_agents"><path d="M388.02,862.34 C389.5,885.07 391.1196,909.8027 392.5996,932.5027 " fill="none" id="harness-to-agents" style="stroke:#181818;stroke-width:1.0;"/><polygon fill="#181818" points="392.99,938.49,396.396,929.2488,392.6647,933.5006,388.4129,929.7693,392.99,938.49" style="stroke:#181818;stroke-width:1.0;"/><text fill="#000000" font-family="sans-serif" font-size="13" lengthAdjust="spacing" textLength="144" x="392.04" y="905.4384">Maps to Specific Agent</text></g><!--link agents to idp--><g id="link_agents_idp"><path d="M522.58,983.25 C593.66,992.17 683.08,1007.19 760,1031.84 C816.73,1050.02 872.1474,1078.194 913.7974,1101.564 " fill="none" id="agents-to-idp" style="stroke:#181818;stroke-width:1.0;"/><polygon fill="#181818" points="919.03,1104.5,913.1385,1096.6076,914.6695,1102.0533,909.2238,1103.5844,919.03,1104.5" style="stroke:#181818;stroke-width:1.0;"/><text fill="#000000" font-family="sans-serif" font-size="13" lengthAdjust="spacing" textLength="231" x="803.15" y="1045.4084">Resolves Identity Profile &amp; Vault Path</text></g><!--link agents to skillEvo--><g id="link_agents_skillEvo"><path d="M267.15,982.62 C234.31,991.5 201.85,1006.57 179,1031.84 C161.39,1051.32 157.8184,1075.6306 158.1284,1098.4306 " fill="none" id="agents-to-skillEvo" style="stroke:#181818;stroke-width:1.0;"/><polygon fill="#181818" points="158.21,1104.43,162.0873,1095.3765,158.142,1099.4305,154.088,1095.4852,158.21,1104.43" style="stroke:#181818;stroke-width:1.0;"/><text fill="#000000" font-family="sans-serif" font-size="13" lengthAdjust="spacing" textLength="214" x="180" y="1045.4084">Updates Skill Mastery (+86% TDD)</text></g><!--link agents to scrum--><g id="link_agents_scrum"><path d="M398.76,1002.2 C402.33,1031.42 406.9236,1069.1241 410.4936,1098.3941 " fill="none" id="agents-to-scrum" style="stroke:#181818;stroke-width:1.0;"/><polygon fill="#181818" points="411.22,1104.35,414.1009,1094.9319,410.6146,1099.3868,406.1598,1095.9005,411.22,1104.35" style="stroke:#181818;stroke-width:1.0;"/><text fill="#000000" font-family="sans-serif" font-size="13" lengthAdjust="spacing" textLength="151" x="405.4" y="1045.4084">Participates in Standups</text></g><!--link agents to cost--><g id="link_agents_cost"><path d="M503.33,1002.23 C524.53,1010.37 546.05,1020.21 565,1031.84 C597.02,1051.5 623.4882,1077.3374 644.0282,1100.0774 " fill="none" id="agents-to-cost" style="stroke:#181818;stroke-width:1.0;"/><polygon fill="#181818" points="648.05,1104.53,644.9857,1095.17,644.6985,1100.8195,639.049,1100.5324,648.05,1104.53" style="stroke:#181818;stroke-width:1.0;"/><text fill="#000000" font-family="sans-serif" font-size="13" lengthAdjust="spacing" textLength="162" x="589.49" y="1045.4084">Dedicts AI Token Budgets</text></g><!--link agents to memory--><g id="link_agents_memory"><path d="M522.8,971.32 C655.01,974.04 866.48,986.17 1043,1031.84 C1091.51,1044.4 1133.7702,1075.1654 1163.4502,1100.9454 " fill="none" id="agents-to-memory" style="stroke:#181818;stroke-width:1.0;"/><polygon fill="#181818" points="1167.98,1104.88,1163.8084,1095.9583,1164.2052,1101.6012,1158.5622,1101.998,1167.98,1104.88" style="stroke:#181818;stroke-width:1.0;"/><text fill="#000000" font-family="sans-serif" font-size="13" lengthAdjust="spacing" textLength="161" x="1086.81" y="1045.4084">Stores Conversation State</text></g><!--SRC=[VLJVRzis47xNNt7mi276bXKOYg0e0WEAdQR6waQmlFHXsyEPEacSAP8WAMVkaFzzHqhEZyAD7so3_Ew-x-w-ezz9RT5X1zfK1Fzbm9yh5Bl6cLvNSwECWn_gj_L5_MwuCwuYDvxZRzktuY9xo38KWGycLxsNcho7NACw-01luEDoysa2wA6LGHrncwA0tDfqphzPbjWdXIDFEc2GHiCdF92RZ9B-ND2UbB7ae30ke8App_Hl-FKVF_qRBYy_EAC3wMes6z2H51Reswr1LtqN-t0apXkcbNk2Gc6eZUlWxDQIBbjP1rZVbldqA2Hz2TDPepa49hyRtK1UBE460ztZuIzzUVcP5RRdfUb3Evkb6j7Ac_lJeIyYbwnCAHdLm9hZfMwE6KuauDYy3qQRplGURdekrQ5KFcOgLDyqk5Nq65-IUAfWA7jk6YrJtQa1vnysro_R_WrXlF-8BaruRjW9KYFFC_9jqEzW8Rt585fo8sixW4_bUc9SiPP1TEu4kuH4w1tzmWoTLHAruFyKnB6G67SoOxcJIi7rtgW-6UYBSRjQcViaZnZcK8r9V8GoycGQuVeEvkIeCreI6rHmYxXDv4zbYkYKvk7RxbwBE1efFFp4jV0olDhQG15pQuFiv5SQUcfsfE6ghnfwvWJ1iDE4oogwE1oORyNYtU4xN2iZTdFZOXc1bfNDAxHXe5pcArYJ7riuCihAFgQfCE0M_N5dHY9-ClGkjMTDbVHlxYZk-HZU9SWecLSkFWHmVZvxRKtVmxp5m8KKwqNs2YwcISl54LzeMt9b5E3iJhhGyoEnQHrXvQVPW4de0Sox4vUDAzWuh6ifCdn2yAemv0wLv7AZ0tYJlwOfwlW-PGCYOaU3HxsAK4T4O74iqV139JqxI3TJhdd4fVp9mHooGkiX62Wj2SaIXYtCnli8vSupBWrappeU1rmuKqj5BEaEUnMWmD0-ZplwcuF_i4CDmtQiqFEa3t3syxkB7s6pM4nVX2Nhl-TqBaWXRGgK6ig0kkgjVuwDDcJeWkSj-8Zx-TokBw230HXSiYaeFXrwJyuFpppd3fJz3m00]--></g></svg>