<?plantuml 1.2026.2?><svg xmlns="http://www.w3.org/2000/svg" xmlns:xlink="http://www.w3.org/1999/xlink" contentStyleType="text/css" data-diagram-type="DESCRIPTION" height="1082px" preserveAspectRatio="none" style="width:1268px;height:1082px;background:#FFFFFF;" version="1.1" viewBox="0 0 1268 1082" width="1268px" zoomAndPan="magnify"><defs/><g><!--cluster External Interface--><g class="cluster" data-qualified-name="External Interface" data-source-line="9" id="ent0004"><polygon fill="#F4F6F8" points="217.71,55.75,227.71,45.75,608.71,45.75,608.71,154.73,598.71,164.73,217.71,164.73,217.71,55.75" style="stroke:#A2B4C6;stroke-width:1;"/><line style="stroke:#A2B4C6;stroke-width:1;" x1="598.71" x2="608.71" y1="55.75" y2="45.75"/><line style="stroke:#A2B4C6;stroke-width:1;" x1="217.71" x2="598.71" y1="55.75" y2="55.75"/><line style="stroke:#A2B4C6;stroke-width:1;" x1="598.71" x2="598.71" y1="55.75" y2="164.73"/><text fill="#000000" font-family="sans-serif" font-size="14" font-weight="bold" lengthAdjust="spacing" textLength="127.2783" x="345.5708" y="72.2852">External Interface</text></g><!--cluster Agentive Platform (OpenShift)--><g class="cluster" data-qualified-name="Agentive Platform .OpenShift." data-source-line="14" id="ent0007"><polygon fill="#F4F6F8" points="632.71,16,642.71,6,1251.71,6,1251.71,1055.88,1241.71,1065.88,632.71,1065.88,632.71,16" style="stroke:#A2B4C6;stroke-width:1;"/><line style="stroke:#A2B4C6;stroke-width:1;" x1="1241.71" x2="1251.71" y1="16" y2="6"/><line style="stroke:#A2B4C6;stroke-width:1;" x1="632.71" x2="1241.71" y1="16" y2="16"/><line style="stroke:#A2B4C6;stroke-width:1;" x1="1241.71" x2="1241.71" y1="16" y2="1065.88"/><text fill="#000000" font-family="sans-serif" font-size="14" font-weight="bold" lengthAdjust="spacing" textLength="216.4326" x="829.9937" y="32.5352">Agentive Platform (OpenShift)</text></g><!--cluster Harness Layer--><g class="cluster" data-qualified-name="Agentive Platform .OpenShift..Harness Layer" data-source-line="18" id="ent0009"><polygon fill="#F4F6F8" points="890.71,228.49,900.71,218.49,1076.71,218.49,1076.71,467.44,1066.71,477.44,890.71,477.44,890.71,228.49" style="stroke:#A2B4C6;stroke-width:1;"/><line style="stroke:#A2B4C6;stroke-width:1;" x1="1066.71" x2="1076.71" y1="228.49" y2="218.49"/><line style="stroke:#A2B4C6;stroke-width:1;" x1="890.71" x2="1066.71" y1="228.49" y2="228.49"/><line style="stroke:#A2B4C6;stroke-width:1;" x1="1066.71" x2="1066.71" y1="228.49" y2="477.44"/><text fill="#000000" font-family="sans-serif" font-size="14" font-weight="bold" lengthAdjust="spacing" textLength="102.4639" x="928.4781" y="245.0252">Harness Layer</text></g><!--cluster Cognitive Layer--><g class="cluster" data-qualified-name="Agentive Platform .OpenShift..Cognitive Layer" data-source-line="23" id="ent0012"><polygon fill="#F4F6F8" points="656.71,536.44,666.71,526.44,1227.71,526.44,1227.71,881.39,1217.71,891.39,656.71,891.39,656.71,536.44" style="stroke:#A2B4C6;stroke-width:1;"/><line style="stroke:#A2B4C6;stroke-width:1;" x1="1217.71" x2="1227.71" y1="536.44" y2="526.44"/><line style="stroke:#A2B4C6;stroke-width:1;" x1="656.71" x2="1217.71" y1="536.44" y2="536.44"/><line style="stroke:#A2B4C6;stroke-width:1;" x1="1217.71" x2="1217.71" y1="536.44" y2="891.39"/><text fill="#000000" font-family="sans-serif" font-size="14" font-weight="bold" lengthAdjust="spacing" textLength="112.3486" x="882.0357" y="552.9752">Cognitive Layer</text></g><!--cluster Memory Banks--><g class="cluster" data-qualified-name="Agentive Platform .OpenShift..Memory Banks" data-source-line="31" id="ent0018"><polygon fill="#F4F6F8" points="905.71,950.39,915.71,940.39,1086.71,940.39,1086.71,1031.88,1076.71,1041.88,905.71,1041.88,905.71,950.39" style="stroke:#A2B4C6;stroke-width:1;"/><line style="stroke:#A2B4C6;stroke-width:1;" x1="1076.71" x2="1086.71" y1="950.39" y2="940.39"/><line style="stroke:#A2B4C6;stroke-width:1;" x1="905.71" x2="1076.71" y1="950.39" y2="950.39"/><line style="stroke:#A2B4C6;stroke-width:1;" x1="1076.71" x2="1076.71" y1="950.39" y2="1041.88"/><text fill="#000000" font-family="sans-serif" font-size="14" font-weight="bold" lengthAdjust="spacing" textLength="105.5879" x="939.4161" y="966.9252">Memory Banks</text></g><!--cluster Security Fabric--><g class="cluster" data-qualified-name="Agentive Platform .OpenShift..Security Fabric" data-source-line="35" id="ent0020"><polygon fill="#F4F6F8" points="656.71,64,666.71,54,866.71,54,866.71,319.22,856.71,329.22,656.71,329.22,656.71,64" style="stroke:#A2B4C6;stroke-width:1;"/><line style="stroke:#A2B4C6;stroke-width:1;" x1="856.71" x2="866.71" y1="64" y2="54"/><line style="stroke:#A2B4C6;stroke-width:1;" x1="656.71" x2="856.71" y1="64" y2="64"/><line style="stroke:#A2B4C6;stroke-width:1;" x1="856.71" x2="856.71" y1="64" y2="329.22"/><text fill="#000000" font-family="sans-serif" font-size="14" font-weight="bold" lengthAdjust="spacing" textLength="106.1279" x="704.646" y="80.5352">Security Fabric</text></g><!--entity Nebras MCP Server--><g class="entity" data-qualified-name="External Interface.Nebras MCP Server" data-source-line="10" id="ent0005"><rect fill="#F1F1F1" height="62.9766" rx="2.5" ry="2.5" style="stroke:#181818;stroke-width:0.5;" width="167.7363" x="233.84" y="85.75"/><rect fill="#F1F1F1" height="10" style="stroke:#181818;stroke-width:0.5;" width="15" x="381.5763" y="90.75"/><rect fill="#F1F1F1" height="2" style="stroke:#181818;stroke-width:0.5;" width="4" x="379.5763" y="92.75"/><rect fill="#F1F1F1" height="2" style="stroke:#181818;stroke-width:0.5;" width="4" x="379.5763" y="96.75"/><text fill="#000000" font-family="sans-serif" font-size="14" font-style="italic" lengthAdjust="spacing" textLength="103.4482" x="260.984" y="119.2852">&#171;Tool Exposer&#187;</text><text fill="#000000" font-family="sans-serif" font-size="14" lengthAdjust="spacing" textLength="127.7363" x="248.84" y="135.7734">Nebras MCP Server</text></g><!--entity API Gateway--><g class="entity" data-qualified-name="External Interface.API Gateway" data-source-line="11" id="ent0006"><rect fill="#F1F1F1" height="62.9766" rx="2.5" ry="2.5" style="stroke:#181818;stroke-width:0.5;" width="156.748" x="436.34" y="85.75"/><rect fill="#F1F1F1" height="10" style="stroke:#181818;stroke-width:0.5;" width="15" x="573.088" y="90.75"/><rect fill="#F1F1F1" height="2" style="stroke:#181818;stroke-width:0.5;" width="4" x="571.088" y="92.75"/><rect fill="#F1F1F1" height="2" style="stroke:#181818;stroke-width:0.5;" width="4" x="571.088" y="96.75"/><text fill="#000000" font-family="sans-serif" font-size="14" font-style="italic" lengthAdjust="spacing" textLength="114.748" x="452.34" y="119.2852">&#171;DPoP Validator&#187;</text><text fill="#000000" font-family="sans-serif" font-size="14" lengthAdjust="spacing" textLength="82.5781" x="468.425" y="135.7734">API Gateway</text></g><!--entity gateway--><g class="entity" data-qualified-name="Agentive Platform .OpenShift..gateway" data-source-line="16" id="ent0008"><rect fill="#F1F1F1" height="62.9766" rx="2.5" ry="2.5" style="stroke:#181818;stroke-width:0.5;" width="198.0605" x="885.68" y="85.75"/><rect fill="#F1F1F1" height="10" style="stroke:#181818;stroke-width:0.5;" width="15" x="1063.7405" y="90.75"/><rect fill="#F1F1F1" height="2" style="stroke:#181818;stroke-width:0.5;" width="4" x="1061.7405" y="92.75"/><rect fill="#F1F1F1" height="2" style="stroke:#181818;stroke-width:0.5;" width="4" x="1061.7405" y="96.75"/><text fill="#000000" font-family="sans-serif" font-size="14" lengthAdjust="spacing" textLength="101.2607" x="900.68" y="119.2852">Agent Gateway</text><text fill="#000000" font-family="sans-serif" font-size="14" lengthAdjust="spacing" textLength="158.0605" x="900.68" y="135.7734">(Spring Cloud Gateway)</text></g><!--entity dlp--><g class="entity" data-qualified-name="Agentive Platform .OpenShift..Harness Layer.dlp" data-source-line="19" id="ent0010"><rect fill="#F08080" height="62.9766" rx="2.5" ry="2.5" style="stroke:#181818;stroke-width:0.5;" width="153.3604" x="907.03" y="258.49"/><rect fill="#F08080" height="10" style="stroke:#181818;stroke-width:0.5;" width="15" x="1040.3904" y="263.49"/><rect fill="#F08080" height="2" style="stroke:#181818;stroke-width:0.5;" width="4" x="1038.3904" y="265.49"/><rect fill="#F08080" height="2" style="stroke:#181818;stroke-width:0.5;" width="4" x="1038.3904" y="269.49"/><text fill="#000000" font-family="sans-serif" font-size="14" lengthAdjust="spacing" textLength="84.9434" x="922.03" y="292.0252">Security LLM</text><text fill="#000000" font-family="sans-serif" font-size="14" lengthAdjust="spacing" textLength="113.3604" x="922.03" y="308.5134">&#171;Streaming DLP&#187;</text></g><!--entity scoper--><g class="entity" data-qualified-name="Agentive Platform .OpenShift..Harness Layer.scoper" data-source-line="20" id="ent0011"><rect fill="#FFFFE0" height="62.9766" rx="2.5" ry="2.5" style="stroke:#181818;stroke-width:0.5;" width="130.2139" x="909.61" y="398.46"/><rect fill="#FFFFE0" height="10" style="stroke:#181818;stroke-width:0.5;" width="15" x="1019.8239" y="403.46"/><rect fill="#FFFFE0" height="2" style="stroke:#181818;stroke-width:0.5;" width="4" x="1017.8239" y="405.46"/><rect fill="#FFFFE0" height="2" style="stroke:#181818;stroke-width:0.5;" width="4" x="1017.8239" y="409.46"/><text fill="#000000" font-family="sans-serif" font-size="14" lengthAdjust="spacing" textLength="90.1934" x="924.61" y="431.9952">Agent Scoper</text><text fill="#000000" font-family="sans-serif" font-size="14" lengthAdjust="spacing" textLength="90.2139" x="924.61" y="448.4834">&#171;PII Hashing&#187;</text></g><!--entity router--><g class="entity" data-qualified-name="Agentive Platform .OpenShift..Cognitive Layer.router" data-source-line="24" id="ent0013"><rect fill="#F1F1F1" height="46.4883" rx="2.5" ry="2.5" style="stroke:#181818;stroke-width:0.5;" width="214.9727" x="846.23" y="566.44"/><rect fill="#F1F1F1" height="10" style="stroke:#181818;stroke-width:0.5;" width="15" x="1041.2027" y="571.44"/><rect fill="#F1F1F1" height="2" style="stroke:#181818;stroke-width:0.5;" width="4" x="1039.2027" y="573.44"/><rect fill="#F1F1F1" height="2" style="stroke:#181818;stroke-width:0.5;" width="4" x="1039.2027" y="577.44"/><text fill="#000000" font-family="sans-serif" font-size="14" lengthAdjust="spacing" textLength="174.9727" x="861.23" y="599.9752">Mixture of Experts Router</text></g><!--entity cache--><g class="entity" data-qualified-name="Agentive Platform .OpenShift..Cognitive Layer.cache" data-source-line="25" id="ent0014"><path d="M672.32,699.93 C672.32,689.93 735.7155,689.93 735.7155,689.93 C735.7155,689.93 799.111,689.93 799.111,699.93 L799.111,741.9066 C799.111,751.9066 735.7155,751.9066 735.7155,751.9066 C735.7155,751.9066 672.32,751.9066 672.32,741.9066 L672.32,699.93" fill="#F1F1F1" style="stroke:#181818;stroke-width:0.5;"/><path d="M672.32,699.93 C672.32,709.93 735.7155,709.93 735.7155,709.93 C735.7155,709.93 799.111,709.93 799.111,699.93" fill="none" style="stroke:#181818;stroke-width:0.5;"/><text fill="#000000" font-family="sans-serif" font-size="14" lengthAdjust="spacing" textLength="106.791" x="682.32" y="727.4652">Semantic Cache</text><text fill="#000000" font-family="sans-serif" font-size="14" lengthAdjust="spacing" textLength="73.9922" x="682.32" y="743.9534">&#171;pgvector&#187;</text></g><!--entity slm--><g class="entity" data-qualified-name="Agentive Platform .OpenShift..Cognitive Layer.slm" data-source-line="26" id="ent0015"><rect fill="#ADD8E6" height="46.4883" rx="2.5" ry="2.5" style="stroke:#181818;stroke-width:0.5;" width="152.3213" x="834.55" y="697.67"/><rect fill="#ADD8E6" height="10" style="stroke:#181818;stroke-width:0.5;" width="15" x="966.8713" y="702.67"/><rect fill="#ADD8E6" height="2" style="stroke:#181818;stroke-width:0.5;" width="4" x="964.8713" y="704.67"/><rect fill="#ADD8E6" height="2" style="stroke:#181818;stroke-width:0.5;" width="4" x="964.8713" y="708.67"/><text fill="#000000" font-family="sans-serif" font-size="14" lengthAdjust="spacing" textLength="112.3213" x="849.55" y="731.2052">SLM (Fast Intent)</text></g><!--entity llm--><g class="entity" data-qualified-name="Agentive Platform .OpenShift..Cognitive Layer.llm" data-source-line="27" id="ent0016"><rect fill="#ADD8E6" height="46.4883" rx="2.5" ry="2.5" style="stroke:#181818;stroke-width:0.5;" width="190.124" x="1021.65" y="697.67"/><rect fill="#ADD8E6" height="10" style="stroke:#181818;stroke-width:0.5;" width="15" x="1191.774" y="702.67"/><rect fill="#ADD8E6" height="2" style="stroke:#181818;stroke-width:0.5;" width="4" x="1189.774" y="704.67"/><rect fill="#ADD8E6" height="2" style="stroke:#181818;stroke-width:0.5;" width="4" x="1189.774" y="708.67"/><text fill="#000000" font-family="sans-serif" font-size="14" lengthAdjust="spacing" textLength="150.124" x="1036.65" y="731.2052">LLM (Deep Reasoning)</text></g><!--entity temp--><g class="entity" data-qualified-name="Agentive Platform .OpenShift..Cognitive Layer.temp" data-source-line="28" id="ent0017"><rect fill="#F1F1F1" height="46.4883" rx="2.5" ry="2.5" style="stroke:#181818;stroke-width:0.5;" width="172.1387" x="909.64" y="828.9"/><rect fill="#F1F1F1" height="10" style="stroke:#181818;stroke-width:0.5;" width="15" x="1061.7787" y="833.9"/><rect fill="#F1F1F1" height="2" style="stroke:#181818;stroke-width:0.5;" width="4" x="1059.7787" y="835.9"/><rect fill="#F1F1F1" height="2" style="stroke:#181818;stroke-width:0.5;" width="4" x="1059.7787" y="839.9"/><text fill="#000000" font-family="sans-serif" font-size="14" lengthAdjust="spacing" textLength="132.1387" x="924.64" y="862.4352">Temporal Workflow</text></g><!--entity memory--><g class="entity" data-qualified-name="Agentive Platform .OpenShift..Memory Banks.memory" data-source-line="32" id="ent0019"><path d="M935.18,990.39 C935.18,980.39 995.7078,980.39 995.7078,980.39 C995.7078,980.39 1056.2357,980.39 1056.2357,990.39 L1056.2357,1015.8783 C1056.2357,1025.8783 995.7078,1025.8783 995.7078,1025.8783 C995.7078,1025.8783 935.18,1025.8783 935.18,1015.8783 L935.18,990.39" fill="#F1F1F1" style="stroke:#181818;stroke-width:0.5;"/><path d="M935.18,990.39 C935.18,1000.39 995.7078,1000.39 995.7078,1000.39 C995.7078,1000.39 1056.2357,1000.39 1056.2357,990.39" fill="none" style="stroke:#181818;stroke-width:0.5;"/><text fill="#000000" font-family="sans-serif" font-size="14" lengthAdjust="spacing" textLength="101.0557" x="945.18" y="1017.9252">Agent State DB</text></g><!--entity istio--><g class="entity" data-qualified-name="Agentive Platform .OpenShift..Security Fabric.istio" data-source-line="36" id="ent0021"><rect fill="#F1F1F1" height="46.4883" rx="2.5" ry="2.5" style="stroke:#181818;stroke-width:0.5;" width="109.166" x="682.13" y="266.73"/><rect fill="#F1F1F1" height="10" style="stroke:#181818;stroke-width:0.5;" width="15" x="771.296" y="271.73"/><rect fill="#F1F1F1" height="2" style="stroke:#181818;stroke-width:0.5;" width="4" x="769.296" y="273.73"/><rect fill="#F1F1F1" height="2" style="stroke:#181818;stroke-width:0.5;" width="4" x="769.296" y="277.73"/><text fill="#000000" font-family="sans-serif" font-size="14" lengthAdjust="spacing" textLength="69.166" x="697.13" y="300.2652">Istio Mesh</text></g><!--entity killswitch--><g class="entity" data-qualified-name="Agentive Platform .OpenShift..Security Fabric.killswitch" data-source-line="37" id="ent0022"><rect fill="#FF0000" height="46.4883" rx="2.5" ry="2.5" style="stroke:#181818;stroke-width:0.5;" width="178.2158" x="672.6" y="94"/><rect fill="#FF0000" height="10" style="stroke:#181818;stroke-width:0.5;" width="15" x="830.8158" y="99"/><rect fill="#FF0000" height="2" style="stroke:#181818;stroke-width:0.5;" width="4" x="828.8158" y="101"/><rect fill="#FF0000" height="2" style="stroke:#181818;stroke-width:0.5;" width="4" x="828.8158" y="105"/><text fill="#000000" font-family="sans-serif" font-size="14" lengthAdjust="spacing" textLength="138.2158" x="687.6" y="127.5352">Hardware Kill Switch</text></g><!--entity Agent--><g class="entity" data-qualified-name="Agent" data-source-line="6" id="ent0002"><ellipse cx="56.7124" cy="87.5" fill="#F1F1F1" rx="8" ry="8" style="stroke:#181818;stroke-width:0.5;"/><path d="M56.7124,95.5 L56.7124,122.5 M43.7124,103.5 L69.7124,103.5 M56.7124,122.5 L43.7124,137.5 M56.7124,122.5 L69.7124,137.5" fill="none" style="stroke:#181818;stroke-width:0.5;"/><text fill="#000000" font-family="sans-serif" font-size="14" lengthAdjust="spacing" textLength="101.4248" x="6" y="152.5352">LLM / AI Agent</text></g><!--entity App--><g class="entity" data-qualified-name="App" data-source-line="7" id="ent0003"><ellipse cx="170.7105" cy="87.5" fill="#F1F1F1" rx="8" ry="8" style="stroke:#181818;stroke-width:0.5;"/><path d="M170.7105,95.5 L170.7105,122.5 M157.7105,103.5 L183.7105,103.5 M170.7105,122.5 L157.7105,137.5 M170.7105,122.5 L183.7105,137.5" fill="none" style="stroke:#181818;stroke-width:0.5;"/><text fill="#000000" font-family="sans-serif" font-size="14" lengthAdjust="spacing" textLength="56.041" x="142.69" y="152.5352">TPP App</text></g><!--link gateway to dlp--><g class="link" data-entity-1="ent0008" data-entity-2="ent0010" data-link-type="dependency" data-source-line="41" id="lnk23"><path d="M984.53,149.16 C984.35,180.01 984.105,221.1301 983.925,252.0001" fill="none" id="gateway-to-dlp" style="stroke:#181818;stroke-width:1;"/><polygon fill="#181818" points="983.89,258,987.9424,249.0235,983.9192,253.0001,979.9425,248.9768,983.89,258" style="stroke:#181818;stroke-width:1;"/><text fill="#000000" font-family="sans-serif" font-size="13" lengthAdjust="spacing" textLength="79.9741" x="985.3" y="199.0584">Raw Request</text></g><!--link dlp to scoper--><g class="link" data-entity-1="ent0010" data-entity-2="ent0011" data-link-type="dependency" data-source-line="42" id="lnk24"><path d="M981.69,321.94 C980.21,344.66 978.6004,369.4027 977.1204,392.1027" fill="none" id="dlp-to-scoper" style="stroke:#181818;stroke-width:1;"/><polygon fill="#181818" points="976.73,398.09,981.3071,389.3693,977.0553,393.1006,973.324,388.8488,976.73,398.09" style="stroke:#181818;stroke-width:1;"/><text fill="#000000" font-family="sans-serif" font-size="13" lengthAdjust="spacing" textLength="80.7612" x="980.75" y="365.0284">Safe Request</text></g><!--link scoper to router--><g class="link" data-entity-1="ent0011" data-entity-2="ent0013" data-link-type="dependency" data-source-line="43" id="lnk25"><path d="M970.61,461.74 C966.53,492.4 961.1526,532.7926 957.5026,560.1826" fill="none" id="scoper-to-router" style="stroke:#181818;stroke-width:1;"/><polygon fill="#181818" points="956.71,566.13,961.8638,557.7372,957.3705,561.1738,953.9339,556.6805,956.71,566.13" style="stroke:#181818;stroke-width:1;"/><text fill="#000000" font-family="sans-serif" font-size="13" lengthAdjust="spacing" textLength="101.4102" x="967.09" y="507.0084">Hashed Request</text></g><!--link router to cache--><g class="link" data-entity-1="ent0013" data-entity-2="ent0014" data-link-type="dependency" data-source-line="44" id="lnk26"><path d="M894.1975,615.8522 C875.4475,624.3722 860.01,632.15 841.71,642.93 C818.2,656.78 798.2022,670.9232 778.5322,685.9132" fill="none" id="router-cache" style="stroke:#181818;stroke-width:1;"/><polygon fill="#181818" points="899.66,613.37,889.8115,613.4516,895.1079,615.4385,893.121,620.7349,899.66,613.37" style="stroke:#181818;stroke-width:1;"/><polygon fill="#181818" points="773.76,689.55,783.3428,687.2763,777.7368,686.5194,778.4938,680.9134,773.76,689.55" style="stroke:#181818;stroke-width:1;"/><text fill="#000000" font-family="sans-serif" font-size="13" lengthAdjust="spacing" textLength="79.5234" x="842.71" y="656.4984">Check Intent</text></g><!--link router to slm--><g class="link" data-entity-1="ent0013" data-entity-2="ent0015" data-link-type="dependency" data-source-line="45" id="lnk27"><path d="M946.22,613.19 C938.38,636.77 928.0252,667.8972 920.1552,691.5372" fill="none" id="router-to-slm" style="stroke:#181818;stroke-width:1;"/><polygon fill="#181818" points="918.26,697.23,924.898,689.9542,919.8393,692.486,917.3076,687.4273,918.26,697.23" style="stroke:#181818;stroke-width:1;"/><text fill="#000000" font-family="sans-serif" font-size="13" lengthAdjust="spacing" textLength="75.8164" x="937.06" y="656.4984">Simple Task</text></g><!--link router to llm--><g class="link" data-entity-1="ent0013" data-entity-2="ent0016" data-link-type="dependency" data-source-line="46" id="lnk28"><path d="M982.8,613.23 C994.6,622.4 1008.33,633.14 1020.71,642.93 C1043.67,661.08 1064.8779,678.0854 1083.9779,693.4754" fill="none" id="router-to-llm" style="stroke:#181818;stroke-width:1;"/><polygon fill="#181818" points="1088.65,697.24,1084.1516,688.4785,1084.7566,694.1029,1079.1322,694.7079,1088.65,697.24" style="stroke:#181818;stroke-width:1;"/><text fill="#000000" font-family="sans-serif" font-size="13" lengthAdjust="spacing" textLength="90.0098" x="1042.83" y="656.4984">Complex Task</text></g><!--link slm to temp--><g class="link" data-entity-1="ent0015" data-entity-2="ent0017" data-link-type="dependency" data-source-line="48" id="lnk29"><path d="M919.05,744.48 C925.45,760.38 935.13,781.8 946.71,798.9 C953.83,809.4 958.8642,815.5312 967.3842,824.2812" fill="none" id="slm-to-temp" style="stroke:#181818;stroke-width:1;"/><polygon fill="#181818" points="971.57,828.58,968.1572,819.3413,968.0819,824.9977,962.4255,824.9224,971.57,828.58" style="stroke:#181818;stroke-width:1;"/><text fill="#000000" font-family="sans-serif" font-size="13" lengthAdjust="spacing" textLength="102.6226" x="947.71" y="795.4684">Intent Execution</text></g><!--link llm to temp--><g class="link" data-entity-1="ent0016" data-entity-2="ent0017" data-link-type="dependency" data-source-line="49" id="lnk30"><path d="M1100.02,744.65 C1088.04,760.43 1071.18,781.65 1054.71,798.9 C1044.89,809.2 1037.8481,815.825 1027.5581,824.725" fill="none" id="llm-to-temp" style="stroke:#181818;stroke-width:1;"/><polygon fill="#181818" points="1023.02,828.65,1032.4438,825.7878,1026.8017,825.3791,1027.2104,819.7371,1023.02,828.65" style="stroke:#181818;stroke-width:1;"/><text fill="#000000" font-family="sans-serif" font-size="13" lengthAdjust="spacing" textLength="102.6226" x="1070.24" y="795.4684">Intent Execution</text></g><!--link temp to memory--><g class="link" data-entity-1="ent0017" data-entity-2="ent0019" data-link-type="dependency" data-source-line="51" id="lnk31"><path d="M995.71,875.78 C995.71,904.1 995.71,946.3 995.71,974.27" fill="none" id="temp-to-memory" style="stroke:#181818;stroke-width:1;"/><polygon fill="#181818" points="995.71,980.27,999.71,971.27,995.71,975.27,991.71,971.27,995.71,980.27" style="stroke:#181818;stroke-width:1;"/><text fill="#000000" font-family="sans-serif" font-size="13" lengthAdjust="spacing" textLength="79.917" x="996.71" y="920.9584">Update State</text></g><!--link killswitch to istio--><g class="link" data-entity-1="ent0022" data-entity-2="ent0021" data-link-type="dependency" data-source-line="52" id="lnk32"><path d="M686.23,140.88 C665.25,151.04 644.89,165.4 632.71,185.49 C613.23,217.61 645.4499,244.2019 680.7299,263.4019" fill="none" id="killswitch-to-istio" style="stroke:#181818;stroke-width:1;stroke-dasharray:7,7;"/><polygon fill="#181818" points="686,266.27,680.0069,258.4545,681.6082,263.8799,676.1828,265.4813,686,266.27" style="stroke:#181818;stroke-width:1;"/><text fill="#000000" font-family="sans-serif" font-size="13" lengthAdjust="spacing" textLength="112.271" x="633.71" y="199.0584">Revokes SPIFFE ID</text></g><?plantuml-src XLDDRnen4BtlhnYH2paqbQeegYA4H20qgqAxojBsqFHWlBDWhTTsRGD1LVvxn_P2eeWs790zxys7tvjrZL26MTQ2qXN2dmpeTyDuix9wewgnbjh2MNrPNzKV4wPjXRQBim_BItwLFMKPuvu2lTbi3kzXbCDeXShtWBbqEk2Bee2HCGam9ijYrzxjeqUhc8HSqQ5c77lTA3-_uD8IUJuke4IxHViB1eE5rX9k7ursQ8V3H1mLENnY7dTi7oYJGXVmdKbHCUfCfAT3ipYGs28KalbQsnRwNmsgSYrgVtxe6_-uRerMnEwI3lKVLByqLgWLZANUL8VmUNpMAbsUgwIkTymgT0vcR8_sqELLanBvnWg_1vBnGGq6fRV8sj1dCYk6mrY-aWREf5YjFTUMoLDbqgmbrmPjA5FaETmnjwP2NH4NiQxE7gNKkrZewVNKOxrI8ehrlxdduj5lB8AkWobelODxlV61JyriF1xpo0-sP0x3Srj6Jd0OCxx6CAbPRP57ks8c3_6JGj6QzQVC-RWmoYVbdMox9otbvcHUMC_-1D70FJAd5IcIKkMRgGka8maEFxHjQX8ivdcAdbPkZgssU_gKLEDUolRy_CucJ_i2avjOher9fmiUbsFAbbRmVrYHEoyqpD6jOq4HhgTuj8xLZf5dduMKKEw4vocZeRkBLpYpM7MpqCVJxJMyUpUCItWDzsn7ElxUeFDPY0IaswnhA5cDHxIB1aBQ1YA4ZSJgIEdYWy29lXDbl4RUT1OV2B49kKKTH6iameAvvYKe8pZM0NnCQ1OI0XRi8Z1Lf5qbIKaVbSaty2m2WP4S8iutKmNZedtP2z4kBeP9zI0GRdM33ieYdqvl8PzaVm40?></g></svg>