<?plantuml 1.2026.2?><svg xmlns="http://www.w3.org/2000/svg" xmlns:xlink="http://www.w3.org/1999/xlink" contentStyleType="text/css" data-diagram-type="DESCRIPTION" height="387px" preserveAspectRatio="none" style="width:1005px;height:387px;background:#FFFFFF;" version="1.1" viewBox="0 0 1005 387" width="1005px" zoomAndPan="magnify"><defs/><g><!--cluster Nebras Open Finance Platform--><g class="cluster" data-qualified-name="Nebras Open Finance Platform" data-source-line="13" id="ent0005"><path d="M161.72,144.98 L382.1057,144.98 A3.75,3.75 0 0 1 384.6057,147.48 L391.6057,167.4683 L850.72,167.4683 A2.5,2.5 0 0 1 853.22,169.9683 L853.22,378.46 A2.5,2.5 0 0 1 850.72,380.96 L161.72,380.96 A2.5,2.5 0 0 1 159.22,378.46 L159.22,147.48 A2.5,2.5 0 0 1 161.72,144.98" fill="none" style="stroke:#000000;stroke-width:1.5;"/><line style="stroke:#000000;stroke-width:1.5;" x1="159.22" x2="391.6057" y1="167.4683" y2="167.4683"/><text fill="#000000" font-family="sans-serif" font-size="14" font-weight="bold" lengthAdjust="spacing" textLength="219.3857" x="163.22" y="160.5152">Nebras Open Finance Platform</text></g><!--entity MCP--><g class="entity" data-qualified-name="Nebras Open Finance Platform.MCP" data-source-line="14" id="ent0006"><rect fill="#F1F1F1" height="46.4883" rx="2.5" ry="2.5" style="stroke:#181818;stroke-width:0.5;" width="115.7559" x="175.34" y="179.98"/><rect fill="#F1F1F1" height="10" style="stroke:#181818;stroke-width:0.5;" width="15" x="271.0959" y="184.98"/><rect fill="#F1F1F1" height="2" style="stroke:#181818;stroke-width:0.5;" width="4" x="269.0959" y="186.98"/><rect fill="#F1F1F1" height="2" style="stroke:#181818;stroke-width:0.5;" width="4" x="269.0959" y="190.98"/><text fill="#000000" font-family="sans-serif" font-size="14" lengthAdjust="spacing" textLength="75.7559" x="190.34" y="213.5152">MCP Server</text></g><!--entity Gateway--><g class="entity" data-qualified-name="Nebras Open Finance Platform.Gateway" data-source-line="15" id="ent0007"><rect fill="#F1F1F1" height="46.4883" rx="2.5" ry="2.5" style="stroke:#181818;stroke-width:0.5;" width="122.5781" x="174.93" y="318.47"/><rect fill="#F1F1F1" height="10" style="stroke:#181818;stroke-width:0.5;" width="15" x="277.5081" y="323.47"/><rect fill="#F1F1F1" height="2" style="stroke:#181818;stroke-width:0.5;" width="4" x="275.5081" y="325.47"/><rect fill="#F1F1F1" height="2" style="stroke:#181818;stroke-width:0.5;" width="4" x="275.5081" y="329.47"/><text fill="#000000" font-family="sans-serif" font-size="14" lengthAdjust="spacing" textLength="82.5781" x="189.93" y="352.0052">API Gateway</text></g><!--entity Cognitive--><g class="entity" data-qualified-name="Nebras Open Finance Platform.Cognitive" data-source-line="16" id="ent0008"><rect fill="#F1F1F1" height="46.4883" rx="2.5" ry="2.5" style="stroke:#181818;stroke-width:0.5;" width="144.5488" x="325.94" y="179.98"/><rect fill="#F1F1F1" height="10" style="stroke:#181818;stroke-width:0.5;" width="15" x="450.4888" y="184.98"/><rect fill="#F1F1F1" height="2" style="stroke:#181818;stroke-width:0.5;" width="4" x="448.4888" y="186.98"/><rect fill="#F1F1F1" height="2" style="stroke:#181818;stroke-width:0.5;" width="4" x="448.4888" y="190.98"/><text fill="#000000" font-family="sans-serif" font-size="14" lengthAdjust="spacing" textLength="104.5488" x="340.94" y="213.5152">Cognitive Layer</text></g><!--entity Mediator--><g class="entity" data-qualified-name="Nebras Open Finance Platform.Mediator" data-source-line="17" id="ent0009"><rect fill="#F1F1F1" height="46.4883" rx="2.5" ry="2.5" style="stroke:#181818;stroke-width:0.5;" width="140.4814" x="505.98" y="179.98"/><rect fill="#F1F1F1" height="10" style="stroke:#181818;stroke-width:0.5;" width="15" x="626.4614" y="184.98"/><rect fill="#F1F1F1" height="2" style="stroke:#181818;stroke-width:0.5;" width="4" x="624.4614" y="186.98"/><rect fill="#F1F1F1" height="2" style="stroke:#181818;stroke-width:0.5;" width="4" x="624.4614" y="190.98"/><text fill="#000000" font-family="sans-serif" font-size="14" lengthAdjust="spacing" textLength="100.4814" x="520.98" y="213.5152">Mediator Layer</text></g><!--entity IAM--><g class="entity" data-qualified-name="Nebras Open Finance Platform.IAM" data-source-line="18" id="ent0010"><rect fill="#F1F1F1" height="46.4883" rx="2.5" ry="2.5" style="stroke:#181818;stroke-width:0.5;" width="155.8623" x="681.29" y="179.98"/><rect fill="#F1F1F1" height="10" style="stroke:#181818;stroke-width:0.5;" width="15" x="817.1523" y="184.98"/><rect fill="#F1F1F1" height="2" style="stroke:#181818;stroke-width:0.5;" width="4" x="815.1523" y="186.98"/><rect fill="#F1F1F1" height="2" style="stroke:#181818;stroke-width:0.5;" width="4" x="815.1523" y="190.98"/><text fill="#000000" font-family="sans-serif" font-size="14" lengthAdjust="spacing" textLength="115.8623" x="696.29" y="213.5152">Identity &amp; Access</text></g><!--entity ACL--><g class="entity" data-qualified-name="Nebras Open Finance Platform.ACL" data-source-line="19" id="ent0011"><rect fill="#F1F1F1" height="46.4883" rx="2.5" ry="2.5" style="stroke:#181818;stroke-width:0.5;" width="190.0146" x="332.21" y="318.47"/><rect fill="#F1F1F1" height="10" style="stroke:#181818;stroke-width:0.5;" width="15" x="502.2246" y="323.47"/><rect fill="#F1F1F1" height="2" style="stroke:#181818;stroke-width:0.5;" width="4" x="500.2246" y="325.47"/><rect fill="#F1F1F1" height="2" style="stroke:#181818;stroke-width:0.5;" width="4" x="500.2246" y="329.47"/><text fill="#000000" font-family="sans-serif" font-size="14" lengthAdjust="spacing" textLength="150.0146" x="347.21" y="352.0052">Anti-Corruption Layer</text></g><!--entity TPP--><g class="entity" data-qualified-name="TPP" data-source-line="9" id="ent0002"><ellipse cx="73.2178" cy="173.48" fill="#F1F1F1" rx="8" ry="8" style="stroke:#181818;stroke-width:0.5;"/><path d="M73.2178,181.48 L73.2178,208.48 M60.2178,189.48 L86.2178,189.48 M73.2178,208.48 L60.2178,223.48 M73.2178,208.48 L86.2178,223.48" fill="none" style="stroke:#181818;stroke-width:0.5;"/><text fill="#000000" font-family="sans-serif" font-size="14" lengthAdjust="spacing" textLength="134.4355" x="6" y="238.5152">Third Party Provider</text></g><!--entity AIAgent--><g class="entity" data-qualified-name="AIAgent" data-source-line="10" id="ent0003"><ellipse cx="233.2216" cy="14" fill="#F1F1F1" rx="8" ry="8" style="stroke:#181818;stroke-width:0.5;"/><path d="M233.2216,22 L233.2216,49 M220.2216,30 L246.2216,30 M233.2216,49 L220.2216,64 M233.2216,49 L246.2216,64" fill="none" style="stroke:#181818;stroke-width:0.5;"/><text fill="#000000" font-family="sans-serif" font-size="14" lengthAdjust="spacing" textLength="152.7832" x="156.83" y="79.0352">AI Agent (e.g., Claude)</text></g><!--entity Customer--><g class="entity" data-qualified-name="Customer" data-source-line="11" id="ent0004"><ellipse cx="759.2131" cy="14" fill="#F1F1F1" rx="8" ry="8" style="stroke:#181818;stroke-width:0.5;"/><path d="M759.2131,22 L759.2131,49 M746.2131,30 L772.2131,30 M759.2131,49 L746.2131,64 M759.2131,49 L772.2131,64" fill="none" style="stroke:#181818;stroke-width:0.5;"/><text fill="#000000" font-family="sans-serif" font-size="14" lengthAdjust="spacing" textLength="65.9463" x="726.24" y="79.0352">Customer</text></g><!--entity Finacle--><g class="entity" data-qualified-name="Finacle" data-source-line="22" id="ent0012"><rect fill="#F1F1F1" height="46.4883" rx="2.5" ry="2.5" style="stroke:#181818;stroke-width:0.5;" width="173.0479" x="826.69" y="20.5"/><rect fill="#F1F1F1" height="10" style="stroke:#181818;stroke-width:0.5;" width="15" x="979.7379" y="25.5"/><rect fill="#F1F1F1" height="2" style="stroke:#181818;stroke-width:0.5;" width="4" x="977.7379" y="27.5"/><rect fill="#F1F1F1" height="2" style="stroke:#181818;stroke-width:0.5;" width="4" x="977.7379" y="31.5"/><text fill="#000000" font-family="sans-serif" font-size="14" lengthAdjust="spacing" textLength="133.0479" x="841.69" y="54.0352">Legacy Finacle/SOA</text></g><!--link TPP to Gateway--><g class="link" data-entity-1="ent0002" data-entity-2="ent0007" data-link-type="dependency" data-source-line="24" id="lnk13"><path d="M93.37,241.83 C103.22,257.68 116.2,275.44 131.22,288.47 C144.83,300.28 156.1915,307.531 172.2815,315.411" fill="none" id="TPP-to-Gateway" style="stroke:#181818;stroke-width:1;"/><polygon fill="#181818" points="177.67,318.05,171.3466,310.4992,173.1796,315.8508,167.828,317.6838,177.67,318.05" style="stroke:#181818;stroke-width:1;"/><text fill="#000000" font-family="sans-serif" font-size="13" lengthAdjust="spacing" textLength="94.5991" x="132.22" y="285.0384">SDK / API Calls</text></g><!--link AIAgent to MCP--><g class="link" data-entity-1="ent0003" data-entity-2="ent0006" data-link-type="dependency" data-source-line="25" id="lnk14"><path d="M233.22,82.46 C233.22,112.86 233.22,148.56 233.22,173.89" fill="none" id="AIAgent-to-MCP" style="stroke:#181818;stroke-width:1;"/><polygon fill="#181818" points="233.22,179.89,237.22,170.89,233.22,174.89,229.22,170.89,233.22,179.89" style="stroke:#181818;stroke-width:1;"/><text fill="#000000" font-family="sans-serif" font-size="13" lengthAdjust="spacing" textLength="93.7231" x="234.22" y="125.5484">Tool Execution</text></g><!--link MCP to Gateway--><g class="link" data-entity-1="ent0006" data-entity-2="ent0007" data-link-type="dependency" data-source-line="26" id="lnk15"><path d="M233.71,226.77 C234.27,252.05 235.0396,286.8414 235.5896,312.1414" fill="none" id="MCP-to-Gateway" style="stroke:#181818;stroke-width:1;"/><polygon fill="#181818" points="235.72,318.14,239.5234,309.0552,235.6113,313.1412,231.5253,309.2291,235.72,318.14" style="stroke:#181818;stroke-width:1;"/><text fill="#000000" font-family="sans-serif" font-size="13" lengthAdjust="spacing" textLength="124.084" x="235.99" y="285.0384">JSON Intent Payload</text></g><!--link Customer to IAM--><g class="link" data-entity-1="ent0004" data-entity-2="ent0010" data-link-type="dependency" data-source-line="27" id="lnk16"><path d="M759.22,82.46 C759.22,112.86 759.22,148.56 759.22,173.89" fill="none" id="Customer-to-IAM" style="stroke:#181818;stroke-width:1;"/><polygon fill="#181818" points="759.22,179.89,763.22,170.89,759.22,174.89,755.22,170.89,759.22,179.89" style="stroke:#181818;stroke-width:1;"/><text fill="#000000" font-family="sans-serif" font-size="13" lengthAdjust="spacing" textLength="141.3433" x="760.22" y="125.5484">SCA Consent Approval</text></g><?plantuml-src PPBTQjim5CVlzHHd7fGLbdv06Q4N1KrBYxSqCKrUu4GwTKKLoKXoEZFsxfDKcxMfR-JpFp-TJtrIzAWjmSD2RFdgRha0QJ04niApjXrwt8Cd6T6sXk0FW_HzH_dSUjTR9Pnn7ZvVNdwRxrJntJeRNzMN9ntfbNTUaH_PYztLV7x5_ZA6CYQXsZvfhw117mTel3len5Q00RPDCp6y1jwIZV25pjgpho0CzefE2yRhuffGqOVezcE8oM2iIpLZIr2jQEUJPzsHXLjjqKg2nc1yT7vVZGrAj--SpVcgUz70XlnX39ZCOu8tDTnXf1SS2ZB-7sF2jLP7VI1OuZ2LDsaVifBIcDlvpqxICLghTEWqknFWKb88XQxv_OSw4pOJplk-YzhPDw6vMEPzl66NrA8SodoaeVFDcXTmj1bBgu7Px6Rg5QvXy-CNd4EUXK1Z0XktKgWymslOEcTWyPjadzEpBBuFyNEpNa5jOxxMu60SAZOjiA2fgPn9y3Gu6pB6kowz63Ji7m00?></g></svg>