<?plantuml 1.2026.2?><svg xmlns="http://www.w3.org/2000/svg" xmlns:xlink="http://www.w3.org/1999/xlink" contentStyleType="text/css" data-diagram-type="DESCRIPTION" height="546px" preserveAspectRatio="none" style="width:420px;height:546px;background:#FFFFFF;" version="1.1" viewBox="0 0 420 546" width="420px" zoomAndPan="magnify"><defs/><g><!--cluster Mediator Layer--><g class="cluster" data-qualified-name="Mediator Layer" data-source-line="5" id="ent0002"><path d="M8.5,6 L117.166,6 A3.75,3.75 0 0 1 119.666,8.5 L126.666,28.4883 L266.5,28.4883 A2.5,2.5 0 0 1 269,30.9883 L269,537.41 A2.5,2.5 0 0 1 266.5,539.91 L8.5,539.91 A2.5,2.5 0 0 1 6,537.41 L6,8.5 A2.5,2.5 0 0 1 8.5,6" fill="none" style="stroke:#000000;stroke-width:1.5;"/><line style="stroke:#000000;stroke-width:1.5;" x1="6" x2="126.666" y1="28.4883" y2="28.4883"/><text fill="#000000" font-family="sans-serif" font-size="14" font-weight="bold" lengthAdjust="spacing" textLength="107.666" x="10" y="21.5352">Mediator Layer</text></g><!--entity req--><g class="entity" data-qualified-name="Mediator Layer.req" data-source-line="6" id="ent0003"><rect fill="#85BBF0" height="62.9766" rx="2.5" ry="2.5" style="stroke:#181818;stroke-width:0.5;" width="186.4668" x="24.77" y="41"/><rect fill="#85BBF0" height="10" style="stroke:#181818;stroke-width:0.5;" width="15" x="191.2368" y="46"/><rect fill="#85BBF0" height="2" style="stroke:#181818;stroke-width:0.5;" width="4" x="189.2368" y="48"/><rect fill="#85BBF0" height="2" style="stroke:#181818;stroke-width:0.5;" width="4" x="189.2368" y="52"/><text fill="#000000" font-family="sans-serif" font-size="14" lengthAdjust="spacing" textLength="117.749" x="39.77" y="74.5352">Request Analyzer</text><text fill="#000000" font-family="sans-serif" font-size="14" lengthAdjust="spacing" textLength="146.4668" x="39.77" y="91.0234">&#171;Agentive Controller&#187;</text></g><!--entity cmd--><g class="entity" data-qualified-name="Mediator Layer.cmd" data-source-line="7" id="ent0004"><rect fill="#85BBF0" height="62.9766" rx="2.5" ry="2.5" style="stroke:#181818;stroke-width:0.5;" width="167.1826" x="34.41" y="180.98"/><rect fill="#85BBF0" height="10" style="stroke:#181818;stroke-width:0.5;" width="15" x="181.5926" y="185.98"/><rect fill="#85BBF0" height="2" style="stroke:#181818;stroke-width:0.5;" width="4" x="179.5926" y="187.98"/><rect fill="#85BBF0" height="2" style="stroke:#181818;stroke-width:0.5;" width="4" x="179.5926" y="191.98"/><text fill="#000000" font-family="sans-serif" font-size="14" lengthAdjust="spacing" textLength="127.1826" x="49.41" y="214.5152">Command Handler</text><text fill="#000000" font-family="sans-serif" font-size="14" lengthAdjust="spacing" textLength="51.625" x="49.41" y="231.0034">&#171;CQRS&#187;</text></g><!--entity saga--><g class="entity" data-qualified-name="Mediator Layer.saga" data-source-line="8" id="ent0005"><rect fill="#85BBF0" height="62.9766" rx="2.5" ry="2.5" style="stroke:#181818;stroke-width:0.5;" width="161.8232" x="37.09" y="320.96"/><rect fill="#85BBF0" height="10" style="stroke:#181818;stroke-width:0.5;" width="15" x="178.9132" y="325.96"/><rect fill="#85BBF0" height="2" style="stroke:#181818;stroke-width:0.5;" width="4" x="176.9132" y="327.96"/><rect fill="#85BBF0" height="2" style="stroke:#181818;stroke-width:0.5;" width="4" x="176.9132" y="331.96"/><text fill="#000000" font-family="sans-serif" font-size="14" lengthAdjust="spacing" textLength="121.8232" x="52.09" y="354.4952">Saga Orchestrator</text><text fill="#000000" font-family="sans-serif" font-size="14" lengthAdjust="spacing" textLength="111.1113" x="52.09" y="370.9834">&#171;State Manager&#187;</text></g><!--entity outbox--><g class="entity" data-qualified-name="Mediator Layer.outbox" data-source-line="9" id="ent0006"><rect fill="#85BBF0" height="62.9766" rx="2.5" ry="2.5" style="stroke:#181818;stroke-width:0.5;" width="186.6172" x="21.69" y="460.93"/><rect fill="#85BBF0" height="10" style="stroke:#181818;stroke-width:0.5;" width="15" x="188.3072" y="465.93"/><rect fill="#85BBF0" height="2" style="stroke:#181818;stroke-width:0.5;" width="4" x="186.3072" y="467.93"/><rect fill="#85BBF0" height="2" style="stroke:#181818;stroke-width:0.5;" width="4" x="186.3072" y="471.93"/><text fill="#000000" font-family="sans-serif" font-size="14" lengthAdjust="spacing" textLength="146.6172" x="36.69" y="494.4652">Transactional Outbox</text><text fill="#000000" font-family="sans-serif" font-size="14" lengthAdjust="spacing" textLength="119.7178" x="36.69" y="510.9534">&#171;Kafka Publisher&#187;</text></g><!--entity db--><g class="entity" data-qualified-name="db" data-source-line="12" id="ent0007"><path d="M284.89,471.43 C284.89,461.43 343.9994,461.43 343.9994,461.43 C343.9994,461.43 403.1088,461.43 403.1088,471.43 L403.1088,513.4066 C403.1088,523.4066 343.9994,523.4066 343.9994,523.4066 C343.9994,523.4066 284.89,523.4066 284.89,513.4066 L284.89,471.43" fill="#F1F1F1" style="stroke:#181818;stroke-width:0.5;"/><path d="M284.89,471.43 C284.89,481.43 343.9994,481.43 343.9994,481.43 C343.9994,481.43 403.1088,481.43 403.1088,471.43" fill="none" style="stroke:#181818;stroke-width:0.5;"/><text fill="#000000" font-family="sans-serif" font-size="14" lengthAdjust="spacing" textLength="98.2188" x="294.89" y="498.9652">Silver Copy DB</text><text fill="#000000" font-family="sans-serif" font-size="14" lengthAdjust="spacing" textLength="91.5195" x="294.89" y="515.4534">&#171;PostgreSQL&#187;</text></g><!--link req to cmd--><g class="link" data-entity-1="ent0003" data-entity-2="ent0004" data-link-type="dependency" data-source-line="14" id="lnk8"><path d="M118,104.46 C118,127.18 118,151.91 118,174.61" fill="none" id="req-to-cmd" style="stroke:#181818;stroke-width:1;"/><polygon fill="#181818" points="118,180.61,122,171.61,118,175.61,114,171.61,118,180.61" style="stroke:#181818;stroke-width:1;"/><text fill="#000000" font-family="sans-serif" font-size="13" lengthAdjust="spacing" textLength="130.8252" x="119" y="147.5484">Routes parsed intent</text></g><!--link cmd to saga--><g class="link" data-entity-1="ent0004" data-entity-2="ent0005" data-link-type="dependency" data-source-line="15" id="lnk9"><path d="M118,244.43 C118,267.16 118,291.88 118,314.58" fill="none" id="cmd-to-saga" style="stroke:#181818;stroke-width:1;"/><polygon fill="#181818" points="118,320.58,122,311.58,118,315.58,114,311.58,118,320.58" style="stroke:#181818;stroke-width:1;"/><text fill="#000000" font-family="sans-serif" font-size="13" lengthAdjust="spacing" textLength="124.7822" x="119" y="287.5284">Initiates transaction</text></g><!--link saga to db--><g class="link" data-entity-1="ent0005" data-entity-2="ent0007" data-link-type="dependency" data-source-line="16" id="lnk10"><path d="M199.05,365.15 C234.8,373.72 275.34,388.51 305,413.93 C319.29,426.19 326.7883,439.3452 332.8983,455.3352" fill="none" id="saga-to-db" style="stroke:#181818;stroke-width:1;"/><polygon fill="#181818" points="335.04,460.94,335.564,451.1051,333.2553,456.2694,328.091,453.9606,335.04,460.94" style="stroke:#181818;stroke-width:1;"/><text fill="#000000" font-family="sans-serif" font-size="13" lengthAdjust="spacing" textLength="83.1353" x="319.96" y="427.4984">Persists state</text></g><!--link saga to outbox--><g class="link" data-entity-1="ent0005" data-entity-2="ent0006" data-link-type="dependency" data-source-line="17" id="lnk11"><path d="M110.05,384.32 C107.97,393.76 106.03,404.21 105,413.93 C103.37,429.31 104.1282,440.4511 106.6282,454.6311" fill="none" id="saga-to-outbox" style="stroke:#181818;stroke-width:1;"/><polygon fill="#181818" points="107.67,460.54,110.0466,450.9822,106.8019,455.6159,102.1681,452.3712,107.67,460.54" style="stroke:#181818;stroke-width:1;"/><text fill="#000000" font-family="sans-serif" font-size="13" lengthAdjust="spacing" textLength="194.5684" x="106" y="427.4984">Queues compensation/commit</text></g><?plantuml-src NL5DQm8n4BtdLmpRixINGYaYw7fegUB7zjZBP3EkmMoo9hDIM_hVEr5RmHm2uNtCUvEqixx3Y2tKeUs29y_mhK3E1EjT4qFlJHbSY73tzAZrva7zADK9X0r1CITZaGMSuP5YSL5UdOerxNjA36EFxlX5ySCFX-D687iWA8Fd69oZE1eLW0aYxMyDoj2sw0syoENE-dArhYw2kZMtWWeRX4Mijp8svcnPKZ4omHozfFuRbeHuAtwFw1FMR8FaXKNFEdnc_HjkTWZBNZkRjlyEuOJdXHXar9Xa8vLr1ufIhJl2T9Arov2uYLIjPXUPqKf9KnWCHha0FCDQd2Y1_4CY0zQpX54PofISKpYlthBiMcXy3QbEO6OPBPmbnMGJIxVSzmgUWmfXrPDynwanYKUsk9T7Q_aN?></g></svg>