<svg xmlns="http://www.w3.org/2000/svg" xmlns:xlink="http://www.w3.org/1999/xlink" contentStyleType="text/css" height="387px" preserveAspectRatio="none" style="width:1012px;height:387px;background:#FFFFFF;" version="1.1" viewBox="0 0 1012 387" width="1012px" zoomAndPan="magnify"><defs/><g><!--cluster Nebras Open Finance Platform--><g id="cluster_Nebras Open Finance Platform"><path d="M163.5,144.98 L384.5,144.98 A3.75,3.75 0 0 1 387,147.48 L394,167.4683 L854.5,167.4683 A2.5,2.5 0 0 1 857,169.9683 L857,378.46 A2.5,2.5 0 0 1 854.5,380.96 L163.5,380.96 A2.5,2.5 0 0 1 161,378.46 L161,147.48 A2.5,2.5 0 0 1 163.5,144.98 " fill="none" style="stroke:#000000;stroke-width:1.5;"/><line style="stroke:#000000;stroke-width:1.5;" x1="161" x2="394" y1="167.4683" y2="167.4683"/><text fill="#000000" font-family="sans-serif" font-size="14" font-weight="bold" lengthAdjust="spacing" textLength="220" x="165" y="160.5152">Nebras Open Finance Platform</text></g><!--entity MCP--><g id="elem_MCP"><rect fill="#F1F1F1" height="46.4883" rx="2.5" ry="2.5" style="stroke:#181818;stroke-width:0.5;" width="117" x="177.5" y="179.98"/><rect fill="#F1F1F1" height="10" style="stroke:#181818;stroke-width:0.5;" width="15" x="274.5" y="184.98"/><rect fill="#F1F1F1" height="2" style="stroke:#181818;stroke-width:0.5;" width="4" x="272.5" y="186.98"/><rect fill="#F1F1F1" height="2" style="stroke:#181818;stroke-width:0.5;" width="4" x="272.5" y="190.98"/><text fill="#000000" font-family="sans-serif" font-size="14" lengthAdjust="spacing" textLength="77" x="192.5" y="213.5152">MCP Server</text></g><!--entity Gateway--><g id="elem_Gateway"><rect fill="#F1F1F1" height="46.4883" rx="2.5" ry="2.5" style="stroke:#181818;stroke-width:0.5;" width="123" x="176.5" y="318.47"/><rect fill="#F1F1F1" height="10" style="stroke:#181818;stroke-width:0.5;" width="15" x="279.5" y="323.47"/><rect fill="#F1F1F1" height="2" style="stroke:#181818;stroke-width:0.5;" width="4" x="277.5" y="325.47"/><rect fill="#F1F1F1" height="2" style="stroke:#181818;stroke-width:0.5;" width="4" x="277.5" y="329.47"/><text fill="#000000" font-family="sans-serif" font-size="14" lengthAdjust="spacing" textLength="83" x="191.5" y="352.0052">API Gateway</text></g><!--entity Cognitive--><g id="elem_Cognitive"><rect fill="#F1F1F1" height="46.4883" rx="2.5" ry="2.5" style="stroke:#181818;stroke-width:0.5;" width="145" x="329.5" y="179.98"/><rect fill="#F1F1F1" height="10" style="stroke:#181818;stroke-width:0.5;" width="15" x="454.5" y="184.98"/><rect fill="#F1F1F1" height="2" style="stroke:#181818;stroke-width:0.5;" width="4" x="452.5" y="186.98"/><rect fill="#F1F1F1" height="2" style="stroke:#181818;stroke-width:0.5;" width="4" x="452.5" y="190.98"/><text fill="#000000" font-family="sans-serif" font-size="14" lengthAdjust="spacing" textLength="105" x="344.5" y="213.5152">Cognitive Layer</text></g><!--entity Mediator--><g id="elem_Mediator"><rect fill="#F1F1F1" height="46.4883" rx="2.5" ry="2.5" style="stroke:#181818;stroke-width:0.5;" width="141" x="509.5" y="179.98"/><rect fill="#F1F1F1" height="10" style="stroke:#181818;stroke-width:0.5;" width="15" x="630.5" y="184.98"/><rect fill="#F1F1F1" height="2" style="stroke:#181818;stroke-width:0.5;" width="4" x="628.5" y="186.98"/><rect fill="#F1F1F1" height="2" style="stroke:#181818;stroke-width:0.5;" width="4" x="628.5" y="190.98"/><text fill="#000000" font-family="sans-serif" font-size="14" lengthAdjust="spacing" textLength="101" x="524.5" y="213.5152">Mediator Layer</text></g><!--entity IAM--><g id="elem_IAM"><rect fill="#F1F1F1" height="46.4883" rx="2.5" ry="2.5" style="stroke:#181818;stroke-width:0.5;" width="155" x="685.5" y="179.98"/><rect fill="#F1F1F1" height="10" style="stroke:#181818;stroke-width:0.5;" width="15" x="820.5" y="184.98"/><rect fill="#F1F1F1" height="2" style="stroke:#181818;stroke-width:0.5;" width="4" x="818.5" y="186.98"/><rect fill="#F1F1F1" height="2" style="stroke:#181818;stroke-width:0.5;" width="4" x="818.5" y="190.98"/><text fill="#000000" font-family="sans-serif" font-size="14" lengthAdjust="spacing" textLength="115" x="700.5" y="213.5152">Identity &amp; Access</text></g><!--entity ACL--><g id="elem_ACL"><rect fill="#F1F1F1" height="46.4883" rx="2.5" ry="2.5" style="stroke:#181818;stroke-width:0.5;" width="192" x="335" y="318.47"/><rect fill="#F1F1F1" height="10" style="stroke:#181818;stroke-width:0.5;" width="15" x="507" y="323.47"/><rect fill="#F1F1F1" height="2" style="stroke:#181818;stroke-width:0.5;" width="4" x="505" y="325.47"/><rect fill="#F1F1F1" height="2" style="stroke:#181818;stroke-width:0.5;" width="4" x="505" y="329.47"/><text fill="#000000" font-family="sans-serif" font-size="14" lengthAdjust="spacing" textLength="152" x="350" y="352.0052">Anti-Corruption Layer</text></g><!--entity TPP--><g id="elem_TPP"><ellipse cx="74" cy="173.48" fill="#F1F1F1" rx="8" ry="8" style="stroke:#181818;stroke-width:0.5;"/><path d="M74,181.48 L74,208.48 M61,189.48 L87,189.48 M74,208.48 L61,223.48 M74,208.48 L87,223.48 " fill="none" style="stroke:#181818;stroke-width:0.5;"/><text fill="#000000" font-family="sans-serif" font-size="14" lengthAdjust="spacing" textLength="136" x="6" y="238.5152">Third Party Provider</text></g><!--entity AIAgent--><g id="elem_AIAgent"><ellipse cx="236" cy="14" fill="#F1F1F1" rx="8" ry="8" style="stroke:#181818;stroke-width:0.5;"/><path d="M236,22 L236,49 M223,30 L249,30 M236,49 L223,64 M236,49 L249,64 " fill="none" style="stroke:#181818;stroke-width:0.5;"/><text fill="#000000" font-family="sans-serif" font-size="14" lengthAdjust="spacing" textLength="154" x="159" y="79.0352">AI Agent (e.g., Claude)</text></g><!--entity Customer--><g id="elem_Customer"><ellipse cx="763" cy="14" fill="#F1F1F1" rx="8" ry="8" style="stroke:#181818;stroke-width:0.5;"/><path d="M763,22 L763,49 M750,30 L776,30 M763,49 L750,64 M763,49 L776,64 " fill="none" style="stroke:#181818;stroke-width:0.5;"/><text fill="#000000" font-family="sans-serif" font-size="14" lengthAdjust="spacing" textLength="67" x="729.5" y="79.0352">Customer</text></g><!--entity Finacle--><g id="elem_Finacle"><rect fill="#F1F1F1" height="46.4883" rx="2.5" ry="2.5" style="stroke:#181818;stroke-width:0.5;" width="174" x="832" y="20.5"/><rect fill="#F1F1F1" height="10" style="stroke:#181818;stroke-width:0.5;" width="15" x="986" y="25.5"/><rect fill="#F1F1F1" height="2" style="stroke:#181818;stroke-width:0.5;" width="4" x="984" y="27.5"/><rect fill="#F1F1F1" height="2" style="stroke:#181818;stroke-width:0.5;" width="4" x="984" y="31.5"/><text fill="#000000" font-family="sans-serif" font-size="14" lengthAdjust="spacing" textLength="134" x="847" y="54.0352">Legacy Finacle/SOA</text></g><!--link TPP to Gateway--><g id="link_TPP_Gateway"><path d="M94.13,241.86 C103.97,257.71 116.96,275.46 132,288.47 C145.66,300.28 157.0544,307.5156 173.2144,315.3756 " fill="none" id="TPP-to-Gateway" style="stroke:#181818;stroke-width:1.0;"/><polygon fill="#181818" points="178.61,318,172.2661,310.4664,174.1136,315.813,168.767,317.6605,178.61,318" style="stroke:#181818;stroke-width:1.0;"/><text fill="#000000" font-family="sans-serif" font-size="13" lengthAdjust="spacing" textLength="95" x="133" y="285.0384">SDK / API Calls</text></g><!--link AIAgent to MCP--><g id="link_AIAgent_MCP"><path d="M236,82.46 C236,112.86 236,148.56 236,173.89 " fill="none" id="AIAgent-to-MCP" style="stroke:#181818;stroke-width:1.0;"/><polygon fill="#181818" points="236,179.89,240,170.89,236,174.89,232,170.89,236,179.89" style="stroke:#181818;stroke-width:1.0;"/><text fill="#000000" font-family="sans-serif" font-size="13" lengthAdjust="spacing" textLength="94" x="237" y="125.5484">Tool Execution</text></g><!--link MCP to Gateway--><g id="link_MCP_Gateway"><path d="M236.33,226.77 C236.7,252.05 237.2123,286.8406 237.5823,312.1406 " fill="none" id="MCP-to-Gateway" style="stroke:#181818;stroke-width:1.0;"/><polygon fill="#181818" points="237.67,318.14,241.538,309.0825,237.5969,313.1405,233.5388,309.1995,237.67,318.14" style="stroke:#181818;stroke-width:1.0;"/><text fill="#000000" font-family="sans-serif" font-size="13" lengthAdjust="spacing" textLength="124" x="238.18" y="285.0384">JSON Intent Payload</text></g><!--link Customer to IAM--><g id="link_Customer_IAM"><path d="M763,82.46 C763,112.86 763,148.56 763,173.89 " fill="none" id="Customer-to-IAM" style="stroke:#181818;stroke-width:1.0;"/><polygon fill="#181818" points="763,179.89,767,170.89,763,174.89,759,170.89,763,179.89" style="stroke:#181818;stroke-width:1.0;"/><text fill="#000000" font-family="sans-serif" font-size="13" lengthAdjust="spacing" textLength="141" x="764" y="125.5484">SCA Consent Approval</text></g><!--SRC=[PPBTQjim5CVlzHHd7fGLbdv06Q4N1KrBYxSqCKrUu4GwTKKLoKXoEZFsxfDKcxMfR-JpFp-TJtrIzAWjmSD2RFdgRha0QJ04niApjXrwt8Cd6T6sXk0FW_HzH_dSUjTR9Pnn7ZvVNdwRxrJntJeRNzMN9ntfbNTUaH_PYztLV7x5_ZA6CYQXsZvfhw117mTel3len5Q00RPDCp6y1jwIZV25pjgpho0CzefE2yRhuffGqOVezcE8oM2iIpLZIr2jQEUJPzsHXLjjqKg2nc1yT7vVZGrAj- -SpVcgUz70XlnX39ZCOu8tDTnXf1SS2ZB-7sF2jLP7VI1OuZ2LDsaVifBIcDlvpqxICLghTEWqknFWKb88XQxv_OSw4pOJplk-YzhPDw6vMEPzl66NrA8SodoaeVFDcXTmj1bBgu7Px6Rg5QvXy-CNd4EUXK1Z0XktKgWymslOEcTWyPjadzEpBBuFyNEpNa5jOxxMu60SAZOjiA2fgPn9y3Gu6pB6kowz63Ji7m00]--></g></svg>