<?plantuml 1.2026.2?><svg xmlns="http://www.w3.org/2000/svg" xmlns:xlink="http://www.w3.org/1999/xlink" contentStyleType="text/css" data-diagram-type="DESCRIPTION" height="347px" preserveAspectRatio="none" style="width:450px;height:347px;background:#FFFFFF;" version="1.1" viewBox="0 0 450 347" width="450px" zoomAndPan="magnify"><defs/><g><!--entity customer--><g class="entity" data-qualified-name="customer" data-source-line="9" id="ent0002"><ellipse cx="98.8956" cy="14" fill="#F1F1F1" rx="8" ry="8" style="stroke:#181818;stroke-width:0.5;"/><path d="M98.8956,22 L98.8956,49 M85.8956,30 L111.8956,30 M98.8956,49 L85.8956,64 M98.8956,49 L111.8956,64" fill="none" style="stroke:#181818;stroke-width:0.5;"/><text fill="#000000" font-family="sans-serif" font-size="14" lengthAdjust="spacing" textLength="103.0313" x="47.38" y="79.0352">Bank Customer</text></g><!--entity dev--><g class="entity" data-qualified-name="dev" data-source-line="10" id="ent0003"><ellipse cx="295.8881" cy="14" fill="#F1F1F1" rx="8" ry="8" style="stroke:#181818;stroke-width:0.5;"/><path d="M295.8881,22 L295.8881,49 M282.8881,30 L308.8881,30 M295.8881,49 L282.8881,64 M295.8881,49 L308.8881,64" fill="none" style="stroke:#181818;stroke-width:0.5;"/><text fill="#000000" font-family="sans-serif" font-size="14" lengthAdjust="spacing" textLength="133.6563" x="229.06" y="79.0352">Developer / Fintech</text></g><!--entity opf--><g class="entity" data-qualified-name="opf" data-source-line="12" id="ent0004"><rect fill="#1168BD" height="52.9766" rx="2.5" ry="2.5" style="stroke:#0B4884;stroke-width:0.5;" width="178.8262" x="107.48" y="158.99"/><text fill="#FFFFFF" font-family="sans-serif" font-size="14" lengthAdjust="spacing" textLength="158.8262" x="117.48" y="182.5252">OPF-Agentive-Platform</text><text fill="#FFFFFF" font-family="sans-serif" font-size="14" lengthAdjust="spacing" textLength="125.7676" x="117.48" y="199.0134">&#171;Software System&#187;</text></g><!--entity finacle--><g class="entity" data-qualified-name="finacle" data-source-line="13" id="ent0005"><rect fill="#1168BD" height="52.9766" rx="2.5" ry="2.5" style="stroke:#0B4884;stroke-width:0.5;" width="161.7842" x="7" y="288.96"/><text fill="#FFFFFF" font-family="sans-serif" font-size="14" lengthAdjust="spacing" textLength="141.7842" x="17" y="312.4952">Finacle Core Banking</text><text fill="#FFFFFF" font-family="sans-serif" font-size="14" lengthAdjust="spacing" textLength="113.4082" x="17" y="328.9834">&#171;Legacy System&#187;</text></g><!--entity finone--><g class="entity" data-qualified-name="finone" data-source-line="14" id="ent0006"><rect fill="#1168BD" height="52.9766" rx="2.5" ry="2.5" style="stroke:#0B4884;stroke-width:0.5;" width="133.4082" x="239.19" y="288.96"/><text fill="#FFFFFF" font-family="sans-serif" font-size="14" lengthAdjust="spacing" textLength="47.6055" x="249.19" y="312.4952">FinOne</text><text fill="#FFFFFF" font-family="sans-serif" font-size="14" lengthAdjust="spacing" textLength="113.4082" x="249.19" y="328.9834">&#171;Legacy System&#187;</text></g><!--link customer to opf--><g class="link" data-entity-1="ent0002" data-entity-2="ent0004" data-link-type="dependency" data-source-line="16" id="lnk7"><path d="M89.08,82.17 C87.1,97.63 87.7,115.13 95.89,128.99 C103.12,141.21 109.0393,147.7126 121.1493,155.3726" fill="none" id="customer-to-opf" style="stroke:#181818;stroke-width:1;"/><polygon fill="#181818" points="126.22,158.58,120.7522,150.3884,121.9944,155.9071,116.4756,157.1494,126.22,158.58" style="stroke:#181818;stroke-width:1;"/><text fill="#000000" font-family="sans-serif" font-size="13" lengthAdjust="spacing" textLength="155.3398" x="96.89" y="125.5584">Uses Open Finance Apps</text></g><!--link dev to opf--><g class="link" data-entity-1="ent0003" data-entity-2="ent0004" data-link-type="dependency" data-source-line="17" id="lnk8"><path d="M282.31,82.12 C275.83,97.4 267.23,114.78 256.89,128.99 C249.13,139.66 243.5419,145.8775 233.9019,154.5875" fill="none" id="dev-to-opf" style="stroke:#181818;stroke-width:1;"/><polygon fill="#181818" points="229.45,158.61,238.8096,155.5443,233.16,155.258,233.4463,149.6084,229.45,158.61" style="stroke:#181818;stroke-width:1;"/><text fill="#000000" font-family="sans-serif" font-size="13" lengthAdjust="spacing" textLength="149.4492" x="267.51" y="125.5584">Integrates via API Portal</text></g><!--link opf to finacle--><g class="link" data-entity-1="ent0004" data-entity-2="ent0005" data-link-type="dependency" data-source-line="18" id="lnk9"><path d="M116.43,212.35 C103.88,219.92 92.56,229.61 84.89,241.96 C76.39,255.66 75.9864,267.8919 78.8664,282.5919" fill="none" id="opf-to-finacle" style="stroke:#181818;stroke-width:1;"/><polygon fill="#181818" points="80.02,288.48,82.215,278.8789,79.0587,283.5733,74.3643,280.417,80.02,288.48" style="stroke:#181818;stroke-width:1;"/><text fill="#000000" font-family="sans-serif" font-size="13" lengthAdjust="spacing" textLength="176.5029" x="85.89" y="255.5284">Routes transactions &amp; limits</text></g><!--link opf to finone--><g class="link" data-entity-1="ent0004" data-entity-2="ent0006" data-link-type="dependency" data-source-line="19" id="lnk10"><path d="M235.35,212.43 C246.37,221 257.83,231.14 266.89,241.96 C278.63,255.99 285.8435,268.6725 292.6635,283.2925" fill="none" id="opf-to-finone" style="stroke:#181818;stroke-width:1;"/><polygon fill="#181818" points="295.2,288.73,295.0202,278.8828,293.0863,284.1988,287.7703,282.2648,295.2,288.73" style="stroke:#181818;stroke-width:1;"/><text fill="#000000" font-family="sans-serif" font-size="13" lengthAdjust="spacing" textLength="163.1348" x="279.76" y="255.5284">Queries customer profiles</text></g><?plantuml-src VP1FQy904CNl-occ5deBhI15YWWnrI98JRMzzJ9k9d4ncGcxQqHAltit_a7RG-UqC_Dxotjpar5kc60nJjxZrvVP67I9pYdbDePhj5Y19UsHYvBWIq6e4UfDOMNBMIAbMBZjTX_xg-omcmZxutItDfwElDYCx8bzMFNw_PxwLWgr3uFE27a3oTPvgSXs01teKtCcdgcXKcgoS0yJmvxq-i1br2XrCTUPfvCeBeYzQIXAI_IvsEgJ1uEbv7w7bc2vTvwguV0Wbpg_LeUVKOT78W5iJHakMl6C2jJxtzByoFwHpvd-4GYJKkTe44N3rW0ymOSZ1_EQkCs6h0dYkdOgXBk2fY5rOT47j348SJg5LAp7KhNxbZjP2kn2jYtdBR8B5pJ23kwWD9NnxXeFXWBzjYLhw79qgAtafYIdVW00?></g></svg>