<svg xmlns="http://www.w3.org/2000/svg" xmlns:xlink="http://www.w3.org/1999/xlink" contentStyleType="text/css" height="944px" preserveAspectRatio="none" style="width:685px;height:944px;background:#FFFFFF;" version="1.1" viewBox="0 0 685 944" width="685px" zoomAndPan="magnify"><defs/><g><!--cluster Agentive Backend Core--><g id="cluster_Agentive Backend Core"><path d="M8.5,95.49 L174.5,95.49 A3.75,3.75 0 0 1 177,97.99 L184,117.9783 L537.5,117.9783 A2.5,2.5 0 0 1 540,120.4783 L540,935.36 A2.5,2.5 0 0 1 537.5,937.86 L8.5,937.86 A2.5,2.5 0 0 1 6,935.36 L6,97.99 A2.5,2.5 0 0 1 8.5,95.49 " fill="none" style="stroke:#000000;stroke-width:1.5;"/><line style="stroke:#000000;stroke-width:1.5;" x1="6" x2="184" y1="117.9783" y2="117.9783"/><text fill="#000000" font-family="sans-serif" font-size="14" font-weight="bold" lengthAdjust="spacing" textLength="165" x="10" y="111.0252">Agentive Backend Core</text></g><!--cluster 12-Factor WebClient Ports--><g id="cluster_12-Factor WebClient Ports"><path d="M43.5,816.37 L236.5,816.37 A3.75,3.75 0 0 1 239,818.87 L246,838.8583 L501.5,838.8583 A2.5,2.5 0 0 1 504,841.3583 L504,911.36 A2.5,2.5 0 0 1 501.5,913.86 L43.5,913.86 A2.5,2.5 0 0 1 41,911.36 L41,818.87 A2.5,2.5 0 0 1 43.5,816.37 " fill="none" style="stroke:#000000;stroke-width:1.5;"/><line style="stroke:#000000;stroke-width:1.5;" x1="41" x2="246" y1="838.8583" y2="838.8583"/><text fill="#000000" font-family="sans-serif" font-size="14" font-weight="bold" lengthAdjust="spacing" textLength="192" x="45" y="831.9052">12-Factor WebClient Ports</text></g><!--entity AIGateway--><g id="elem_AIGateway"><rect fill="#85BBF0" height="62.9766" rx="2.5" ry="2.5" style="stroke:#181818;stroke-width:0.5;" width="188" x="245" y="270.47"/><rect fill="#85BBF0" height="10" style="stroke:#181818;stroke-width:0.5;" width="15" x="413" y="275.47"/><rect fill="#85BBF0" height="2" style="stroke:#181818;stroke-width:0.5;" width="4" x="411" y="277.47"/><rect fill="#85BBF0" height="2" style="stroke:#181818;stroke-width:0.5;" width="4" x="411" y="281.47"/><text fill="#000000" font-family="sans-serif" font-size="14" lengthAdjust="spacing" textLength="148" x="260" y="304.0052">StandaloneAIGateway</text><text fill="#000000" font-family="sans-serif" font-size="14" lengthAdjust="spacing" textLength="99" x="260" y="320.4934">&#171;Microservice&#187;</text></g><!--entity Guardrail--><g id="elem_Guardrail"><rect fill="#85BBF0" height="62.9766" rx="2.5" ry="2.5" style="stroke:#181818;stroke-width:0.5;" width="194" x="242" y="410.44"/><rect fill="#85BBF0" height="10" style="stroke:#181818;stroke-width:0.5;" width="15" x="416" y="415.44"/><rect fill="#85BBF0" height="2" style="stroke:#181818;stroke-width:0.5;" width="4" x="414" y="417.44"/><rect fill="#85BBF0" height="2" style="stroke:#181818;stroke-width:0.5;" width="4" x="414" y="421.44"/><text fill="#000000" font-family="sans-serif" font-size="14" lengthAdjust="spacing" textLength="154" x="257" y="443.9752">AIGuardrailInterceptor</text><text fill="#000000" font-family="sans-serif" font-size="14" lengthAdjust="spacing" textLength="140" x="257" y="460.4634">&#171;Pluggable Security&#187;</text></g><!--entity WSHandler--><g id="elem_WSHandler"><rect fill="#85BBF0" height="62.9766" rx="2.5" ry="2.5" style="stroke:#181818;stroke-width:0.5;" width="230" x="22" y="130.49"/><rect fill="#85BBF0" height="10" style="stroke:#181818;stroke-width:0.5;" width="15" x="232" y="135.49"/><rect fill="#85BBF0" height="2" style="stroke:#181818;stroke-width:0.5;" width="4" x="230" y="137.49"/><rect fill="#85BBF0" height="2" style="stroke:#181818;stroke-width:0.5;" width="4" x="230" y="141.49"/><text fill="#000000" font-family="sans-serif" font-size="14" lengthAdjust="spacing" textLength="190" x="37" y="164.0252">AgentFteWebSocketHandler</text><text fill="#000000" font-family="sans-serif" font-size="14" lengthAdjust="spacing" textLength="144" x="37" y="180.5134">&#171;Spring WebSockets&#187;</text></g><!--entity KafkaListener--><g id="elem_KafkaListener"><rect fill="#85BBF0" height="62.9766" rx="2.5" ry="2.5" style="stroke:#181818;stroke-width:0.5;" width="237" x="286.5" y="130.49"/><rect fill="#85BBF0" height="10" style="stroke:#181818;stroke-width:0.5;" width="15" x="503.5" y="135.49"/><rect fill="#85BBF0" height="2" style="stroke:#181818;stroke-width:0.5;" width="4" x="501.5" y="137.49"/><rect fill="#85BBF0" height="2" style="stroke:#181818;stroke-width:0.5;" width="4" x="501.5" y="141.49"/><text fill="#000000" font-family="sans-serif" font-size="14" lengthAdjust="spacing" textLength="197" x="301.5" y="164.0252">AgentIngestionKafkaListener</text><text fill="#000000" font-family="sans-serif" font-size="14" lengthAdjust="spacing" textLength="101" x="301.5" y="180.5134">&#171;Spring Kafka&#187;</text></g><!--entity Coordinator--><g id="elem_Coordinator"><rect fill="#85BBF0" height="62.9766" rx="2.5" ry="2.5" style="stroke:#181818;stroke-width:0.5;" width="200" x="239" y="550.42"/><rect fill="#85BBF0" height="10" style="stroke:#181818;stroke-width:0.5;" width="15" x="419" y="555.42"/><rect fill="#85BBF0" height="2" style="stroke:#181818;stroke-width:0.5;" width="4" x="417" y="557.42"/><rect fill="#85BBF0" height="2" style="stroke:#181818;stroke-width:0.5;" width="4" x="417" y="561.42"/><text fill="#000000" font-family="sans-serif" font-size="14" lengthAdjust="spacing" textLength="160" x="254" y="583.9552">FteHarnessCoordinator</text><text fill="#000000" font-family="sans-serif" font-size="14" lengthAdjust="spacing" textLength="146" x="254" y="600.4434">&#171;Agent Orchestrator&#187;</text></g><!--entity Economics--><g id="elem_Economics"><rect fill="#85BBF0" height="62.9766" rx="2.5" ry="2.5" style="stroke:#181818;stroke-width:0.5;" width="160" x="22" y="690.4"/><rect fill="#85BBF0" height="10" style="stroke:#181818;stroke-width:0.5;" width="15" x="162" y="695.4"/><rect fill="#85BBF0" height="2" style="stroke:#181818;stroke-width:0.5;" width="4" x="160" y="697.4"/><rect fill="#85BBF0" height="2" style="stroke:#181818;stroke-width:0.5;" width="4" x="160" y="701.4"/><text fill="#000000" font-family="sans-serif" font-size="14" lengthAdjust="spacing" textLength="120" x="37" y="723.9352">FteCostOptimizer</text><text fill="#000000" font-family="sans-serif" font-size="14" lengthAdjust="spacing" textLength="87" x="37" y="740.4234">&#171;Economics&#187;</text></g><!--entity Harness--><g id="elem_Harness"><rect fill="#85BBF0" height="62.9766" rx="2.5" ry="2.5" style="stroke:#181818;stroke-width:0.5;" width="197" x="240.5" y="690.4"/><rect fill="#85BBF0" height="10" style="stroke:#181818;stroke-width:0.5;" width="15" x="417.5" y="695.4"/><rect fill="#85BBF0" height="2" style="stroke:#181818;stroke-width:0.5;" width="4" x="415.5" y="697.4"/><rect fill="#85BBF0" height="2" style="stroke:#181818;stroke-width:0.5;" width="4" x="415.5" y="701.4"/><text fill="#000000" font-family="sans-serif" font-size="14" lengthAdjust="spacing" textLength="157" x="255.5" y="723.9352">ModelAgnosticHarness</text><text fill="#000000" font-family="sans-serif" font-size="14" lengthAdjust="spacing" textLength="155" x="255.5" y="740.4234">&#171;Temporal Workflows&#187;</text></g><!--entity GithubAdapter--><g id="elem_GithubAdapter"><rect fill="#85BBF0" height="46.4883" rx="2.5" ry="2.5" style="stroke:#181818;stroke-width:0.5;" width="210" x="57" y="851.37"/><rect fill="#85BBF0" height="10" style="stroke:#181818;stroke-width:0.5;" width="15" x="247" y="856.37"/><rect fill="#85BBF0" height="2" style="stroke:#181818;stroke-width:0.5;" width="4" x="245" y="858.37"/><rect fill="#85BBF0" height="2" style="stroke:#181818;stroke-width:0.5;" width="4" x="245" y="862.37"/><text fill="#000000" font-family="sans-serif" font-size="14" lengthAdjust="spacing" textLength="170" x="72" y="884.9052">WebClientGithubAdapter</text></g><!--entity JiraAdapter--><g id="elem_JiraAdapter"><rect fill="#85BBF0" height="46.4883" rx="2.5" ry="2.5" style="stroke:#181818;stroke-width:0.5;" width="186" x="302" y="851.37"/><rect fill="#85BBF0" height="10" style="stroke:#181818;stroke-width:0.5;" width="15" x="468" y="856.37"/><rect fill="#85BBF0" height="2" style="stroke:#181818;stroke-width:0.5;" width="4" x="466" y="858.37"/><rect fill="#85BBF0" height="2" style="stroke:#181818;stroke-width:0.5;" width="4" x="466" y="862.37"/><text fill="#000000" font-family="sans-serif" font-size="14" lengthAdjust="spacing" textLength="146" x="317" y="884.9052">WebClientJiraAdapter</text></g><!--entity MemoryBank--><g id="elem_MemoryBank"><path d="M556,700.9 C556,690.9 612,690.9 612,690.9 C612,690.9 668,690.9 668,700.9 L668,742.8766 C668,752.8766 612,752.8766 612,752.8766 C612,752.8766 556,752.8766 556,742.8766 L556,700.9 " fill="#F1F1F1" style="stroke:#181818;stroke-width:0.5;"/><path d="M556,700.9 C556,710.9 612,710.9 612,710.9 C612,710.9 668,710.9 668,700.9 " fill="none" style="stroke:#181818;stroke-width:0.5;"/><text fill="#000000" font-family="sans-serif" font-size="14" lengthAdjust="spacing" textLength="92" x="566" y="728.4352">Memory Bank</text><text fill="#000000" font-family="sans-serif" font-size="14" lengthAdjust="spacing" textLength="80" x="566" y="744.9234">&#171;MongoDB&#187;</text></g><!--entity KafkaTopic--><g id="elem_KafkaTopic"><path d="M306,6 L504,6 C509,6 509,19.2441 509,19.2441 C509,19.2441 509,32.4883 504,32.4883 L306,32.4883 C301,32.4883 301,19.2441 301,19.2441 C301,19.2441 301,6 306,6 " fill="#F1F1F1" style="stroke:#181818;stroke-width:0.5;"/><path d="M504,6 C499,6 499,19.2441 499,19.2441 C499,32.4883 504,32.4883 504,32.4883 " fill="none" style="stroke:#181818;stroke-width:0.5;"/><text fill="#000000" font-family="sans-serif" font-size="14" lengthAdjust="spacing" textLength="188" x="306" y="24.5352">CBUAE OpenFinance Events</text></g><!--link WSHandler to AIGateway--><g id="link_WSHandler_AIGateway"><path d="M182.33,193.94 C215.6,216.67 255.6356,244.0056 288.8656,266.7056 " fill="none" id="WSHandler-to-AIGateway" style="stroke:#181818;stroke-width:1.0;"/><polygon fill="#181818" points="293.82,270.09,288.6447,261.7105,289.6914,267.2697,284.1322,268.3163,293.82,270.09" style="stroke:#181818;stroke-width:1.0;"/><text fill="#000000" font-family="sans-serif" font-size="13" lengthAdjust="spacing" textLength="84" x="251.09" y="237.0384">Routes Intent</text></g><!--link KafkaListener to AIGateway--><g id="link_KafkaListener_AIGateway"><path d="M390.19,193.94 C379.32,216.67 367.2094,241.9775 356.3494,264.6775 " fill="none" id="KafkaListener-to-AIGateway" style="stroke:#181818;stroke-width:1.0;"/><polygon fill="#181818" points="353.76,270.09,361.2524,263.6975,355.9178,265.5796,354.0358,260.245,353.76,270.09" style="stroke:#181818;stroke-width:1.0;"/><text fill="#000000" font-family="sans-serif" font-size="13" lengthAdjust="spacing" textLength="169" x="376.95" y="237.0384">Routes Autonomous Intent</text></g><!--link AIGateway to Guardrail--><g id="link_AIGateway_Guardrail"><path d="M339,333.92 C339,356.64 339,381.37 339,404.07 " fill="none" id="AIGateway-to-Guardrail" style="stroke:#181818;stroke-width:1.0;"/><polygon fill="#181818" points="339,410.07,343,401.07,339,405.07,335,401.07,339,410.07" style="stroke:#181818;stroke-width:1.0;"/><text fill="#000000" font-family="sans-serif" font-size="13" lengthAdjust="spacing" textLength="150" x="340" y="377.0084">Token Validated (Authz)</text></g><!--link Guardrail to Coordinator--><g id="link_Guardrail_Coordinator"><path d="M339,473.89 C339,496.62 339,521.35 339,544.05 " fill="none" id="Guardrail-to-Coordinator" style="stroke:#181818;stroke-width:1.0;"/><polygon fill="#181818" points="339,550.05,343,541.05,339,545.05,335,541.05,339,550.05" style="stroke:#181818;stroke-width:1.0;"/><text fill="#000000" font-family="sans-serif" font-size="13" lengthAdjust="spacing" textLength="170" x="340" y="516.9884">Context Poisoning Cleaned</text></g><!--link Coordinator to Economics--><g id="link_Coordinator_Economics"><path d="M238.66,593.34 C201.36,601.71 161.09,616.68 132,643.4 C118.82,655.49 112.8937,668.2467 108.7137,684.1667 " fill="none" id="Coordinator-to-Economics" style="stroke:#181818;stroke-width:1.0;"/><polygon fill="#181818" points="107.19,689.97,113.3445,682.2809,108.4598,685.1339,105.6067,680.2492,107.19,689.97" style="stroke:#181818;stroke-width:1.0;"/><text fill="#000000" font-family="sans-serif" font-size="13" lengthAdjust="spacing" textLength="197" x="133" y="656.9684">authorizeAndConsume(Tokens)</text></g><!--link Coordinator to Harness--><g id="link_Coordinator_Harness"><path d="M339,613.87 C339,636.6 339,661.32 339,684.02 " fill="none" id="Coordinator-to-Harness" style="stroke:#181818;stroke-width:1.0;"/><polygon fill="#181818" points="339,690.02,343,681.02,339,685.02,335,681.02,339,690.02" style="stroke:#181818;stroke-width:1.0;"/><text fill="#000000" font-family="sans-serif" font-size="13" lengthAdjust="spacing" textLength="183" x="340" y="656.9684">executeWithMemory(Session)</text></g><!--link Coordinator to MemoryBank--><g id="link_Coordinator_MemoryBank"><path d="M439.46,604.79 C470.43,614.02 503.78,626.61 532,643.4 C552.77,655.75 568.2832,670.0902 582.8632,686.0502 " fill="none" id="Coordinator-to-MemoryBank" style="stroke:#181818;stroke-width:1.0;"/><polygon fill="#181818" points="586.91,690.48,583.793,681.1374,583.5377,686.7885,577.8866,686.5331,586.91,690.48" style="stroke:#181818;stroke-width:1.0;"/><text fill="#000000" font-family="sans-serif" font-size="13" lengthAdjust="spacing" textLength="84" x="555.29" y="656.9684">Persists State</text></g><!--link Harness to GithubAdapter--><g id="link_Harness_GithubAdapter"><path d="M283.22,753.85 C269.2,762.64 254.58,772.74 242,783.37 C217.69,803.91 197.7576,827.1526 182.5576,846.4926 " fill="none" id="Harness-to-GithubAdapter" style="stroke:#181818;stroke-width:1.0;"/><polygon fill="#181818" points="178.85,851.21,187.5563,846.6056,181.9396,847.2788,181.2664,841.6622,178.85,851.21" style="stroke:#181818;stroke-width:1.0;"/><text fill="#000000" font-family="sans-serif" font-size="13" lengthAdjust="spacing" textLength="110" x="243" y="796.9384">readPrdFromRepo</text></g><!--link Harness to JiraAdapter--><g id="link_Harness_JiraAdapter"><path d="M350.47,753.75 C361.22,782.69 374.9512,819.6453 384.5512,845.4953 " fill="none" id="Harness-to-JiraAdapter" style="stroke:#181818;stroke-width:1.0;"/><polygon fill="#181818" points="386.64,851.12,387.2565,841.2905,384.8993,846.4328,379.757,844.0756,386.64,851.12" style="stroke:#181818;stroke-width:1.0;"/><text fill="#000000" font-family="sans-serif" font-size="13" lengthAdjust="spacing" textLength="97" x="368" y="796.9384">createJiraTicket</text></g><!--link KafkaTopic to KafkaListener--><g id="link_KafkaTopic_KafkaListener"><path d="M405,32.73 C405,54.4 405,93.53 405,124.05 " fill="none" id="KafkaTopic-to-KafkaListener" style="stroke:#181818;stroke-width:1.0;"/><polygon fill="#181818" points="405,130.05,409,121.05,405,125.05,401,121.05,405,130.05" style="stroke:#181818;stroke-width:1.0;"/><text fill="#000000" font-family="sans-serif" font-size="13" lengthAdjust="spacing" textLength="127" x="406" y="76.0584">Consumes webhook</text></g><!--SRC=[VLJBRjim4BppAmZtaXm2j0KA54KGG5RZ96s36B7RN7fPKHkPiCHLbrHUHVuzIrcMP2Uj3mR8dPbz3UNNrjN0K6b3LKqENT1_bPRV5CowO6fSdb99hDzz_fHbj-_LirArXA10FKaAmTixRC7eSfqIuwGJ60GdYm0kXr9EoSKP1Bo7nz_k-FZI6YQFV6SDdfnCD7ZTn_Sb9D00vmosl701sM0TYAFAl6oA0h8IzG9DmpOyTbezuPLMB7iMy0Qp1KdXuLpAAx5LMzHiNQ7xaE_4RXOTw4sn2rUW3vRSTxXTmm_h0xeTlVQ-azh1xCj9MUV03hrFYJYt3hessppwYirACd6yxUH6k3V4KlBXgWwsia-RWauDEQgisJRMd_V9bvHZcHHE1ApfQee2InG8GwblYDUt9TrlbJfCgzF-zJxvyF5e1aOAZ7DDInlrvyJ1Rxsobxf7dTcmQh8aXrfMlbdg-EQ_t6-MOSmSdLlUSxHo3W4oy5BZ9LR4Z-9ajswzIQwWhzEkjKqmnjIV1Xk1fzEVoQc-gj7DPFREe3wzawH-sF2IQckKwesZZuvE1d_hB_gQce1UHpkxe7PSyIziqeIuBMfwsW2AbDxoGbcIF4dz2qehJMAk3uIyUZfK0oOoHkuHJagY-X2NOpsvQDoqH72Ogp4kydhR20j4c5WCbiIFXVDDXGTjTd_uYjUPH5Zu8CzL7g4iT3FUWuK4v0sz9WtZ5zuSsSkOl9QlIa2r5MpR7vj3e8oGppcVCLNNMDCETcG7GHg11entInkVlLB33bluxdhQISK-lRx7R4MqLYy0]--></g></svg>