<svg xmlns="http://www.w3.org/2000/svg" xmlns:xlink="http://www.w3.org/1999/xlink" contentStyleType="text/css" height="664px" preserveAspectRatio="none" style="width:685px;height:664px;background:#FFFFFF;" version="1.1" viewBox="0 0 685 664" width="685px" zoomAndPan="magnify"><defs/><g><!--cluster Agentive Backend Core--><g id="cluster_Agentive Backend Core"><path d="M8.5,95.49 L174.5,95.49 A3.75,3.75 0 0 1 177,97.99 L184,117.9783 L537.5,117.9783 A2.5,2.5 0 0 1 540,120.4783 L540,655.41 A2.5,2.5 0 0 1 537.5,657.91 L8.5,657.91 A2.5,2.5 0 0 1 6,655.41 L6,97.99 A2.5,2.5 0 0 1 8.5,95.49 " fill="none" style="stroke:#000000;stroke-width:1.5;"/><line style="stroke:#000000;stroke-width:1.5;" x1="6" x2="184" y1="117.9783" y2="117.9783"/><text fill="#000000" font-family="sans-serif" font-size="14" font-weight="bold" lengthAdjust="spacing" textLength="165" x="10" y="111.0252">Agentive Backend Core</text></g><!--cluster 12-Factor WebClient Ports--><g id="cluster_12-Factor WebClient Ports"><path d="M43.5,536.42 L236.5,536.42 A3.75,3.75 0 0 1 239,538.92 L246,558.9083 L501.5,558.9083 A2.5,2.5 0 0 1 504,561.4083 L504,631.41 A2.5,2.5 0 0 1 501.5,633.91 L43.5,633.91 A2.5,2.5 0 0 1 41,631.41 L41,538.92 A2.5,2.5 0 0 1 43.5,536.42 " fill="none" style="stroke:#000000;stroke-width:1.5;"/><line style="stroke:#000000;stroke-width:1.5;" x1="41" x2="246" y1="558.9083" y2="558.9083"/><text fill="#000000" font-family="sans-serif" font-size="14" font-weight="bold" lengthAdjust="spacing" textLength="192" x="45" y="551.9552">12-Factor WebClient Ports</text></g><!--entity WSHandler--><g id="elem_WSHandler"><rect fill="#85BBF0" height="62.9766" rx="2.5" ry="2.5" style="stroke:#181818;stroke-width:0.5;" width="230" x="22" y="130.49"/><rect fill="#85BBF0" height="10" style="stroke:#181818;stroke-width:0.5;" width="15" x="232" y="135.49"/><rect fill="#85BBF0" height="2" style="stroke:#181818;stroke-width:0.5;" width="4" x="230" y="137.49"/><rect fill="#85BBF0" height="2" style="stroke:#181818;stroke-width:0.5;" width="4" x="230" y="141.49"/><text fill="#000000" font-family="sans-serif" font-size="14" lengthAdjust="spacing" textLength="190" x="37" y="164.0252">AgentFteWebSocketHandler</text><text fill="#000000" font-family="sans-serif" font-size="14" lengthAdjust="spacing" textLength="144" x="37" y="180.5134">&#171;Spring WebSockets&#187;</text></g><!--entity KafkaListener--><g id="elem_KafkaListener"><rect fill="#85BBF0" height="62.9766" rx="2.5" ry="2.5" style="stroke:#181818;stroke-width:0.5;" width="237" x="286.5" y="130.49"/><rect fill="#85BBF0" height="10" style="stroke:#181818;stroke-width:0.5;" width="15" x="503.5" y="135.49"/><rect fill="#85BBF0" height="2" style="stroke:#181818;stroke-width:0.5;" width="4" x="501.5" y="137.49"/><rect fill="#85BBF0" height="2" style="stroke:#181818;stroke-width:0.5;" width="4" x="501.5" y="141.49"/><text fill="#000000" font-family="sans-serif" font-size="14" lengthAdjust="spacing" textLength="197" x="301.5" y="164.0252">AgentIngestionKafkaListener</text><text fill="#000000" font-family="sans-serif" font-size="14" lengthAdjust="spacing" textLength="101" x="301.5" y="180.5134">&#171;Spring Kafka&#187;</text></g><!--entity Coordinator--><g id="elem_Coordinator"><rect fill="#85BBF0" height="62.9766" rx="2.5" ry="2.5" style="stroke:#181818;stroke-width:0.5;" width="200" x="239" y="270.47"/><rect fill="#85BBF0" height="10" style="stroke:#181818;stroke-width:0.5;" width="15" x="419" y="275.47"/><rect fill="#85BBF0" height="2" style="stroke:#181818;stroke-width:0.5;" width="4" x="417" y="277.47"/><rect fill="#85BBF0" height="2" style="stroke:#181818;stroke-width:0.5;" width="4" x="417" y="281.47"/><text fill="#000000" font-family="sans-serif" font-size="14" lengthAdjust="spacing" textLength="160" x="254" y="304.0052">FteHarnessCoordinator</text><text fill="#000000" font-family="sans-serif" font-size="14" lengthAdjust="spacing" textLength="146" x="254" y="320.4934">&#171;Agent Orchestrator&#187;</text></g><!--entity Economics--><g id="elem_Economics"><rect fill="#85BBF0" height="62.9766" rx="2.5" ry="2.5" style="stroke:#181818;stroke-width:0.5;" width="160" x="22" y="410.45"/><rect fill="#85BBF0" height="10" style="stroke:#181818;stroke-width:0.5;" width="15" x="162" y="415.45"/><rect fill="#85BBF0" height="2" style="stroke:#181818;stroke-width:0.5;" width="4" x="160" y="417.45"/><rect fill="#85BBF0" height="2" style="stroke:#181818;stroke-width:0.5;" width="4" x="160" y="421.45"/><text fill="#000000" font-family="sans-serif" font-size="14" lengthAdjust="spacing" textLength="120" x="37" y="443.9852">FteCostOptimizer</text><text fill="#000000" font-family="sans-serif" font-size="14" lengthAdjust="spacing" textLength="87" x="37" y="460.4734">&#171;Economics&#187;</text></g><!--entity Harness--><g id="elem_Harness"><rect fill="#85BBF0" height="62.9766" rx="2.5" ry="2.5" style="stroke:#181818;stroke-width:0.5;" width="197" x="240.5" y="410.45"/><rect fill="#85BBF0" height="10" style="stroke:#181818;stroke-width:0.5;" width="15" x="417.5" y="415.45"/><rect fill="#85BBF0" height="2" style="stroke:#181818;stroke-width:0.5;" width="4" x="415.5" y="417.45"/><rect fill="#85BBF0" height="2" style="stroke:#181818;stroke-width:0.5;" width="4" x="415.5" y="421.45"/><text fill="#000000" font-family="sans-serif" font-size="14" lengthAdjust="spacing" textLength="157" x="255.5" y="443.9852">ModelAgnosticHarness</text><text fill="#000000" font-family="sans-serif" font-size="14" lengthAdjust="spacing" textLength="155" x="255.5" y="460.4734">&#171;Temporal Workflows&#187;</text></g><!--entity GithubAdapter--><g id="elem_GithubAdapter"><rect fill="#85BBF0" height="46.4883" rx="2.5" ry="2.5" style="stroke:#181818;stroke-width:0.5;" width="210" x="57" y="571.42"/><rect fill="#85BBF0" height="10" style="stroke:#181818;stroke-width:0.5;" width="15" x="247" y="576.42"/><rect fill="#85BBF0" height="2" style="stroke:#181818;stroke-width:0.5;" width="4" x="245" y="578.42"/><rect fill="#85BBF0" height="2" style="stroke:#181818;stroke-width:0.5;" width="4" x="245" y="582.42"/><text fill="#000000" font-family="sans-serif" font-size="14" lengthAdjust="spacing" textLength="170" x="72" y="604.9552">WebClientGithubAdapter</text></g><!--entity JiraAdapter--><g id="elem_JiraAdapter"><rect fill="#85BBF0" height="46.4883" rx="2.5" ry="2.5" style="stroke:#181818;stroke-width:0.5;" width="186" x="302" y="571.42"/><rect fill="#85BBF0" height="10" style="stroke:#181818;stroke-width:0.5;" width="15" x="468" y="576.42"/><rect fill="#85BBF0" height="2" style="stroke:#181818;stroke-width:0.5;" width="4" x="466" y="578.42"/><rect fill="#85BBF0" height="2" style="stroke:#181818;stroke-width:0.5;" width="4" x="466" y="582.42"/><text fill="#000000" font-family="sans-serif" font-size="14" lengthAdjust="spacing" textLength="146" x="317" y="604.9552">WebClientJiraAdapter</text></g><!--entity MemoryBank--><g id="elem_MemoryBank"><path d="M556,420.95 C556,410.95 612,410.95 612,410.95 C612,410.95 668,410.95 668,420.95 L668,462.9266 C668,472.9266 612,472.9266 612,472.9266 C612,472.9266 556,472.9266 556,462.9266 L556,420.95 " fill="#F1F1F1" style="stroke:#181818;stroke-width:0.5;"/><path d="M556,420.95 C556,430.95 612,430.95 612,430.95 C612,430.95 668,430.95 668,420.95 " fill="none" style="stroke:#181818;stroke-width:0.5;"/><text fill="#000000" font-family="sans-serif" font-size="14" lengthAdjust="spacing" textLength="92" x="566" y="448.4852">Memory Bank</text><text fill="#000000" font-family="sans-serif" font-size="14" lengthAdjust="spacing" textLength="80" x="566" y="464.9734">&#171;MongoDB&#187;</text></g><!--entity KafkaTopic--><g id="elem_KafkaTopic"><path d="M306,6 L504,6 C509,6 509,19.2441 509,19.2441 C509,19.2441 509,32.4883 504,32.4883 L306,32.4883 C301,32.4883 301,19.2441 301,19.2441 C301,19.2441 301,6 306,6 " fill="#F1F1F1" style="stroke:#181818;stroke-width:0.5;"/><path d="M504,6 C499,6 499,19.2441 499,19.2441 C499,32.4883 504,32.4883 504,32.4883 " fill="none" style="stroke:#181818;stroke-width:0.5;"/><text fill="#000000" font-family="sans-serif" font-size="14" lengthAdjust="spacing" textLength="188" x="306" y="24.5352">CBUAE OpenFinance Events</text></g><!--link WSHandler to Coordinator--><g id="link_WSHandler_Coordinator"><path d="M163.07,193.78 C177.09,209.1 195.32,227.14 214,240.47 C229.51,251.53 241.9623,258.8592 259.2223,267.3992 " fill="none" id="WSHandler-to-Coordinator" style="stroke:#181818;stroke-width:1.0;"/><polygon fill="#181818" points="264.6,270.06,258.3073,262.4836,260.1186,267.8426,254.7595,269.6539,264.6,270.06" style="stroke:#181818;stroke-width:1.0;"/><text fill="#000000" font-family="sans-serif" font-size="13" lengthAdjust="spacing" textLength="144" x="215" y="237.0384">Dispatches Chat Tasks</text></g><!--link KafkaListener to Coordinator--><g id="link_KafkaListener_Coordinator"><path d="M390.19,193.94 C379.32,216.67 367.2094,241.9875 356.3494,264.6875 " fill="none" id="KafkaListener-to-Coordinator" style="stroke:#181818;stroke-width:1.0;"/><polygon fill="#181818" points="353.76,270.1,361.2524,263.7075,355.9178,265.5896,354.0358,260.255,353.76,270.1" style="stroke:#181818;stroke-width:1.0;"/><text fill="#000000" font-family="sans-serif" font-size="13" lengthAdjust="spacing" textLength="144" x="376.95" y="237.0384">Autonomous Ingestion</text></g><!--link Coordinator to Economics--><g id="link_Coordinator_Economics"><path d="M238.66,313.39 C201.36,321.76 161.09,336.73 132,363.45 C118.82,375.54 112.8937,388.2967 108.7137,404.2167 " fill="none" id="Coordinator-to-Economics" style="stroke:#181818;stroke-width:1.0;"/><polygon fill="#181818" points="107.19,410.02,113.3445,402.3309,108.4598,405.1839,105.6067,400.2992,107.19,410.02" style="stroke:#181818;stroke-width:1.0;"/><text fill="#000000" font-family="sans-serif" font-size="13" lengthAdjust="spacing" textLength="197" x="133" y="377.0184">authorizeAndConsume(Tokens)</text></g><!--link Coordinator to Harness--><g id="link_Coordinator_Harness"><path d="M339,333.92 C339,356.65 339,381.37 339,404.07 " fill="none" id="Coordinator-to-Harness" style="stroke:#181818;stroke-width:1.0;"/><polygon fill="#181818" points="339,410.07,343,401.07,339,405.07,335,401.07,339,410.07" style="stroke:#181818;stroke-width:1.0;"/><text fill="#000000" font-family="sans-serif" font-size="13" lengthAdjust="spacing" textLength="183" x="340" y="377.0184">executeWithMemory(Session)</text></g><!--link Coordinator to MemoryBank--><g id="link_Coordinator_MemoryBank"><path d="M439.46,324.84 C470.43,334.07 503.78,346.66 532,363.45 C552.77,375.8 568.2832,390.1402 582.8632,406.1002 " fill="none" id="Coordinator-to-MemoryBank" style="stroke:#181818;stroke-width:1.0;"/><polygon fill="#181818" points="586.91,410.53,583.793,401.1874,583.5377,406.8385,577.8866,406.5831,586.91,410.53" style="stroke:#181818;stroke-width:1.0;"/><text fill="#000000" font-family="sans-serif" font-size="13" lengthAdjust="spacing" textLength="84" x="555.29" y="377.0184">Persists State</text></g><!--link Harness to GithubAdapter--><g id="link_Harness_GithubAdapter"><path d="M283.22,473.9 C269.2,482.69 254.58,492.79 242,503.42 C217.69,523.96 197.7576,547.2026 182.5576,566.5426 " fill="none" id="Harness-to-GithubAdapter" style="stroke:#181818;stroke-width:1.0;"/><polygon fill="#181818" points="178.85,571.26,187.5563,566.6556,181.9396,567.3288,181.2664,561.7122,178.85,571.26" style="stroke:#181818;stroke-width:1.0;"/><text fill="#000000" font-family="sans-serif" font-size="13" lengthAdjust="spacing" textLength="110" x="243" y="516.9884">readPrdFromRepo</text></g><!--link Harness to JiraAdapter--><g id="link_Harness_JiraAdapter"><path d="M350.47,473.8 C361.22,502.74 374.9512,539.6953 384.5512,565.5453 " fill="none" id="Harness-to-JiraAdapter" style="stroke:#181818;stroke-width:1.0;"/><polygon fill="#181818" points="386.64,571.17,387.2565,561.3405,384.8993,566.4828,379.757,564.1256,386.64,571.17" style="stroke:#181818;stroke-width:1.0;"/><text fill="#000000" font-family="sans-serif" font-size="13" lengthAdjust="spacing" textLength="97" x="368" y="516.9884">createJiraTicket</text></g><!--link KafkaTopic to KafkaListener--><g id="link_KafkaTopic_KafkaListener"><path d="M405,32.74 C405,54.4 405,93.54 405,124.06 " fill="none" id="KafkaTopic-to-KafkaListener" style="stroke:#181818;stroke-width:1.0;"/><polygon fill="#181818" points="405,130.06,409,121.06,405,125.06,401,121.06,405,130.06" style="stroke:#181818;stroke-width:1.0;"/><text fill="#000000" font-family="sans-serif" font-size="13" lengthAdjust="spacing" textLength="127" x="406" y="76.0584">Consumes webhook</text></g><!--SRC=[VLDDYzim4BthLuZqiZq4saAXB4l0yIRTVeI4EYMNNiRon16sDQuax_Q3_UyTEOvZPqDzC4ZptfkFDtA5DZLOgAIYgYQ3nik_Gl8t1rNabXgJnLIIbQy-l4_J_HlnB4JD8SXHJgASyVeHMp2QJCPaST89d0MFkAN77QO9CT8_WCbAj3_CtLrIMsrosOVSR3QHuEGkwK1NnJwP79tNPBx0le2lsdaq8xtslfCQOIxbkAm7i0QTYubifWruQeNQF79jrO4psN3RoGrmLyHYSdvTUrtfFyU25eeCLLgT6klFb-GLPLX6kM41hRgQWi0M6MAXb3konRwafvDIXsbrsbzlpDjtqoKeBZ3CDIvrqD-GzUvapaNg7lLH-qEJHXdK7csRP7JpN-vdRM7879nRtdFOdGmyfE2unXLMP7_pwfWYTBaYazFzl6lj60mnyRF1Xk7n_7kqaEiQpP9dRnJAnICdTMU7jrHh9KI_E78wdGtDahVoNhiQV71KnWVmSWkkS6Aq7rTOKUE3PTGusU-T6482fRUL2T3u0rbUW2Yy7kEQ2c-sn2_4lNx1wqna5lv2rV0ZuO4Vsxz9EC2vNfBEus7U1gtZufrCF7WK9y606vd7K8kGRMosj5Hzmvf6s85TZ5GCzHZkjZeyIo7ECsxXuw7TogvF9vymFH0LuXy0]--></g></svg>