<?plantuml 1.2026.2?><svg xmlns="http://www.w3.org/2000/svg" xmlns:xlink="http://www.w3.org/1999/xlink" contentStyleType="text/css" data-diagram-type="DESCRIPTION" height="555px" preserveAspectRatio="none" style="width:1609px;height:555px;background:#FFFFFF;" version="1.1" viewBox="0 0 1609 555" width="1609px" zoomAndPan="magnify"><defs/><g><!--cluster k8s--><g class="cluster" data-qualified-name="k8s" data-source-line="9" id="ent0002"><polygon fill="#F4F6F8" points="16,16,26,6,1592,6,1592,528.44,1582,538.44,16,538.44,16,16" style="stroke:#A2B4C6;stroke-width:1;"/><line style="stroke:#A2B4C6;stroke-width:1;" x1="1582" x2="1592" y1="16" y2="6"/><line style="stroke:#A2B4C6;stroke-width:1;" x1="16" x2="1582" y1="16" y2="16"/><line style="stroke:#A2B4C6;stroke-width:1;" x1="1582" x2="1582" y1="16" y2="538.44"/><text fill="#000000" font-family="sans-serif" font-size="14" font-weight="bold" lengthAdjust="spacing" textLength="127.9141" x="736.043" y="32.5352">OpenShift Cluster</text></g><!--cluster Namespace: opf-sandbox--><g class="cluster" data-qualified-name="k8s.Namespace. opf-sandbox" data-source-line="13" id="ent0004"><polygon fill="#F4F6F8" points="40,165.49,50,155.49,1568,155.49,1568,504.44,1558,514.44,40,514.44,40,165.49" style="stroke:#A2B4C6;stroke-width:1;"/><line style="stroke:#A2B4C6;stroke-width:1;" x1="1558" x2="1568" y1="165.49" y2="155.49"/><line style="stroke:#A2B4C6;stroke-width:1;" x1="40" x2="1558" y1="165.49" y2="165.49"/><line style="stroke:#A2B4C6;stroke-width:1;" x1="1558" x2="1558" y1="165.49" y2="514.44"/><text fill="#000000" font-family="sans-serif" font-size="14" font-weight="bold" lengthAdjust="spacing" textLength="183.9893" x="708.0054" y="182.0252">Namespace: opf-sandbox</text></g><!--cluster Pod: Keycloak--><g class="cluster" data-qualified-name="k8s.Namespace. opf-sandbox.Pod. Keycloak" data-source-line="15" id="ent0005"><polygon fill="#F4F6F8" points="64,213.49,74,203.49,353,203.49,353,312.46,343,322.46,64,322.46,64,213.49" style="stroke:#A2B4C6;stroke-width:1;"/><line style="stroke:#A2B4C6;stroke-width:1;" x1="343" x2="353" y1="213.49" y2="203.49"/><line style="stroke:#A2B4C6;stroke-width:1;" x1="64" x2="343" y1="213.49" y2="213.49"/><line style="stroke:#A2B4C6;stroke-width:1;" x1="343" x2="343" y1="213.49" y2="322.46"/><text fill="#000000" font-family="sans-serif" font-size="14" font-weight="bold" lengthAdjust="spacing" textLength="99.2168" x="154.8916" y="230.0252">Pod: Keycloak</text></g><!--cluster Pod: MongoDB--><g class="cluster" data-qualified-name="k8s.Namespace. opf-sandbox.Pod. MongoDB" data-source-line="21" id="ent0009"><polygon fill="#F4F6F8" points="64,381.46,74,371.46,339,371.46,339,480.44,329,490.44,64,490.44,64,381.46" style="stroke:#A2B4C6;stroke-width:1;"/><line style="stroke:#A2B4C6;stroke-width:1;" x1="329" x2="339" y1="381.46" y2="371.46"/><line style="stroke:#A2B4C6;stroke-width:1;" x1="64" x2="329" y1="381.46" y2="381.46"/><line style="stroke:#A2B4C6;stroke-width:1;" x1="329" x2="329" y1="381.46" y2="490.44"/><text fill="#000000" font-family="sans-serif" font-size="14" font-weight="bold" lengthAdjust="spacing" textLength="103.8174" x="145.5913" y="397.9952">Pod: MongoDB</text></g><!--cluster Pod: Temporal--><g class="cluster" data-qualified-name="k8s.Namespace. opf-sandbox.Pod. Temporal" data-source-line="27" id="ent0013"><polygon fill="#F4F6F8" points="377,213.49,387,203.49,716,203.49,716,312.46,706,322.46,377,322.46,377,213.49" style="stroke:#A2B4C6;stroke-width:1;"/><line style="stroke:#A2B4C6;stroke-width:1;" x1="706" x2="716" y1="213.49" y2="203.49"/><line style="stroke:#A2B4C6;stroke-width:1;" x1="377" x2="706" y1="213.49" y2="213.49"/><line style="stroke:#A2B4C6;stroke-width:1;" x1="706" x2="706" y1="213.49" y2="322.46"/><text fill="#000000" font-family="sans-serif" font-size="14" font-weight="bold" lengthAdjust="spacing" textLength="103.6807" x="490.6597" y="230.0252">Pod: Temporal</text></g><!--cluster Pod: Postgres Vector--><g class="cluster" data-qualified-name="k8s.Namespace. opf-sandbox.Pod. Postgres Vector" data-source-line="33" id="ent0017"><polygon fill="#F4F6F8" points="370,381.46,380,371.46,655,371.46,655,480.44,645,490.44,370,490.44,370,381.46" style="stroke:#A2B4C6;stroke-width:1;"/><line style="stroke:#A2B4C6;stroke-width:1;" x1="645" x2="655" y1="381.46" y2="371.46"/><line style="stroke:#A2B4C6;stroke-width:1;" x1="370" x2="645" y1="381.46" y2="381.46"/><line style="stroke:#A2B4C6;stroke-width:1;" x1="645" x2="645" y1="381.46" y2="490.44"/><text fill="#000000" font-family="sans-serif" font-size="14" font-weight="bold" lengthAdjust="spacing" textLength="148.7432" x="434.1284" y="397.9952">Pod: Postgres Vector</text></g><!--cluster Pod: Kafka--><g class="cluster" data-qualified-name="k8s.Namespace. opf-sandbox.Pod. Kafka" data-source-line="39" id="ent0021"><polygon fill="#F4F6F8" points="679,381.46,689,371.46,994,371.46,994,480.44,984,490.44,679,490.44,679,381.46" style="stroke:#A2B4C6;stroke-width:1;"/><line style="stroke:#A2B4C6;stroke-width:1;" x1="984" x2="994" y1="381.46" y2="371.46"/><line style="stroke:#A2B4C6;stroke-width:1;" x1="679" x2="984" y1="381.46" y2="381.46"/><line style="stroke:#A2B4C6;stroke-width:1;" x1="984" x2="984" y1="381.46" y2="490.44"/><text fill="#000000" font-family="sans-serif" font-size="14" font-weight="bold" lengthAdjust="spacing" textLength="75.9404" x="794.5298" y="397.9952">Pod: Kafka</text></g><!--cluster Pod: React Portal--><g class="cluster" data-qualified-name="k8s.Namespace. opf-sandbox.Pod. React Portal" data-source-line="44" id="ent0025"><polygon fill="#F4F6F8" points="740,213.49,750,203.49,1127,203.49,1127,312.46,1117,322.46,740,322.46,740,213.49" style="stroke:#A2B4C6;stroke-width:1;"/><line style="stroke:#A2B4C6;stroke-width:1;" x1="1117" x2="1127" y1="213.49" y2="203.49"/><line style="stroke:#A2B4C6;stroke-width:1;" x1="740" x2="1117" y1="213.49" y2="213.49"/><line style="stroke:#A2B4C6;stroke-width:1;" x1="1117" x2="1117" y1="213.49" y2="322.46"/><text fill="#000000" font-family="sans-serif" font-size="14" font-weight="bold" lengthAdjust="spacing" textLength="121.0576" x="868.9712" y="230.0252">Pod: React Portal</text></g><!--cluster Pod: MCP Server--><g class="cluster" data-qualified-name="k8s.Namespace. opf-sandbox.Pod. MCP Server" data-source-line="50" id="ent0029"><polygon fill="#F4F6F8" points="1151,213.49,1161,203.49,1544,203.49,1544,312.46,1534,322.46,1151,322.46,1151,213.49" style="stroke:#A2B4C6;stroke-width:1;"/><line style="stroke:#A2B4C6;stroke-width:1;" x1="1534" x2="1544" y1="213.49" y2="203.49"/><line style="stroke:#A2B4C6;stroke-width:1;" x1="1151" x2="1534" y1="213.49" y2="213.49"/><line style="stroke:#A2B4C6;stroke-width:1;" x1="1534" x2="1534" y1="213.49" y2="322.46"/><text fill="#000000" font-family="sans-serif" font-size="14" font-weight="bold" lengthAdjust="spacing" textLength="116.1973" x="1285.4014" y="230.0252">Pod: MCP Server</text></g><!--entity ingress--><g class="entity" data-qualified-name="k8s.ingress" data-source-line="11" id="ent0003"><rect fill="#FFFFFF" height="46.4883" rx="2.5" ry="2.5" style="stroke:#181818;stroke-width:0.5;" width="183.8828" x="725.06" y="46"/><rect fill="#FFFFFF" height="10" style="stroke:#181818;stroke-width:0.5;" width="15" x="888.9428" y="51"/><rect fill="#FFFFFF" height="2" style="stroke:#181818;stroke-width:0.5;" width="4" x="886.9428" y="53"/><rect fill="#FFFFFF" height="2" style="stroke:#181818;stroke-width:0.5;" width="4" x="886.9428" y="57"/><text fill="#000000" font-family="sans-serif" font-size="14" lengthAdjust="spacing" textLength="143.8828" x="740.06" y="79.5352">Istio Ingress Gateway</text></g><!--entity e1--><g class="entity" data-qualified-name="k8s.Namespace. opf-sandbox.Pod. Keycloak.e1" data-source-line="16" id="ent0006"><rect fill="#D3D3D3" height="62.9766" rx="2.5" ry="2.5" style="stroke:#181818;stroke-width:0.5;" width="121.833" x="80.08" y="243.49"/><rect fill="#D3D3D3" height="10" style="stroke:#181818;stroke-width:0.5;" width="15" x="181.913" y="248.49"/><rect fill="#D3D3D3" height="2" style="stroke:#181818;stroke-width:0.5;" width="4" x="179.913" y="250.49"/><rect fill="#D3D3D3" height="2" style="stroke:#181818;stroke-width:0.5;" width="4" x="179.913" y="254.49"/><text fill="#000000" font-family="sans-serif" font-size="14" lengthAdjust="spacing" textLength="81.833" x="95.08" y="277.0252">Envoy Proxy</text><text fill="#000000" font-family="sans-serif" font-size="14" lengthAdjust="spacing" textLength="63.499" x="95.08" y="293.5134">&#171;Sidecar&#187;</text></g><!--entity kc--><g class="entity" data-qualified-name="k8s.Namespace. opf-sandbox.Pod. Keycloak.kc" data-source-line="17" id="ent0007"><rect fill="#FFFFFF" height="46.4883" rx="2.5" ry="2.5" style="stroke:#181818;stroke-width:0.5;" width="99.9854" x="237.01" y="251.73"/><rect fill="#FFFFFF" height="10" style="stroke:#181818;stroke-width:0.5;" width="15" x="316.9954" y="256.73"/><rect fill="#FFFFFF" height="2" style="stroke:#181818;stroke-width:0.5;" width="4" x="314.9954" y="258.73"/><rect fill="#FFFFFF" height="2" style="stroke:#181818;stroke-width:0.5;" width="4" x="314.9954" y="262.73"/><text fill="#000000" font-family="sans-serif" font-size="14" lengthAdjust="spacing" textLength="59.9854" x="252.01" y="285.2652">Keycloak</text></g><!--entity e2--><g class="entity" data-qualified-name="k8s.Namespace. opf-sandbox.Pod. MongoDB.e2" data-source-line="22" id="ent0010"><rect fill="#D3D3D3" height="62.9766" rx="2.5" ry="2.5" style="stroke:#181818;stroke-width:0.5;" width="121.833" x="80.08" y="411.46"/><rect fill="#D3D3D3" height="10" style="stroke:#181818;stroke-width:0.5;" width="15" x="181.913" y="416.46"/><rect fill="#D3D3D3" height="2" style="stroke:#181818;stroke-width:0.5;" width="4" x="179.913" y="418.46"/><rect fill="#D3D3D3" height="2" style="stroke:#181818;stroke-width:0.5;" width="4" x="179.913" y="422.46"/><text fill="#000000" font-family="sans-serif" font-size="14" lengthAdjust="spacing" textLength="81.833" x="95.08" y="444.9952">Envoy Proxy</text><text fill="#000000" font-family="sans-serif" font-size="14" lengthAdjust="spacing" textLength="63.499" x="95.08" y="461.4834">&#171;Sidecar&#187;</text></g><!--entity mongo--><g class="entity" data-qualified-name="k8s.Namespace. opf-sandbox.Pod. MongoDB.mongo" data-source-line="23" id="ent0011"><path d="M237.39,430.21 C237.39,420.21 279.9974,420.21 279.9974,420.21 C279.9974,420.21 322.6048,420.21 322.6048,430.21 L322.6048,455.6983 C322.6048,465.6983 279.9974,465.6983 279.9974,465.6983 C279.9974,465.6983 237.39,465.6983 237.39,455.6983 L237.39,430.21" fill="#F1F1F1" style="stroke:#181818;stroke-width:0.5;"/><path d="M237.39,430.21 C237.39,440.21 279.9974,440.21 279.9974,440.21 C279.9974,440.21 322.6048,440.21 322.6048,430.21" fill="none" style="stroke:#181818;stroke-width:0.5;"/><text fill="#000000" font-family="sans-serif" font-size="14" lengthAdjust="spacing" textLength="65.2148" x="247.39" y="457.7452">MongoDB</text></g><!--entity e3--><g class="entity" data-qualified-name="k8s.Namespace. opf-sandbox.Pod. Temporal.e3" data-source-line="28" id="ent0014"><rect fill="#D3D3D3" height="62.9766" rx="2.5" ry="2.5" style="stroke:#181818;stroke-width:0.5;" width="121.833" x="393.08" y="243.49"/><rect fill="#D3D3D3" height="10" style="stroke:#181818;stroke-width:0.5;" width="15" x="494.913" y="248.49"/><rect fill="#D3D3D3" height="2" style="stroke:#181818;stroke-width:0.5;" width="4" x="492.913" y="250.49"/><rect fill="#D3D3D3" height="2" style="stroke:#181818;stroke-width:0.5;" width="4" x="492.913" y="254.49"/><text fill="#000000" font-family="sans-serif" font-size="14" lengthAdjust="spacing" textLength="81.833" x="408.08" y="277.0252">Envoy Proxy</text><text fill="#000000" font-family="sans-serif" font-size="14" lengthAdjust="spacing" textLength="63.499" x="408.08" y="293.5134">&#171;Sidecar&#187;</text></g><!--entity temp--><g class="entity" data-qualified-name="k8s.Namespace. opf-sandbox.Pod. Temporal.temp" data-source-line="29" id="ent0015"><rect fill="#FFFFFF" height="46.4883" rx="2.5" ry="2.5" style="stroke:#181818;stroke-width:0.5;" width="150.9131" x="549.54" y="251.73"/><rect fill="#FFFFFF" height="10" style="stroke:#181818;stroke-width:0.5;" width="15" x="680.4531" y="256.73"/><rect fill="#FFFFFF" height="2" style="stroke:#181818;stroke-width:0.5;" width="4" x="678.4531" y="258.73"/><rect fill="#FFFFFF" height="2" style="stroke:#181818;stroke-width:0.5;" width="4" x="678.4531" y="262.73"/><text fill="#000000" font-family="sans-serif" font-size="14" lengthAdjust="spacing" textLength="110.9131" x="564.54" y="285.2652">Temporal Server</text></g><!--entity e4--><g class="entity" data-qualified-name="k8s.Namespace. opf-sandbox.Pod. Postgres Vector.e4" data-source-line="34" id="ent0018"><rect fill="#D3D3D3" height="62.9766" rx="2.5" ry="2.5" style="stroke:#181818;stroke-width:0.5;" width="121.833" x="386.08" y="411.46"/><rect fill="#D3D3D3" height="10" style="stroke:#181818;stroke-width:0.5;" width="15" x="487.913" y="416.46"/><rect fill="#D3D3D3" height="2" style="stroke:#181818;stroke-width:0.5;" width="4" x="485.913" y="418.46"/><rect fill="#D3D3D3" height="2" style="stroke:#181818;stroke-width:0.5;" width="4" x="485.913" y="422.46"/><text fill="#000000" font-family="sans-serif" font-size="14" lengthAdjust="spacing" textLength="81.833" x="401.08" y="444.9952">Envoy Proxy</text><text fill="#000000" font-family="sans-serif" font-size="14" lengthAdjust="spacing" textLength="63.499" x="401.08" y="461.4834">&#171;Sidecar&#187;</text></g><!--entity pg--><g class="entity" data-qualified-name="k8s.Namespace. opf-sandbox.Pod. Postgres Vector.pg" data-source-line="35" id="ent0019"><path d="M542.58,421.96 C542.58,411.96 591.0048,411.96 591.0048,411.96 C591.0048,411.96 639.4296,411.96 639.4296,421.96 L639.4296,463.9366 C639.4296,473.9366 591.0048,473.9366 591.0048,473.9366 C591.0048,473.9366 542.58,473.9366 542.58,463.9366 L542.58,421.96" fill="#F1F1F1" style="stroke:#181818;stroke-width:0.5;"/><path d="M542.58,421.96 C542.58,431.96 591.0048,431.96 591.0048,431.96 C591.0048,431.96 639.4296,431.96 639.4296,421.96" fill="none" style="stroke:#181818;stroke-width:0.5;"/><text fill="#000000" font-family="sans-serif" font-size="14" lengthAdjust="spacing" textLength="76.8496" x="552.58" y="449.4952">PostgreSQL</text><text fill="#000000" font-family="sans-serif" font-size="14" lengthAdjust="spacing" textLength="73.9922" x="552.58" y="465.9834">&#171;pgvector&#187;</text></g><!--entity e5--><g class="entity" data-qualified-name="k8s.Namespace. opf-sandbox.Pod. Kafka.e5" data-source-line="40" id="ent0022"><rect fill="#D3D3D3" height="62.9766" rx="2.5" ry="2.5" style="stroke:#181818;stroke-width:0.5;" width="121.833" x="695.08" y="411.46"/><rect fill="#D3D3D3" height="10" style="stroke:#181818;stroke-width:0.5;" width="15" x="796.913" y="416.46"/><rect fill="#D3D3D3" height="2" style="stroke:#181818;stroke-width:0.5;" width="4" x="794.913" y="418.46"/><rect fill="#D3D3D3" height="2" style="stroke:#181818;stroke-width:0.5;" width="4" x="794.913" y="422.46"/><text fill="#000000" font-family="sans-serif" font-size="14" lengthAdjust="spacing" textLength="81.833" x="710.08" y="444.9952">Envoy Proxy</text><text fill="#000000" font-family="sans-serif" font-size="14" lengthAdjust="spacing" textLength="63.499" x="710.08" y="461.4834">&#171;Sidecar&#187;</text></g><!--entity kafka--><g class="entity" data-qualified-name="k8s.Namespace. opf-sandbox.Pod. Kafka.kafka" data-source-line="41" id="ent0023"><rect fill="#FFFFFF" height="46.4883" rx="2.5" ry="2.5" style="stroke:#181818;stroke-width:0.5;" width="126.4541" x="851.77" y="419.71"/><rect fill="#FFFFFF" height="10" style="stroke:#181818;stroke-width:0.5;" width="15" x="958.2241" y="424.71"/><rect fill="#FFFFFF" height="2" style="stroke:#181818;stroke-width:0.5;" width="4" x="956.2241" y="426.71"/><rect fill="#FFFFFF" height="2" style="stroke:#181818;stroke-width:0.5;" width="4" x="956.2241" y="430.71"/><text fill="#000000" font-family="sans-serif" font-size="14" lengthAdjust="spacing" textLength="86.4541" x="866.77" y="453.2452">Kafka Broker</text></g><!--entity e6--><g class="entity" data-qualified-name="k8s.Namespace. opf-sandbox.Pod. React Portal.e6" data-source-line="45" id="ent0026"><rect fill="#D3D3D3" height="62.9766" rx="2.5" ry="2.5" style="stroke:#181818;stroke-width:0.5;" width="121.833" x="756.08" y="243.49"/><rect fill="#D3D3D3" height="10" style="stroke:#181818;stroke-width:0.5;" width="15" x="857.913" y="248.49"/><rect fill="#D3D3D3" height="2" style="stroke:#181818;stroke-width:0.5;" width="4" x="855.913" y="250.49"/><rect fill="#D3D3D3" height="2" style="stroke:#181818;stroke-width:0.5;" width="4" x="855.913" y="254.49"/><text fill="#000000" font-family="sans-serif" font-size="14" lengthAdjust="spacing" textLength="81.833" x="771.08" y="277.0252">Envoy Proxy</text><text fill="#000000" font-family="sans-serif" font-size="14" lengthAdjust="spacing" textLength="63.499" x="771.08" y="293.5134">&#171;Sidecar&#187;</text></g><!--entity portal--><g class="entity" data-qualified-name="k8s.Namespace. opf-sandbox.Pod. React Portal.portal" data-source-line="46" id="ent0027"><rect fill="#FFFFFF" height="46.4883" rx="2.5" ry="2.5" style="stroke:#181818;stroke-width:0.5;" width="198.2383" x="912.88" y="251.73"/><rect fill="#FFFFFF" height="10" style="stroke:#181818;stroke-width:0.5;" width="15" x="1091.1183" y="256.73"/><rect fill="#FFFFFF" height="2" style="stroke:#181818;stroke-width:0.5;" width="4" x="1089.1183" y="258.73"/><rect fill="#FFFFFF" height="2" style="stroke:#181818;stroke-width:0.5;" width="4" x="1089.1183" y="262.73"/><text fill="#000000" font-family="sans-serif" font-size="14" lengthAdjust="spacing" textLength="158.2383" x="927.88" y="285.2652">frontend-x-bank-souq</text></g><!--entity e7--><g class="entity" data-qualified-name="k8s.Namespace. opf-sandbox.Pod. MCP Server.e7" data-source-line="51" id="ent0030"><rect fill="#D3D3D3" height="62.9766" rx="2.5" ry="2.5" style="stroke:#181818;stroke-width:0.5;" width="121.833" x="1167.08" y="243.49"/><rect fill="#D3D3D3" height="10" style="stroke:#181818;stroke-width:0.5;" width="15" x="1268.913" y="248.49"/><rect fill="#D3D3D3" height="2" style="stroke:#181818;stroke-width:0.5;" width="4" x="1266.913" y="250.49"/><rect fill="#D3D3D3" height="2" style="stroke:#181818;stroke-width:0.5;" width="4" x="1266.913" y="254.49"/><text fill="#000000" font-family="sans-serif" font-size="14" lengthAdjust="spacing" textLength="81.833" x="1182.08" y="277.0252">Envoy Proxy</text><text fill="#000000" font-family="sans-serif" font-size="14" lengthAdjust="spacing" textLength="63.499" x="1182.08" y="293.5134">&#171;Sidecar&#187;</text></g><!--entity mcp--><g class="entity" data-qualified-name="k8s.Namespace. opf-sandbox.Pod. MCP Server.mcp" data-source-line="52" id="ent0031"><rect fill="#FFFFFF" height="46.4883" rx="2.5" ry="2.5" style="stroke:#181818;stroke-width:0.5;" width="203.249" x="1324.38" y="251.73"/><rect fill="#FFFFFF" height="10" style="stroke:#181818;stroke-width:0.5;" width="15" x="1507.629" y="256.73"/><rect fill="#FFFFFF" height="2" style="stroke:#181818;stroke-width:0.5;" width="4" x="1505.629" y="258.73"/><rect fill="#FFFFFF" height="2" style="stroke:#181818;stroke-width:0.5;" width="4" x="1505.629" y="262.73"/><text fill="#000000" font-family="sans-serif" font-size="14" lengthAdjust="spacing" textLength="163.249" x="1339.38" y="285.2652">opf-nebras-mcp-server</text></g><!--link e1 to kc--><g class="link" data-entity-1="ent0006" data-entity-2="ent0007" data-link-type="dependency" data-source-line="18" id="lnk8"><path d="M208.31,274.98 C219.78,274.98 219.25,274.98 230.71,274.98" fill="none" id="e1-kc" style="stroke:#181818;stroke-width:1;"/><polygon fill="#181818" points="202.31,274.98,211.31,278.98,207.31,274.98,211.31,270.98,202.31,274.98" style="stroke:#181818;stroke-width:1;"/><polygon fill="#181818" points="236.71,274.98,227.71,270.98,231.71,274.98,227.71,278.98,236.71,274.98" style="stroke:#181818;stroke-width:1;"/></g><!--link e2 to mongo--><g class="link" data-entity-1="ent0010" data-entity-2="ent0011" data-link-type="dependency" data-source-line="24" id="lnk12"><path d="M208.36,442.95 C219.88,442.95 219.41,442.95 230.93,442.95" fill="none" id="e2-mongo" style="stroke:#181818;stroke-width:1;"/><polygon fill="#181818" points="202.36,442.95,211.36,446.95,207.36,442.95,211.36,438.95,202.36,442.95" style="stroke:#181818;stroke-width:1;"/><polygon fill="#181818" points="236.93,442.95,227.93,438.95,231.93,442.95,227.93,446.95,236.93,442.95" style="stroke:#181818;stroke-width:1;"/></g><!--link e3 to temp--><g class="link" data-entity-1="ent0014" data-entity-2="ent0015" data-link-type="dependency" data-source-line="30" id="lnk16"><path d="M521.12,274.98 C532.57,274.98 532.01,274.98 543.46,274.98" fill="none" id="e3-temp" style="stroke:#181818;stroke-width:1;"/><polygon fill="#181818" points="515.12,274.98,524.12,278.98,520.12,274.98,524.12,270.98,515.12,274.98" style="stroke:#181818;stroke-width:1;"/><polygon fill="#181818" points="549.46,274.98,540.46,270.98,544.46,274.98,540.46,278.98,549.46,274.98" style="stroke:#181818;stroke-width:1;"/></g><!--link e4 to pg--><g class="link" data-entity-1="ent0018" data-entity-2="ent0019" data-link-type="dependency" data-source-line="36" id="lnk20"><path d="M514.31,442.95 C525.62,442.95 524.92,442.95 536.23,442.95" fill="none" id="e4-pg" style="stroke:#181818;stroke-width:1;"/><polygon fill="#181818" points="508.31,442.95,517.31,446.95,513.31,442.95,517.31,438.95,508.31,442.95" style="stroke:#181818;stroke-width:1;"/><polygon fill="#181818" points="542.23,442.95,533.23,438.95,537.23,442.95,533.23,446.95,542.23,442.95" style="stroke:#181818;stroke-width:1;"/></g><!--link e5 to kafka--><g class="link" data-entity-1="ent0022" data-entity-2="ent0023" data-link-type="dependency" data-source-line="42" id="lnk24"><path d="M823.18,442.95 C834.64,442.95 834.1,442.95 845.57,442.95" fill="none" id="e5-kafka" style="stroke:#181818;stroke-width:1;"/><polygon fill="#181818" points="817.18,442.95,826.18,446.95,822.18,442.95,826.18,438.95,817.18,442.95" style="stroke:#181818;stroke-width:1;"/><polygon fill="#181818" points="851.57,442.95,842.57,438.95,846.57,442.95,842.57,446.95,851.57,442.95" style="stroke:#181818;stroke-width:1;"/></g><!--link e6 to portal--><g class="link" data-entity-1="ent0026" data-entity-2="ent0027" data-link-type="dependency" data-source-line="47" id="lnk28"><path d="M884.32,274.98 C895.72,274.98 895.12,274.98 906.52,274.98" fill="none" id="e6-portal" style="stroke:#181818;stroke-width:1;"/><polygon fill="#181818" points="878.32,274.98,887.32,278.98,883.32,274.98,887.32,270.98,878.32,274.98" style="stroke:#181818;stroke-width:1;"/><polygon fill="#181818" points="912.52,274.98,903.52,270.98,907.52,274.98,903.52,278.98,912.52,274.98" style="stroke:#181818;stroke-width:1;"/></g><!--link e7 to mcp--><g class="link" data-entity-1="ent0030" data-entity-2="ent0031" data-link-type="dependency" data-source-line="53" id="lnk32"><path d="M1295.1,274.98 C1306.78,274.98 1306.45,274.98 1318.13,274.98" fill="none" id="e7-mcp" style="stroke:#181818;stroke-width:1;"/><polygon fill="#181818" points="1289.1,274.98,1298.1,278.98,1294.1,274.98,1298.1,270.98,1289.1,274.98" style="stroke:#181818;stroke-width:1;"/><polygon fill="#181818" points="1324.13,274.98,1315.13,270.98,1319.13,274.98,1315.13,278.98,1324.13,274.98" style="stroke:#181818;stroke-width:1;"/></g><!--link ingress to e6--><g class="link" data-entity-1="ent0003" data-entity-2="ent0026" data-link-type="dependency" data-source-line="57" id="lnk33"><path d="M817,92.82 C817,129.4 817,195.65 817,237" fill="none" id="ingress-to-e6" style="stroke:#181818;stroke-width:1;"/><polygon fill="#181818" points="817,243,821,234,817,238,813,234,817,243" style="stroke:#181818;stroke-width:1;"/><text fill="#000000" font-family="sans-serif" font-size="13" lengthAdjust="spacing" textLength="94.3833" x="818" y="136.0584">/portal routing</text></g><!--link ingress to e7--><g class="link" data-entity-1="ent0003" data-entity-2="ent0030" data-link-type="dependency" data-source-line="58" id="lnk34"><path d="M909.32,77.52 C974.45,86.24 1061.42,105.4 1127,147.49 C1164.37,171.47 1191.0142,208.8724 1208.2942,237.9424" fill="none" id="ingress-to-e7" style="stroke:#181818;stroke-width:1;"/><polygon fill="#181818" points="1211.36,243.1,1210.1997,233.3197,1208.8052,238.802,1203.3229,237.4075,1211.36,243.1" style="stroke:#181818;stroke-width:1;"/><text fill="#000000" font-family="sans-serif" font-size="13" lengthAdjust="spacing" textLength="84.0747" x="1113.34" y="136.0584">/mcp routing</text></g><!--link ingress to e1--><g class="link" data-entity-1="ent0003" data-entity-2="ent0006" data-link-type="dependency" data-source-line="59" id="lnk35"><path d="M724.67,72.68 C578.39,78.09 301.58,95.13 220,147.49 C185.25,169.79 165.3334,207.8192 153.6034,237.5292" fill="none" id="ingress-to-e1" style="stroke:#181818;stroke-width:1;"/><polygon fill="#181818" points="151.4,243.11,158.4256,236.2078,153.2362,238.4594,150.9846,233.2699,151.4,243.11" style="stroke:#181818;stroke-width:1;"/><text fill="#000000" font-family="sans-serif" font-size="13" lengthAdjust="spacing" textLength="85.2744" x="276.11" y="136.0584">/auth routing</text></g><!--link e1 to e2--><g class="link" data-entity-1="ent0006" data-entity-2="ent0010" data-link-type="dependency" data-source-line="60" id="lnk36"><path d="M141,306.81 C141,336.52 141,375.25 141,405.01" fill="none" id="e1-to-e2" style="stroke:#181818;stroke-width:1;"/><polygon fill="#181818" points="141,411.01,145,402.01,141,406.01,137,402.01,141,411.01" style="stroke:#181818;stroke-width:1;"/><text fill="#000000" font-family="sans-serif" font-size="13" lengthAdjust="spacing" textLength="107.561" x="142" y="352.0284">Stores Party Data</text></g><!--link e3 to e4--><g class="link" data-entity-1="ent0014" data-entity-2="ent0018" data-link-type="dependency" data-source-line="61" id="lnk37"><path d="M452.7,306.81 C451.45,336.52 449.8118,375.2553 448.5618,405.0153" fill="none" id="e3-to-e4" style="stroke:#181818;stroke-width:1;"/><polygon fill="#181818" points="448.31,411.01,452.6842,402.1858,448.5198,406.0144,444.6912,401.8501,448.31,411.01" style="stroke:#181818;stroke-width:1;"/><text fill="#000000" font-family="sans-serif" font-size="13" lengthAdjust="spacing" textLength="136.9761" x="452.33" y="352.0284">Stores Workflow State</text></g><!--link e3 to e5--><g class="link" data-entity-1="ent0014" data-entity-2="ent0022" data-link-type="dependency" data-source-line="62" id="lnk38"><path d="M490.36,306.86 C502.83,315.89 517.35,324.85 532,330.46 C559.18,340.88 568.91,330.85 597,338.46 C624.09,345.81 630.83,349.18 655,363.46 C678.32,377.25 697.7308,391.8908 716.5008,407.4508" fill="none" id="e3-to-e5" style="stroke:#181818;stroke-width:1;"/><polygon fill="#181818" points="721.12,411.28,716.744,402.4567,717.2707,408.089,711.6384,408.6156,721.12,411.28" style="stroke:#181818;stroke-width:1;"/><text fill="#000000" font-family="sans-serif" font-size="13" lengthAdjust="spacing" textLength="143.2983" x="642.18" y="352.0284">Task Queues / Outbox</text></g><?plantuml-src fLLDRzf04BtxLup8sOf2-8WGuW2fgYXjGqgKNdePxBMnR7RStJN1glZl7QyTd4qBGTG7X6VUlFTcDRFMQI9pLBW6IQ60tnxmCyKWZHKLCfnHHWekebuqY6xg7AbGg2QEtMKl67WxJ-zf0bhd98Kq1xdimpMULUmyv48kLabaO9OLsWZL0TIGtkY6mFwqh9qxRHA2EnaheJLyHYDUiBGrIHtpR4LD_WtNGkSOY15G7laQPRYaRQUXtjEt1NCAHt0loY0ZJD_Ythdu93TKmbpHjlmfn-D54ee0rMHYZOWhkCYIU6NOJtc8eHMfsWqS61EC_SdRwEweuQyaOxgTdkstUyXlY0QNg5bdBy7uTVNVDTorXjt4SSzFWiqfpCusVNt28R-Am4AeJJDQXcEk-MjhteaVzpudNSbgU1Q18NLs2xsFpxsHMZn-gUhpU6CL6u8yTXlfsKRUH8-tSOzHYcURxvyov9K2J1MbhtjT1LpJ_NhMdSJkNtQ_2mmCdxqo_p4rWnDSHuga4JBqj_uIPUfhAdxLvssrNVk3-ipTp0VhEfll1_BCDeOdj57TU58i5Mf_7UI-RbU0NzqcXlNw1kyNODTUmStj2Zu3kUaHNDOz0r_kXfD_WuOLY3aF8wug11PcvK0uRBDTpYvus7dFvgXC2RUy5LwpiHRHQn4_IALHHY_ypfy41zLdr1Fg51uBKJ3q4XuAmvy1R_S7?></g></svg>