<?plantuml 1.2026.2?><svg xmlns="http://www.w3.org/2000/svg" xmlns:xlink="http://www.w3.org/1999/xlink" contentStyleType="text/css" data-diagram-type="DESCRIPTION" height="555px" preserveAspectRatio="none" style="width:1052px;height:555px;background:#FFFFFF;" version="1.1" viewBox="0 0 1052 555" width="1052px" zoomAndPan="magnify"><defs/><g><!--cluster k8s--><g class="cluster" data-qualified-name="k8s" data-source-line="9" id="ent0002"><polygon fill="#F4F6F8" points="16,16,26,6,1035,6,1035,528.44,1025,538.44,16,538.44,16,16" style="stroke:#A2B4C6;stroke-width:1;"/><line style="stroke:#A2B4C6;stroke-width:1;" x1="1025" x2="1035" y1="16" y2="6"/><line style="stroke:#A2B4C6;stroke-width:1;" x1="16" x2="1025" y1="16" y2="16"/><line style="stroke:#A2B4C6;stroke-width:1;" x1="1025" x2="1025" y1="16" y2="538.44"/><text fill="#000000" font-family="sans-serif" font-size="14" font-weight="bold" lengthAdjust="spacing" textLength="127.9141" x="457.543" y="32.5352">OpenShift Cluster</text></g><!--cluster Namespace: opf-sandbox--><g class="cluster" data-qualified-name="k8s.Namespace. opf-sandbox" data-source-line="13" id="ent0004"><polygon fill="#F4F6F8" points="40,165.49,50,155.49,1011,155.49,1011,504.44,1001,514.44,40,514.44,40,165.49" style="stroke:#A2B4C6;stroke-width:1;"/><line style="stroke:#A2B4C6;stroke-width:1;" x1="1001" x2="1011" y1="165.49" y2="155.49"/><line style="stroke:#A2B4C6;stroke-width:1;" x1="40" x2="1001" y1="165.49" y2="165.49"/><line style="stroke:#A2B4C6;stroke-width:1;" x1="1001" x2="1001" y1="165.49" y2="514.44"/><text fill="#000000" font-family="sans-serif" font-size="14" font-weight="bold" lengthAdjust="spacing" textLength="183.9893" x="429.5054" y="182.0252">Namespace: opf-sandbox</text></g><!--cluster Pod: Keycloak--><g class="cluster" data-qualified-name="k8s.Namespace. opf-sandbox.Pod. Keycloak" data-source-line="15" id="ent0005"><polygon fill="#F4F6F8" points="64,213.49,74,203.49,353,203.49,353,312.46,343,322.46,64,322.46,64,213.49" style="stroke:#A2B4C6;stroke-width:1;"/><line style="stroke:#A2B4C6;stroke-width:1;" x1="343" x2="353" y1="213.49" y2="203.49"/><line style="stroke:#A2B4C6;stroke-width:1;" x1="64" x2="343" y1="213.49" y2="213.49"/><line style="stroke:#A2B4C6;stroke-width:1;" x1="343" x2="343" y1="213.49" y2="322.46"/><text fill="#000000" font-family="sans-serif" font-size="14" font-weight="bold" lengthAdjust="spacing" textLength="99.2168" x="154.8916" y="230.0252">Pod: Keycloak</text></g><!--cluster Pod: MongoDB--><g class="cluster" data-qualified-name="k8s.Namespace. opf-sandbox.Pod. MongoDB" data-source-line="21" id="ent0009"><polygon fill="#F4F6F8" points="64,381.46,74,371.46,339,371.46,339,480.44,329,490.44,64,490.44,64,381.46" style="stroke:#A2B4C6;stroke-width:1;"/><line style="stroke:#A2B4C6;stroke-width:1;" x1="329" x2="339" y1="381.46" y2="371.46"/><line style="stroke:#A2B4C6;stroke-width:1;" x1="64" x2="329" y1="381.46" y2="381.46"/><line style="stroke:#A2B4C6;stroke-width:1;" x1="329" x2="329" y1="381.46" y2="490.44"/><text fill="#000000" font-family="sans-serif" font-size="14" font-weight="bold" lengthAdjust="spacing" textLength="103.8174" x="145.5913" y="397.9952">Pod: MongoDB</text></g><!--cluster Pod: Temporal--><g class="cluster" data-qualified-name="k8s.Namespace. opf-sandbox.Pod. Temporal" data-source-line="27" id="ent0013"><polygon fill="#F4F6F8" points="506,213.49,516,203.49,845,203.49,845,312.46,835,322.46,506,322.46,506,213.49" style="stroke:#A2B4C6;stroke-width:1;"/><line style="stroke:#A2B4C6;stroke-width:1;" x1="835" x2="845" y1="213.49" y2="203.49"/><line style="stroke:#A2B4C6;stroke-width:1;" x1="506" x2="835" y1="213.49" y2="213.49"/><line style="stroke:#A2B4C6;stroke-width:1;" x1="835" x2="835" y1="213.49" y2="322.46"/><text fill="#000000" font-family="sans-serif" font-size="14" font-weight="bold" lengthAdjust="spacing" textLength="103.6807" x="619.6597" y="230.0252">Pod: Temporal</text></g><!--cluster Pod: Postgres Vector--><g class="cluster" data-qualified-name="k8s.Namespace. opf-sandbox.Pod. Postgres Vector" data-source-line="33" id="ent0017"><polygon fill="#F4F6F8" points="363,381.46,373,371.46,648,371.46,648,480.44,638,490.44,363,490.44,363,381.46" style="stroke:#A2B4C6;stroke-width:1;"/><line style="stroke:#A2B4C6;stroke-width:1;" x1="638" x2="648" y1="381.46" y2="371.46"/><line style="stroke:#A2B4C6;stroke-width:1;" x1="363" x2="638" y1="381.46" y2="381.46"/><line style="stroke:#A2B4C6;stroke-width:1;" x1="638" x2="638" y1="381.46" y2="490.44"/><text fill="#000000" font-family="sans-serif" font-size="14" font-weight="bold" lengthAdjust="spacing" textLength="148.7432" x="427.1284" y="397.9952">Pod: Postgres Vector</text></g><!--cluster Pod: Kafka--><g class="cluster" data-qualified-name="k8s.Namespace. opf-sandbox.Pod. Kafka" data-source-line="39" id="ent0021"><polygon fill="#F4F6F8" points="672,381.46,682,371.46,987,371.46,987,480.44,977,490.44,672,490.44,672,381.46" style="stroke:#A2B4C6;stroke-width:1;"/><line style="stroke:#A2B4C6;stroke-width:1;" x1="977" x2="987" y1="381.46" y2="371.46"/><line style="stroke:#A2B4C6;stroke-width:1;" x1="672" x2="977" y1="381.46" y2="381.46"/><line style="stroke:#A2B4C6;stroke-width:1;" x1="977" x2="977" y1="381.46" y2="490.44"/><text fill="#000000" font-family="sans-serif" font-size="14" font-weight="bold" lengthAdjust="spacing" textLength="75.9404" x="787.5298" y="397.9952">Pod: Kafka</text></g><!--entity ingress--><g class="entity" data-qualified-name="k8s.ingress" data-source-line="11" id="ent0003"><rect fill="#FFFFFF" height="46.4883" rx="2.5" ry="2.5" style="stroke:#181818;stroke-width:0.5;" width="183.8828" x="49.06" y="46"/><rect fill="#FFFFFF" height="10" style="stroke:#181818;stroke-width:0.5;" width="15" x="212.9428" y="51"/><rect fill="#FFFFFF" height="2" style="stroke:#181818;stroke-width:0.5;" width="4" x="210.9428" y="53"/><rect fill="#FFFFFF" height="2" style="stroke:#181818;stroke-width:0.5;" width="4" x="210.9428" y="57"/><text fill="#000000" font-family="sans-serif" font-size="14" lengthAdjust="spacing" textLength="143.8828" x="64.06" y="79.5352">Istio Ingress Gateway</text></g><!--entity e1--><g class="entity" data-qualified-name="k8s.Namespace. opf-sandbox.Pod. Keycloak.e1" data-source-line="16" id="ent0006"><rect fill="#D3D3D3" height="62.9766" rx="2.5" ry="2.5" style="stroke:#181818;stroke-width:0.5;" width="121.833" x="80.08" y="243.49"/><rect fill="#D3D3D3" height="10" style="stroke:#181818;stroke-width:0.5;" width="15" x="181.913" y="248.49"/><rect fill="#D3D3D3" height="2" style="stroke:#181818;stroke-width:0.5;" width="4" x="179.913" y="250.49"/><rect fill="#D3D3D3" height="2" style="stroke:#181818;stroke-width:0.5;" width="4" x="179.913" y="254.49"/><text fill="#000000" font-family="sans-serif" font-size="14" lengthAdjust="spacing" textLength="81.833" x="95.08" y="277.0252">Envoy Proxy</text><text fill="#000000" font-family="sans-serif" font-size="14" lengthAdjust="spacing" textLength="63.499" x="95.08" y="293.5134">&#171;Sidecar&#187;</text></g><!--entity kc--><g class="entity" data-qualified-name="k8s.Namespace. opf-sandbox.Pod. Keycloak.kc" data-source-line="17" id="ent0007"><rect fill="#FFFFFF" height="46.4883" rx="2.5" ry="2.5" style="stroke:#181818;stroke-width:0.5;" width="99.9854" x="237.01" y="251.73"/><rect fill="#FFFFFF" height="10" style="stroke:#181818;stroke-width:0.5;" width="15" x="316.9954" y="256.73"/><rect fill="#FFFFFF" height="2" style="stroke:#181818;stroke-width:0.5;" width="4" x="314.9954" y="258.73"/><rect fill="#FFFFFF" height="2" style="stroke:#181818;stroke-width:0.5;" width="4" x="314.9954" y="262.73"/><text fill="#000000" font-family="sans-serif" font-size="14" lengthAdjust="spacing" textLength="59.9854" x="252.01" y="285.2652">Keycloak</text></g><!--entity e2--><g class="entity" data-qualified-name="k8s.Namespace. opf-sandbox.Pod. MongoDB.e2" data-source-line="22" id="ent0010"><rect fill="#D3D3D3" height="62.9766" rx="2.5" ry="2.5" style="stroke:#181818;stroke-width:0.5;" width="121.833" x="80.08" y="411.46"/><rect fill="#D3D3D3" height="10" style="stroke:#181818;stroke-width:0.5;" width="15" x="181.913" y="416.46"/><rect fill="#D3D3D3" height="2" style="stroke:#181818;stroke-width:0.5;" width="4" x="179.913" y="418.46"/><rect fill="#D3D3D3" height="2" style="stroke:#181818;stroke-width:0.5;" width="4" x="179.913" y="422.46"/><text fill="#000000" font-family="sans-serif" font-size="14" lengthAdjust="spacing" textLength="81.833" x="95.08" y="444.9952">Envoy Proxy</text><text fill="#000000" font-family="sans-serif" font-size="14" lengthAdjust="spacing" textLength="63.499" x="95.08" y="461.4834">&#171;Sidecar&#187;</text></g><!--entity mongo--><g class="entity" data-qualified-name="k8s.Namespace. opf-sandbox.Pod. MongoDB.mongo" data-source-line="23" id="ent0011"><path d="M237.39,430.21 C237.39,420.21 279.9974,420.21 279.9974,420.21 C279.9974,420.21 322.6048,420.21 322.6048,430.21 L322.6048,455.6983 C322.6048,465.6983 279.9974,465.6983 279.9974,465.6983 C279.9974,465.6983 237.39,465.6983 237.39,455.6983 L237.39,430.21" fill="#F1F1F1" style="stroke:#181818;stroke-width:0.5;"/><path d="M237.39,430.21 C237.39,440.21 279.9974,440.21 279.9974,440.21 C279.9974,440.21 322.6048,440.21 322.6048,430.21" fill="none" style="stroke:#181818;stroke-width:0.5;"/><text fill="#000000" font-family="sans-serif" font-size="14" lengthAdjust="spacing" textLength="65.2148" x="247.39" y="457.7452">MongoDB</text></g><!--entity e3--><g class="entity" data-qualified-name="k8s.Namespace. opf-sandbox.Pod. Temporal.e3" data-source-line="28" id="ent0014"><rect fill="#D3D3D3" height="62.9766" rx="2.5" ry="2.5" style="stroke:#181818;stroke-width:0.5;" width="121.833" x="522.08" y="243.49"/><rect fill="#D3D3D3" height="10" style="stroke:#181818;stroke-width:0.5;" width="15" x="623.913" y="248.49"/><rect fill="#D3D3D3" height="2" style="stroke:#181818;stroke-width:0.5;" width="4" x="621.913" y="250.49"/><rect fill="#D3D3D3" height="2" style="stroke:#181818;stroke-width:0.5;" width="4" x="621.913" y="254.49"/><text fill="#000000" font-family="sans-serif" font-size="14" lengthAdjust="spacing" textLength="81.833" x="537.08" y="277.0252">Envoy Proxy</text><text fill="#000000" font-family="sans-serif" font-size="14" lengthAdjust="spacing" textLength="63.499" x="537.08" y="293.5134">&#171;Sidecar&#187;</text></g><!--entity temp--><g class="entity" data-qualified-name="k8s.Namespace. opf-sandbox.Pod. Temporal.temp" data-source-line="29" id="ent0015"><rect fill="#FFFFFF" height="46.4883" rx="2.5" ry="2.5" style="stroke:#181818;stroke-width:0.5;" width="150.9131" x="678.54" y="251.73"/><rect fill="#FFFFFF" height="10" style="stroke:#181818;stroke-width:0.5;" width="15" x="809.4531" y="256.73"/><rect fill="#FFFFFF" height="2" style="stroke:#181818;stroke-width:0.5;" width="4" x="807.4531" y="258.73"/><rect fill="#FFFFFF" height="2" style="stroke:#181818;stroke-width:0.5;" width="4" x="807.4531" y="262.73"/><text fill="#000000" font-family="sans-serif" font-size="14" lengthAdjust="spacing" textLength="110.9131" x="693.54" y="285.2652">Temporal Server</text></g><!--entity e4--><g class="entity" data-qualified-name="k8s.Namespace. opf-sandbox.Pod. Postgres Vector.e4" data-source-line="34" id="ent0018"><rect fill="#D3D3D3" height="62.9766" rx="2.5" ry="2.5" style="stroke:#181818;stroke-width:0.5;" width="121.833" x="379.08" y="411.46"/><rect fill="#D3D3D3" height="10" style="stroke:#181818;stroke-width:0.5;" width="15" x="480.913" y="416.46"/><rect fill="#D3D3D3" height="2" style="stroke:#181818;stroke-width:0.5;" width="4" x="478.913" y="418.46"/><rect fill="#D3D3D3" height="2" style="stroke:#181818;stroke-width:0.5;" width="4" x="478.913" y="422.46"/><text fill="#000000" font-family="sans-serif" font-size="14" lengthAdjust="spacing" textLength="81.833" x="394.08" y="444.9952">Envoy Proxy</text><text fill="#000000" font-family="sans-serif" font-size="14" lengthAdjust="spacing" textLength="63.499" x="394.08" y="461.4834">&#171;Sidecar&#187;</text></g><!--entity pg--><g class="entity" data-qualified-name="k8s.Namespace. opf-sandbox.Pod. Postgres Vector.pg" data-source-line="35" id="ent0019"><path d="M535.58,421.96 C535.58,411.96 584.0048,411.96 584.0048,411.96 C584.0048,411.96 632.4296,411.96 632.4296,421.96 L632.4296,463.9366 C632.4296,473.9366 584.0048,473.9366 584.0048,473.9366 C584.0048,473.9366 535.58,473.9366 535.58,463.9366 L535.58,421.96" fill="#F1F1F1" style="stroke:#181818;stroke-width:0.5;"/><path d="M535.58,421.96 C535.58,431.96 584.0048,431.96 584.0048,431.96 C584.0048,431.96 632.4296,431.96 632.4296,421.96" fill="none" style="stroke:#181818;stroke-width:0.5;"/><text fill="#000000" font-family="sans-serif" font-size="14" lengthAdjust="spacing" textLength="76.8496" x="545.58" y="449.4952">PostgreSQL</text><text fill="#000000" font-family="sans-serif" font-size="14" lengthAdjust="spacing" textLength="73.9922" x="545.58" y="465.9834">&#171;pgvector&#187;</text></g><!--entity e5--><g class="entity" data-qualified-name="k8s.Namespace. opf-sandbox.Pod. Kafka.e5" data-source-line="40" id="ent0022"><rect fill="#D3D3D3" height="62.9766" rx="2.5" ry="2.5" style="stroke:#181818;stroke-width:0.5;" width="121.833" x="688.08" y="411.46"/><rect fill="#D3D3D3" height="10" style="stroke:#181818;stroke-width:0.5;" width="15" x="789.913" y="416.46"/><rect fill="#D3D3D3" height="2" style="stroke:#181818;stroke-width:0.5;" width="4" x="787.913" y="418.46"/><rect fill="#D3D3D3" height="2" style="stroke:#181818;stroke-width:0.5;" width="4" x="787.913" y="422.46"/><text fill="#000000" font-family="sans-serif" font-size="14" lengthAdjust="spacing" textLength="81.833" x="703.08" y="444.9952">Envoy Proxy</text><text fill="#000000" font-family="sans-serif" font-size="14" lengthAdjust="spacing" textLength="63.499" x="703.08" y="461.4834">&#171;Sidecar&#187;</text></g><!--entity kafka--><g class="entity" data-qualified-name="k8s.Namespace. opf-sandbox.Pod. Kafka.kafka" data-source-line="41" id="ent0023"><rect fill="#FFFFFF" height="46.4883" rx="2.5" ry="2.5" style="stroke:#181818;stroke-width:0.5;" width="126.4541" x="844.77" y="419.71"/><rect fill="#FFFFFF" height="10" style="stroke:#181818;stroke-width:0.5;" width="15" x="951.2241" y="424.71"/><rect fill="#FFFFFF" height="2" style="stroke:#181818;stroke-width:0.5;" width="4" x="949.2241" y="426.71"/><rect fill="#FFFFFF" height="2" style="stroke:#181818;stroke-width:0.5;" width="4" x="949.2241" y="430.71"/><text fill="#000000" font-family="sans-serif" font-size="14" lengthAdjust="spacing" textLength="86.4541" x="859.77" y="453.2452">Kafka Broker</text></g><!--link e1 to kc--><g class="link" data-entity-1="ent0006" data-entity-2="ent0007" data-link-type="dependency" data-source-line="18" id="lnk8"><path d="M208.31,274.98 C219.78,274.98 219.25,274.98 230.71,274.98" fill="none" id="e1-kc" style="stroke:#181818;stroke-width:1;"/><polygon fill="#181818" points="202.31,274.98,211.31,278.98,207.31,274.98,211.31,270.98,202.31,274.98" style="stroke:#181818;stroke-width:1;"/><polygon fill="#181818" points="236.71,274.98,227.71,270.98,231.71,274.98,227.71,278.98,236.71,274.98" style="stroke:#181818;stroke-width:1;"/></g><!--link e2 to mongo--><g class="link" data-entity-1="ent0010" data-entity-2="ent0011" data-link-type="dependency" data-source-line="24" id="lnk12"><path d="M208.36,442.95 C219.88,442.95 219.41,442.95 230.93,442.95" fill="none" id="e2-mongo" style="stroke:#181818;stroke-width:1;"/><polygon fill="#181818" points="202.36,442.95,211.36,446.95,207.36,442.95,211.36,438.95,202.36,442.95" style="stroke:#181818;stroke-width:1;"/><polygon fill="#181818" points="236.93,442.95,227.93,438.95,231.93,442.95,227.93,446.95,236.93,442.95" style="stroke:#181818;stroke-width:1;"/></g><!--link e3 to temp--><g class="link" data-entity-1="ent0014" data-entity-2="ent0015" data-link-type="dependency" data-source-line="30" id="lnk16"><path d="M650.12,274.98 C661.57,274.98 661.01,274.98 672.46,274.98" fill="none" id="e3-temp" style="stroke:#181818;stroke-width:1;"/><polygon fill="#181818" points="644.12,274.98,653.12,278.98,649.12,274.98,653.12,270.98,644.12,274.98" style="stroke:#181818;stroke-width:1;"/><polygon fill="#181818" points="678.46,274.98,669.46,270.98,673.46,274.98,669.46,278.98,678.46,274.98" style="stroke:#181818;stroke-width:1;"/></g><!--link e4 to pg--><g class="link" data-entity-1="ent0018" data-entity-2="ent0019" data-link-type="dependency" data-source-line="36" id="lnk20"><path d="M507.31,442.95 C518.62,442.95 517.92,442.95 529.23,442.95" fill="none" id="e4-pg" style="stroke:#181818;stroke-width:1;"/><polygon fill="#181818" points="501.31,442.95,510.31,446.95,506.31,442.95,510.31,438.95,501.31,442.95" style="stroke:#181818;stroke-width:1;"/><polygon fill="#181818" points="535.23,442.95,526.23,438.95,530.23,442.95,526.23,446.95,535.23,442.95" style="stroke:#181818;stroke-width:1;"/></g><!--link e5 to kafka--><g class="link" data-entity-1="ent0022" data-entity-2="ent0023" data-link-type="dependency" data-source-line="42" id="lnk24"><path d="M816.18,442.95 C827.64,442.95 827.1,442.95 838.57,442.95" fill="none" id="e5-kafka" style="stroke:#181818;stroke-width:1;"/><polygon fill="#181818" points="810.18,442.95,819.18,446.95,815.18,442.95,819.18,438.95,810.18,442.95" style="stroke:#181818;stroke-width:1;"/><polygon fill="#181818" points="844.57,442.95,835.57,438.95,839.57,442.95,835.57,446.95,844.57,442.95" style="stroke:#181818;stroke-width:1;"/></g><!--link ingress to e1--><g class="link" data-entity-1="ent0003" data-entity-2="ent0006" data-link-type="dependency" data-source-line="46" id="lnk25"><path d="M141,92.82 C141,129.4 141,195.65 141,237" fill="none" id="ingress-to-e1" style="stroke:#181818;stroke-width:1;"/><polygon fill="#181818" points="141,243,145,234,141,238,137,234,141,243" style="stroke:#181818;stroke-width:1;"/><text fill="#000000" font-family="sans-serif" font-size="13" lengthAdjust="spacing" textLength="85.2744" x="142" y="136.0584">/auth routing</text></g><!--link e1 to e2--><g class="link" data-entity-1="ent0006" data-entity-2="ent0010" data-link-type="dependency" data-source-line="47" id="lnk26"><path d="M141,306.81 C141,336.52 141,375.25 141,405.01" fill="none" id="e1-to-e2" style="stroke:#181818;stroke-width:1;"/><polygon fill="#181818" points="141,411.01,145,402.01,141,406.01,137,402.01,141,411.01" style="stroke:#181818;stroke-width:1;"/><text fill="#000000" font-family="sans-serif" font-size="13" lengthAdjust="spacing" textLength="107.561" x="142" y="352.0284">Stores Party Data</text></g><!--link e3 to e4--><g class="link" data-entity-1="ent0014" data-entity-2="ent0018" data-link-type="dependency" data-source-line="48" id="lnk27"><path d="M548.31,306.69 C537.87,316.49 526.64,327.61 517,338.46 C496.48,361.57 479.1484,384.923 464.3584,406.073" fill="none" id="e3-to-e4" style="stroke:#181818;stroke-width:1;"/><polygon fill="#181818" points="460.92,410.99,469.3557,405.9067,463.7854,406.8925,462.7996,401.3222,460.92,410.99" style="stroke:#181818;stroke-width:1;"/><text fill="#000000" font-family="sans-serif" font-size="13" lengthAdjust="spacing" textLength="136.9761" x="518" y="352.0284">Stores Workflow State</text></g><!--link e3 to e5--><g class="link" data-entity-1="ent0014" data-entity-2="ent0022" data-link-type="dependency" data-source-line="49" id="lnk28"><path d="M623.13,306.88 C635.03,316.6 647.86,327.62 659,338.46 C682.72,361.54 703.4149,385.4309 720.8449,406.6809" fill="none" id="e3-to-e5" style="stroke:#181818;stroke-width:1;"/><polygon fill="#181818" points="724.65,411.32,722.035,401.8246,721.4791,407.4541,715.8496,406.8981,724.65,411.32" style="stroke:#181818;stroke-width:1;"/><text fill="#000000" font-family="sans-serif" font-size="13" lengthAdjust="spacing" textLength="143.2983" x="675.76" y="352.0284">Task Queues / Outbox</text></g><?plantuml-src dLJ1JkCm4BtdAqRbN25AYb1LzL102B6x50N1XSiqST8egIUodKAqwhypSKnJhzGkQWvHClFclJUsnxh8POKAro0f4V0t07xc61UPebecDrIIWhCqJA_Iwov7AX7AnN6q3EEhO1le7KrCwugaaEOWbtsu9h2AWwTAo6YLfmPkobeReGQ06efhxGZigsSTF6YJ4pp8J0cjuHwD-C36rkHTBB0L7VaVN0jTOImcG5Kwr2YJ9NqE7FMElYzOK3A1Hz749M6nZ_l7nPtSK0CBHP_DkvnEepmHCQhPp1eH5t1MvjdAi9_c44ClqhORUp0cc0vd-z7jKSE_IMPqEp_Px-YGtmGDBb6ppaw2yUlsspSyieRzn77FBuBDAInFDdtvWqN-5e58g8qxMePZllbBQzwB7_U-8DtAQdWLiI5rSWlX_zVTIKNFlzhwAjjOHKTGPNuZeMraBtgyZKTC2ppP_FWdXxnLWBcYudkksu1lUjoTTI_H-Txs5u2RRHWobATZ0kTOcnNmnM8u5RYXiTaHPoDU8zwU1IhJm2qlPk0ssYB27l56gaXB-k1_laayr9XHBwWBUAv5pT1pUAeDtnx1zWi0?></g></svg>