<svg xmlns="http://www.w3.org/2000/svg" xmlns:xlink="http://www.w3.org/1999/xlink" contentStyleType="text/css" height="833px" preserveAspectRatio="none" style="width:1110px;height:833px;background:#FFFFFF;" version="1.1" viewBox="0 0 1110 833" width="1110px" zoomAndPan="magnify"><defs/><g><rect fill="#E0FFFF" height="821.4746" style="stroke:#181818;stroke-width:0.5;" width="141" x="514.5" y="6"/><text fill="#000000" font-family="sans-serif" font-size="13" font-weight="bold" lengthAdjust="spacing" textLength="135" x="517.5" y="18.5684">Nebras MCP Module</text><rect fill="#FAFAD2" height="821.4746" style="stroke:#181818;stroke-width:0.5;" width="384.5" x="707.5" y="6"/><text fill="#000000" font-family="sans-serif" font-size="13" font-weight="bold" lengthAdjust="spacing" textLength="122" x="838.75" y="18.5684">Agentive Platform</text><line style="stroke:#181818;stroke-width:0.5;stroke-dasharray:5.0,5.0;" x1="156" x2="156" y1="97.9766" y2="731.498"/><line style="stroke:#181818;stroke-width:0.5;stroke-dasharray:5.0,5.0;" x1="584.5" x2="584.5" y1="97.9766" y2="731.498"/><line style="stroke:#181818;stroke-width:0.5;stroke-dasharray:5.0,5.0;" x1="779.5" x2="779.5" y1="97.9766" y2="731.498"/><line style="stroke:#181818;stroke-width:0.5;stroke-dasharray:5.0,5.0;" x1="983" x2="983" y1="97.9766" y2="731.498"/><text fill="#000000" font-family="sans-serif" font-size="14" lengthAdjust="spacing" textLength="100" x="103" y="78.5352">LLM / AI Agent</text><text fill="#000000" font-family="sans-serif" font-size="14" lengthAdjust="spacing" textLength="91" x="107.5" y="95.0234">(e.g., Claude)</text><ellipse cx="156" cy="13.5" fill="#E2E2F0" rx="8" ry="8" style="stroke:#181818;stroke-width:0.5;"/><path d="M156,21.5 L156,48.5 M143,29.5 L169,29.5 M156,48.5 L143,63.5 M156,48.5 L169,63.5 " fill="none" style="stroke:#181818;stroke-width:0.5;"/><text fill="#000000" font-family="sans-serif" font-size="14" lengthAdjust="spacing" textLength="100" x="103" y="744.0332">LLM / AI Agent</text><text fill="#000000" font-family="sans-serif" font-size="14" lengthAdjust="spacing" textLength="91" x="107.5" y="760.5215">(e.g., Claude)</text><ellipse cx="156" cy="771.9746" fill="#E2E2F0" rx="8" ry="8" style="stroke:#181818;stroke-width:0.5;"/><path d="M156,779.9746 L156,806.9746 M143,787.9746 L169,787.9746 M156,806.9746 L143,821.9746 M156,806.9746 L169,821.9746 " fill="none" style="stroke:#181818;stroke-width:0.5;"/><rect fill="#E2E2F0" height="30.4883" rx="2.5" ry="2.5" style="stroke:#181818;stroke-width:0.5;" width="91" x="539.5" y="66.4883"/><text fill="#000000" font-family="sans-serif" font-size="14" lengthAdjust="spacing" textLength="77" x="546.5" y="87.0234">MCP Server</text><rect fill="#E2E2F0" height="30.4883" rx="2.5" ry="2.5" style="stroke:#181818;stroke-width:0.5;" width="91" x="539.5" y="730.498"/><text fill="#000000" font-family="sans-serif" font-size="14" lengthAdjust="spacing" textLength="77" x="546.5" y="751.0332">MCP Server</text><rect fill="#E2E2F0" height="30.4883" rx="2.5" ry="2.5" style="stroke:#181818;stroke-width:0.5;" width="97" x="731.5" y="66.4883"/><text fill="#000000" font-family="sans-serif" font-size="14" lengthAdjust="spacing" textLength="83" x="738.5" y="87.0234">API Gateway</text><rect fill="#E2E2F0" height="30.4883" rx="2.5" ry="2.5" style="stroke:#181818;stroke-width:0.5;" width="97" x="731.5" y="730.498"/><text fill="#000000" font-family="sans-serif" font-size="14" lengthAdjust="spacing" textLength="83" x="738.5" y="751.0332">API Gateway</text><rect fill="#E2E2F0" height="30.4883" rx="2.5" ry="2.5" style="stroke:#181818;stroke-width:0.5;" width="170" x="898" y="66.4883"/><text fill="#000000" font-family="sans-serif" font-size="14" lengthAdjust="spacing" textLength="156" x="905" y="87.0234">Cognitive Orchestrator</text><rect fill="#E2E2F0" height="30.4883" rx="2.5" ry="2.5" style="stroke:#181818;stroke-width:0.5;" width="170" x="898" y="730.498"/><text fill="#000000" font-family="sans-serif" font-size="14" lengthAdjust="spacing" textLength="156" x="905" y="751.0332">Cognitive Orchestrator</text><rect fill="#EEEEEE" height="3" style="stroke:#EEEEEE;stroke-width:1.0;" width="1103" x="0" y="128.6318"/><line style="stroke:#000000;stroke-width:1.0;" x1="0" x2="1103" y1="128.6318" y2="128.6318"/><line style="stroke:#000000;stroke-width:1.0;" x1="0" x2="1103" y1="131.6318" y2="131.6318"/><rect fill="#EEEEEE" height="23.3105" style="stroke:#000000;stroke-width:2.0;" width="133" x="485" y="117.9766"/><text fill="#000000" font-family="sans-serif" font-size="13" font-weight="bold" lengthAdjust="spacing" textLength="115" x="491" y="134.5449">1. Tool Discovery</text><polygon fill="#181818" points="573,168.5977,583,172.5977,573,176.5977,577,172.5977" style="stroke:#181818;stroke-width:1.0;"/><line style="stroke:#181818;stroke-width:1.0;" x1="156" x2="579" y1="172.5977" y2="172.5977"/><text fill="#000000" font-family="sans-serif" font-size="13" lengthAdjust="spacing" textLength="108" x="163" y="167.8555">ListToolsRequest</text><polygon fill="#181818" points="167,243.8398,157,247.8398,167,251.8398,163,247.8398" style="stroke:#181818;stroke-width:1.0;"/><line style="stroke:#181818;stroke-width:1.0;stroke-dasharray:2.0,2.0;" x1="161" x2="584" y1="247.8398" y2="247.8398"/><text fill="#000000" font-family="sans-serif" font-size="13" lengthAdjust="spacing" textLength="91" x="173" y="197.166">Returns Tools:</text><text fill="#000000" font-family="sans-serif" font-size="13" lengthAdjust="spacing" textLength="162" x="173" y="212.4766">- nebras_initiate_consent</text><text fill="#000000" font-family="sans-serif" font-size="13" lengthAdjust="spacing" textLength="196" x="173" y="227.7871">- nebras_execute_salary_batch</text><text fill="#000000" font-family="sans-serif" font-size="13" lengthAdjust="spacing" textLength="175" x="173" y="243.0977">- nebras_execute_car_lease</text><rect fill="#EEEEEE" height="3" style="stroke:#EEEEEE;stroke-width:1.0;" width="1103" x="0" y="276.4951"/><line style="stroke:#000000;stroke-width:1.0;" x1="0" x2="1103" y1="276.4951" y2="276.4951"/><line style="stroke:#000000;stroke-width:1.0;" x1="0" x2="1103" y1="279.4951" y2="279.4951"/><rect fill="#EEEEEE" height="23.3105" style="stroke:#000000;stroke-width:2.0;" width="193" x="455" y="265.8398"/><text fill="#000000" font-family="sans-serif" font-size="13" font-weight="bold" lengthAdjust="spacing" textLength="175" x="461" y="282.4082">2. Consent Flow Execution</text><polygon fill="#181818" points="573,316.4609,583,320.4609,573,324.4609,577,320.4609" style="stroke:#181818;stroke-width:1.0;"/><line style="stroke:#181818;stroke-width:1.0;" x1="156" x2="579" y1="320.4609" y2="320.4609"/><text fill="#000000" font-family="sans-serif" font-size="13" lengthAdjust="spacing" textLength="404" x="163" y="315.7188">CallTool(nebras_initiate_consent, {scope: DOMESTIC_PAYMENT})</text><polygon fill="#181818" points="167,345.7715,157,349.7715,167,353.7715,163,349.7715" style="stroke:#181818;stroke-width:1.0;"/><line style="stroke:#181818;stroke-width:1.0;stroke-dasharray:2.0,2.0;" x1="161" x2="584" y1="349.7715" y2="349.7715"/><text fill="#000000" font-family="sans-serif" font-size="13" lengthAdjust="spacing" textLength="224" x="173" y="345.0293">Returns UAE Pass URL &amp; Consent ID</text><rect fill="#EEEEEE" height="3" style="stroke:#EEEEEE;stroke-width:1.0;" width="1103" x="0" y="378.4268"/><line style="stroke:#000000;stroke-width:1.0;" x1="0" x2="1103" y1="378.4268" y2="378.4268"/><line style="stroke:#000000;stroke-width:1.0;" x1="0" x2="1103" y1="381.4268" y2="381.4268"/><rect fill="#EEEEEE" height="23.3105" style="stroke:#000000;stroke-width:2.0;" width="163" x="470" y="367.7715"/><text fill="#000000" font-family="sans-serif" font-size="13" font-weight="bold" lengthAdjust="spacing" textLength="145" x="476" y="384.3398">3. Payment Execution</text><polygon fill="#181818" points="573,418.3926,583,422.3926,573,426.3926,577,422.3926" style="stroke:#181818;stroke-width:1.0;"/><line style="stroke:#181818;stroke-width:1.0;" x1="156" x2="579" y1="422.3926" y2="422.3926"/><text fill="#000000" font-family="sans-serif" font-size="13" lengthAdjust="spacing" textLength="364" x="163" y="417.6504">CallTool(nebras_execute_salary_batch, {amount: 250000})</text><path d="M451,435.3926 L451,460.3926 L718,460.3926 L718,445.3926 L708,435.3926 L451,435.3926 " fill="#FEFFDD" style="stroke:#181818;stroke-width:0.5;"/><path d="M708,435.3926 L708,445.3926 L718,445.3926 L708,435.3926 " fill="#FEFFDD" style="stroke:#181818;stroke-width:0.5;"/><text fill="#000000" font-family="sans-serif" font-size="13" lengthAdjust="spacing" textLength="246" x="457" y="452.9609">MCP Maps to Open Finance JSON Intent</text><polygon fill="#181818" points="768,498.3242,778,502.3242,768,506.3242,772,502.3242" style="stroke:#181818;stroke-width:1.0;"/><line style="stroke:#181818;stroke-width:1.0;" x1="585" x2="774" y1="502.3242" y2="502.3242"/><text fill="#000000" font-family="sans-serif" font-size="13" lengthAdjust="spacing" textLength="170" x="592" y="482.2715">POST /domestic-payments</text><text fill="#000000" font-family="sans-serif" font-size="13" lengthAdjust="spacing" textLength="123" x="592" y="497.582">(Encrypted payload)</text><polygon fill="#181818" points="971,527.6348,981,531.6348,971,535.6348,975,531.6348" style="stroke:#181818;stroke-width:1.0;"/><line style="stroke:#181818;stroke-width:1.0;" x1="780" x2="977" y1="531.6348" y2="531.6348"/><text fill="#000000" font-family="sans-serif" font-size="13" lengthAdjust="spacing" textLength="179" x="787" y="526.8926">Route to Temporal Workflow</text><polygon fill="#181818" points="791,556.9453,781,560.9453,791,564.9453,787,560.9453" style="stroke:#181818;stroke-width:1.0;"/><line style="stroke:#181818;stroke-width:1.0;stroke-dasharray:2.0,2.0;" x1="785" x2="982" y1="560.9453" y2="560.9453"/><text fill="#000000" font-family="sans-serif" font-size="13" lengthAdjust="spacing" textLength="55" x="797" y="556.2031">Intent ID</text><polygon fill="#181818" points="596,586.2559,586,590.2559,596,594.2559,592,590.2559" style="stroke:#181818;stroke-width:1.0;"/><line style="stroke:#181818;stroke-width:1.0;stroke-dasharray:2.0,2.0;" x1="590" x2="779" y1="590.2559" y2="590.2559"/><text fill="#000000" font-family="sans-serif" font-size="13" lengthAdjust="spacing" textLength="55" x="602" y="585.5137">Intent ID</text><polygon fill="#181818" points="167,615.5664,157,619.5664,167,623.5664,163,619.5664" style="stroke:#181818;stroke-width:1.0;"/><line style="stroke:#181818;stroke-width:1.0;stroke-dasharray:2.0,2.0;" x1="161" x2="584" y1="619.5664" y2="619.5664"/><text fill="#000000" font-family="sans-serif" font-size="13" lengthAdjust="spacing" textLength="175" x="173" y="614.8242">Returns Success + Intent ID</text><rect fill="#EEEEEE" height="3" style="stroke:#EEEEEE;stroke-width:1.0;" width="1103" x="0" y="648.2217"/><line style="stroke:#000000;stroke-width:1.0;" x1="0" x2="1103" y1="648.2217" y2="648.2217"/><line style="stroke:#000000;stroke-width:1.0;" x1="0" x2="1103" y1="651.2217" y2="651.2217"/><rect fill="#EEEEEE" height="23.3105" style="stroke:#000000;stroke-width:2.0;" width="182" x="460.5" y="637.5664"/><text fill="#000000" font-family="sans-serif" font-size="13" font-weight="bold" lengthAdjust="spacing" textLength="164" x="466.5" y="654.1348">4. AI Context Awareness</text><path d="M5,675.877 L5,715.877 L307,715.877 L307,685.877 L297,675.877 L5,675.877 " fill="#FEFFDD" style="stroke:#181818;stroke-width:0.5;"/><path d="M297,675.877 L297,685.877 L307,685.877 L297,675.877 " fill="#FEFFDD" style="stroke:#181818;stroke-width:0.5;"/><text fill="#000000" font-family="sans-serif" font-size="13" lengthAdjust="spacing" textLength="247" x="11" y="693.4453">AI now knows the batch was submitted</text><text fill="#000000" font-family="sans-serif" font-size="13" lengthAdjust="spacing" textLength="281" x="11" y="708.7559">and can continue its autonomous reasoning.</text><!--SRC=[bLHTRzf047pthrXHgKhKu7oqVK4Y4YKaekB30gegKYIqd3TmYhtdtfq3gEf_xzuHe96IX_A0pCvuF3itnZrfhj1Y2HbQhvMka7s6UQvv2LSNYJlWtyncFx-yI19KtbXe30P3E8TE7pfBOl_09vGkqpFe5bZdTDe0T3iaMPWDD4Qqi38PTZCOchmkg04V1dgvyjqjSb8T7K0ZSAPadyb64VcP4ESWCibEAyhgPuAiGFzeRBdNkZD5JZmn-JqLXLc_bkraVRX3JslSHjsNwzUahbcoZjfZgrRal4LPDl85Elfej-4oXPan1TnefuoOtKAxdKHhqBoEYxPWe9qF93UXNxMe9M7S57Z7Qy64V6tPHINNUk0cS0ngheCDSJXNXbtCzm3HXbGjYCC2xNQ-GAzMRy0AxRmWT1JTNgMoG5I2Mua6Uf6b3R_Xkej54GoTlEFb37xBoXMru6Oyx4rd_UuywzmFUwFPdzDtD_pHwKdHd5nC1l3nOAP_4-rzJWNSbc7oFyxUYaBSOMbgzYsu-deX7p75nXE4GthHYJN4oe4tCAw8uLOpiYBuFXsFeCy-z3PkShtlYToLZQSpECzDAIUfLRFQ6NPI_HuhkwqyvI33mc1-cknl4mLfJWZ2YDFmm1cLbR5Om4zZdnv3JmEX-UfHEmiXdOFE8OGZzbxMqrefagW__SCDANz9m_igqNlQUEYiqH87dWHzJ6Wl9aoMeZp9b-Iq8eZfmbfU1LSlIkrbtGT9BGU5358DhxacqDu1rjwmaKDmOAM1XkMl8qt-0W00]--></g></svg>