<?plantuml 1.2026.2?><svg xmlns="http://www.w3.org/2000/svg" xmlns:xlink="http://www.w3.org/1999/xlink" contentStyleType="text/css" data-diagram-type="CLASS" height="812px" preserveAspectRatio="none" style="width:1710px;height:812px;background:#FFFFFF;" version="1.1" viewBox="0 0 1710 812" width="1710px" zoomAndPan="magnify"><defs/><g><!--cluster com--><g class="cluster" data-qualified-name="com" data-source-line="5" id="ent0004"><path d="M8.5,6 L39.4688,6 A3.75,3.75 0 0 1 41.9688,8.5 L48.9688,28.4883 L1700.5,28.4883 A2.5,2.5 0 0 1 1703,30.9883 L1703,802.87 A2.5,2.5 0 0 1 1700.5,805.37 L8.5,805.37 A2.5,2.5 0 0 1 6,802.87 L6,8.5 A2.5,2.5 0 0 1 8.5,6" fill="none" style="stroke:#000000;stroke-width:1.5;"/><line style="stroke:#000000;stroke-width:1.5;" x1="6" x2="48.9688" y1="28.4883" y2="28.4883"/><text fill="#000000" font-family="sans-serif" font-size="14" font-weight="bold" lengthAdjust="spacing" textLength="29.9688" x="10" y="21.5352">com</text></g><!--cluster xbank--><g class="cluster" data-qualified-name="com.xbank" data-source-line="5" id="ent0005"><path d="M32.5,49 L77.332,49 A3.75,3.75 0 0 1 79.832,51.5 L86.832,71.4883 L1676.5,71.4883 A2.5,2.5 0 0 1 1679,73.9883 L1679,778.87 A2.5,2.5 0 0 1 1676.5,781.37 L32.5,781.37 A2.5,2.5 0 0 1 30,778.87 L30,51.5 A2.5,2.5 0 0 1 32.5,49" fill="none" style="stroke:#000000;stroke-width:1.5;"/><line style="stroke:#000000;stroke-width:1.5;" x1="30" x2="86.832" y1="71.4883" y2="71.4883"/><text fill="#000000" font-family="sans-serif" font-size="14" font-weight="bold" lengthAdjust="spacing" textLength="43.832" x="34" y="64.5352">xbank</text></g><!--cluster opf--><g class="cluster" data-qualified-name="com.xbank.opf" data-source-line="5" id="ent0006"><path d="M56.5,92 L81.5215,92 A3.75,3.75 0 0 1 84.0215,94.5 L91.0215,114.4883 L1652.5,114.4883 A2.5,2.5 0 0 1 1655,116.9883 L1655,754.87 A2.5,2.5 0 0 1 1652.5,757.37 L56.5,757.37 A2.5,2.5 0 0 1 54,754.87 L54,94.5 A2.5,2.5 0 0 1 56.5,92" fill="none" style="stroke:#000000;stroke-width:1.5;"/><line style="stroke:#000000;stroke-width:1.5;" x1="54" x2="91.0215" y1="114.4883" y2="114.4883"/><text fill="#000000" font-family="sans-serif" font-size="14" font-weight="bold" lengthAdjust="spacing" textLength="24.0215" x="58" y="107.5352">opf</text></g><!--cluster sdk--><g class="cluster" data-qualified-name="com.xbank.opf.sdk" data-source-line="3" id="ent0002"><path d="M80.5,135 L107.5518,135 A3.75,3.75 0 0 1 110.0518,137.5 L117.0518,157.4883 L1628.5,157.4883 A2.5,2.5 0 0 1 1631,159.9883 L1631,730.87 A2.5,2.5 0 0 1 1628.5,733.37 L80.5,733.37 A2.5,2.5 0 0 1 78,730.87 L78,137.5 A2.5,2.5 0 0 1 80.5,135" fill="none" style="stroke:#000000;stroke-width:1.5;"/><line style="stroke:#000000;stroke-width:1.5;" x1="78" x2="117.0518" y1="157.4883" y2="157.4883"/><text fill="#000000" font-family="sans-serif" font-size="14" font-weight="bold" lengthAdjust="spacing" textLength="26.0518" x="82" y="150.5352">sdk</text></g><!--cluster security--><g class="cluster" data-qualified-name="com.xbank.opf.sdk.security" data-source-line="19" id="ent0008"><path d="M104.5,379.93 L163.0176,379.93 A3.75,3.75 0 0 1 165.5176,382.43 L172.5176,402.4183 L894.5,402.4183 A2.5,2.5 0 0 1 897,404.9183 L897,509.41 A2.5,2.5 0 0 1 894.5,511.91 L104.5,511.91 A2.5,2.5 0 0 1 102,509.41 L102,382.43 A2.5,2.5 0 0 1 104.5,379.93" fill="none" style="stroke:#000000;stroke-width:1.5;"/><line style="stroke:#000000;stroke-width:1.5;" x1="102" x2="172.5176" y1="402.4183" y2="402.4183"/><text fill="#000000" font-family="sans-serif" font-size="14" font-weight="bold" lengthAdjust="spacing" textLength="57.5176" x="106" y="395.4652">security</text></g><!--cluster mapper--><g class="cluster" data-qualified-name="com.xbank.opf.sdk.mapper" data-source-line="31" id="ent0011"><path d="M923.5,379.93 L979.4268,379.93 A3.75,3.75 0 0 1 981.9268,382.43 L988.9268,402.4183 L1358.5,402.4183 A2.5,2.5 0 0 1 1361,404.9183 L1361,509.41 A2.5,2.5 0 0 1 1358.5,511.91 L923.5,511.91 A2.5,2.5 0 0 1 921,509.41 L921,382.43 A2.5,2.5 0 0 1 923.5,379.93" fill="none" style="stroke:#000000;stroke-width:1.5;"/><line style="stroke:#000000;stroke-width:1.5;" x1="921" x2="988.9268" y1="402.4183" y2="402.4183"/><text fill="#000000" font-family="sans-serif" font-size="14" font-weight="bold" lengthAdjust="spacing" textLength="54.9268" x="925" y="395.4652">mapper</text></g><!--cluster domain--><g class="cluster" data-qualified-name="com.xbank.opf.sdk.domain" data-source-line="38" id="ent0013"><path d="M1085.5,560.91 L1140.2715,560.91 A3.75,3.75 0 0 1 1142.7715,563.41 L1149.7715,583.3983 L1547.5,583.3983 A2.5,2.5 0 0 1 1550,585.8983 L1550,706.87 A2.5,2.5 0 0 1 1547.5,709.37 L1085.5,709.37 A2.5,2.5 0 0 1 1083,706.87 L1083,563.41 A2.5,2.5 0 0 1 1085.5,560.91" fill="none" style="stroke:#000000;stroke-width:1.5;"/><line style="stroke:#000000;stroke-width:1.5;" x1="1083" x2="1149.7715" y1="583.3983" y2="583.3983"/><text fill="#000000" font-family="sans-serif" font-size="14" font-weight="bold" lengthAdjust="spacing" textLength="53.7715" x="1087" y="576.4452">domain</text></g><!--class NebrasClient--><g class="entity" data-qualified-name="com.xbank.opf.sdk.NebrasClient" data-source-line="5" id="ent0003"><rect fill="#F1F1F1" height="146.9297" rx="2.5" ry="2.5" style="stroke:#181818;stroke-width:0.5;" width="405.1211" x="864.44" y="170"/><ellipse cx="1019.2227" cy="186" fill="#ADD1B2" rx="11" ry="11" style="stroke:#181818;stroke-width:1;"/><path d="M1021.6959,192.1431 Q1021.1148,192.4419 1020.4756,192.5913 Q1019.8365,192.7407 1019.1309,192.7407 Q1016.6241,192.7407 1015.3043,191.0889 Q1013.9844,189.437 1013.9844,186.3159 Q1013.9844,183.1865 1015.3043,181.5347 Q1016.6241,179.8828 1019.1309,179.8828 Q1019.8365,179.8828 1020.4839,180.0322 Q1021.1314,180.1816 1021.6959,180.4805 L1021.6959,183.2031 Q1021.065,182.6221 1020.4715,182.3523 Q1019.878,182.0825 1019.2471,182.0825 Q1017.9024,182.0825 1017.2176,183.1492 Q1016.5328,184.2158 1016.5328,186.3159 Q1016.5328,188.4077 1017.2176,189.4744 Q1017.9024,190.541 1019.2471,190.541 Q1019.878,190.541 1020.4715,190.2712 Q1021.065,190.0015 1021.6959,189.4204 Z " fill="#000000"/><text fill="#000000" font-family="sans-serif" font-size="14" lengthAdjust="spacing" textLength="87.0557" x="1039.7227" y="191.291">NebrasClient</text><line style="stroke:#181818;stroke-width:0.5;" x1="865.44" x2="1268.5611" y1="202" y2="202"/><text fill="#000000" font-family="sans-serif" font-size="14" lengthAdjust="spacing" textLength="102.334" x="870.44" y="219.5352">-String clientId</text><text fill="#000000" font-family="sans-serif" font-size="14" lengthAdjust="spacing" textLength="151.9629" x="870.44" y="236.0234">-String privateKeyPem</text><text fill="#000000" font-family="sans-serif" font-size="14" lengthAdjust="spacing" textLength="256.7168" x="870.44" y="252.5117">-ApiTokenizationService tokenService</text><line style="stroke:#181818;stroke-width:0.5;" x1="865.44" x2="1268.5611" y1="259.4648" y2="259.4648"/><text fill="#000000" font-family="sans-serif" font-size="14" lengthAdjust="spacing" textLength="334.8447" x="870.44" y="277">+executeSalaryBatch(SalaryBatchRequest) : String</text><text fill="#000000" font-family="sans-serif" font-size="14" lengthAdjust="spacing" textLength="393.1211" x="870.44" y="293.4883">+executeCarLeasePayment(CarLeaseLoanRequest) : String</text><text fill="#000000" font-family="sans-serif" font-size="14" lengthAdjust="spacing" textLength="202.501" x="870.44" y="309.9766">-generateDpopProof() : String</text></g><!--class WorkflowWatcher--><g class="entity" data-qualified-name="com.xbank.opf.sdk.WorkflowWatcher" data-source-line="14" id="ent0007"><rect fill="#F1F1F1" height="64.4883" rx="2.5" ry="2.5" style="stroke:#181818;stroke-width:0.5;" width="310.6553" x="1304.67" y="211.22"/><ellipse cx="1397.0474" cy="227.22" fill="#ADD1B2" rx="11" ry="11" style="stroke:#181818;stroke-width:1;"/><path d="M1399.5206,233.3631 Q1398.9395,233.6619 1398.3004,233.8113 Q1397.6612,233.9607 1396.9556,233.9607 Q1394.4488,233.9607 1393.129,232.3089 Q1391.8092,230.657 1391.8092,227.5359 Q1391.8092,224.4065 1393.129,222.7547 Q1394.4488,221.1028 1396.9556,221.1028 Q1397.6612,221.1028 1398.3087,221.2522 Q1398.9561,221.4016 1399.5206,221.7005 L1399.5206,224.4231 Q1398.8897,223.8421 1398.2962,223.5723 Q1397.7027,223.3025 1397.0719,223.3025 Q1395.7271,223.3025 1395.0423,224.3692 Q1394.3575,225.4358 1394.3575,227.5359 Q1394.3575,229.6277 1395.0423,230.6944 Q1395.7271,231.761 1397.0719,231.761 Q1397.7027,231.761 1398.2962,231.4912 Q1398.8897,231.2215 1399.5206,230.6404 Z " fill="#000000"/><text fill="#000000" font-family="sans-serif" font-size="14" lengthAdjust="spacing" textLength="117.4004" x="1417.5474" y="232.511">WorkflowWatcher</text><line style="stroke:#181818;stroke-width:0.5;" x1="1305.67" x2="1614.3253" y1="243.22" y2="243.22"/><line style="stroke:#181818;stroke-width:0.5;" x1="1305.67" x2="1614.3253" y1="251.22" y2="251.22"/><text fill="#000000" font-family="sans-serif" font-size="14" lengthAdjust="spacing" textLength="298.6553" x="1310.67" y="268.7552">+waitForCompletion(String intentId) : String</text></g><!--class ConsentManager--><g class="entity" data-qualified-name="com.xbank.opf.sdk.security.ConsentManager" data-source-line="20" id="ent0009"><rect fill="#F1F1F1" height="80.9766" rx="2.5" ry="2.5" style="stroke:#181818;stroke-width:0.5;" width="346.7832" x="117.61" y="414.93"/><ellipse cx="229.5997" cy="430.93" fill="#ADD1B2" rx="11" ry="11" style="stroke:#181818;stroke-width:1;"/><path d="M232.0729,437.0731 Q231.4918,437.3719 230.8527,437.5213 Q230.2135,437.6707 229.5079,437.6707 Q227.0011,437.6707 225.6813,436.0189 Q224.3615,434.367 224.3615,431.2459 Q224.3615,428.1165 225.6813,426.4647 Q227.0011,424.8128 229.5079,424.8128 Q230.2135,424.8128 230.861,424.9622 Q231.5084,425.1116 232.0729,425.4105 L232.0729,428.1331 Q231.442,427.5521 230.8485,427.2823 Q230.255,427.0125 229.6242,427.0125 Q228.2794,427.0125 227.5946,428.0792 Q226.9098,429.1458 226.9098,431.2459 Q226.9098,433.3377 227.5946,434.4044 Q228.2794,435.471 229.6242,435.471 Q230.255,435.471 230.8485,435.2012 Q231.442,434.9315 232.0729,434.3504 Z " fill="#000000"/><text fill="#000000" font-family="sans-serif" font-size="14" lengthAdjust="spacing" textLength="114.3037" x="250.0997" y="436.221">ConsentManager</text><line style="stroke:#181818;stroke-width:0.5;" x1="118.61" x2="463.3932" y1="446.93" y2="446.93"/><line style="stroke:#181818;stroke-width:0.5;" x1="118.61" x2="463.3932" y1="454.93" y2="454.93"/><text fill="#000000" font-family="sans-serif" font-size="14" lengthAdjust="spacing" textLength="291.0195" x="123.61" y="472.4652">+initiateConsentFlow(String scope) : String</text><text fill="#000000" font-family="sans-serif" font-size="14" lengthAdjust="spacing" textLength="334.7832" x="123.61" y="488.9534">+checkConsentStatus(String consentId) : boolean</text></g><!--class ApiTokenizationService--><g class="entity" data-qualified-name="com.xbank.opf.sdk.security.ApiTokenizationService" data-source-line="25" id="ent0010"><rect fill="#F1F1F1" height="80.9766" rx="2.5" ry="2.5" style="stroke:#181818;stroke-width:0.5;" width="381.0449" x="499.48" y="414.93"/><ellipse cx="606.5786" cy="430.93" fill="#ADD1B2" rx="11" ry="11" style="stroke:#181818;stroke-width:1;"/><path d="M609.0518,437.0731 Q608.4707,437.3719 607.8316,437.5213 Q607.1924,437.6707 606.4868,437.6707 Q603.98,437.6707 602.6602,436.0189 Q601.3404,434.367 601.3404,431.2459 Q601.3404,428.1165 602.6602,426.4647 Q603.98,424.8128 606.4868,424.8128 Q607.1924,424.8128 607.8399,424.9622 Q608.4873,425.1116 609.0518,425.4105 L609.0518,428.1331 Q608.4209,427.5521 607.8274,427.2823 Q607.2339,427.0125 606.603,427.0125 Q605.2583,427.0125 604.5735,428.0792 Q603.8887,429.1458 603.8887,431.2459 Q603.8887,433.3377 604.5735,434.4044 Q605.2583,435.471 606.603,435.471 Q607.2339,435.471 607.8274,435.2012 Q608.4209,434.9315 609.0518,434.3504 Z " fill="#000000"/><text fill="#000000" font-family="sans-serif" font-size="14" lengthAdjust="spacing" textLength="158.3477" x="627.0786" y="436.221">ApiTokenizationService</text><line style="stroke:#181818;stroke-width:0.5;" x1="500.48" x2="879.5249" y1="446.93" y2="446.93"/><line style="stroke:#181818;stroke-width:0.5;" x1="500.48" x2="879.5249" y1="454.93" y2="454.93"/><text fill="#000000" font-family="sans-serif" font-size="14" lengthAdjust="spacing" textLength="369.0449" x="505.48" y="472.4652">+exchangeConsentForToken(String consentId) : String</text><text fill="#000000" font-family="sans-serif" font-size="14" lengthAdjust="spacing" textLength="298.1973" x="505.48" y="488.9534">+refreshToken(String refreshToken) : String</text></g><!--class NebrasIntentMapper--><g class="entity" data-qualified-name="com.xbank.opf.sdk.mapper.NebrasIntentMapper" data-source-line="32" id="ent0012"><rect fill="#F1F1F1" height="80.9766" rx="2.5" ry="2.5" style="stroke:#181818;stroke-width:0.5;" width="407.9375" x="937.03" y="414.93"/><ellipse cx="1067.6613" cy="430.93" fill="#ADD1B2" rx="11" ry="11" style="stroke:#181818;stroke-width:1;"/><path d="M1070.1345,437.0731 Q1069.5534,437.3719 1068.9143,437.5213 Q1068.2751,437.6707 1067.5696,437.6707 Q1065.0627,437.6707 1063.7429,436.0189 Q1062.4231,434.367 1062.4231,431.2459 Q1062.4231,428.1165 1063.7429,426.4647 Q1065.0627,424.8128 1067.5696,424.8128 Q1068.2751,424.8128 1068.9226,424.9622 Q1069.57,425.1116 1070.1345,425.4105 L1070.1345,428.1331 Q1069.5036,427.5521 1068.9101,427.2823 Q1068.3166,427.0125 1067.6858,427.0125 Q1066.341,427.0125 1065.6562,428.0792 Q1064.9714,429.1458 1064.9714,431.2459 Q1064.9714,433.3377 1065.6562,434.4044 Q1066.341,435.471 1067.6858,435.471 Q1068.3166,435.471 1068.9101,435.2012 Q1069.5036,434.9315 1070.1345,434.3504 Z " fill="#000000"/><text fill="#000000" font-family="sans-serif" font-size="14" lengthAdjust="spacing" textLength="138.1748" x="1088.1613" y="436.221">NebrasIntentMapper</text><line style="stroke:#181818;stroke-width:0.5;" x1="938.03" x2="1343.9675" y1="446.93" y2="446.93"/><line style="stroke:#181818;stroke-width:0.5;" x1="938.03" x2="1343.9675" y1="454.93" y2="454.93"/><text fill="#000000" font-family="sans-serif" font-size="14" lengthAdjust="spacing" text-decoration="underline" textLength="379.3467" x="943.03" y="472.4652">+mapToOpenFinanceIntent(SalaryBatchRequest) : String</text><text fill="#000000" font-family="sans-serif" font-size="14" lengthAdjust="spacing" text-decoration="underline" textLength="395.9375" x="943.03" y="488.9534">+mapToOpenFinanceIntent(CarLeaseLoanRequest) : String</text></g><!--class SalaryBatchRequest--><g class="entity" data-qualified-name="com.xbank.opf.sdk.domain.SalaryBatchRequest" data-source-line="39" id="ent0014"><rect fill="#F1F1F1" height="97.4648" rx="2.5" ry="2.5" style="stroke:#181818;stroke-width:0.5;" width="197.9648" x="1099.02" y="595.91"/><ellipse cx="1129.6201" cy="611.91" fill="#ADD1B2" rx="11" ry="11" style="stroke:#181818;stroke-width:1;"/><path d="M1132.0933,618.0531 Q1131.5122,618.3519 1130.8731,618.5013 Q1130.2339,618.6507 1129.5283,618.6507 Q1127.0215,618.6507 1125.7017,616.9989 Q1124.3819,615.347 1124.3819,612.2259 Q1124.3819,609.0965 1125.7017,607.4447 Q1127.0215,605.7928 1129.5283,605.7928 Q1130.2339,605.7928 1130.8814,605.9422 Q1131.5288,606.0916 1132.0933,606.3905 L1132.0933,609.1131 Q1131.4624,608.5321 1130.8689,608.2623 Q1130.2754,607.9925 1129.6446,607.9925 Q1128.2998,607.9925 1127.615,609.0592 Q1126.9302,610.1258 1126.9302,612.2259 Q1126.9302,614.3177 1127.615,615.3844 Q1128.2998,616.451 1129.6446,616.451 Q1130.2754,616.451 1130.8689,616.1812 Q1131.4624,615.9115 1132.0933,615.3304 Z " fill="#000000"/><text fill="#000000" font-family="sans-serif" font-size="14" lengthAdjust="spacing" textLength="131.2979" x="1147.0868" y="617.201">SalaryBatchRequest</text><line style="stroke:#181818;stroke-width:0.5;" x1="1100.02" x2="1295.9848" y1="627.91" y2="627.91"/><text fill="#000000" font-family="sans-serif" font-size="14" lengthAdjust="spacing" textLength="185.9648" x="1105.02" y="645.4452">-String corporateAccountId</text><text fill="#000000" font-family="sans-serif" font-size="14" lengthAdjust="spacing" textLength="133.5195" x="1105.02" y="661.9334">-int totalEmployees</text><text fill="#000000" font-family="sans-serif" font-size="14" lengthAdjust="spacing" textLength="144.0811" x="1105.02" y="678.4217">-double totalAmount</text><line style="stroke:#181818;stroke-width:0.5;" x1="1100.02" x2="1295.9848" y1="685.3748" y2="685.3748"/></g><!--class CarLeaseLoanRequest--><g class="entity" data-qualified-name="com.xbank.opf.sdk.domain.CarLeaseLoanRequest" data-source-line="45" id="ent0015"><rect fill="#F1F1F1" height="97.4648" rx="2.5" ry="2.5" style="stroke:#181818;stroke-width:0.5;" width="202.6475" x="1331.68" y="595.91"/><ellipse cx="1356.9215" cy="611.91" fill="#ADD1B2" rx="11" ry="11" style="stroke:#181818;stroke-width:1;"/><path d="M1359.3946,618.0531 Q1358.8135,618.3519 1358.1744,618.5013 Q1357.5352,618.6507 1356.8297,618.6507 Q1354.3228,618.6507 1353.003,616.9989 Q1351.6832,615.347 1351.6832,612.2259 Q1351.6832,609.0965 1353.003,607.4447 Q1354.3228,605.7928 1356.8297,605.7928 Q1357.5352,605.7928 1358.1827,605.9422 Q1358.8301,606.0916 1359.3946,606.3905 L1359.3946,609.1131 Q1358.7637,608.5321 1358.1702,608.2623 Q1357.5767,607.9925 1356.9459,607.9925 Q1355.6011,607.9925 1354.9163,609.0592 Q1354.2315,610.1258 1354.2315,612.2259 Q1354.2315,614.3177 1354.9163,615.3844 Q1355.6011,616.451 1356.9459,616.451 Q1357.5767,616.451 1358.1702,616.1812 Q1358.7637,615.9115 1359.3946,615.3304 Z " fill="#000000"/><text fill="#000000" font-family="sans-serif" font-size="14" lengthAdjust="spacing" textLength="147.8887" x="1373.1973" y="617.201">CarLeaseLoanRequest</text><line style="stroke:#181818;stroke-width:0.5;" x1="1332.68" x2="1533.3275" y1="627.91" y2="627.91"/><text fill="#000000" font-family="sans-serif" font-size="14" lengthAdjust="spacing" textLength="157.9375" x="1337.68" y="645.4452">-String leaseContractId</text><text fill="#000000" font-family="sans-serif" font-size="14" lengthAdjust="spacing" textLength="183.9893" x="1337.68" y="661.9334">-String customerAccountId</text><text fill="#000000" font-family="sans-serif" font-size="14" lengthAdjust="spacing" textLength="190.6475" x="1337.68" y="678.4217">-double monthlyInstallment</text><line style="stroke:#181818;stroke-width:0.5;" x1="1332.68" x2="1533.3275" y1="685.3748" y2="685.3748"/></g><!--link NebrasClient to NebrasIntentMapper--><g class="link" data-entity-1="ent0003" data-entity-2="ent0012" data-link-type="dependency" data-source-line="52" id="lnk16"><path codeLine="52" d="M1092.67,317.31 C1104.2,349.99 1115.3451,381.6213 1125.0151,409.0513" fill="none" id="NebrasClient-to-NebrasIntentMapper" style="stroke:#181818;stroke-width:1;"/><polygon fill="#181818" points="1127.01,414.71,1127.7901,404.8921,1125.3476,409.9944,1120.2453,407.5519,1127.01,414.71" style="stroke:#181818;stroke-width:1;"/><text fill="#000000" font-family="sans-serif" font-size="13" lengthAdjust="spacing" textLength="28.5645" x="1109.43" y="360.4984">uses</text></g><!--link NebrasClient to ApiTokenizationService--><g class="link" data-entity-1="ent0003" data-entity-2="ent0010" data-link-type="dependency" data-source-line="53" id="lnk17"><path codeLine="53" d="M936.2,317.31 C877.61,349.94 816.0318,384.2304 766.8018,411.6504" fill="none" id="NebrasClient-to-ApiTokenizationService" style="stroke:#181818;stroke-width:1;"/><polygon fill="#181818" points="761.56,414.57,771.369,413.6852,765.9281,412.137,767.4763,406.6962,761.56,414.57" style="stroke:#181818;stroke-width:1;"/><text fill="#000000" font-family="sans-serif" font-size="13" lengthAdjust="spacing" textLength="28.5645" x="879.5" y="360.4984">uses</text></g><!--link NebrasClient to SalaryBatchRequest--><g class="link" data-entity-1="ent0003" data-entity-2="ent0014" data-link-type="dependency" data-source-line="54" id="lnk18"><path codeLine="54" d="M1269.83,313.48 C1312.33,332.08 1348.22,352.45 1361,371.93 C1397.09,426.91 1386.76,459.39 1361,519.91 C1354.72,534.65 1348.54,536.32 1335,544.91 C1326.56,550.25 1322.7,548 1314,552.91 C1292.74,564.91 1275.8728,576.8288 1257.2228,591.7688" fill="none" id="NebrasClient-to-SalaryBatchRequest" style="stroke:#181818;stroke-width:1;stroke-dasharray:7,7;"/><polygon fill="#181818" points="1252.54,595.52,1262.065,593.015,1256.4423,592.394,1257.0633,586.7713,1252.54,595.52" style="stroke:#181818;stroke-width:1;"/><text fill="#000000" font-family="sans-serif" font-size="13" lengthAdjust="spacing" textLength="63.4131" x="1385.35" y="460.4884">consumes</text></g><!--link NebrasClient to CarLeaseLoanRequest--><g class="link" data-entity-1="ent0003" data-entity-2="ent0015" data-link-type="dependency" data-source-line="55" id="lnk19"><path codeLine="55" d="M1269.87,311.33 C1275.64,313.22 1281.36,315.09 1287,316.93 C1362.49,341.57 1410.28,307.71 1457,371.93 C1504.71,437.51 1480.0414,531.3445 1457.0314,589.9945" fill="none" id="NebrasClient-to-CarLeaseLoanRequest" style="stroke:#181818;stroke-width:1;stroke-dasharray:7,7;"/><polygon fill="#181818" points="1454.84,595.58,1461.8507,588.6626,1456.6661,590.9254,1454.4033,585.7408,1454.84,595.58" style="stroke:#181818;stroke-width:1;"/><text fill="#000000" font-family="sans-serif" font-size="13" lengthAdjust="spacing" textLength="63.4131" x="1484.47" y="460.4884">consumes</text></g><!--link NebrasIntentMapper to SalaryBatchRequest--><g class="link" data-entity-1="ent0012" data-entity-2="ent0014" data-link-type="dependency" data-source-line="56" id="lnk20"><path codeLine="56" d="M1153.09,496.12 C1161.94,525.21 1172.2634,559.0898 1181.6534,589.9498" fill="none" id="NebrasIntentMapper-to-SalaryBatchRequest" style="stroke:#181818;stroke-width:1;stroke-dasharray:7,7;"/><polygon fill="#181818" points="1183.4,595.69,1184.6069,585.9154,1181.9445,590.9065,1176.9533,588.2442,1183.4,595.69" style="stroke:#181818;stroke-width:1;"/><text fill="#000000" font-family="sans-serif" font-size="13" lengthAdjust="spacing" textLength="68.9038" x="1168.79" y="541.4784">transforms</text></g><!--link NebrasIntentMapper to CarLeaseLoanRequest--><g class="link" data-entity-1="ent0012" data-entity-2="ent0015" data-link-type="dependency" data-source-line="57" id="lnk21"><path codeLine="57" d="M1208.28,496.32 C1221.56,505.78 1234.83,516.47 1246,527.91 C1252.29,534.34 1249.41,540.06 1257,544.91 C1278.57,558.67 1290.39,543.05 1314,552.91 C1338.33,563.06 1357.419,575.6518 1377.219,591.7018" fill="none" id="NebrasIntentMapper-to-CarLeaseLoanRequest" style="stroke:#181818;stroke-width:1;stroke-dasharray:7,7;"/><polygon fill="#181818" points="1381.88,595.48,1377.4073,586.7053,1377.9958,592.3315,1372.3697,592.92,1381.88,595.48" style="stroke:#181818;stroke-width:1;"/><text fill="#000000" font-family="sans-serif" font-size="13" lengthAdjust="spacing" textLength="68.9038" x="1258" y="541.4784">transforms</text></g><?plantuml-src bLHDRo8n3BtpAo9Eh2f6FNEenB95GcrtqLAfPnCCH9F4sIJJTehux-lve9rXXaKxfudzR3y_EmcfiWuy624rX32DqQjr5d4XoQxK1uhRmS21J667OYZ99Ezhi6b2Rfk4JJeKXy50LA7Y9wuzX9bMQ2FR1NzZiU9yTiU8mhhOjAtEgrU8-83v4atjcZhrJ2bQzG5HCGVqhqgYY8MjFfJ86u7lA9df2ZJu_3j4kHyr_d_Zdmn3_2OcTRLsr0py8qB09UI6cOrEvqS2snyw5Zkqw9dl3qTkwOcsenRa-2N52_bqg-djfM22lbRZHho1YdFoCp9EOz7Ug5P2sLZgSvRm-2_nay2TU1NpOPc_gZmZ6pZJ4rWE-Ygih8gAgTVkENCxbGwI77PaOjeohT6h234B9xoiZ1NNDP56iEtkBupmy3a1kGUx--H2laJtvcznyhZr6FOjTDFsN-8PS0vzKxfgVnVb99vARqtv45W09OzCWQEUwPT3ErSMhCGAVNtlhgUuje3N-jcG0MMR_NH9TMubUKV5Ha-bfAnnFtaT-SP5qFUyg9GZXjgneMojiV9DJH7J7drF5-T5TU7dsKSFilCYo2n4CkZF2TLr3OVjTRwmBAVMnSKzATDwVCRZkxvfJaGMk9CEzCA-zi6JvAvFrqcvjPdfW_T9qi6tU5uimfBPi2LlBeRr5sl4_GK0?></g></svg>