<?plantuml 1.2026.2?><svg xmlns="http://www.w3.org/2000/svg" xmlns:xlink="http://www.w3.org/1999/xlink" contentStyleType="text/css" data-diagram-type="SEQUENCE" height="929px" preserveAspectRatio="none" style="width:1566px;height:929px;background:#FFFFFF;" version="1.1" viewBox="0 0 1566 929" width="1566px" zoomAndPan="magnify"><defs/><g><rect fill="#E0FFFF" height="917.4297" style="stroke:#181818;stroke-width:0.5;" width="1073.1289" x="308.8438" y="6"/><text fill="#000000" font-family="sans-serif" font-size="13" font-weight="bold" lengthAdjust="spacing" textLength="111.0967" x="789.8599" y="18.5684">Nebras Java SDK</text><rect fill="#FAFAD2" height="917.4297" style="stroke:#181818;stroke-width:0.5;" width="144.5781" x="1403.9727" y="6"/><text fill="#000000" font-family="sans-serif" font-size="13" font-weight="bold" lengthAdjust="spacing" textLength="120.7324" x="1415.8955" y="18.5684">Agentive Platform</text><g class="participant-lifeline" data-entity-uid="part1" data-qualified-name="App" id="part1-lifeline"><g><title>Developer . App</title><rect fill="#000000" fill-opacity="0.00000" height="762.4531" width="8" x="93.9009" y="81.4883"/><line style="stroke:#181818;stroke-width:0.5;stroke-dasharray:5,5;" x1="97" x2="97" y1="81.4883" y2="843.9414"/></g></g><g class="participant-lifeline" data-entity-uid="part2" data-qualified-name="Consent" id="part2-lifeline"><g><title>ConsentManager</title><rect fill="#000000" fill-opacity="0.00000" height="762.4531" width="8" x="392.9956" y="81.4883"/><line style="stroke:#181818;stroke-width:0.5;stroke-dasharray:5,5;" x1="396.8438" x2="396.8438" y1="81.4883" y2="843.9414"/></g></g><g class="participant-lifeline" data-entity-uid="part3" data-qualified-name="Tokenizer" id="part3-lifeline"><g><title>ApiTokenizationService</title><rect fill="#000000" fill-opacity="0.00000" height="762.4531" width="8" x="593.3213" y="81.4883"/><line style="stroke:#181818;stroke-width:0.5;stroke-dasharray:5,5;" x1="597.1475" x2="597.1475" y1="81.4883" y2="843.9414"/></g></g><g class="participant-lifeline" data-entity-uid="part4" data-qualified-name="Client" id="part4-lifeline"><g><title>NebrasClient</title><rect fill="#000000" fill-opacity="0.00000" height="762.4531" width="8" x="780.0229" y="81.4883"/><line style="stroke:#181818;stroke-width:0.5;stroke-dasharray:5,5;" x1="783.4951" x2="783.4951" y1="81.4883" y2="843.9414"/></g></g><g class="participant-lifeline" data-entity-uid="part5" data-qualified-name="Mapper" id="part5-lifeline"><g><title>NebrasIntentMapper</title><rect fill="#000000" fill-opacity="0.00000" height="762.4531" width="8" x="1096.4849" y="81.4883"/><line style="stroke:#181818;stroke-width:0.5;stroke-dasharray:5,5;" x1="1100.3975" x2="1100.3975" y1="81.4883" y2="843.9414"/></g></g><g class="participant-lifeline" data-entity-uid="part6" data-qualified-name="Watcher" id="part6-lifeline"><g><title>WorkflowWatcher</title><rect fill="#000000" fill-opacity="0.00000" height="762.4531" width="8" x="1288.2725" y="81.4883"/><line style="stroke:#181818;stroke-width:0.5;stroke-dasharray:5,5;" x1="1291.5723" x2="1291.5723" y1="81.4883" y2="843.9414"/></g></g><g class="participant-lifeline" data-entity-uid="part7" data-qualified-name="Gateway" id="part7-lifeline"><g><title>API Gateway</title><rect fill="#000000" fill-opacity="0.00000" height="762.4531" width="8" x="1472.2617" y="81.4883"/><line style="stroke:#181818;stroke-width:0.5;stroke-dasharray:5,5;" x1="1475.9727" x2="1475.9727" y1="81.4883" y2="843.9414"/></g></g><g class="participant participant-head" data-entity-uid="part1" data-qualified-name="App" id="part1-head"><text fill="#000000" font-family="sans-serif" font-size="14" lengthAdjust="spacing" textLength="111.8018" x="39" y="78.5352">Developer / App</text><ellipse cx="97.9009" cy="13.5" fill="#E2E2F0" rx="8" ry="8" style="stroke:#181818;stroke-width:0.5;"/><path d="M97.9009,21.5 L97.9009,48.5 M84.9009,29.5 L110.9009,29.5 M97.9009,48.5 L84.9009,63.5 M97.9009,48.5 L110.9009,63.5" fill="none" style="stroke:#181818;stroke-width:0.5;"/></g><g class="participant participant-tail" data-entity-uid="part1" data-qualified-name="App" id="part1-tail"><text fill="#000000" font-family="sans-serif" font-size="14" lengthAdjust="spacing" textLength="111.8018" x="39" y="856.4766">Developer / App</text><ellipse cx="97.9009" cy="867.9297" fill="#E2E2F0" rx="8" ry="8" style="stroke:#181818;stroke-width:0.5;"/><path d="M97.9009,875.9297 L97.9009,902.9297 M84.9009,883.9297 L110.9009,883.9297 M97.9009,902.9297 L84.9009,917.9297 M97.9009,902.9297 L110.9009,917.9297" fill="none" style="stroke:#181818;stroke-width:0.5;"/></g><g class="participant participant-head" data-entity-uid="part2" data-qualified-name="Consent" id="part2-head"><rect fill="#E2E2F0" height="30.4883" rx="2.5" ry="2.5" style="stroke:#181818;stroke-width:0.5;" width="128.3037" x="332.8438" y="50"/><text fill="#000000" font-family="sans-serif" font-size="14" lengthAdjust="spacing" textLength="114.3037" x="339.8438" y="70.5352">ConsentManager</text></g><g class="participant participant-tail" data-entity-uid="part2" data-qualified-name="Consent" id="part2-tail"><rect fill="#E2E2F0" height="30.4883" rx="2.5" ry="2.5" style="stroke:#181818;stroke-width:0.5;" width="128.3037" x="332.8438" y="842.9414"/><text fill="#000000" font-family="sans-serif" font-size="14" lengthAdjust="spacing" textLength="114.3037" x="339.8438" y="863.4766">ConsentManager</text></g><g class="participant participant-head" data-entity-uid="part3" data-qualified-name="Tokenizer" id="part3-head"><rect fill="#E2E2F0" height="30.4883" rx="2.5" ry="2.5" style="stroke:#181818;stroke-width:0.5;" width="172.3477" x="511.1475" y="50"/><text fill="#000000" font-family="sans-serif" font-size="14" lengthAdjust="spacing" textLength="158.3477" x="518.1475" y="70.5352">ApiTokenizationService</text></g><g class="participant participant-tail" data-entity-uid="part3" data-qualified-name="Tokenizer" id="part3-tail"><rect fill="#E2E2F0" height="30.4883" rx="2.5" ry="2.5" style="stroke:#181818;stroke-width:0.5;" width="172.3477" x="511.1475" y="842.9414"/><text fill="#000000" font-family="sans-serif" font-size="14" lengthAdjust="spacing" textLength="158.3477" x="518.1475" y="863.4766">ApiTokenizationService</text></g><g class="participant participant-head" data-entity-uid="part4" data-qualified-name="Client" id="part4-head"><rect fill="#E2E2F0" height="30.4883" rx="2.5" ry="2.5" style="stroke:#181818;stroke-width:0.5;" width="101.0557" x="733.4951" y="50"/><text fill="#000000" font-family="sans-serif" font-size="14" lengthAdjust="spacing" textLength="87.0557" x="740.4951" y="70.5352">NebrasClient</text></g><g class="participant participant-tail" data-entity-uid="part4" data-qualified-name="Client" id="part4-tail"><rect fill="#E2E2F0" height="30.4883" rx="2.5" ry="2.5" style="stroke:#181818;stroke-width:0.5;" width="101.0557" x="733.4951" y="842.9414"/><text fill="#000000" font-family="sans-serif" font-size="14" lengthAdjust="spacing" textLength="87.0557" x="740.4951" y="863.4766">NebrasClient</text></g><g class="participant participant-head" data-entity-uid="part5" data-qualified-name="Mapper" id="part5-head"><rect fill="#E2E2F0" height="30.4883" rx="2.5" ry="2.5" style="stroke:#181818;stroke-width:0.5;" width="152.1748" x="1024.3975" y="50"/><text fill="#000000" font-family="sans-serif" font-size="14" lengthAdjust="spacing" textLength="138.1748" x="1031.3975" y="70.5352">NebrasIntentMapper</text></g><g class="participant participant-tail" data-entity-uid="part5" data-qualified-name="Mapper" id="part5-tail"><rect fill="#E2E2F0" height="30.4883" rx="2.5" ry="2.5" style="stroke:#181818;stroke-width:0.5;" width="152.1748" x="1024.3975" y="842.9414"/><text fill="#000000" font-family="sans-serif" font-size="14" lengthAdjust="spacing" textLength="138.1748" x="1031.3975" y="863.4766">NebrasIntentMapper</text></g><g class="participant participant-head" data-entity-uid="part6" data-qualified-name="Watcher" id="part6-head"><rect fill="#E2E2F0" height="30.4883" rx="2.5" ry="2.5" style="stroke:#181818;stroke-width:0.5;" width="131.4004" x="1226.5723" y="50"/><text fill="#000000" font-family="sans-serif" font-size="14" lengthAdjust="spacing" textLength="117.4004" x="1233.5723" y="70.5352">WorkflowWatcher</text></g><g class="participant participant-tail" data-entity-uid="part6" data-qualified-name="Watcher" id="part6-tail"><rect fill="#E2E2F0" height="30.4883" rx="2.5" ry="2.5" style="stroke:#181818;stroke-width:0.5;" width="131.4004" x="1226.5723" y="842.9414"/><text fill="#000000" font-family="sans-serif" font-size="14" lengthAdjust="spacing" textLength="117.4004" x="1233.5723" y="863.4766">WorkflowWatcher</text></g><g class="participant participant-head" data-entity-uid="part7" data-qualified-name="Gateway" id="part7-head"><rect fill="#E2E2F0" height="30.4883" rx="2.5" ry="2.5" style="stroke:#181818;stroke-width:0.5;" width="96.5781" x="1427.9727" y="50"/><text fill="#000000" font-family="sans-serif" font-size="14" lengthAdjust="spacing" textLength="82.5781" x="1434.9727" y="70.5352">API Gateway</text></g><g class="participant participant-tail" data-entity-uid="part7" data-qualified-name="Gateway" id="part7-tail"><rect fill="#E2E2F0" height="30.4883" rx="2.5" ry="2.5" style="stroke:#181818;stroke-width:0.5;" width="96.5781" x="1427.9727" y="842.9414"/><text fill="#000000" font-family="sans-serif" font-size="14" lengthAdjust="spacing" textLength="82.5781" x="1434.9727" y="863.4766">API Gateway</text></g><rect fill="#EEEEEE" height="3" style="stroke:#EEEEEE;stroke-width:1;" width="1559.5508" x="0" y="112.1436"/><line style="stroke:#000000;stroke-width:1;" x1="0" x2="1559.5508" y1="112.1436" y2="112.1436"/><line style="stroke:#000000;stroke-width:1;" x1="0" x2="1559.5508" y1="115.1436" y2="115.1436"/><rect fill="#EEEEEE" height="23.3105" style="stroke:#000000;stroke-width:2;" width="219.5435" x="670.0037" y="101.4883"/><text fill="#000000" font-family="sans-serif" font-size="13" font-weight="bold" lengthAdjust="spacing" textLength="201.2588" x="676.0037" y="118.0566">1. Consent Management (SCA)</text><g class="message" data-entity-1="part1" data-entity-2="part2" id="msg1"><polygon fill="#181818" points="384.9956,152.1094,394.9956,156.1094,384.9956,160.1094,388.9956,156.1094" style="stroke:#181818;stroke-width:1;"/><line style="stroke:#181818;stroke-width:1;" x1="97.9009" x2="390.9956" y1="156.1094" y2="156.1094"/><text fill="#000000" font-family="sans-serif" font-size="13" lengthAdjust="spacing" textLength="275.0947" x="104.9009" y="151.3672">initiateConsentFlow("DOMESTIC_PAYMENT")</text></g><g class="message" data-entity-1="part2" data-entity-2="part1" id="msg2"><polygon fill="#181818" points="108.9009,181.4199,98.9009,185.4199,108.9009,189.4199,104.9009,185.4199" style="stroke:#181818;stroke-width:1;"/><line style="stroke:#181818;stroke-width:1;stroke-dasharray:2,2;" x1="102.9009" x2="395.9956" y1="185.4199" y2="185.4199"/><text fill="#000000" font-family="sans-serif" font-size="13" lengthAdjust="spacing" textLength="208.2539" x="114.9009" y="180.6777">Redirect URL (https://auth.opf...)</text></g><path d="M5,198.4199 L5,238.4199 L191,238.4199 L191,208.4199 L181,198.4199 L5,198.4199" fill="#FEFFDD" style="stroke:#181818;stroke-width:0.5;"/><path d="M181,198.4199 L181,208.4199 L191,208.4199 L181,198.4199" fill="#FEFFDD" style="stroke:#181818;stroke-width:0.5;"/><text fill="#000000" font-family="sans-serif" font-size="13" lengthAdjust="spacing" textLength="157.4473" x="11" y="215.9883">User authorizes payment</text><text fill="#000000" font-family="sans-serif" font-size="13" lengthAdjust="spacing" textLength="165.147" x="11" y="231.2988">via UAE Pass / Mobile App</text><g class="message" data-entity-1="part1" data-entity-2="part2" id="msg3"><polygon fill="#181818" points="384.9956,261.3516,394.9956,265.3516,384.9956,269.3516,388.9956,265.3516" style="stroke:#181818;stroke-width:1;"/><line style="stroke:#181818;stroke-width:1;" x1="97.9009" x2="390.9956" y1="265.3516" y2="265.3516"/><text fill="#000000" font-family="sans-serif" font-size="13" lengthAdjust="spacing" textLength="196.5679" x="104.9009" y="260.6094">checkConsentStatus(consentId)</text></g><g class="message" data-entity-1="part2" data-entity-2="part1" id="msg4"><polygon fill="#181818" points="108.9009,290.6621,98.9009,294.6621,108.9009,298.6621,104.9009,294.6621" style="stroke:#181818;stroke-width:1;"/><line style="stroke:#181818;stroke-width:1;stroke-dasharray:2,2;" x1="102.9009" x2="395.9956" y1="294.6621" y2="294.6621"/><text fill="#000000" font-family="sans-serif" font-size="13" lengthAdjust="spacing" textLength="139.2422" x="114.9009" y="289.9199">status = AUTHORIZED</text></g><rect fill="#EEEEEE" height="3" style="stroke:#EEEEEE;stroke-width:1;" width="1559.5508" x="0" y="323.3174"/><line style="stroke:#000000;stroke-width:1;" x1="0" x2="1559.5508" y1="323.3174" y2="323.3174"/><line style="stroke:#000000;stroke-width:1;" x1="0" x2="1559.5508" y1="326.3174" y2="326.3174"/><rect fill="#EEEEEE" height="23.3105" style="stroke:#000000;stroke-width:2;" width="148.0371" x="705.7568" y="312.6621"/><text fill="#000000" font-family="sans-serif" font-size="13" font-weight="bold" lengthAdjust="spacing" textLength="129.7524" x="711.7568" y="329.2305">2. API Tokenization</text><g class="message" data-entity-1="part1" data-entity-2="part3" id="msg5"><polygon fill="#181818" points="585.3213,363.2832,595.3213,367.2832,585.3213,371.2832,589.3213,367.2832" style="stroke:#181818;stroke-width:1;"/><line style="stroke:#181818;stroke-width:1;" x1="97.9009" x2="591.3213" y1="367.2832" y2="367.2832"/><text fill="#000000" font-family="sans-serif" font-size="13" lengthAdjust="spacing" textLength="241.668" x="104.9009" y="362.541">exchangeConsentForToken(consentId)</text></g><g class="message" data-entity-1="part3" data-entity-2="part1" id="msg6"><polygon fill="#181818" points="108.9009,392.5938,98.9009,396.5938,108.9009,400.5938,104.9009,396.5938" style="stroke:#181818;stroke-width:1;"/><line style="stroke:#181818;stroke-width:1;stroke-dasharray:2,2;" x1="102.9009" x2="596.3213" y1="396.5938" y2="396.5938"/><text fill="#000000" font-family="sans-serif" font-size="13" lengthAdjust="spacing" textLength="61.3755" x="114.9009" y="391.8516">api_token</text></g><rect fill="#EEEEEE" height="3" style="stroke:#EEEEEE;stroke-width:1;" width="1559.5508" x="0" y="425.249"/><line style="stroke:#000000;stroke-width:1;" x1="0" x2="1559.5508" y1="425.249" y2="425.249"/><line style="stroke:#000000;stroke-width:1;" x1="0" x2="1559.5508" y1="428.249" y2="428.249"/><rect fill="#EEEEEE" height="23.3105" style="stroke:#000000;stroke-width:2;" width="160.7642" x="699.3933" y="414.5938"/><text fill="#000000" font-family="sans-serif" font-size="13" font-weight="bold" lengthAdjust="spacing" textLength="142.4795" x="705.3933" y="431.1621">3. Payment Execution</text><g class="message" data-entity-1="part1" data-entity-2="part4" id="msg7"><polygon fill="#181818" points="772.0229,465.2148,782.0229,469.2148,772.0229,473.2148,776.0229,469.2148" style="stroke:#181818;stroke-width:1;"/><line style="stroke:#181818;stroke-width:1;" x1="97.9009" x2="778.0229" y1="469.2148" y2="469.2148"/><text fill="#000000" font-family="sans-serif" font-size="13" lengthAdjust="spacing" textLength="251.1387" x="104.9009" y="464.4727">executeSalaryBatch(SalaryBatchRequest)</text></g><g class="message" data-entity-1="part4" data-entity-2="part5" id="msg8"><polygon fill="#181818" points="1088.4849,494.5254,1098.4849,498.5254,1088.4849,502.5254,1092.4849,498.5254" style="stroke:#181818;stroke-width:1;"/><line style="stroke:#181818;stroke-width:1;" x1="784.0229" x2="1094.4849" y1="498.5254" y2="498.5254"/><text fill="#000000" font-family="sans-serif" font-size="13" lengthAdjust="spacing" textLength="292.4619" x="791.0229" y="493.7832">mapToOpenFinanceIntent(SalaryBatchRequest)</text></g><g class="message" data-entity-1="part5" data-entity-2="part4" id="msg9"><polygon fill="#181818" points="795.0229,523.8359,785.0229,527.8359,795.0229,531.8359,791.0229,527.8359" style="stroke:#181818;stroke-width:1;"/><line style="stroke:#181818;stroke-width:1;stroke-dasharray:2,2;" x1="789.0229" x2="1099.4849" y1="527.8359" y2="527.8359"/><text fill="#000000" font-family="sans-serif" font-size="13" lengthAdjust="spacing" textLength="83.1226" x="801.0229" y="523.0938">JSON Payload</text></g><g class="message" data-entity-1="part4" data-entity-2="part4" id="msg10"><line style="stroke:#181818;stroke-width:1;" x1="784.0229" x2="826.0229" y1="557.1465" y2="557.1465"/><line style="stroke:#181818;stroke-width:1;" x1="826.0229" x2="826.0229" y1="557.1465" y2="570.1465"/><line style="stroke:#181818;stroke-width:1;" x1="785.0229" x2="826.0229" y1="570.1465" y2="570.1465"/><polygon fill="#181818" points="795.0229,566.1465,785.0229,570.1465,795.0229,574.1465,791.0229,570.1465" style="stroke:#181818;stroke-width:1;"/><text fill="#000000" font-family="sans-serif" font-size="13" lengthAdjust="spacing" textLength="196.8535" x="791.0229" y="552.4043">generateDpopProof(privateKey)</text></g><g class="message" data-entity-1="part4" data-entity-2="part7" id="msg11"><polygon fill="#181818" points="1464.2617,610.7676,1474.2617,614.7676,1464.2617,618.7676,1468.2617,614.7676" style="stroke:#181818;stroke-width:1;"/><line style="stroke:#181818;stroke-width:1;" x1="784.0229" x2="1470.2617" y1="614.7676" y2="614.7676"/><text fill="#000000" font-family="sans-serif" font-size="13" lengthAdjust="spacing" textLength="169.5015" x="791.0229" y="594.7148">POST /domestic-payments</text><text fill="#000000" font-family="sans-serif" font-size="13" lengthAdjust="spacing" textLength="350.6572" x="791.0229" y="610.0254">Headers: [Authorization: Bearer api_token, DPoP: proof]</text></g><g class="message" data-entity-1="part7" data-entity-2="part4" id="msg12"><polygon fill="#181818" points="795.0229,640.0781,785.0229,644.0781,795.0229,648.0781,791.0229,644.0781" style="stroke:#181818;stroke-width:1;"/><line style="stroke:#181818;stroke-width:1;stroke-dasharray:2,2;" x1="789.0229" x2="1475.2617" y1="644.0781" y2="644.0781"/><text fill="#000000" font-family="sans-serif" font-size="13" lengthAdjust="spacing" textLength="48.7881" x="801.0229" y="639.3359">intentId</text></g><g class="message" data-entity-1="part4" data-entity-2="part1" id="msg13"><polygon fill="#181818" points="108.9009,669.3887,98.9009,673.3887,108.9009,677.3887,104.9009,673.3887" style="stroke:#181818;stroke-width:1;"/><line style="stroke:#181818;stroke-width:1;stroke-dasharray:2,2;" x1="102.9009" x2="783.0229" y1="673.3887" y2="673.3887"/><text fill="#000000" font-family="sans-serif" font-size="13" lengthAdjust="spacing" textLength="48.7881" x="114.9009" y="668.6465">intentId</text></g><rect fill="#EEEEEE" height="3" style="stroke:#EEEEEE;stroke-width:1;" width="1559.5508" x="0" y="702.0439"/><line style="stroke:#000000;stroke-width:1;" x1="0" x2="1559.5508" y1="702.0439" y2="702.0439"/><line style="stroke:#000000;stroke-width:1;" x1="0" x2="1559.5508" y1="705.0439" y2="705.0439"/><rect fill="#EEEEEE" height="23.3105" style="stroke:#000000;stroke-width:2;" width="143.8413" x="707.8547" y="691.3887"/><text fill="#000000" font-family="sans-serif" font-size="13" font-weight="bold" lengthAdjust="spacing" textLength="125.5566" x="713.8547" y="707.957">4. Agentive Polling</text><g class="message" data-entity-1="part1" data-entity-2="part6" id="msg14"><polygon fill="#181818" points="1280.2725,742.0098,1290.2725,746.0098,1280.2725,750.0098,1284.2725,746.0098" style="stroke:#181818;stroke-width:1;"/><line style="stroke:#181818;stroke-width:1;" x1="97.9009" x2="1286.2725" y1="746.0098" y2="746.0098"/><text fill="#000000" font-family="sans-serif" font-size="13" lengthAdjust="spacing" textLength="176.3062" x="104.9009" y="741.2676">waitForCompletion(intentId)</text></g><path d="M1208,759.0098 L1208,799.0098 L1376,799.0098 L1376,769.0098 L1366,759.0098 L1208,759.0098" fill="#FEFFDD" style="stroke:#181818;stroke-width:0.5;"/><path d="M1366,759.0098 L1366,769.0098 L1376,769.0098 L1366,759.0098" fill="#FEFFDD" style="stroke:#181818;stroke-width:0.5;"/><text fill="#000000" font-family="sans-serif" font-size="13" lengthAdjust="spacing" textLength="104.2793" x="1214" y="776.5781">Polls status until</text><text fill="#000000" font-family="sans-serif" font-size="13" lengthAdjust="spacing" textLength="147.1831" x="1214" y="791.8887">Temporal Agents finish</text><g class="message" data-entity-1="part6" data-entity-2="part1" id="msg15"><polygon fill="#181818" points="108.9009,821.9414,98.9009,825.9414,108.9009,829.9414,104.9009,825.9414" style="stroke:#181818;stroke-width:1;"/><line style="stroke:#181818;stroke-width:1;stroke-dasharray:2,2;" x1="102.9009" x2="1291.2725" y1="825.9414" y2="825.9414"/><text fill="#000000" font-family="sans-serif" font-size="13" lengthAdjust="spacing" textLength="175.9443" x="114.9009" y="821.1992">COMPLETED_SUCCESSFULLY</text></g><?plantuml-src RLHTRnen47o_Nx6YBqGgaAHzGg8IEIu92OGJ1uhIfeesTmjOEMpNDWJwwslVDscUs5llpiwEn-WtnYKgt4A8oh2OIUGcn2HXV0sNvvwkpg_4eSnVd7iUnaOeQ8reJwcGfA07GobRWDhzUg_Y0Aq7UbNs-mxt2D7elWLV9cozCVuHkIVhST3o1TV4pHGvhabb84Ngj6uesKAy4MT_qJ318r9x5bDMN-H9dNRa5FoKMQmSDmi_Anfpat6Gig2GXwUbZqAzhLBn_eWctXHrHUmHJy3kxUNB3zSMZUq9mXJDIgXjkVwDI1FYSv4yKMgHFcmOZk463RtZCSCkuXfxC82BRgaEv8fjNTYE_E4P30QUbHywFwgIFZ3E3BCuHURQ3cstHhDf42t6_aiuV9e63ulMcLTsT6ot0-d3d1AcA3Qmd4-WlJ56wdwlXpkpwGgvwdQxPnuNXa3ihG7obgMseQiGojw61eb7H--Pxnd2SXXOdsbjpJ8Lhoobp2l_4RPgnc_5PsJGx7Gxph_6oMSqTLO30nWk5xUp-VXdCCg4kko2qxDfcOP0bMCi0XtY3V9r9P5GsMbpR5rU3qR9NepBP-E-TUrosROG72ZUVPYNEoyRvWufmXJLySgPfzs8v_HdHzhOFVDwsvaRqNPkKIx4J1A_PXnvJBbbF-qkUZhDmNVHxC5HJ0Kc3VZgt3gMb3NAI0ePAY5MRQdOtYRkwTZaKvZITeIpQ06zH6pjJ1PtYilMp_oMC26b-_1hM7WXaxyFLuJAEQHKxYkCGX7sGRfvlxqI-eGtozOSrvoh2wXEdFxVxNLNZqwagVkhgkKlNgbjUaVcRjWNMvcIOzKkOPfshkiTbYvDjhFuwJDVq5OAXMa-KSFAFZAzySgccg4_cuQJO16CNgAbxmTHTBsSJ9wyVm00?></g></svg>