<svg xmlns="http://www.w3.org/2000/svg" xmlns:xlink="http://www.w3.org/1999/xlink" contentStyleType="text/css" height="517px" preserveAspectRatio="none" style="width:955px;height:517px;background:#FFFFFF;" version="1.1" viewBox="0 0 955 517" width="955px" zoomAndPan="magnify"><defs/><g><line style="stroke:#181818;stroke-width:0.5;stroke-dasharray:5.0,5.0;" x1="28" x2="28" y1="81.4883" y2="436.9043"/><line style="stroke:#181818;stroke-width:0.5;stroke-dasharray:5.0,5.0;" x1="225.5" x2="225.5" y1="81.4883" y2="436.9043"/><line style="stroke:#181818;stroke-width:0.5;stroke-dasharray:5.0,5.0;" x1="391.5" x2="391.5" y1="81.4883" y2="436.9043"/><line style="stroke:#181818;stroke-width:0.5;stroke-dasharray:5.0,5.0;" x1="510.5" x2="510.5" y1="81.4883" y2="436.9043"/><line style="stroke:#181818;stroke-width:0.5;stroke-dasharray:5.0,5.0;" x1="647" x2="647" y1="81.4883" y2="436.9043"/><line style="stroke:#181818;stroke-width:0.5;stroke-dasharray:5.0,5.0;" x1="893" x2="893" y1="81.4883" y2="436.9043"/><text fill="#000000" font-family="sans-serif" font-size="14" lengthAdjust="spacing" textLength="40" x="5" y="78.5352">Client</text><ellipse cx="28" cy="13.5" fill="#E2E2F0" rx="8" ry="8" style="stroke:#181818;stroke-width:0.5;"/><path d="M28,21.5 L28,48.5 M15,29.5 L41,29.5 M28,48.5 L15,63.5 M28,48.5 L41,63.5 " fill="none" style="stroke:#181818;stroke-width:0.5;"/><text fill="#000000" font-family="sans-serif" font-size="14" lengthAdjust="spacing" textLength="40" x="5" y="449.4395">Client</text><ellipse cx="28" cy="460.8926" fill="#E2E2F0" rx="8" ry="8" style="stroke:#181818;stroke-width:0.5;"/><path d="M28,468.8926 L28,495.8926 M15,476.8926 L41,476.8926 M28,495.8926 L15,510.8926 M28,495.8926 L41,510.8926 " fill="none" style="stroke:#181818;stroke-width:0.5;"/><rect fill="#E2E2F0" height="30.4883" rx="2.5" ry="2.5" style="stroke:#181818;stroke-width:0.5;" width="97" x="177.5" y="50"/><text fill="#000000" font-family="sans-serif" font-size="14" lengthAdjust="spacing" textLength="83" x="184.5" y="70.5352">API Gateway</text><rect fill="#E2E2F0" height="30.4883" rx="2.5" ry="2.5" style="stroke:#181818;stroke-width:0.5;" width="97" x="177.5" y="435.9043"/><text fill="#000000" font-family="sans-serif" font-size="14" lengthAdjust="spacing" textLength="83" x="184.5" y="456.4395">API Gateway</text><rect fill="#E2E2F0" height="30.4883" rx="2.5" ry="2.5" style="stroke:#181818;stroke-width:0.5;" width="99" x="342.5" y="50"/><text fill="#000000" font-family="sans-serif" font-size="14" lengthAdjust="spacing" textLength="85" x="349.5" y="70.5352">Keycloak IdP</text><rect fill="#E2E2F0" height="30.4883" rx="2.5" ry="2.5" style="stroke:#181818;stroke-width:0.5;" width="99" x="342.5" y="435.9043"/><text fill="#000000" font-family="sans-serif" font-size="14" lengthAdjust="spacing" textLength="85" x="349.5" y="456.4395">Keycloak IdP</text><rect fill="#E2E2F0" height="30.4883" rx="2.5" ry="2.5" style="stroke:#181818;stroke-width:0.5;" width="119" x="451.5" y="50"/><text fill="#000000" font-family="sans-serif" font-size="14" lengthAdjust="spacing" textLength="105" x="458.5" y="70.5352">Cognitive Layer</text><rect fill="#E2E2F0" height="30.4883" rx="2.5" ry="2.5" style="stroke:#181818;stroke-width:0.5;" width="119" x="451.5" y="435.9043"/><text fill="#000000" font-family="sans-serif" font-size="14" lengthAdjust="spacing" textLength="105" x="458.5" y="456.4395">Cognitive Layer</text><rect fill="#E2E2F0" height="30.4883" rx="2.5" ry="2.5" style="stroke:#181818;stroke-width:0.5;" width="122" x="586" y="50"/><text fill="#000000" font-family="sans-serif" font-size="14" lengthAdjust="spacing" textLength="108" x="593" y="70.5352">Mediator (Saga)</text><rect fill="#E2E2F0" height="30.4883" rx="2.5" ry="2.5" style="stroke:#181818;stroke-width:0.5;" width="122" x="586" y="435.9043"/><text fill="#000000" font-family="sans-serif" font-size="14" lengthAdjust="spacing" textLength="108" x="593" y="456.4395">Mediator (Saga)</text><rect fill="#E2E2F0" height="30.4883" rx="2.5" ry="2.5" style="stroke:#181818;stroke-width:0.5;" width="112" x="837" y="50"/><text fill="#000000" font-family="sans-serif" font-size="14" lengthAdjust="spacing" textLength="98" x="844" y="70.5352">Legacy Finacle</text><rect fill="#E2E2F0" height="30.4883" rx="2.5" ry="2.5" style="stroke:#181818;stroke-width:0.5;" width="112" x="837" y="435.9043"/><text fill="#000000" font-family="sans-serif" font-size="14" lengthAdjust="spacing" textLength="98" x="844" y="456.4395">Legacy Finacle</text><polygon fill="#181818" points="214,108.7988,224,112.7988,214,116.7988,218,112.7988" style="stroke:#181818;stroke-width:1.0;"/><line style="stroke:#181818;stroke-width:1.0;" x1="28" x2="220" y1="112.7988" y2="112.7988"/><text fill="#000000" font-family="sans-serif" font-size="13" lengthAdjust="spacing" textLength="135" x="35" y="108.0566">GET /accounts/limits</text><polygon fill="#181818" points="380,138.1094,390,142.1094,380,146.1094,384,142.1094" style="stroke:#181818;stroke-width:1.0;"/><line style="stroke:#181818;stroke-width:1.0;" x1="226" x2="386" y1="142.1094" y2="142.1094"/><text fill="#000000" font-family="sans-serif" font-size="13" lengthAdjust="spacing" textLength="142" x="233" y="137.3672">Validate DPoP &amp; Token</text><polygon fill="#181818" points="237,167.4199,227,171.4199,237,175.4199,233,171.4199" style="stroke:#181818;stroke-width:1.0;"/><line style="stroke:#181818;stroke-width:1.0;stroke-dasharray:2.0,2.0;" x1="231" x2="391" y1="171.4199" y2="171.4199"/><text fill="#000000" font-family="sans-serif" font-size="13" lengthAdjust="spacing" textLength="74" x="243" y="166.6777">Token Valid</text><polygon fill="#181818" points="499,196.7305,509,200.7305,499,204.7305,503,200.7305" style="stroke:#181818;stroke-width:1.0;"/><line style="stroke:#181818;stroke-width:1.0;" x1="226" x2="505" y1="200.7305" y2="200.7305"/><text fill="#000000" font-family="sans-serif" font-size="13" lengthAdjust="spacing" textLength="211" x="233" y="195.9883">Route request (Agentive Analysis)</text><polygon fill="#181818" points="635,226.041,645,230.041,635,234.041,639,230.041" style="stroke:#181818;stroke-width:1.0;"/><line style="stroke:#181818;stroke-width:1.0;" x1="511" x2="641" y1="230.041" y2="230.041"/><text fill="#000000" font-family="sans-serif" font-size="13" lengthAdjust="spacing" textLength="112" x="518" y="225.2988">Trigger FetchSaga</text><polygon fill="#181818" points="881,255.3516,891,259.3516,881,263.3516,885,259.3516" style="stroke:#181818;stroke-width:1.0;"/><line style="stroke:#181818;stroke-width:1.0;" x1="647" x2="887" y1="259.3516" y2="259.3516"/><text fill="#000000" font-family="sans-serif" font-size="13" lengthAdjust="spacing" textLength="125" x="654" y="254.6094">Fetch limits via ACL</text><polygon fill="#181818" points="658,284.6621,648,288.6621,658,292.6621,654,288.6621" style="stroke:#181818;stroke-width:1.0;"/><line style="stroke:#181818;stroke-width:1.0;stroke-dasharray:2.0,2.0;" x1="652" x2="892" y1="288.6621" y2="288.6621"/><text fill="#000000" font-family="sans-serif" font-size="13" lengthAdjust="spacing" textLength="115" x="664" y="283.9199">Return legacy XML</text><line style="stroke:#181818;stroke-width:1.0;" x1="647" x2="689" y1="317.9727" y2="317.9727"/><line style="stroke:#181818;stroke-width:1.0;" x1="689" x2="689" y1="317.9727" y2="330.9727"/><line style="stroke:#181818;stroke-width:1.0;" x1="648" x2="689" y1="330.9727" y2="330.9727"/><polygon fill="#181818" points="658,326.9727,648,330.9727,658,334.9727,654,330.9727" style="stroke:#181818;stroke-width:1.0;"/><text fill="#000000" font-family="sans-serif" font-size="13" lengthAdjust="spacing" textLength="232" x="654" y="313.2305">Transform XML to OpenFinance JSON</text><polygon fill="#181818" points="522,356.2832,512,360.2832,522,364.2832,518,360.2832" style="stroke:#181818;stroke-width:1.0;"/><line style="stroke:#181818;stroke-width:1.0;stroke-dasharray:2.0,2.0;" x1="516" x2="646" y1="360.2832" y2="360.2832"/><text fill="#000000" font-family="sans-serif" font-size="13" lengthAdjust="spacing" textLength="50" x="528" y="355.541">Success</text><polygon fill="#181818" points="237,385.5938,227,389.5938,237,393.5938,233,389.5938" style="stroke:#181818;stroke-width:1.0;"/><line style="stroke:#181818;stroke-width:1.0;stroke-dasharray:2.0,2.0;" x1="231" x2="510" y1="389.5938" y2="389.5938"/><text fill="#000000" font-family="sans-serif" font-size="13" lengthAdjust="spacing" textLength="76" x="243" y="384.8516">Return JSON</text><polygon fill="#181818" points="39,414.9043,29,418.9043,39,422.9043,35,418.9043" style="stroke:#181818;stroke-width:1.0;"/><line style="stroke:#181818;stroke-width:1.0;stroke-dasharray:2.0,2.0;" x1="33" x2="225" y1="418.9043" y2="418.9043"/><text fill="#000000" font-family="sans-serif" font-size="13" lengthAdjust="spacing" textLength="174" x="45" y="414.1621">200 OK (OpenFinance JSON)</text><!--SRC=[NP1BRy8m48Jl_XKh3XKSK56F72f50I9AQ290VHnNPfjQ69lQ3bN-VVqWIEbrvzlPcKNkj85S2bAENT0umSK5bODHLg-XG4U_s8q0BHJlGtr37PSQJx0-rX5OB-eXaUj62IUk12LsP2AKLyKGsj9HOCWmtcE3amXjbuiXL5A3l8ELKCWbHQPS5bd-oLYA3jDd7n3cK2mFy8YSwrOv-oZ5MJZBlE9rdyy3RoZ5qTU2HQrhU823Ff5YGPls7d6KmDkgJ-tdEztwFKC_BLa7uwpnXqExJA7ihB0J5ZYF-_p1neYc8GChSlmxb6DXxkKKtHDHWHGIhW8XoqjsKwTtdnsvrYYGwGSVsxBtwS-Wib_Qd8C4JaDr8HK-fJZ1oxvwJVYznRxbdAnDMVlAjniH3vK3dHuxXwVP3AeDZF_xJlu0]--></g></svg>