<?plantuml 1.2026.2?><svg xmlns="http://www.w3.org/2000/svg" xmlns:xlink="http://www.w3.org/1999/xlink" contentStyleType="text/css" data-diagram-type="STATE" height="640px" preserveAspectRatio="none" style="width:413px;height:640px;background:#FFFFFF;" version="1.1" viewBox="0 0 413 640" width="413px" zoomAndPan="magnify"><defs/><g><g class="start_entity" data-qualified-name=".start." data-source-line="1" id="ent0002"><ellipse cx="145.78" cy="16" fill="#222222" rx="10" ry="10" style="stroke:#222222;stroke-width:1;"/></g><g class="entity" data-qualified-name="Pending" id="ent0003"><rect fill="#F1F1F1" height="50" rx="12.5" ry="12.5" style="stroke:#181818;stroke-width:0.5;" width="74.5029" x="108.53" y="87"/><line style="stroke:#181818;stroke-width:0.5;" x1="108.53" x2="183.0329" y1="113.4883" y2="113.4883"/><text fill="#000000" font-family="sans-serif" font-size="14" lengthAdjust="spacing" textLength="54.5029" x="118.53" y="105.5352">Pending</text></g><g class="entity" data-qualified-name="Executing" id="ent0005"><rect fill="#F1F1F1" height="50" rx="12.5" ry="12.5" style="stroke:#181818;stroke-width:0.5;" width="86.5342" x="102.51" y="214"/><line style="stroke:#181818;stroke-width:0.5;" x1="102.51" x2="189.0442" y1="240.4883" y2="240.4883"/><text fill="#000000" font-family="sans-serif" font-size="14" lengthAdjust="spacing" textLength="66.5342" x="112.51" y="232.5352">Executing</text></g><g class="entity" data-qualified-name="Committed" id="ent0007"><rect fill="#F1F1F1" height="50" rx="12.5" ry="12.5" style="stroke:#181818;stroke-width:0.5;" width="95.5576" x="7" y="421"/><line style="stroke:#181818;stroke-width:0.5;" x1="7" x2="102.5576" y1="447.4883" y2="447.4883"/><text fill="#000000" font-family="sans-serif" font-size="14" lengthAdjust="spacing" textLength="75.5576" x="17" y="439.5352">Committed</text></g><g class="entity" data-qualified-name="Rollback_Initiated" id="ent0009"><rect fill="#F1F1F1" height="50" rx="12.5" ry="12.5" style="stroke:#181818;stroke-width:0.5;" width="140.0732" x="137.74" y="341"/><line style="stroke:#181818;stroke-width:0.5;" x1="137.74" x2="277.8132" y1="367.4883" y2="367.4883"/><text fill="#000000" font-family="sans-serif" font-size="14" lengthAdjust="spacing" textLength="120.0732" x="147.74" y="359.5352">Rollback_Initiated</text></g><g class="entity" data-qualified-name="Compensated" id="ent0011"><rect fill="#F1F1F1" height="50" rx="12.5" ry="12.5" style="stroke:#181818;stroke-width:0.5;" width="113.3721" x="132.09" y="501"/><line style="stroke:#181818;stroke-width:0.5;" x1="132.09" x2="245.4621" y1="527.4883" y2="527.4883"/><text fill="#000000" font-family="sans-serif" font-size="14" lengthAdjust="spacing" textLength="93.3721" x="142.09" y="519.5352">Compensated</text></g><g class="end_entity" data-qualified-name=".end." data-source-line="7" id="ent0013"><ellipse cx="80.78" cy="623" fill="none" rx="11" ry="11" style="stroke:#222222;stroke-width:1;"/><ellipse cx="80.78" cy="623" fill="#222222" rx="6" ry="6" style="stroke:#222222;stroke-width:1;"/></g><!--link *start* to Pending--><g class="link" data-entity-1="ent0002" data-entity-2="ent0003" data-link-type="dependency" data-source-line="1" id="lnk4"><path d="M145.78,26.36 C145.78,40.29 145.78,60.95 145.78,80.65" fill="none" id="*start*-to-Pending" style="stroke:#181818;stroke-width:1;"/><polygon fill="#181818" points="145.78,86.65,149.78,77.65,145.78,81.65,141.78,77.65,145.78,86.65" style="stroke:#181818;stroke-width:1;"/></g><!--link Pending to Executing--><g class="link" data-entity-1="ent0003" data-entity-2="ent0005" data-link-type="dependency" data-source-line="3" id="lnk6"><path d="M145.78,137.4 C145.78,159.42 145.78,185.66 145.78,207.66" fill="none" id="Pending-to-Executing" style="stroke:#181818;stroke-width:1;"/><polygon fill="#181818" points="145.78,213.66,149.78,204.66,145.78,208.66,141.78,204.66,145.78,213.66" style="stroke:#181818;stroke-width:1;"/><text fill="#000000" font-family="sans-serif" font-size="13" lengthAdjust="spacing" textLength="62.8037" x="146.78" y="180.5684">Start Saga</text></g><!--link Executing to Committed--><g class="link" data-entity-1="ent0005" data-entity-2="ent0007" data-link-type="dependency" data-source-line="4" id="lnk8"><path d="M102.24,251.69 C80.96,259.84 57.3,273.11 44.78,294 C21.28,333.21 32.405,383.2006 43.185,414.8406" fill="none" id="Executing-to-Committed" style="stroke:#181818;stroke-width:1;"/><polygon fill="#181818" points="45.12,420.52,46.0037,410.7109,43.5075,415.7872,38.4312,413.2909,45.12,420.52" style="stroke:#181818;stroke-width:1;"/><text fill="#000000" font-family="sans-serif" font-size="13" lengthAdjust="spacing" textLength="147.145" x="45.78" y="307.5684">All Legacy APIs Success</text></g><!--link Executing to Rollback_Initiated--><g class="link" data-entity-1="ent0005" data-entity-2="ent0009" data-link-type="dependency" data-source-line="5" id="lnk10"><path d="M178.71,264.27 C187.71,272.65 196.44,282.78 201.78,294 C208.63,308.41 210.197,320.3308 209.967,334.5608" fill="none" id="Executing-to-Rollback_Initiated" style="stroke:#181818;stroke-width:1;"/><polygon fill="#181818" points="209.87,340.56,214.0149,331.6258,209.9508,335.5607,206.016,331.4965,209.87,340.56" style="stroke:#181818;stroke-width:1;"/><text fill="#000000" font-family="sans-serif" font-size="13" lengthAdjust="spacing" textLength="113.3311" x="208.23" y="307.5684">Legacy API Failure</text></g><!--link Rollback_Initiated to Compensated--><g class="link" data-entity-1="ent0009" data-entity-2="ent0011" data-link-type="dependency" data-source-line="6" id="lnk12"><path d="M204.85,391.34 C201.28,421.03 195.9961,464.9729 192.4261,494.6729" fill="none" id="Rollback_Initiated-to-Compensated" style="stroke:#181818;stroke-width:1;"/><polygon fill="#181818" points="191.71,500.63,196.7555,492.1717,192.3067,495.6657,188.8127,491.217,191.71,500.63" style="stroke:#181818;stroke-width:1;"/><text fill="#000000" font-family="sans-serif" font-size="13" lengthAdjust="spacing" textLength="202.96" x="202.09" y="451.0684">Compensation Events Processed</text></g><!--link Committed to *end*--><g class="link" data-entity-1="ent0007" data-entity-2="ent0013" data-link-type="dependency" data-source-line="7" id="lnk14"><path d="M58.39,471.33 C64.17,510.21 74.3575,578.7953 78.3875,605.8953" fill="none" id="Committed-to-*end*" style="stroke:#181818;stroke-width:1;"/><polygon fill="#181818" points="79.27,611.83,81.9027,602.3395,78.5345,606.8844,73.9897,603.5163,79.27,611.83" style="stroke:#181818;stroke-width:1;"/></g><!--link Compensated to *end*--><g class="link" data-entity-1="ent0011" data-entity-2="ent0013" data-link-type="dependency" data-source-line="8" id="lnk15"><path d="M160.97,551.46 C136.97,572.58 108.3649,597.7369 93.3149,610.9769" fill="none" id="Compensated-to-*end*" style="stroke:#181818;stroke-width:1;"/><polygon fill="#181818" points="88.81,614.94,98.2094,611.9986,92.5641,611.6374,92.9253,605.9921,88.81,614.94" style="stroke:#181818;stroke-width:1;"/></g><?plantuml-src ROv12i8m44NtSufP5te15q8f5GekYbsM8cCwb62QI38HlRr6WnLnD__p7d-6OiIot6B7Tj9s1iZ7gsnkhAAajC5Uo0lsD1EiTO9gjonQXASdL1c3Uvv9tR7gse1zL8f3-34EpfWJgVEnjLeqlTLLmnrf4pt37ouFNjY6x7sITXQRAri9s7cNPdc2zRba3iK8ttRk7W00?></g></svg>