<svg xmlns="http://www.w3.org/2000/svg" xmlns:xlink="http://www.w3.org/1999/xlink" contentStyleType="text/css" height="640px" preserveAspectRatio="none" style="width:414px;height:640px;background:#FFFFFF;" version="1.1" viewBox="0 0 414 640" width="414px" zoomAndPan="magnify"><defs/><g><ellipse cx="147" cy="16" fill="#222222" rx="10" ry="10" style="stroke:#222222;stroke-width:1.0;"/><g id="Pending"><rect fill="#F1F1F1" height="50" rx="12.5" ry="12.5" style="stroke:#181818;stroke-width:0.5;" width="76" x="109" y="87"/><line style="stroke:#181818;stroke-width:0.5;" x1="109" x2="185" y1="113.4883" y2="113.4883"/><text fill="#000000" font-family="sans-serif" font-size="14" lengthAdjust="spacing" textLength="56" x="119" y="105.5352">Pending</text></g><g id="Executing"><rect fill="#F1F1F1" height="50" rx="12.5" ry="12.5" style="stroke:#181818;stroke-width:0.5;" width="88" x="103" y="214"/><line style="stroke:#181818;stroke-width:0.5;" x1="103" x2="191" y1="240.4883" y2="240.4883"/><text fill="#000000" font-family="sans-serif" font-size="14" lengthAdjust="spacing" textLength="68" x="113" y="232.5352">Executing</text></g><g id="Committed"><rect fill="#F1F1F1" height="50" rx="12.5" ry="12.5" style="stroke:#181818;stroke-width:0.5;" width="96" x="7" y="421"/><line style="stroke:#181818;stroke-width:0.5;" x1="7" x2="103" y1="447.4883" y2="447.4883"/><text fill="#000000" font-family="sans-serif" font-size="14" lengthAdjust="spacing" textLength="76" x="17" y="439.5352">Committed</text></g><g id="Rollback_Initiated"><rect fill="#F1F1F1" height="50" rx="12.5" ry="12.5" style="stroke:#181818;stroke-width:0.5;" width="141" x="138.5" y="341"/><line style="stroke:#181818;stroke-width:0.5;" x1="138.5" x2="279.5" y1="367.4883" y2="367.4883"/><text fill="#000000" font-family="sans-serif" font-size="14" lengthAdjust="spacing" textLength="121" x="148.5" y="359.5352">Rollback_Initiated</text></g><g id="Compensated"><rect fill="#F1F1F1" height="50" rx="12.5" ry="12.5" style="stroke:#181818;stroke-width:0.5;" width="115" x="132.5" y="501"/><line style="stroke:#181818;stroke-width:0.5;" x1="132.5" x2="247.5" y1="527.4883" y2="527.4883"/><text fill="#000000" font-family="sans-serif" font-size="14" lengthAdjust="spacing" textLength="95" x="142.5" y="519.5352">Compensated</text></g><ellipse cx="81" cy="623" fill="none" rx="11" ry="11" style="stroke:#222222;stroke-width:1.0;"/><ellipse cx="81" cy="623" fill="#222222" rx="6" ry="6" style="stroke:#222222;stroke-width:1.0;"/><!--link *start* to Pending--><g id="link_*start*_Pending"><path d="M147,26.36 C147,40.29 147,60.95 147,80.65 " fill="none" id="*start*-to-Pending" style="stroke:#181818;stroke-width:1.0;"/><polygon fill="#181818" points="147,86.65,151,77.65,147,81.65,143,77.65,147,86.65" style="stroke:#181818;stroke-width:1.0;"/></g><!--link Pending to Executing--><g id="link_Pending_Executing"><path d="M147,137.4 C147,159.42 147,185.66 147,207.66 " fill="none" id="Pending-to-Executing" style="stroke:#181818;stroke-width:1.0;"/><polygon fill="#181818" points="147,213.66,151,204.66,147,208.66,143,204.66,147,213.66" style="stroke:#181818;stroke-width:1.0;"/><text fill="#000000" font-family="sans-serif" font-size="13" lengthAdjust="spacing" textLength="62" x="148" y="180.5684">Start Saga</text></g><!--link Executing to Committed--><g id="link_Executing_Committed"><path d="M102.52,251.78 C81.17,259.92 57.56,273.14 45,294 C21.42,333.16 32.5707,383.172 43.3807,414.822 " fill="none" id="Executing-to-Committed" style="stroke:#181818;stroke-width:1.0;"/><polygon fill="#181818" points="45.32,420.5,46.1964,410.6902,43.7039,415.7684,38.6258,413.2759,45.32,420.5" style="stroke:#181818;stroke-width:1.0;"/><text fill="#000000" font-family="sans-serif" font-size="13" lengthAdjust="spacing" textLength="149" x="46" y="307.5684">All Legacy APIs Success</text></g><!--link Executing to Rollback_Initiated--><g id="link_Executing_Rollback_Initiated"><path d="M180.91,264.4 C189.97,272.72 198.7,282.78 204,294 C210.81,308.41 212.2281,320.3333 211.7581,334.5633 " fill="none" id="Executing-to-Rollback_Initiated" style="stroke:#181818;stroke-width:1.0;"/><polygon fill="#181818" points="211.56,340.56,215.8549,331.6969,211.7251,335.5627,207.8593,331.4329,211.56,340.56" style="stroke:#181818;stroke-width:1.0;"/><text fill="#000000" font-family="sans-serif" font-size="13" lengthAdjust="spacing" textLength="113" x="210.33" y="307.5684">Legacy API Failure</text></g><!--link Rollback_Initiated to Compensated--><g id="link_Rollback_Initiated_Compensated"><path d="M206.07,391.34 C202.5,421.03 197.2161,464.9729 193.6461,494.6729 " fill="none" id="Rollback_Initiated-to-Compensated" style="stroke:#181818;stroke-width:1.0;"/><polygon fill="#181818" points="192.93,500.63,197.9755,492.1717,193.5267,495.6657,190.0327,491.217,192.93,500.63" style="stroke:#181818;stroke-width:1.0;"/><text fill="#000000" font-family="sans-serif" font-size="13" lengthAdjust="spacing" textLength="203" x="203.31" y="451.0684">Compensation Events Processed</text></g><!--link Committed to *end*--><g id="link_Committed_*end*"><path d="M58.62,471.33 C64.39,510.21 74.5775,578.7953 78.6075,605.8953 " fill="none" id="Committed-to-*end*" style="stroke:#181818;stroke-width:1.0;"/><polygon fill="#181818" points="79.49,611.83,82.1227,602.3395,78.7545,606.8844,74.2097,603.5163,79.49,611.83" style="stroke:#181818;stroke-width:1.0;"/></g><!--link Compensated to *end*--><g id="link_Compensated_*end*"><path d="M161.93,551.46 C137.71,572.58 108.8243,597.7591 93.6243,610.9991 " fill="none" id="Compensated-to-*end*" style="stroke:#181818;stroke-width:1.0;"/><polygon fill="#181818" points="89.1,614.94,98.5137,612.0448,92.8702,611.6559,93.2592,606.0124,89.1,614.94" style="stroke:#181818;stroke-width:1.0;"/></g><!--SRC=[ROv12i8m44NtSufP5te15q8f5GekYbsM8cCwb62QI38HlRr6WnLnD__p7d-6OiIot6B7Tj9s1iZ7gsnkhAAajC5Uo0lsD1EiTO9gjonQXASdL1c3Uvv9tR7gse1zL8f3-34EpfWJgVEnjLeqlTLLmnrf4pt37ouFNjY6x7sITXQRAri9s7cNPdc2zRba3iK8ttRk7W00]--></g></svg>