<?plantuml 1.2026.2?><svg xmlns="http://www.w3.org/2000/svg" xmlns:xlink="http://www.w3.org/1999/xlink" contentStyleType="text/css" data-diagram-type="SEQUENCE" height="852px" preserveAspectRatio="none" style="width:1777px;height:852px;background:#FFFFFF;" version="1.1" viewBox="0 0 1777 852" width="1777px" zoomAndPan="magnify"><defs/><g><rect fill="#E0FFFF" height="840.0742" style="stroke:#181818;stroke-width:0.5;" width="173.8291" x="232.0083" y="6"/><text fill="#000000" font-family="sans-serif" font-size="13" font-weight="bold" lengthAdjust="spacing" textLength="133.1929" x="252.3264" y="18.5684">API Souq (Frontend)</text><rect fill="#FAFAD2" height="840.0742" style="stroke:#181818;stroke-width:0.5;" width="861.3013" x="427.8374" y="6"/><text fill="#000000" font-family="sans-serif" font-size="13" font-weight="bold" lengthAdjust="spacing" textLength="151.8931" x="782.5415" y="18.5684">Backend Microservices</text><rect fill="none" height="132.1973" style="stroke:#000000;stroke-width:1.5;" width="1141.2153" x="629" y="326.2832"/><g class="participant-lifeline" data-entity-uid="part1" data-qualified-name="TPP" id="part1-lifeline"><g><title>Third Party Provider</title><rect fill="#000000" fill-opacity="0.00000" height="685.0977" width="8" x="71.2178" y="81.4883"/><line style="stroke:#181818;stroke-width:0.5;stroke-dasharray:5,5;" x1="75" x2="75" y1="81.4883" y2="766.5859"/></g></g><g class="participant-lifeline" data-entity-uid="part2" data-qualified-name="Portal" id="part2-lifeline"><g><title>Developer Portal</title><rect fill="#000000" fill-opacity="0.00000" height="685.0977" width="8" x="314.9229" y="81.4883"/><line style="stroke:#181818;stroke-width:0.5;stroke-dasharray:5,5;" x1="318.0083" x2="318.0083" y1="81.4883" y2="766.5859"/></g></g><g class="participant-lifeline" data-entity-uid="part3" data-qualified-name="Gateway" id="part3-lifeline"><g><title>Spring Cloud Gateway</title><rect fill="#000000" fill-opacity="0.00000" height="685.0977" width="8" x="529.3149" y="81.4883"/><line style="stroke:#181818;stroke-width:0.5;stroke-dasharray:5,5;" x1="532.8374" x2="532.8374" y1="81.4883" y2="766.5859"/></g></g><g class="participant-lifeline" data-entity-uid="part4" data-qualified-name="Brain" id="part4-lifeline"><g><title>Cognitive Layer</title><rect fill="#000000" fill-opacity="0.00000" height="685.0977" width="8" x="756.7891" y="81.4883"/><line style="stroke:#181818;stroke-width:0.5;stroke-dasharray:5,5;" x1="760.167" x2="760.167" y1="81.4883" y2="766.5859"/></g></g><g class="participant-lifeline" data-entity-uid="part5" data-qualified-name="SecLLM" id="part5-lifeline"><g><title>Security LLM</title><rect fill="#000000" fill-opacity="0.00000" height="685.0977" width="8" x="964.9663" y="81.4883"/><line style="stroke:#181818;stroke-width:0.5;stroke-dasharray:5,5;" x1="968.4946" x2="968.4946" y1="81.4883" y2="766.5859"/></g></g><g class="participant-lifeline" data-entity-uid="part6" data-qualified-name="Keycloak" id="part6-lifeline"><g><title>Identity Layer</title><rect fill="#000000" fill-opacity="0.00000" height="685.0977" width="8" x="1199.3726" y="81.4883"/><line style="stroke:#181818;stroke-width:0.5;stroke-dasharray:5,5;" x1="1202.6064" x2="1202.6064" y1="81.4883" y2="766.5859"/></g></g><g class="participant-lifeline" data-entity-uid="part7" data-qualified-name="Admin" id="part7-lifeline"><g><title>Bank Admin</title><rect fill="#000000" fill-opacity="0.00000" height="685.0977" width="8" x="1344.8193" y="81.4883"/><line style="stroke:#181818;stroke-width:0.5;stroke-dasharray:5,5;" x1="1348.1387" x2="1348.1387" y1="81.4883" y2="766.5859"/></g></g><g class="participant participant-head" data-entity-uid="part1" data-qualified-name="TPP" id="part1-head"><text fill="#000000" font-family="sans-serif" font-size="14" lengthAdjust="spacing" textLength="134.4355" x="5" y="78.5352">Third Party Provider</text><ellipse cx="75.2178" cy="13.5" fill="#E2E2F0" rx="8" ry="8" style="stroke:#181818;stroke-width:0.5;"/><path d="M75.2178,21.5 L75.2178,48.5 M62.2178,29.5 L88.2178,29.5 M75.2178,48.5 L62.2178,63.5 M75.2178,48.5 L88.2178,63.5" fill="none" style="stroke:#181818;stroke-width:0.5;"/></g><g class="participant participant-tail" data-entity-uid="part1" data-qualified-name="TPP" id="part1-tail"><text fill="#000000" font-family="sans-serif" font-size="14" lengthAdjust="spacing" textLength="134.4355" x="5" y="779.1211">Third Party Provider</text><ellipse cx="75.2178" cy="790.5742" fill="#E2E2F0" rx="8" ry="8" style="stroke:#181818;stroke-width:0.5;"/><path d="M75.2178,798.5742 L75.2178,825.5742 M62.2178,806.5742 L88.2178,806.5742 M75.2178,825.5742 L62.2178,840.5742 M75.2178,825.5742 L88.2178,840.5742" fill="none" style="stroke:#181818;stroke-width:0.5;"/></g><g class="participant participant-head" data-entity-uid="part2" data-qualified-name="Portal" id="part2-head"><rect fill="#E2E2F0" height="30.4883" rx="2.5" ry="2.5" style="stroke:#181818;stroke-width:0.5;" width="125.8291" x="256.0083" y="50"/><text fill="#000000" font-family="sans-serif" font-size="14" lengthAdjust="spacing" textLength="111.8291" x="263.0083" y="70.5352">Developer Portal</text></g><g class="participant participant-tail" data-entity-uid="part2" data-qualified-name="Portal" id="part2-tail"><rect fill="#E2E2F0" height="30.4883" rx="2.5" ry="2.5" style="stroke:#181818;stroke-width:0.5;" width="125.8291" x="256.0083" y="765.5859"/><text fill="#000000" font-family="sans-serif" font-size="14" lengthAdjust="spacing" textLength="111.8291" x="263.0083" y="786.1211">Developer Portal</text></g><g class="participant participant-head" data-entity-uid="part3" data-qualified-name="Gateway" id="part3-head"><rect fill="#E2E2F0" height="30.4883" rx="2.5" ry="2.5" style="stroke:#181818;stroke-width:0.5;" width="162.9551" x="451.8374" y="50"/><text fill="#000000" font-family="sans-serif" font-size="14" lengthAdjust="spacing" textLength="148.9551" x="458.8374" y="70.5352">Spring Cloud Gateway</text></g><g class="participant participant-tail" data-entity-uid="part3" data-qualified-name="Gateway" id="part3-tail"><rect fill="#E2E2F0" height="30.4883" rx="2.5" ry="2.5" style="stroke:#181818;stroke-width:0.5;" width="162.9551" x="451.8374" y="765.5859"/><text fill="#000000" font-family="sans-serif" font-size="14" lengthAdjust="spacing" textLength="148.9551" x="458.8374" y="786.1211">Spring Cloud Gateway</text></g><g class="participant participant-head" data-entity-uid="part4" data-qualified-name="Brain" id="part4-head"><rect fill="#E2E2F0" height="46.9766" rx="2.5" ry="2.5" style="stroke:#181818;stroke-width:0.5;" width="155.2441" x="683.167" y="33.5117"/><text fill="#000000" font-family="sans-serif" font-size="14" lengthAdjust="spacing" textLength="104.5488" x="708.5146" y="54.0469">Cognitive Layer</text><text fill="#000000" font-family="sans-serif" font-size="14" lengthAdjust="spacing" textLength="141.2441" x="690.167" y="70.5352">(Temporal Workflow)</text></g><g class="participant participant-tail" data-entity-uid="part4" data-qualified-name="Brain" id="part4-tail"><rect fill="#E2E2F0" height="46.9766" rx="2.5" ry="2.5" style="stroke:#181818;stroke-width:0.5;" width="155.2441" x="683.167" y="765.5859"/><text fill="#000000" font-family="sans-serif" font-size="14" lengthAdjust="spacing" textLength="104.5488" x="708.5146" y="786.1211">Cognitive Layer</text><text fill="#000000" font-family="sans-serif" font-size="14" lengthAdjust="spacing" textLength="141.2441" x="690.167" y="802.6094">(Temporal Workflow)</text></g><g class="participant participant-head" data-entity-uid="part5" data-qualified-name="SecLLM" id="part5-head"><rect fill="#E2E2F0" height="46.9766" rx="2.5" ry="2.5" style="stroke:#181818;stroke-width:0.5;" width="98.9434" x="919.4946" y="33.5117"/><text fill="#000000" font-family="sans-serif" font-size="14" lengthAdjust="spacing" textLength="84.9434" x="926.4946" y="54.0469">Security LLM</text><text fill="#000000" font-family="sans-serif" font-size="14" lengthAdjust="spacing" textLength="73.5889" x="932.1719" y="70.5352">(DLP Filter)</text></g><g class="participant participant-tail" data-entity-uid="part5" data-qualified-name="SecLLM" id="part5-tail"><rect fill="#E2E2F0" height="46.9766" rx="2.5" ry="2.5" style="stroke:#181818;stroke-width:0.5;" width="98.9434" x="919.4946" y="765.5859"/><text fill="#000000" font-family="sans-serif" font-size="14" lengthAdjust="spacing" textLength="84.9434" x="926.4946" y="786.1211">Security LLM</text><text fill="#000000" font-family="sans-serif" font-size="14" lengthAdjust="spacing" textLength="73.5889" x="932.1719" y="802.6094">(DLP Filter)</text></g><g class="participant participant-head" data-entity-uid="part6" data-qualified-name="Keycloak" id="part6-head"><rect fill="#E2E2F0" height="46.9766" rx="2.5" ry="2.5" style="stroke:#181818;stroke-width:0.5;" width="123.5322" x="1141.6064" y="33.5117"/><text fill="#000000" font-family="sans-serif" font-size="14" lengthAdjust="spacing" textLength="91.6357" x="1157.5547" y="54.0469">Identity Layer</text><text fill="#000000" font-family="sans-serif" font-size="14" lengthAdjust="spacing" textLength="109.5322" x="1148.6064" y="70.5352">(Keycloak Mock)</text></g><g class="participant participant-tail" data-entity-uid="part6" data-qualified-name="Keycloak" id="part6-tail"><rect fill="#E2E2F0" height="46.9766" rx="2.5" ry="2.5" style="stroke:#181818;stroke-width:0.5;" width="123.5322" x="1141.6064" y="765.5859"/><text fill="#000000" font-family="sans-serif" font-size="14" lengthAdjust="spacing" textLength="91.6357" x="1157.5547" y="786.1211">Identity Layer</text><text fill="#000000" font-family="sans-serif" font-size="14" lengthAdjust="spacing" textLength="109.5322" x="1148.6064" y="802.6094">(Keycloak Mock)</text></g><g class="participant participant-head" data-entity-uid="part7" data-qualified-name="Admin" id="part7-head"><text fill="#000000" font-family="sans-serif" font-size="14" lengthAdjust="spacing" textLength="81.3613" x="1305.1387" y="78.5352">Bank Admin</text><ellipse cx="1348.8193" cy="13.5" fill="#E2E2F0" rx="8" ry="8" style="stroke:#181818;stroke-width:0.5;"/><path d="M1348.8193,21.5 L1348.8193,48.5 M1335.8193,29.5 L1361.8193,29.5 M1348.8193,48.5 L1335.8193,63.5 M1348.8193,48.5 L1361.8193,63.5" fill="none" style="stroke:#181818;stroke-width:0.5;"/></g><g class="participant participant-tail" data-entity-uid="part7" data-qualified-name="Admin" id="part7-tail"><text fill="#000000" font-family="sans-serif" font-size="14" lengthAdjust="spacing" textLength="81.3613" x="1305.1387" y="779.1211">Bank Admin</text><ellipse cx="1348.8193" cy="790.5742" fill="#E2E2F0" rx="8" ry="8" style="stroke:#181818;stroke-width:0.5;"/><path d="M1348.8193,798.5742 L1348.8193,825.5742 M1335.8193,806.5742 L1361.8193,806.5742 M1348.8193,825.5742 L1335.8193,840.5742 M1348.8193,825.5742 L1361.8193,840.5742" fill="none" style="stroke:#181818;stroke-width:0.5;"/></g><g class="message" data-entity-1="part1" data-entity-2="part2" id="msg1"><polygon fill="#181818" points="306.9229,124.1094,316.9229,128.1094,306.9229,132.1094,310.9229,128.1094" style="stroke:#181818;stroke-width:1;"/><line style="stroke:#181818;stroke-width:1;" x1="75.2178" x2="312.9229" y1="128.1094" y2="128.1094"/><text fill="#000000" font-family="sans-serif" font-size="13" lengthAdjust="spacing" textLength="205.1689" x="82.2178" y="108.0566">Submits Onboarding Application</text><text fill="#000000" font-family="sans-serif" font-size="13" lengthAdjust="spacing" textLength="188.5952" x="82.2178" y="123.3672">(Trade License, Regulatory ID)</text></g><g class="message" data-entity-1="part2" data-entity-2="part3" id="msg2"><polygon fill="#181818" points="521.3149,153.4199,531.3149,157.4199,521.3149,161.4199,525.3149,157.4199" style="stroke:#181818;stroke-width:1;"/><line style="stroke:#181818;stroke-width:1;" x1="318.9229" x2="527.3149" y1="157.4199" y2="157.4199"/><text fill="#000000" font-family="sans-serif" font-size="13" lengthAdjust="spacing" textLength="149.8809" x="325.9229" y="152.6777">POST /souq/tpps/apply</text></g><g class="message" data-entity-1="part3" data-entity-2="part4" id="msg3"><polygon fill="#181818" points="748.7891,182.7305,758.7891,186.7305,748.7891,190.7305,752.7891,186.7305" style="stroke:#181818;stroke-width:1;"/><line style="stroke:#181818;stroke-width:1;" x1="533.3149" x2="754.7891" y1="186.7305" y2="186.7305"/><text fill="#000000" font-family="sans-serif" font-size="13" lengthAdjust="spacing" textLength="203.4741" x="540.3149" y="181.9883">Initiates TppAdmissionWorkflow</text></g><g class="message" data-entity-1="part4" data-entity-2="part5" id="msg4"><polygon fill="#181818" points="956.9663,212.041,966.9663,216.041,956.9663,220.041,960.9663,216.041" style="stroke:#181818;stroke-width:1;"/><line style="stroke:#181818;stroke-width:1;" x1="760.7891" x2="962.9663" y1="216.041" y2="216.041"/><text fill="#000000" font-family="sans-serif" font-size="13" lengthAdjust="spacing" textLength="184.1772" x="767.7891" y="211.2988">Validate prompt &amp; remove PII</text></g><g class="message" data-entity-1="part5" data-entity-2="part4" id="msg5"><polygon fill="#181818" points="771.7891,241.3516,761.7891,245.3516,771.7891,249.3516,767.7891,245.3516" style="stroke:#181818;stroke-width:1;"/><line style="stroke:#181818;stroke-width:1;stroke-dasharray:2,2;" x1="765.7891" x2="967.9663" y1="245.3516" y2="245.3516"/><text fill="#000000" font-family="sans-serif" font-size="13" lengthAdjust="spacing" textLength="103.0415" x="777.7891" y="240.6094">Cleaned Payload</text></g><path d="M642,258.3516 L642,313.3516 L878,313.3516 L878,268.3516 L868,258.3516 L642,258.3516" fill="#FEFFDD" style="stroke:#181818;stroke-width:0.5;"/><path d="M868,258.3516 L868,268.3516 L878,268.3516 L868,258.3516" fill="#FEFFDD" style="stroke:#181818;stroke-width:0.5;"/><text fill="#000000" font-family="sans-serif" font-size="13" lengthAdjust="spacing" textLength="192.4355" x="648" y="275.9199">Agent 1 evaluates compliance.</text><text fill="#000000" font-family="sans-serif" font-size="13" lengthAdjust="spacing" textLength="215.998" x="648" y="291.2305">Agent 2 runs Deep AML/KYC BGC.</text><text fill="#000000" font-family="sans-serif" font-size="13" lengthAdjust="spacing" textLength="136.1953" x="648" y="306.541">Risk Score generated.</text><path d="M629,326.2832 L691.1387,326.2832 L691.1387,333.5938 L681.1387,343.5938 L629,343.5938 L629,326.2832" fill="#EEEEEE" style="stroke:#000000;stroke-width:1.5;"/><rect fill="none" height="132.1973" style="stroke:#000000;stroke-width:1.5;" width="1141.2153" x="629" y="326.2832"/><text fill="#000000" font-family="sans-serif" font-size="13" font-weight="bold" lengthAdjust="spacing" textLength="17.1387" x="644" y="339.8516">alt</text><text fill="#000000" font-family="sans-serif" font-size="11" font-weight="bold" lengthAdjust="spacing" textLength="294.4058" x="706.1387" y="338.918">[Risk Score &gt; Threshold (Suspicious ID or BGC Fail)]</text><g class="message" data-entity-1="part4" data-entity-2="part7" id="msg6"><polygon fill="#181818" points="1336.8193,363.9043,1346.8193,367.9043,1336.8193,371.9043,1340.8193,367.9043" style="stroke:#181818;stroke-width:1;"/><line style="stroke:#181818;stroke-width:1;" x1="760.7891" x2="1342.8193" y1="367.9043" y2="367.9043"/><text fill="#000000" font-family="sans-serif" font-size="13" lengthAdjust="spacing" textLength="223.4438" x="767.7891" y="363.1621">Flags application for manual review</text></g><path d="M1353,348.5938 L1353,373.5938 L1754,373.5938 L1754,358.5938 L1744,348.5938 L1353,348.5938" fill="#FEFFDD" style="stroke:#181818;stroke-width:0.5;"/><path d="M1744,348.5938 L1744,358.5938 L1754,358.5938 L1744,348.5938" fill="#FEFFDD" style="stroke:#181818;stroke-width:0.5;"/><text fill="#000000" font-family="sans-serif" font-size="13" lengthAdjust="spacing" textLength="380.396" x="1359" y="366.1621">Workflow pauses indefinitely using Temporal's durable state</text><g class="message" data-entity-1="part7" data-entity-2="part4" id="msg8"><polygon fill="#181818" points="771.7891,396.2148,761.7891,400.2148,771.7891,404.2148,767.7891,400.2148" style="stroke:#181818;stroke-width:1;"/><line style="stroke:#181818;stroke-width:1;" x1="765.7891" x2="1347.8193" y1="400.2148" y2="400.2148"/><text fill="#000000" font-family="sans-serif" font-size="13" lengthAdjust="spacing" textLength="252.0591" x="777.7891" y="395.4727">Signals approval (adminReviewDecision)</text></g><line style="stroke:#000000;stroke-width:1;stroke-dasharray:2,2;" x1="629" x2="1770.2153" y1="409.2148" y2="409.2148"/><text fill="#000000" font-family="sans-serif" font-size="11" font-weight="bold" lengthAdjust="spacing" textLength="180.5117" x="634" y="419.8496">[Risk Score OK (Auto-Approve)]</text><path d="M639,428.1699 L639,453.1699 L882,453.1699 L882,438.1699 L872,428.1699 L639,428.1699" fill="#FEFFDD" style="stroke:#181818;stroke-width:0.5;"/><path d="M872,428.1699 L872,438.1699 L882,438.1699 L872,428.1699" fill="#FEFFDD" style="stroke:#181818;stroke-width:0.5;"/><text fill="#000000" font-family="sans-serif" font-size="13" lengthAdjust="spacing" textLength="222.4536" x="645" y="445.7383">Automated Compliance &amp; BGC Pass</text><path d="M653,470.4805 L653,510.4805 L867,510.4805 L867,480.4805 L857,470.4805 L653,470.4805" fill="#FEFFDD" style="stroke:#181818;stroke-width:0.5;"/><path d="M857,470.4805 L857,480.4805 L867,480.4805 L857,470.4805" fill="#FEFFDD" style="stroke:#181818;stroke-width:0.5;"/><text fill="#000000" font-family="sans-serif" font-size="13" lengthAdjust="spacing" textLength="193.959" x="659" y="488.0488">Agent 3 dynamically generates</text><text fill="#000000" font-family="sans-serif" font-size="13" lengthAdjust="spacing" textLength="164.436" x="659" y="503.3594">User Agreement Template</text><g class="message" data-entity-1="part4" data-entity-2="part2" id="msg9"><polygon fill="#181818" points="329.9229,533.4121,319.9229,537.4121,329.9229,541.4121,325.9229,537.4121" style="stroke:#181818;stroke-width:1;"/><line style="stroke:#181818;stroke-width:1;stroke-dasharray:2,2;" x1="323.9229" x2="759.7891" y1="537.4121" y2="537.4121"/><text fill="#000000" font-family="sans-serif" font-size="13" lengthAdjust="spacing" textLength="147.3926" x="335.9229" y="532.6699">Return User Agreement</text></g><g class="message" data-entity-1="part1" data-entity-2="part2" id="msg10"><polygon fill="#181818" points="306.9229,562.7227,316.9229,566.7227,306.9229,570.7227,310.9229,566.7227" style="stroke:#181818;stroke-width:1;"/><line style="stroke:#181818;stroke-width:1;" x1="75.2178" x2="312.9229" y1="566.7227" y2="566.7227"/><text fill="#000000" font-family="sans-serif" font-size="13" lengthAdjust="spacing" textLength="219.7051" x="82.2178" y="561.9805">Cryptographically signs agreement</text></g><g class="message" data-entity-1="part2" data-entity-2="part4" id="msg11"><polygon fill="#181818" points="748.7891,595.0332,758.7891,599.0332,748.7891,603.0332,752.7891,599.0332" style="stroke:#181818;stroke-width:1;"/><line style="stroke:#181818;stroke-width:1;" x1="318.9229" x2="754.7891" y1="599.0332" y2="599.0332"/><text fill="#000000" font-family="sans-serif" font-size="13" lengthAdjust="spacing" textLength="193.5464" x="325.9229" y="594.291">Signal: submitSignature(token)</text></g><path d="M765,579.7227 L765,604.7227 L1035,604.7227 L1035,589.7227 L1025,579.7227 L765,579.7227" fill="#FEFFDD" style="stroke:#181818;stroke-width:0.5;"/><path d="M1025,579.7227 L1025,589.7227 L1035,589.7227 L1025,579.7227" fill="#FEFFDD" style="stroke:#181818;stroke-width:0.5;"/><text fill="#000000" font-family="sans-serif" font-size="13" lengthAdjust="spacing" textLength="249.4185" x="771" y="597.291">Workflow resumes upon valid signature</text><g class="message" data-entity-1="part4" data-entity-2="part6" id="msg13"><polygon fill="#181818" points="1191.3726,627.3438,1201.3726,631.3438,1191.3726,635.3438,1195.3726,631.3438" style="stroke:#181818;stroke-width:1;"/><line style="stroke:#181818;stroke-width:1;" x1="760.7891" x2="1197.3726" y1="631.3438" y2="631.3438"/><text fill="#000000" font-family="sans-serif" font-size="13" lengthAdjust="spacing" textLength="418.5835" x="767.7891" y="626.6016">Intent: Provision OAuth Client (POST /internal/keycloak/provision)</text></g><g class="message" data-entity-1="part6" data-entity-2="part4" id="msg14"><polygon fill="#181818" points="771.7891,656.6543,761.7891,660.6543,771.7891,664.6543,767.7891,660.6543" style="stroke:#181818;stroke-width:1;"/><line style="stroke:#181818;stroke-width:1;stroke-dasharray:2,2;" x1="765.7891" x2="1202.3726" y1="660.6543" y2="660.6543"/><text fill="#000000" font-family="sans-serif" font-size="13" lengthAdjust="spacing" textLength="139.8135" x="777.7891" y="655.9121">client_id, client_secret</text></g><g class="message" data-entity-1="part4" data-entity-2="part3" id="msg15"><polygon fill="#181818" points="544.3149,685.9648,534.3149,689.9648,544.3149,693.9648,540.3149,689.9648" style="stroke:#181818;stroke-width:1;"/><line style="stroke:#181818;stroke-width:1;stroke-dasharray:2,2;" x1="538.3149" x2="759.7891" y1="689.9648" y2="689.9648"/><text fill="#000000" font-family="sans-serif" font-size="13" lengthAdjust="spacing" textLength="119.1074" x="550.3149" y="685.2227">Admission Success</text></g><g class="message" data-entity-1="part3" data-entity-2="part2" id="msg16"><polygon fill="#181818" points="329.9229,715.2754,319.9229,719.2754,329.9229,723.2754,325.9229,719.2754" style="stroke:#181818;stroke-width:1;"/><line style="stroke:#181818;stroke-width:1;stroke-dasharray:2,2;" x1="323.9229" x2="532.3149" y1="719.2754" y2="719.2754"/><text fill="#000000" font-family="sans-serif" font-size="13" lengthAdjust="spacing" textLength="141.1401" x="335.9229" y="714.5332">Return API Credentials</text></g><g class="message" data-entity-1="part2" data-entity-2="part1" id="msg17"><polygon fill="#181818" points="86.2178,744.5859,76.2178,748.5859,86.2178,752.5859,82.2178,748.5859" style="stroke:#181818;stroke-width:1;"/><line style="stroke:#181818;stroke-width:1;stroke-dasharray:2,2;" x1="80.2178" x2="317.9229" y1="748.5859" y2="748.5859"/><text fill="#000000" font-family="sans-serif" font-size="13" lengthAdjust="spacing" textLength="118.606" x="92.2178" y="743.8438">Display Dashboard</text></g><?plantuml-src TLNRRXit47tdLmnKe9M0E4hIDpy4q0Ks1Clmmb9R131GZ7V74Y4koGwvSlRlC-JkwjAcUgB8ENCvPsOs7BJro5X3WHnrgJtQM61LQRk3BvzKEBtFtVVX_lCdfR2CZc6qtMkkChQ5WjrHLyGZm03Reb2lxZkCPiKADgxv1yPtx6maMqr6yCjQx_PnqQ9L_XmNHaiwad6U60h74KrsrHsL844ygixj7Cj3kddK9Rj0VDGbXS7nlJCLsMTNVIDZtFjrZ8tdLCJ2kAQ2UupqZcsEqv-lhHTkPtNKHu8rjiGlThobsZj60tyvFho9-qb6pndrlwhPKDcm5cRMwqS1BjS5t6aJYJk4FCl3DMGbUSSCwQCzK5iQXmTuTEMXmmrNPqPwCUPe3p2hQcspNJuf9Kh0pTUUHRY5JVDQwnZWoRuwv2pep7kZIupQsLGWOoNb2g4sq0TufbrZK0Aqi5fELEz7FFPyYSlYQRE5QH2Lfz7xC4NnrwhXNKmpEMAuIbpAjVI7zoc_42JcGAHIdPq0Ecu4yISQNGa2FBlQH_WLc6edSXIhbUgjRYuYB0oXfTIIhN1KAMMTW0N09vFPJZY6pq17D4rEfXJNHgCjwUEBxPw_03Ssm9B8m-nnFNtuje3v_KBUdtKumAPqJ22MnEAX-YWQc0WNJrzXksSAU-b466-Qu4LYrmIX44GgyGHtgCr4WVnELMV59CCxWxi0U5O5tWHKess4UQQZflSCpBLnwdW13Io2noP8KTfMzAQ5S38jD27fFBJkRm6gXl7L48Ge-MTdNV0BAZTwPz7aF6Io9V8OaybpZh-aKYVj9efCeClAdnvWF6kYkvbb74tEgLxB83Pr8WyM9_f5taHDWI6axlv_zNw7ghLO2pr6gXjq22_s3za5OiD4TR9B5PjKOS_nvI0yKspOmZNYF-EouDP7jsFq-pvQ45w4bHFYF17NpDr2oAEM_qae6aSdEskYVYwRT4jJYswD5xsFgUrpf8oyc8pJGaZJ9EiqtdQBDua1JqBgNcP0fzh7tLXgiM99PtheaLC_s4_KoTlb39KP_xUkFWp7G2LJl23nFFkdAPR5KieE3kUv_mdPwMkmOCfRJdhhn9sO9k9lOQc32DR24iC-xoVr0m00?></g></svg>