<svg xmlns="http://www.w3.org/2000/svg" xmlns:xlink="http://www.w3.org/1999/xlink" contentStyleType="text/css" height="940px" preserveAspectRatio="none" style="width:2232px;height:940px;background:#FFFFFF;" version="1.1" viewBox="0 0 2232 940" width="2232px" zoomAndPan="magnify"><defs/><g><rect fill="#E0FFFF" height="928.0059" style="stroke:#181818;stroke-width:0.5;" width="175" x="231.5" y="6"/><text fill="#000000" font-family="sans-serif" font-size="13" font-weight="bold" lengthAdjust="spacing" textLength="134" x="252" y="18.5684">API Souq (Frontend)</text><rect fill="#FAFAD2" height="928.0059" style="stroke:#181818;stroke-width:0.5;" width="1316" x="428.5" y="6"/><text fill="#000000" font-family="sans-serif" font-size="13" font-weight="bold" lengthAdjust="spacing" textLength="153" x="1010" y="18.5684">Backend Microservices</text><rect fill="none" height="132.1973" style="stroke:#000000;stroke-width:1.5;" width="1142.5" x="1083" y="414.2148"/><line style="stroke:#181818;stroke-width:0.5;stroke-dasharray:5.0,5.0;" x1="76" x2="76" y1="81.4883" y2="854.5176"/><line style="stroke:#181818;stroke-width:0.5;stroke-dasharray:5.0,5.0;" x1="318.5" x2="318.5" y1="81.4883" y2="854.5176"/><line style="stroke:#181818;stroke-width:0.5;stroke-dasharray:5.0,5.0;" x1="534.5" x2="534.5" y1="81.4883" y2="854.5176"/><line style="stroke:#181818;stroke-width:0.5;stroke-dasharray:5.0,5.0;" x1="747.5" x2="747.5" y1="81.4883" y2="854.5176"/><line style="stroke:#181818;stroke-width:0.5;stroke-dasharray:5.0,5.0;" x1="969.5" x2="969.5" y1="81.4883" y2="854.5176"/><line style="stroke:#181818;stroke-width:0.5;stroke-dasharray:5.0,5.0;" x1="1214.5" x2="1214.5" y1="81.4883" y2="854.5176"/><line style="stroke:#181818;stroke-width:0.5;stroke-dasharray:5.0,5.0;" x1="1392.5" x2="1392.5" y1="81.4883" y2="854.5176"/><line style="stroke:#181818;stroke-width:0.5;stroke-dasharray:5.0,5.0;" x1="1658.5" x2="1658.5" y1="81.4883" y2="854.5176"/><line style="stroke:#181818;stroke-width:0.5;stroke-dasharray:5.0,5.0;" x1="1804.5" x2="1804.5" y1="81.4883" y2="854.5176"/><text fill="#000000" font-family="sans-serif" font-size="14" lengthAdjust="spacing" textLength="136" x="5" y="78.5352">Third Party Provider</text><ellipse cx="76" cy="13.5" fill="#E2E2F0" rx="8" ry="8" style="stroke:#181818;stroke-width:0.5;"/><path d="M76,21.5 L76,48.5 M63,29.5 L89,29.5 M76,48.5 L63,63.5 M76,48.5 L89,63.5 " fill="none" style="stroke:#181818;stroke-width:0.5;"/><text fill="#000000" font-family="sans-serif" font-size="14" lengthAdjust="spacing" textLength="136" x="5" y="867.0527">Third Party Provider</text><ellipse cx="76" cy="878.5059" fill="#E2E2F0" rx="8" ry="8" style="stroke:#181818;stroke-width:0.5;"/><path d="M76,886.5059 L76,913.5059 M63,894.5059 L89,894.5059 M76,913.5059 L63,928.5059 M76,913.5059 L89,928.5059 " fill="none" style="stroke:#181818;stroke-width:0.5;"/><rect fill="#E2E2F0" height="30.4883" rx="2.5" ry="2.5" style="stroke:#181818;stroke-width:0.5;" width="127" x="255.5" y="50"/><text fill="#000000" font-family="sans-serif" font-size="14" lengthAdjust="spacing" textLength="113" x="262.5" y="70.5352">Developer Portal</text><rect fill="#E2E2F0" height="30.4883" rx="2.5" ry="2.5" style="stroke:#181818;stroke-width:0.5;" width="127" x="255.5" y="853.5176"/><text fill="#000000" font-family="sans-serif" font-size="14" lengthAdjust="spacing" textLength="113" x="262.5" y="874.0527">Developer Portal</text><rect fill="#E2E2F0" height="30.4883" rx="2.5" ry="2.5" style="stroke:#181818;stroke-width:0.5;" width="165" x="452.5" y="50"/><text fill="#000000" font-family="sans-serif" font-size="14" lengthAdjust="spacing" textLength="151" x="459.5" y="70.5352">Spring Cloud Gateway</text><rect fill="#E2E2F0" height="30.4883" rx="2.5" ry="2.5" style="stroke:#181818;stroke-width:0.5;" width="165" x="452.5" y="853.5176"/><text fill="#000000" font-family="sans-serif" font-size="14" lengthAdjust="spacing" textLength="151" x="459.5" y="874.0527">Spring Cloud Gateway</text><rect fill="#E2E2F0" height="30.4883" rx="2.5" ry="2.5" style="stroke:#181818;stroke-width:0.5;" width="160" x="667.5" y="50"/><text fill="#000000" font-family="sans-serif" font-size="14" lengthAdjust="spacing" textLength="146" x="674.5" y="70.5352">Harness Orchestrator</text><rect fill="#E2E2F0" height="30.4883" rx="2.5" ry="2.5" style="stroke:#181818;stroke-width:0.5;" width="160" x="667.5" y="853.5176"/><text fill="#000000" font-family="sans-serif" font-size="14" lengthAdjust="spacing" textLength="146" x="674.5" y="874.0527">Harness Orchestrator</text><rect fill="#E2E2F0" height="30.4883" rx="2.5" ry="2.5" style="stroke:#181818;stroke-width:0.5;" width="184" x="877.5" y="50"/><text fill="#000000" font-family="sans-serif" font-size="14" lengthAdjust="spacing" textLength="170" x="884.5" y="70.5352">Cognitive Circuit Breaker</text><rect fill="#E2E2F0" height="30.4883" rx="2.5" ry="2.5" style="stroke:#181818;stroke-width:0.5;" width="184" x="877.5" y="853.5176"/><text fill="#000000" font-family="sans-serif" font-size="14" lengthAdjust="spacing" textLength="170" x="884.5" y="874.0527">Cognitive Circuit Breaker</text><rect fill="#E2E2F0" height="46.9766" rx="2.5" ry="2.5" style="stroke:#181818;stroke-width:0.5;" width="158" x="1135.5" y="33.5117"/><text fill="#000000" font-family="sans-serif" font-size="14" lengthAdjust="spacing" textLength="105" x="1162" y="54.0469">Cognitive Layer</text><text fill="#000000" font-family="sans-serif" font-size="14" lengthAdjust="spacing" textLength="144" x="1142.5" y="70.5352">(Temporal Workflow)</text><rect fill="#E2E2F0" height="46.9766" rx="2.5" ry="2.5" style="stroke:#181818;stroke-width:0.5;" width="158" x="1135.5" y="853.5176"/><text fill="#000000" font-family="sans-serif" font-size="14" lengthAdjust="spacing" textLength="105" x="1162" y="874.0527">Cognitive Layer</text><text fill="#000000" font-family="sans-serif" font-size="14" lengthAdjust="spacing" textLength="144" x="1142.5" y="890.541">(Temporal Workflow)</text><rect fill="#E2E2F0" height="46.9766" rx="2.5" ry="2.5" style="stroke:#181818;stroke-width:0.5;" width="98" x="1343.5" y="33.5117"/><text fill="#000000" font-family="sans-serif" font-size="14" lengthAdjust="spacing" textLength="84" x="1350.5" y="54.0469">Security LLM</text><text fill="#000000" font-family="sans-serif" font-size="14" lengthAdjust="spacing" textLength="74" x="1355.5" y="70.5352">(DLP Filter)</text><rect fill="#E2E2F0" height="46.9766" rx="2.5" ry="2.5" style="stroke:#181818;stroke-width:0.5;" width="98" x="1343.5" y="853.5176"/><text fill="#000000" font-family="sans-serif" font-size="14" lengthAdjust="spacing" textLength="84" x="1350.5" y="874.0527">Security LLM</text><text fill="#000000" font-family="sans-serif" font-size="14" lengthAdjust="spacing" textLength="74" x="1355.5" y="890.541">(DLP Filter)</text><rect fill="#E2E2F0" height="46.9766" rx="2.5" ry="2.5" style="stroke:#181818;stroke-width:0.5;" width="124" x="1596.5" y="33.5117"/><text fill="#000000" font-family="sans-serif" font-size="14" lengthAdjust="spacing" textLength="91" x="1613" y="54.0469">Identity Layer</text><text fill="#000000" font-family="sans-serif" font-size="14" lengthAdjust="spacing" textLength="110" x="1603.5" y="70.5352">(Keycloak Mock)</text><rect fill="#E2E2F0" height="46.9766" rx="2.5" ry="2.5" style="stroke:#181818;stroke-width:0.5;" width="124" x="1596.5" y="853.5176"/><text fill="#000000" font-family="sans-serif" font-size="14" lengthAdjust="spacing" textLength="91" x="1613" y="874.0527">Identity Layer</text><text fill="#000000" font-family="sans-serif" font-size="14" lengthAdjust="spacing" textLength="110" x="1603.5" y="890.541">(Keycloak Mock)</text><text fill="#000000" font-family="sans-serif" font-size="14" lengthAdjust="spacing" textLength="82" x="1760.5" y="78.5352">Bank Admin</text><ellipse cx="1804.5" cy="13.5" fill="#E2E2F0" rx="8" ry="8" style="stroke:#181818;stroke-width:0.5;"/><path d="M1804.5,21.5 L1804.5,48.5 M1791.5,29.5 L1817.5,29.5 M1804.5,48.5 L1791.5,63.5 M1804.5,48.5 L1817.5,63.5 " fill="none" style="stroke:#181818;stroke-width:0.5;"/><text fill="#000000" font-family="sans-serif" font-size="14" lengthAdjust="spacing" textLength="82" x="1760.5" y="867.0527">Bank Admin</text><ellipse cx="1804.5" cy="878.5059" fill="#E2E2F0" rx="8" ry="8" style="stroke:#181818;stroke-width:0.5;"/><path d="M1804.5,886.5059 L1804.5,913.5059 M1791.5,894.5059 L1817.5,894.5059 M1804.5,913.5059 L1791.5,928.5059 M1804.5,913.5059 L1817.5,928.5059 " fill="none" style="stroke:#181818;stroke-width:0.5;"/><polygon fill="#181818" points="307,124.1094,317,128.1094,307,132.1094,311,128.1094" style="stroke:#181818;stroke-width:1.0;"/><line style="stroke:#181818;stroke-width:1.0;" x1="76" x2="313" y1="128.1094" y2="128.1094"/><text fill="#000000" font-family="sans-serif" font-size="13" lengthAdjust="spacing" textLength="205" x="83" y="108.0566">Submits Onboarding Application</text><text fill="#000000" font-family="sans-serif" font-size="13" lengthAdjust="spacing" textLength="187" x="83" y="123.3672">(Trade License, Regulatory ID)</text><polygon fill="#181818" points="523,153.4199,533,157.4199,523,161.4199,527,157.4199" style="stroke:#181818;stroke-width:1.0;"/><line style="stroke:#181818;stroke-width:1.0;" x1="319" x2="529" y1="157.4199" y2="157.4199"/><text fill="#000000" font-family="sans-serif" font-size="13" lengthAdjust="spacing" textLength="150" x="326" y="152.6777">POST /souq/tpps/apply</text><polygon fill="#181818" points="735.5,182.7305,745.5,186.7305,735.5,190.7305,739.5,186.7305" style="stroke:#181818;stroke-width:1.0;"/><line style="stroke:#181818;stroke-width:1.0;" x1="535" x2="741.5" y1="186.7305" y2="186.7305"/><text fill="#000000" font-family="sans-serif" font-size="13" lengthAdjust="spacing" textLength="111" x="542" y="181.9883">Forwards Request</text><polygon fill="#181818" points="1380.5,212.041,1390.5,216.041,1380.5,220.041,1384.5,216.041" style="stroke:#181818;stroke-width:1.0;"/><line style="stroke:#181818;stroke-width:1.0;" x1="747.5" x2="1386.5" y1="216.041" y2="216.041"/><text fill="#000000" font-family="sans-serif" font-size="13" lengthAdjust="spacing" textLength="182" x="754.5" y="211.2988">Validate prompt &amp; remove PII</text><polygon fill="#181818" points="758.5,241.3516,748.5,245.3516,758.5,249.3516,754.5,245.3516" style="stroke:#181818;stroke-width:1.0;"/><line style="stroke:#181818;stroke-width:1.0;stroke-dasharray:2.0,2.0;" x1="752.5" x2="1391.5" y1="245.3516" y2="245.3516"/><text fill="#000000" font-family="sans-serif" font-size="13" lengthAdjust="spacing" textLength="102" x="764.5" y="240.6094">Cleaned Payload</text><polygon fill="#181818" points="1202.5,270.6621,1212.5,274.6621,1202.5,278.6621,1206.5,274.6621" style="stroke:#181818;stroke-width:1.0;"/><line style="stroke:#181818;stroke-width:1.0;" x1="747.5" x2="1208.5" y1="274.6621" y2="274.6621"/><text fill="#000000" font-family="sans-serif" font-size="13" lengthAdjust="spacing" textLength="316" x="754.5" y="269.9199">Initiates TppAdmissionWorkflow (Structured Task)</text><polygon fill="#181818" points="980.5,299.9727,970.5,303.9727,980.5,307.9727,976.5,303.9727" style="stroke:#181818;stroke-width:1.0;"/><line style="stroke:#181818;stroke-width:1.0;" x1="974.5" x2="1213.5" y1="303.9727" y2="303.9727"/><text fill="#000000" font-family="sans-serif" font-size="13" lengthAdjust="spacing" textLength="148" x="986.5" y="299.2305">Request LLM evaluation</text><polygon fill="#181818" points="1202.5,329.2832,1212.5,333.2832,1202.5,337.2832,1206.5,333.2832" style="stroke:#181818;stroke-width:1.0;"/><line style="stroke:#181818;stroke-width:1.0;" x1="969.5" x2="1208.5" y1="333.2832" y2="333.2832"/><text fill="#000000" font-family="sans-serif" font-size="13" lengthAdjust="spacing" textLength="221" x="976.5" y="328.541">LLM Response (or Fallback if down)</text><path d="M1097,346.2832 L1097,401.2832 L1331,401.2832 L1331,356.2832 L1321,346.2832 L1097,346.2832 " fill="#FEFFDD" style="stroke:#181818;stroke-width:0.5;"/><path d="M1321,346.2832 L1321,356.2832 L1331,356.2832 L1321,346.2832 " fill="#FEFFDD" style="stroke:#181818;stroke-width:0.5;"/><text fill="#000000" font-family="sans-serif" font-size="13" lengthAdjust="spacing" textLength="192" x="1103" y="363.8516">Agent 1 evaluates compliance.</text><text fill="#000000" font-family="sans-serif" font-size="13" lengthAdjust="spacing" textLength="213" x="1103" y="379.1621">Agent 2 runs Deep AML/KYC BGC.</text><text fill="#000000" font-family="sans-serif" font-size="13" lengthAdjust="spacing" textLength="135" x="1103" y="394.4727">Risk Score generated.</text><path d="M1083,414.2148 L1145,414.2148 L1145,421.5254 L1135,431.5254 L1083,431.5254 L1083,414.2148 " fill="#EEEEEE" style="stroke:#000000;stroke-width:1.5;"/><rect fill="none" height="132.1973" style="stroke:#000000;stroke-width:1.5;" width="1142.5" x="1083" y="414.2148"/><text fill="#000000" font-family="sans-serif" font-size="13" font-weight="bold" lengthAdjust="spacing" textLength="17" x="1098" y="427.7832">alt</text><text fill="#000000" font-family="sans-serif" font-size="11" font-weight="bold" lengthAdjust="spacing" textLength="297" x="1160" y="426.8496">[Risk Score &gt; Threshold (Suspicious ID or BGC Fail)]</text><polygon fill="#181818" points="1792.5,451.8359,1802.5,455.8359,1792.5,459.8359,1796.5,455.8359" style="stroke:#181818;stroke-width:1.0;"/><line style="stroke:#181818;stroke-width:1.0;" x1="1214.5" x2="1798.5" y1="455.8359" y2="455.8359"/><text fill="#000000" font-family="sans-serif" font-size="13" lengthAdjust="spacing" textLength="223" x="1221.5" y="451.0938">Flags application for manual review</text><path d="M1809,436.5254 L1809,461.5254 L2210,461.5254 L2210,446.5254 L2200,436.5254 L1809,436.5254 " fill="#FEFFDD" style="stroke:#181818;stroke-width:0.5;"/><path d="M2200,436.5254 L2200,446.5254 L2210,446.5254 L2200,436.5254 " fill="#FEFFDD" style="stroke:#181818;stroke-width:0.5;"/><text fill="#000000" font-family="sans-serif" font-size="13" lengthAdjust="spacing" textLength="380" x="1815" y="454.0938">Workflow pauses indefinitely using Temporal's durable state</text><polygon fill="#181818" points="1225.5,484.1465,1215.5,488.1465,1225.5,492.1465,1221.5,488.1465" style="stroke:#181818;stroke-width:1.0;"/><line style="stroke:#181818;stroke-width:1.0;" x1="1219.5" x2="1803.5" y1="488.1465" y2="488.1465"/><text fill="#000000" font-family="sans-serif" font-size="13" lengthAdjust="spacing" textLength="252" x="1231.5" y="483.4043">Signals approval (adminReviewDecision)</text><line style="stroke:#000000;stroke-width:1.0;stroke-dasharray:2.0,2.0;" x1="1083" x2="2225.5" y1="497.1465" y2="497.1465"/><text fill="#000000" font-family="sans-serif" font-size="11" font-weight="bold" lengthAdjust="spacing" textLength="180" x="1088" y="507.7813">[Risk Score OK (Auto-Approve)]</text><path d="M1093,516.1016 L1093,541.1016 L1335,541.1016 L1335,526.1016 L1325,516.1016 L1093,516.1016 " fill="#FEFFDD" style="stroke:#181818;stroke-width:0.5;"/><path d="M1325,516.1016 L1325,526.1016 L1335,526.1016 L1325,516.1016 " fill="#FEFFDD" style="stroke:#181818;stroke-width:0.5;"/><text fill="#000000" font-family="sans-serif" font-size="13" lengthAdjust="spacing" textLength="221" x="1099" y="533.6699">Automated Compliance &amp; BGC Pass</text><path d="M1107,558.4121 L1107,598.4121 L1321,598.4121 L1321,568.4121 L1311,558.4121 L1107,558.4121 " fill="#FEFFDD" style="stroke:#181818;stroke-width:0.5;"/><path d="M1311,558.4121 L1311,568.4121 L1321,568.4121 L1311,558.4121 " fill="#FEFFDD" style="stroke:#181818;stroke-width:0.5;"/><text fill="#000000" font-family="sans-serif" font-size="13" lengthAdjust="spacing" textLength="193" x="1113" y="575.9805">Agent 3 dynamically generates</text><text fill="#000000" font-family="sans-serif" font-size="13" lengthAdjust="spacing" textLength="162" x="1113" y="591.291">User Agreement Template</text><polygon fill="#181818" points="330,621.3438,320,625.3438,330,629.3438,326,625.3438" style="stroke:#181818;stroke-width:1.0;"/><line style="stroke:#181818;stroke-width:1.0;stroke-dasharray:2.0,2.0;" x1="324" x2="1213.5" y1="625.3438" y2="625.3438"/><text fill="#000000" font-family="sans-serif" font-size="13" lengthAdjust="spacing" textLength="145" x="336" y="620.6016">Return User Agreement</text><polygon fill="#181818" points="307,650.6543,317,654.6543,307,658.6543,311,654.6543" style="stroke:#181818;stroke-width:1.0;"/><line style="stroke:#181818;stroke-width:1.0;" x1="76" x2="313" y1="654.6543" y2="654.6543"/><text fill="#000000" font-family="sans-serif" font-size="13" lengthAdjust="spacing" textLength="219" x="83" y="649.9121">Cryptographically signs agreement</text><polygon fill="#181818" points="1202.5,682.9648,1212.5,686.9648,1202.5,690.9648,1206.5,686.9648" style="stroke:#181818;stroke-width:1.0;"/><line style="stroke:#181818;stroke-width:1.0;" x1="319" x2="1208.5" y1="686.9648" y2="686.9648"/><text fill="#000000" font-family="sans-serif" font-size="13" lengthAdjust="spacing" textLength="193" x="326" y="682.2227">Signal: submitSignature(token)</text><path d="M1219,667.6543 L1219,692.6543 L1489,692.6543 L1489,677.6543 L1479,667.6543 L1219,667.6543 " fill="#FEFFDD" style="stroke:#181818;stroke-width:0.5;"/><path d="M1479,667.6543 L1479,677.6543 L1489,677.6543 L1479,667.6543 " fill="#FEFFDD" style="stroke:#181818;stroke-width:0.5;"/><text fill="#000000" font-family="sans-serif" font-size="13" lengthAdjust="spacing" textLength="249" x="1225" y="685.2227">Workflow resumes upon valid signature</text><polygon fill="#181818" points="1646.5,715.2754,1656.5,719.2754,1646.5,723.2754,1650.5,719.2754" style="stroke:#181818;stroke-width:1.0;"/><line style="stroke:#181818;stroke-width:1.0;" x1="1214.5" x2="1652.5" y1="719.2754" y2="719.2754"/><text fill="#000000" font-family="sans-serif" font-size="13" lengthAdjust="spacing" textLength="420" x="1221.5" y="714.5332">Intent: Provision OAuth Client (POST /internal/keycloak/provision)</text><polygon fill="#181818" points="1225.5,744.5859,1215.5,748.5859,1225.5,752.5859,1221.5,748.5859" style="stroke:#181818;stroke-width:1.0;"/><line style="stroke:#181818;stroke-width:1.0;stroke-dasharray:2.0,2.0;" x1="1219.5" x2="1657.5" y1="748.5859" y2="748.5859"/><text fill="#000000" font-family="sans-serif" font-size="13" lengthAdjust="spacing" textLength="142" x="1231.5" y="743.8438">client_id, client_secret</text><polygon fill="#181818" points="546,773.8965,536,777.8965,546,781.8965,542,777.8965" style="stroke:#181818;stroke-width:1.0;"/><line style="stroke:#181818;stroke-width:1.0;stroke-dasharray:2.0,2.0;" x1="540" x2="1213.5" y1="777.8965" y2="777.8965"/><text fill="#000000" font-family="sans-serif" font-size="13" lengthAdjust="spacing" textLength="121" x="552" y="773.1543">Admission Success</text><polygon fill="#181818" points="330,803.207,320,807.207,330,811.207,326,807.207" style="stroke:#181818;stroke-width:1.0;"/><line style="stroke:#181818;stroke-width:1.0;stroke-dasharray:2.0,2.0;" x1="324" x2="534" y1="807.207" y2="807.207"/><text fill="#000000" font-family="sans-serif" font-size="13" lengthAdjust="spacing" textLength="140" x="336" y="802.4648">Return API Credentials</text><polygon fill="#181818" points="87,832.5176,77,836.5176,87,840.5176,83,836.5176" style="stroke:#181818;stroke-width:1.0;"/><line style="stroke:#181818;stroke-width:1.0;stroke-dasharray:2.0,2.0;" x1="81" x2="318" y1="836.5176" y2="836.5176"/><text fill="#000000" font-family="sans-serif" font-size="13" lengthAdjust="spacing" textLength="119" x="93" y="831.7754">Display Dashboard</text><!--SRC=[TLLDRziu4BtpLmoomAuDD7NRlVbGm9QHh1474Mpl5WK2B1XfOXEcI9MadEhVxoCjoNQtzKdMp9kFzsP6_g1CBPsiA9Skg4BLqeHSbgKoE_hqGVZ1FhVV-_SVFmWXYs0TtMptofK9srBkx56Lx6v8UjhckNYnt-bcbYzfOvjlDBfprWGsvVY6VbkftJvahJIYFkUbcmKVMTkQ7UNM1QbJgDEZ098GKPp2pcLnY6yULU6iPtTK1Vi-yBtL9PkrBR-orlRjEiUcTh69JDkcf7iP-4ssAK_tVEtzbtI6lQSdL-pP1oVHTlBk3DVUcTqP5TIHALEkQ5IWkMDvw3Z9vh_oNicMtRCPRRcghPEQlbXtU4NfumISEwb-O6h3HUCKM5-j7W5Sh7AwKpgmEo5WXk4QiWGd8K6wR0_S5jhA0ptQud32zQ_ER7T2pwKvqAoib4b-wKa8g4otdpk5Q4gRvgLI0MoP5ojT6fPPNMjLoA2iYGqwMQ9TY6KylwCrxneTAMrfkHYBBWuYTbeWPFwqsTB4Ou8ceQxzH29UAtexN7k5fdHdtHkoUeJzra0iqPlWTI84Jlz8hKgWgNQsgWFzJeuh2mtovL9qNhTNOJFDqd2SyXRKb9THap1mMKOT4HHpNzUH6-_HRoyYZJR1DKLe7A9ifJ-CXJWX4IAR0zyL7CKaFahT9Bu4R1T9ed7DlhQWZaOGvKvg_O8z8FLAfNqp26iiEaCtRa3DTb2TFlPXKMA1lhMIfk3tp-Pa_aIkCPuMp3ND7bUJXwyPpUypsDVA7sXJMCS4JyRyS_aUKw43NPW-qtRlsE-nTsYsyJM6pZOUeXBgH2JKglHO47v3vsc6ecnQxZp9yvpGAq2LD0rcmV5HyLi2fjvSt6-01cvhsNWqfKp9hmeoi6wfyN7o-cNwmrFPEFcYcNn0_IdOAVa5knkrCrAdEd37a7aaeyiwvLzmeQAYOy4Qv5zq_lH0eraJxEqiuNXyBlLQ1lXKaJpA1lenUv6QNEACODz-hTwVLBP6Lg17exjU1_zi_iRbWuzZhg9Vx5Z73ZkEBrTppPW_GzU8_ormvjews9sJzRxBvi4BM1aGvnszPcvAFYr_-XT7VHGiBlHO_5msJ4jJGRS6uqp7k9CfKq9URCTmekAEuUCHfgVFJ1I3da3g7kkfOk-Zqw5Gy78ePtBea9Ewzn-B8ThjHVb5ml-hodVze-V2SRWWyNoDXjt6gIkAUF-7I_GJikEtByFInxkBsHguWsiaVaeBvI5OImlfz-bYYly0]--></g></svg>